<svg width="100%" height="100%" viewBox="0 0 46 53" fill="none" xmlns="http://www.w3.org/2000/svg">
<path fill-rule="evenodd" clip-rule="evenodd" d="M28.3606 1.07205C27.6676 1.43801 27.5721 1.78781 27.5721 3.96132C27.5721 5.65274 27.5934 5.89069 27.7766 6.24994C28.0067 6.70074 28.592 7.06009 29.0961 7.06009C29.6002 7.06009 30.1855 6.70074 30.4156 6.24994C30.5989 5.89069 30.6201 5.65274 30.6201 3.96132C30.6201 2.2699 30.5989 2.03196 30.4156 1.6727C30.0407 0.937837 29.1229 0.669615 28.3606 1.07205ZM19.5474 4.52276C19.0943 4.62903 18.5628 5.20601 18.472 5.69013C18.3384 6.40203 18.5311 6.71659 19.9746 8.14365C21.4269 9.57924 21.7334 9.75978 22.4461 9.59895C23.3514 9.39484 23.886 8.28731 23.4657 7.48681C23.2239 7.02626 20.6205 4.52012 20.3839 4.52012C20.2673 4.52012 20.1111 4.50203 20.0367 4.47988C19.9622 4.45784 19.7421 4.47704 19.5474 4.52276ZM37.845 4.52073C37.5931 4.58006 37.1485 4.95181 36.187 5.90715C35.4644 6.62504 34.8078 7.33593 34.7278 7.48681C34.305 8.28477 34.8401 9.39463 35.7461 9.59895C36.4588 9.75978 36.7653 9.57924 38.2176 8.14365C39.6674 6.71049 39.854 6.40366 39.7179 5.67794C39.634 5.2305 38.989 4.52012 38.6666 4.52012C38.5529 4.52012 38.3989 4.50203 38.3245 4.47988C38.2501 4.45784 38.0344 4.47612 37.845 4.52073ZM28.0094 10.504C27.8309 10.6162 27.6102 10.8217 27.5192 10.9607C27.428 11.0997 27.176 12.0899 26.9589 13.161C26.3089 16.3684 25.8501 17.7279 24.9653 19.0682C24.106 20.3699 23.059 21.1237 19.5966 22.9338C18.3672 23.5765 16.8722 24.3712 16.2742 24.6997L15.5487 25.0984C15.3324 25.2173 15.2157 25.4605 15.2582 25.7035C15.2974 25.927 15.3294 31.3905 15.3294 37.8446V48.7534C15.3294 49.3009 15.2472 49.8452 15.0856 50.3683C14.9514 50.8023 14.862 51.1777 14.8869 51.2026C14.9118 51.2275 15.7302 51.452 16.7056 51.7015C18.7332 52.2201 21.1899 52.6231 23.2542 52.7755C25.3743 52.9319 40.6893 52.9163 41.2254 52.7571C41.4767 52.6824 41.8272 52.4492 42.1036 52.1729C43.0477 51.2288 43.0477 49.9617 42.1036 49.0176C41.4927 48.4067 41.1161 48.3093 39.3672 48.3093C37.667 48.3093 37.2662 48.1766 36.9205 47.4991C36.6634 46.9951 36.6614 46.5797 36.9133 46.0856C37.3072 45.3136 37.2842 45.3183 40.9324 45.2613C44.0461 45.2127 44.2014 45.201 44.6055 44.9849C45.3442 44.5899 45.8599 43.7637 45.8599 42.9753C45.8599 42.0958 45.0988 41.0587 44.2734 40.8135C43.9856 40.7281 42.9307 40.6894 40.8911 40.6894C38.121 40.6894 37.9009 40.676 37.5262 40.4848C37.0754 40.2548 36.716 39.6695 36.716 39.1654C36.716 38.7443 37.0464 38.1225 37.3959 37.8855C37.6573 37.7084 37.9533 37.6879 40.9324 37.6414C44.0461 37.5927 44.2014 37.581 44.6055 37.3649C45.3442 36.9699 45.8599 36.1437 45.8599 35.3554C45.8599 34.4759 45.0988 33.4388 44.2734 33.1936C43.9856 33.1081 42.9307 33.0694 40.8911 33.0694C38.121 33.0694 37.9009 33.056 37.5262 32.8649C37.0754 32.6349 36.716 32.0496 36.716 31.5455C36.716 31.1243 37.0464 30.5025 37.3959 30.2656C37.6573 30.0884 37.9533 30.068 40.9324 30.0215C44.0461 29.9728 44.2014 29.9611 44.6055 29.745C45.3442 29.35 45.8599 28.5238 45.8599 27.7355C45.8599 26.8559 45.0988 25.8188 44.2734 25.5737C43.9628 25.4814 42.1694 25.4495 37.3007 25.4495H31.6933C31.2337 25.4495 30.9144 24.9919 31.073 24.5605C31.2528 24.0716 31.6416 23.1 31.9369 22.4015C33.2707 19.2467 33.6017 18.0353 33.6026 16.3056C33.6033 14.8488 33.435 14.2048 32.7486 13.0397C31.6697 11.2084 29.0876 9.82673 28.0094 10.504ZM0.928891 22.611C0.696737 22.7337 0.469562 22.9673 0.344697 23.2121C0.142921 23.6076 0.140381 23.7876 0.140381 37.6414C0.140381 51.5009 0.142819 51.675 0.3449 52.0711C0.476572 52.3293 0.692368 52.5451 0.950531 52.6767C1.32828 52.8695 1.54448 52.8812 4.69446 52.8812C6.54335 52.8812 8.28171 52.8349 8.58417 52.7775C10.4089 52.4315 11.8825 50.9579 12.2285 49.1332C12.3705 48.3849 12.3705 26.8979 12.2285 26.1496C11.8825 24.3249 10.4089 22.8513 8.58417 22.5053C8.27785 22.4472 6.55778 22.4035 4.67312 22.406C1.52446 22.4103 1.28439 22.4234 0.928891 22.611ZM8.47414 43.9419C8.92494 44.1719 9.28429 44.7572 9.28429 45.2613C9.28429 45.7655 8.92494 46.3508 8.47414 46.5808C8.25367 46.6933 7.93242 46.7853 7.76031 46.7853C6.98724 46.7853 6.23632 46.0344 6.23632 45.2613C6.23632 44.7727 6.59588 44.1733 7.02483 43.9468C7.51505 43.6881 7.97356 43.6865 8.47414 43.9419Z" fill="url(#paint0_linear_1_7141)"/>
<defs>
<linearGradient id="paint0_linear_1_7141" x1="0.140381" y1="0.88501" x2="57.618" y2="26.4705" gradientUnits="userSpaceOnUse">
<stop stop-color="#FC466B"/>
<stop offset="1" stop-color="#3F5EFB"/>
</linearGradient>
</defs>
</svg>
