<svg width="100%" height="100%" viewBox="0 0 24 25" fill="none" xmlns="http://www.w3.org/2000/svg">
<path d="M11.9101 24.616C18.4894 24.616 23.8231 19.2824 23.8231 12.703C23.8231 6.12367 18.4894 0.790039 11.9101 0.790039C5.3307 0.790039 -0.00292969 6.12367 -0.00292969 12.703C-0.00292969 19.2824 5.3307 24.616 11.9101 24.616Z" fill="white"/>
<path d="M11.9087 21.3092C16.6617 21.3092 20.5147 17.4561 20.5147 12.7032C20.5147 7.95021 16.6617 4.09717 11.9087 4.09717C7.15577 4.09717 3.30273 7.95021 3.30273 12.7032C3.30273 17.4561 7.15577 21.3092 11.9087 21.3092Z" stroke="#222326" stroke-width="1.464"/>
<path d="M13.5475 15.806C13.4895 15.747 13.4893 15.63 13.4303 15.513C13.4303 15.396 13.3727 15.279 13.3727 15.162C13.2557 15.279 13.1381 15.337 13.0201 15.454C12.897 15.5534 12.7598 15.6328 12.6119 15.6891C12.4349 15.7471 12.3186 15.806 12.0846 15.864C11.8933 15.9128 11.6958 15.9328 11.4986 15.9231C11.1777 15.9269 10.8588 15.867 10.5611 15.7471C10.2898 15.6462 10.0339 15.5081 9.80039 15.337C9.59404 15.1637 9.43331 14.9426 9.33164 14.693C9.21204 14.4367 9.1524 14.1567 9.15684 13.874C9.14384 13.5538 9.21206 13.2356 9.35508 12.9488C9.4981 12.6621 9.71065 12.4162 9.97422 12.234C10.6909 11.7868 11.5326 11.5818 12.3746 11.649H13.3746V11.239C13.3812 11.0988 13.3586 10.9588 13.3082 10.8277C13.2578 10.6967 13.1806 10.5776 13.0816 10.478C12.8114 10.2772 12.4806 10.174 12.1441 10.185C12.0079 10.1695 11.8708 10.1823 11.7398 10.2228C11.6089 10.2632 11.4871 10.3304 11.3834 10.42C11.3046 10.4949 11.243 10.586 11.2027 10.687C11.1625 10.788 11.1452 10.8964 11.151 11.005H9.39317C9.38906 10.7219 9.45 10.4415 9.56992 10.185C9.71081 9.91106 9.91094 9.67186 10.1559 9.48497C10.4212 9.28236 10.7177 9.12439 11.0338 9.01707C11.4313 8.89249 11.8458 8.83303 12.2623 8.84105C12.6405 8.83725 13.017 8.89676 13.3756 9.01707C13.7143 9.11335 14.0317 9.27197 14.3121 9.48497C14.5695 9.68394 14.7719 9.9462 14.898 10.2461C15.0437 10.5789 15.1226 10.9368 15.1314 11.3V14.227C15.1177 14.521 15.1381 14.8155 15.191 15.105C15.2333 15.3048 15.292 15.5009 15.3668 15.691V15.808L13.5475 15.806ZM11.8473 14.576C12.0059 14.5893 12.1663 14.5696 12.317 14.518C12.4578 14.4703 12.5938 14.4115 12.7252 14.342C12.8458 14.2982 12.9487 14.216 13.0182 14.108L13.2525 13.874V12.703H12.3746C12.1397 12.6884 11.9037 12.708 11.6744 12.761C11.5027 12.8029 11.3429 12.8834 11.2066 12.9961C11.0896 13.1131 10.9727 13.171 10.9137 13.347C10.8647 13.4779 10.8437 13.6177 10.8531 13.7571C10.8476 13.8658 10.8663 13.9743 10.9068 14.0753C10.9474 14.1763 11.0093 14.2673 11.0885 14.342C11.3031 14.5148 11.5756 14.5986 11.8502 14.576H11.8473Z" fill="#222326"/>
</svg>
