<svg width="100%" height="100%" viewBox="0 0 19 21" fill="none" xmlns="http://www.w3.org/2000/svg">
<path d="M9.46729 20.6898C9.23765 20.6898 9.00951 20.6447 8.79736 20.5568C8.58522 20.4689 8.39231 20.3399 8.22998 20.1775C8.06765 20.0151 7.93984 19.8223 7.85205 19.6101C7.76426 19.3979 7.71911 19.1706 7.71924 18.9409V5.99182L3.7085 10.0009C3.38069 10.3288 2.93585 10.5131 2.47217 10.5132C2.00848 10.5133 1.56378 10.3292 1.23584 10.0013C0.9079 9.67354 0.724215 9.22894 0.724121 8.76526C0.724027 8.30158 0.908033 7.85675 1.23584 7.52881L8.22998 0.533813C8.53649 0.228969 8.94467 0.0486894 9.37646 0.027832H9.46143H9.54834C9.98138 0.0492753 10.3914 0.231078 10.6978 0.537842L17.6958 7.53186C18.0236 7.8598 18.2076 8.30451 18.2075 8.76819C18.2074 9.23187 18.0228 9.67659 17.6948 10.0044C17.3669 10.3322 16.9222 10.5163 16.4585 10.5162C15.9948 10.5161 15.551 10.3318 15.2231 10.0039L11.2124 5.99487V18.9438C11.2119 19.4068 11.028 19.8505 10.7007 20.1779C10.3734 20.5052 9.93019 20.6893 9.46729 20.6898Z" fill="currentColor"/>
</svg>
