<svg width="100%" height="100%" viewBox="0 0 75 75" fill="none" xmlns="http://www.w3.org/2000/svg">
<rect x="3.18359" y="3.97949" width="67.7959" height="67.7959" rx="33.898" fill="#010101"/>
<rect x="3.18359" y="3.97949" width="67.7959" height="67.7959" rx="33.898" stroke="#3A3A3A" stroke-width="6"/>
<g clip-path="url(#clip0_12982_10820)">
<path d="M27.1308 24.8231L37.2916 18.9495L47.4524 24.8231L43.6423 26.8867L37.2916 23.2351L30.7824 26.8867L27.1308 24.8231ZM47.2923 32.1263L43.6407 30.0628L37.2916 33.7144L30.7824 30.0628L27.1308 32.1263V36.4135L33.4815 40.0651V47.5268L37.1331 49.7488L40.7847 47.5268V40.2236L47.1354 36.572V32.1263H47.2923ZM47.2923 43.8737V39.5881L43.6423 41.8101V45.9372L47.2923 43.8737ZM49.9914 45.3032L43.6407 48.9548V53.2404L53.8015 47.3668V35.6194L49.9914 38V45.3032ZM46.3413 28.4747L49.9929 30.6968V34.9839L53.6446 32.7619V28.4747L49.9929 26.2527L46.3413 28.4747ZM33.4815 50.5413V54.827L37.1331 57.049L40.7847 54.827V50.5413L37.1331 52.7634L33.4815 50.5413ZM27.1308 43.8737L30.7824 45.9372V41.6516L27.1308 39.4296V43.8737ZM33.4815 28.4747L37.1331 30.6968L40.9432 28.4747L37.2916 26.2527L33.4815 28.4747ZM24.4317 30.6968L28.2418 28.4747L24.4317 26.2527L20.7816 28.4747V32.7603L24.4332 34.9824V30.6968H24.4317ZM24.4317 38L20.7801 35.7779V47.5253L30.9409 53.3989V49.1133L24.5902 45.4617V38H24.4317Z" fill="#F0B90B"/>
</g>
<defs>
<clipPath id="clip0_12982_10820">
<rect width="38.1011" height="38.1011" fill="white" transform="translate(18.241 18.9495)"/>
</clipPath>
</defs>
</svg>
