<svg width="100%" height="100%" viewBox="0 0 36 22" fill="none" xmlns="http://www.w3.org/2000/svg">
<path d="M35.4619 2.96916C35.4616 2.29489 35.1937 1.64836 34.7168 1.17167C34.2399 0.694984 33.5932 0.427166 32.9189 0.427166H19.458C19.1862 0.426686 18.9163 0.469895 18.6582 0.555157C18.1086 0.698551 17.6259 1.02922 17.2939 1.49015L12.2578 8.45817L4.9292 1.12815C4.69349 0.891312 4.41026 0.706626 4.09863 0.586041C3.78701 0.465455 3.45385 0.411708 3.12012 0.428204H3.01123C2.30301 0.428204 1.62344 0.709432 1.12256 1.21013C0.621678 1.71082 0.340109 2.38997 0.339844 3.09819V18.9082C0.340109 19.6164 0.621678 20.2955 1.12256 20.7962C1.62344 21.2969 2.30301 21.5782 3.01123 21.5782C3.71936 21.5782 4.3982 21.2969 4.89893 20.7962C5.39965 20.2955 5.68115 19.6163 5.68115 18.9082V9.07219L10.5908 13.9822C10.714 14.1261 10.854 14.2547 11.0078 14.3652L11.1572 14.4732C11.684 14.854 12.3402 15.0099 12.9819 14.9068C13.6237 14.8036 14.1982 14.4499 14.5791 13.9232L19.5342 7.0662L23.022 11.0662L18.1841 17.3102C18.0748 17.4512 17.982 17.6042 17.9072 17.7662C17.6892 18.1382 17.5745 18.5619 17.5752 18.9932C17.5752 19.6394 17.8318 20.259 18.2886 20.716C18.7454 21.173 19.3651 21.4299 20.0112 21.4302H33.02C33.6664 21.4302 34.2861 21.1734 34.7432 20.7164C35.2002 20.2594 35.457 19.6395 35.457 18.9932C35.457 18.3469 35.2002 17.727 34.7432 17.2699C34.2861 16.8129 33.6664 16.5562 33.02 16.5562H25.2002L28.2432 12.6292C28.2702 12.5942 28.2958 12.5582 28.3208 12.5232C28.7013 12.0996 28.9137 11.5514 28.918 10.982C28.9222 10.4126 28.7184 9.86136 28.3442 9.43217L24.9238 5.51219H32.9141C33.2484 5.51285 33.5796 5.44755 33.8887 5.32005C34.1978 5.19255 34.4787 5.00535 34.7153 4.76915C34.952 4.53294 35.14 4.25238 35.2681 3.94352C35.3962 3.63467 35.4619 3.30353 35.4619 2.96916Z" fill="currentColor"/>
</svg>
