<svg width="100%" height="100%" viewBox="0 0 10 10" fill="none" xmlns="http://www.w3.org/2000/svg">
<path d="M9.63989 8.64556C9.77198 8.77765 9.84619 8.9568 9.84619 9.1436C9.84619 9.33041 9.77198 9.50956 9.63989 9.64165C9.5078 9.77374 9.32865 9.84795 9.14185 9.84795C8.95504 9.84795 8.77589 9.77374 8.6438 9.64165L4.92368 5.92036L1.20239 9.64048C1.0703 9.77257 0.891149 9.84678 0.704345 9.84678C0.517541 9.84678 0.338388 9.77257 0.206298 9.64048C0.0742076 9.50839 1.9683e-09 9.32924 0 9.14243C-1.9683e-09 8.95563 0.0742076 8.77647 0.206298 8.64438L3.92759 4.92427L0.20747 1.20298C0.0753793 1.07089 0.0011719 0.891734 0.0011719 0.704931C0.0011719 0.518127 0.0753793 0.338974 0.20747 0.206884C0.33956 0.0747935 0.518713 0.000585841 0.705517 0.000585839C0.89232 0.000585837 1.07147 0.0747935 1.20356 0.206884L4.92368 3.92817L8.64497 0.206298C8.77706 0.0742074 8.95621 -3.11215e-09 9.14302 0C9.32982 3.11215e-09 9.50898 0.0742074 9.64106 0.206298C9.77316 0.338388 9.84736 0.517541 9.84736 0.704345C9.84736 0.891148 9.77316 1.0703 9.64106 1.20239L5.91978 4.92427L9.63989 8.64556Z" fill="currentColor"/>
</svg>
