<svg width="100%" height="100%" viewBox="0 0 512 512" fill="none" xmlns="http://www.w3.org/2000/svg">
<path d="M480.857 230.857L268.857 442.571C265.238 446.19 260.952 448 256 448C251.048 448 246.762 446.19 243.143 442.571L31.1429 230.857C27.5239 227.238 25.7144 222.905 25.7144 217.857C25.7144 212.809 27.5239 208.476 31.1429 204.857L78.5715 157.714C82.1905 154.095 86.4763 152.286 91.4286 152.286C96.381 152.286 100.667 154.095 104.286 157.714L256 309.429L407.714 157.714C411.333 154.095 415.619 152.286 420.572 152.286C425.524 152.286 429.81 154.095 433.429 157.714L480.857 204.857C484.476 208.476 486.286 212.809 486.286 217.857C486.286 222.905 484.476 227.238 480.857 230.857Z" fill="currentColor"/>
</svg>
