<svg width="100%" height="100%" viewBox="0 0 26 25" fill="none" xmlns="http://www.w3.org/2000/svg">
<path d="M25.1859 12.1111V12.062C25.1386 9.64675 24.3791 7.29929 23.0028 5.31395C21.6265 3.32862 19.6947 1.79387 17.4496 0.90221C15.2044 0.0105482 12.746 -0.198378 10.3827 0.301746C8.01931 0.80187 5.85637 1.98879 4.1649 3.71349C2.47344 5.43819 1.32891 7.62392 0.874866 9.99657C0.42082 12.3692 0.677484 14.8232 1.61266 17.0505C2.54783 19.2779 4.11997 21.1795 6.1317 22.5168C8.14344 23.8542 10.5051 24.5678 12.9208 24.5681C16.0223 24.5708 19.0056 23.3777 21.2499 21.237C21.4617 21.0332 21.5855 20.7548 21.5951 20.4609C21.6046 20.1671 21.4993 19.8811 21.3011 19.6639C21.103 19.4468 20.828 19.3156 20.5345 19.2982C20.2411 19.2809 19.9522 19.3787 19.7298 19.571L19.7049 19.5951C18.7362 20.5153 17.5915 21.2303 16.3397 21.6973C15.0879 22.1642 13.755 22.3736 12.4203 22.3127C11.0856 22.2518 9.77671 21.9219 8.57262 21.3429C7.36853 20.7639 6.29385 19.9477 5.41295 18.9431L10.6517 10.5431V14.4291C10.6517 16.2881 11.3758 16.892 11.9798 17.061C12.5838 17.23 13.5011 17.109 14.4911 15.54L17.3641 10.88C17.4413 10.744 17.5296 10.6149 17.6288 10.494V12.8601C17.5744 13.6087 17.7229 14.358 18.0585 15.0294C18.3941 15.7008 18.9046 16.2693 19.536 16.675C20.0932 16.9783 20.722 17.1249 21.3558 17.0994C21.9897 17.0738 22.6051 16.8771 23.1361 16.53C23.8421 16.0444 24.4044 15.3781 24.765 14.6008C25.1256 13.8235 25.2711 12.9637 25.1859 12.1111ZM21.9989 14.5491C21.8061 14.6816 21.5818 14.7606 21.3485 14.7782C21.1152 14.7958 20.8812 14.7512 20.6708 14.649C20.3961 14.4346 20.1809 14.1534 20.0458 13.8321C19.9106 13.5109 19.86 13.1604 19.8988 12.8141V10.086C19.8988 8.78605 19.3908 7.84111 18.5218 7.59911C17.0498 7.16511 15.9392 8.97499 15.5292 9.65099L12.9208 13.828V8.68602C12.8968 7.50302 12.511 6.80205 11.787 6.58605C11.304 6.44105 10.5798 6.51404 9.87877 7.57604L4.0609 16.895C3.28616 15.4207 2.88014 13.7806 2.8778 12.1151C2.86455 10.7877 3.11484 9.47086 3.61364 8.24071C4.11243 7.01056 4.85011 5.89154 5.78405 4.94823C6.71799 4.00492 7.82944 3.25603 9.05455 2.74498C10.2797 2.23394 11.5938 1.97081 12.9213 1.97081C14.2487 1.97081 15.5633 2.23394 16.7884 2.74498C18.0136 3.25603 19.125 4.00492 20.0589 4.94823C20.9929 5.89154 21.7306 7.01056 22.2294 8.24071C22.7282 9.47086 22.978 10.7877 22.9647 12.1151V12.1631C23.0277 12.6106 22.9717 13.0668 22.8021 13.4857C22.6325 13.9046 22.3555 14.2714 21.9989 14.5491Z" fill="white"/>
</svg>
