<svg width="100%" height="100%" viewBox="0 0 31 28" fill="none" xmlns="http://www.w3.org/2000/svg">
<path d="M10.2246 9.17969C15.9736 9.17969 20.27 6.90888 20.27 4.87988C20.27 2.85088 15.9696 0.580078 10.2246 0.580078C4.47961 0.580078 0.179688 2.85188 0.179688 4.87988C0.179688 6.90788 4.47561 9.17969 10.2246 9.17969Z" fill="white"/>
<path d="M10.2246 26.4004C11.0316 26.4004 11.838 26.3534 12.6396 26.2607C11.987 25.4228 11.454 24.4982 11.0557 23.5137C10.7797 23.5237 10.5026 23.5303 10.2246 23.5303C7.20377 23.5874 4.20933 22.9608 1.46484 21.6973C1.02065 21.4766 0.591242 21.227 0.179688 20.9502V22.0947C0.179688 24.1277 4.47561 26.4004 10.2246 26.4004Z" fill="white"/>
<path d="M10.2246 20.6611H10.313C10.1926 19.7083 10.1926 18.7439 10.313 17.791H10.2246C7.20377 17.8482 4.20933 17.2216 1.46484 15.958C1.02105 15.7366 0.591691 15.487 0.179688 15.2109V16.3574C0.179688 18.3884 4.47561 20.6611 10.2246 20.6611Z" fill="white"/>
<path d="M10.2256 14.9199C10.5109 14.9199 10.7922 14.915 11.0688 14.9043C11.5118 13.8181 12.1186 12.8063 12.8687 11.9043C11.992 12.0008 11.1105 12.0488 10.2285 12.0488C7.20763 12.1065 4.21308 11.4798 1.46875 10.2158C1.02456 9.99516 0.59515 9.74555 0.183595 9.46875V10.6152C0.180595 12.6482 4.47659 14.9199 10.2256 14.9199Z" fill="white"/>
<path d="M14.531 14.4681C13.6774 15.752 13.1849 17.2419 13.1052 18.7816C13.0255 20.3213 13.3614 21.854 14.0779 23.2191C14.5453 24.1067 15.1633 24.9069 15.9041 25.5834C17.2038 26.7699 18.8361 27.5293 20.5808 27.7601C22.3255 27.9909 24.0988 27.6822 25.6624 26.8744C27.2259 26.0665 28.5047 24.7991 29.3259 23.2425C30.1472 21.686 30.4714 19.9149 30.2556 18.1683C30.0399 16.4217 29.2943 14.7829 28.1189 13.473C26.9436 12.1631 25.395 11.2452 23.6819 10.8421C21.9688 10.4391 20.1735 10.5707 18.5374 11.2191C16.9013 11.8675 15.503 13.0009 14.531 14.4681Z" fill="white"/>
</svg>
