<svg width="100%" height="100%" viewBox="0 0 60 27" fill="none" xmlns="http://www.w3.org/2000/svg">
<path d="M0.750003 18.124C0.750083 18.2414 0.777805 18.3566 0.831546 18.4609C0.885286 18.5653 0.963089 18.6554 1.0586 18.7236L12.273 26.7354C12.3997 26.8256 12.5484 26.8785 12.7036 26.8896C12.8588 26.9008 13.014 26.87 13.1523 26.7988C13.2907 26.7277 13.4071 26.619 13.4883 26.4863C13.5695 26.3536 13.6125 26.2015 13.6128 26.0459V21.8594H59.9858V17.3838H1.48584C1.38893 17.3841 1.29305 17.4041 1.20362 17.4414C1.11418 17.4787 1.0327 17.5328 0.964358 17.6016C0.896014 17.6703 0.842024 17.7522 0.805179 17.8418C0.768333 17.9314 0.74974 18.0271 0.750003 18.124Z" fill="currentColor"/>
<path d="M59.9858 9.05406C59.9856 8.93672 59.9575 8.82147 59.9038 8.71715C59.8501 8.61282 59.7721 8.5228 59.6768 8.45445L48.4629 0.444687C48.3363 0.354099 48.187 0.29986 48.0317 0.288437C47.8765 0.277015 47.7215 0.308172 47.583 0.379258C47.4446 0.450344 47.3282 0.558967 47.2471 0.691758C47.1659 0.824549 47.1227 0.976553 47.1226 1.13219V5.32066H0.75V9.7943H59.25C59.4458 9.79403 59.6331 9.71606 59.7715 9.5775C59.9099 9.43894 59.9878 9.25086 59.9878 9.05504L59.9858 9.05406Z" fill="currentColor"/>
</svg>
