<svg width="100%" height="100%" viewBox="0 0 22 22" fill="none" xmlns="http://www.w3.org/2000/svg">
<path d="M3.36914 21.9771H12.0991C12.9213 21.9771 13.7097 21.6505 14.291 21.0691C14.8724 20.4877 15.1992 19.6992 15.1992 18.8771V10.1481C15.1992 9.3259 14.8724 8.5373 14.291 7.95593C13.7097 7.37457 12.9213 7.04797 12.0991 7.04797H3.36914C2.54738 7.0493 1.75979 7.37632 1.17871 7.9574C0.597635 8.53847 0.270365 9.32631 0.269043 10.1481V18.8771C0.270629 19.6988 0.597692 20.4862 1.17871 21.0673C1.75973 21.6483 2.54746 21.9755 3.36914 21.9771ZM12.0991 9.36804C12.3054 9.36831 12.5031 9.45035 12.6489 9.59619C12.7948 9.74204 12.8767 9.93974 12.877 10.146V18.875C12.8767 19.0813 12.7948 19.279 12.6489 19.4248C12.5031 19.5707 12.3054 19.6528 12.0991 19.6531H3.36914C3.16288 19.6528 2.96518 19.5707 2.81934 19.4248C2.67349 19.279 2.59157 19.0813 2.59131 18.875V10.146C2.59157 9.93974 2.67349 9.74204 2.81934 9.59619C2.96518 9.45035 3.16288 9.36831 3.36914 9.36804H12.0991Z" fill="currentColor"/>
<path d="M17.9189 15.188H18.8892C19.7108 15.1864 20.4986 14.8593 21.0796 14.2783C21.6606 13.6973 21.9877 12.9097 21.9893 12.088V3.35803C21.9877 2.53635 21.6606 1.74874 21.0796 1.16772C20.4986 0.586705 19.7108 0.259642 18.8892 0.258057H10.1592C9.3375 0.259642 8.54977 0.586705 7.96875 1.16772C7.38773 1.74874 7.06067 2.53635 7.05908 3.35803V4.328C7.05908 4.63618 7.1815 4.93174 7.39941 5.14966C7.61733 5.36758 7.91301 5.48999 8.22119 5.48999C8.52937 5.48999 8.82505 5.36758 9.04297 5.14966C9.26089 4.93174 9.3833 4.63618 9.3833 4.328V3.35803C9.38357 3.15178 9.46548 2.95407 9.61133 2.80823C9.75717 2.66238 9.95488 2.58034 10.1611 2.58008H18.8911C19.0974 2.58034 19.2951 2.66238 19.4409 2.80823C19.5868 2.95407 19.6687 3.15178 19.6689 3.35803V12.088C19.6687 12.2943 19.5868 12.492 19.4409 12.6378C19.2951 12.7837 19.0974 12.8657 18.8911 12.866H17.9209C17.6127 12.866 17.3175 12.9885 17.0996 13.2064C16.8817 13.4243 16.7593 13.7199 16.7593 14.0281C16.7593 14.3363 16.8817 14.6318 17.0996 14.8497C17.3175 15.0676 17.6127 15.1901 17.9209 15.1901L17.9189 15.188Z" fill="currentColor"/>
</svg>
