<svg width="100%" height="100%" viewBox="0 0 14 16" fill="none" xmlns="http://www.w3.org/2000/svg">
<path d="M12.2667 0C12.6733 0 13.0633 0.161547 13.3509 0.449103C13.6385 0.736659 13.8 1.12667 13.8 1.53333V10.7333C13.8 11.14 13.6385 11.53 13.3509 11.8176C13.0633 12.1051 12.6733 12.2667 12.2667 12.2667H10.7333V13.8C10.7333 14.2067 10.5718 14.5967 10.2842 14.8842C9.99667 15.1718 9.60667 15.3333 9.2 15.3333H1.53333C1.12667 15.3333 0.736659 15.1718 0.449103 14.8842C0.161547 14.5967 0 14.2067 0 13.8V4.6C0 4.19333 0.161547 3.80333 0.449103 3.51577C0.736659 3.22821 1.12667 3.06667 1.53333 3.06667H3.06667V1.53333C3.06667 1.12667 3.22821 0.736659 3.51577 0.449103C3.80333 0.161547 4.19334 0 4.6 0H12.2667ZM5.36667 9.96667H3.83333C3.63793 9.96688 3.44998 10.0417 3.30788 10.1758C3.16579 10.31 3.08029 10.4933 3.06884 10.6884C3.05738 10.8835 3.12085 11.0756 3.24627 11.2254C3.37169 11.3753 3.54959 11.4716 3.74363 11.4946L3.83333 11.5H5.36667C5.56207 11.4998 5.75003 11.425 5.89212 11.2908C6.03421 11.1567 6.11971 10.9733 6.13117 10.7783C6.14262 10.5832 6.07915 10.3911 5.95373 10.2413C5.82831 10.0914 5.65041 9.99511 5.45637 9.97203L5.36667 9.96667ZM12.2667 1.53333H4.6V3.06667H9.2C9.60667 3.06667 9.99667 3.22821 10.2842 3.51577C10.5718 3.80333 10.7333 4.19333 10.7333 4.6V10.7333H12.2667V1.53333ZM6.9 6.9H3.83333C3.63 6.9 3.435 6.98077 3.29122 7.12455C3.14744 7.26833 3.06667 7.46333 3.06667 7.66667C3.06667 7.87 3.14744 8.065 3.29122 8.20878C3.435 8.35256 3.63 8.43333 3.83333 8.43333H6.9C7.10333 8.43333 7.29834 8.35256 7.44212 8.20878C7.58589 8.065 7.66667 7.87 7.66667 7.66667C7.66667 7.46333 7.58589 7.26833 7.44212 7.12455C7.29834 6.98077 7.10333 6.9 6.9 6.9Z" fill="#FCB808"/>
</svg>
