<svg width="100%" height="100%" viewBox="0 0 49 43" fill="none" xmlns="http://www.w3.org/2000/svg">
<g opacity="1">
<path d="M36.562 39.3818C28.255 39.3818 24.9188 26.3019 23.8228 22.0029C20.9678 10.8349 17.1318 5.40332 12.0938 5.40332C6.02975 5.40332 1.8686 13.0127 1.5166 24.5137H0.46875C0.82475 12.2137 5.30682 4.35938 12.0908 4.35938C20.3958 4.35938 23.7336 17.4403 24.8306 21.7383C27.6836 32.9063 31.5206 38.3379 36.5596 38.3379C42.6226 38.3379 46.7837 30.7256 47.1357 19.2256H48.1816C47.8256 31.5256 43.344 39.3808 36.562 39.3818Z" fill="currentColor"/>
<path d="M11.8839 8.79799C14.0947 8.79799 15.8869 7.00579 15.8869 4.79499C15.8869 2.5842 14.0947 0.791992 11.8839 0.791992C9.67306 0.791992 7.88086 2.5842 7.88086 4.79499C7.88086 7.00579 9.67306 8.79799 11.8839 8.79799Z" fill="currentColor"/>
<path d="M37.004 42.633C39.2148 42.633 41.007 40.8407 41.007 38.63C41.007 36.4192 39.2148 34.627 37.004 34.627C34.7932 34.627 33.001 36.4192 33.001 38.63C33.001 40.8407 34.7932 42.633 37.004 42.633Z" fill="currentColor"/>
</g>
</svg>
