<svg width="100%" height="100%" viewBox="0 0 25 19" fill="none" xmlns="http://www.w3.org/2000/svg">
<path d="M24.4987 13.8968V12.1944V11.996C24.4448 10.9442 24.3051 9.89842 24.081 8.86901C23.5136 6.3424 22.4703 3.94491 21.0064 1.80256C20.9048 1.6478 20.7586 1.52712 20.5867 1.45633C19.0964 0.813123 17.5349 0.346935 15.9343 0.0674438C15.8424 0.0674438 15.8243 0.150759 15.7943 0.210283C15.6324 0.532704 15.4684 0.853137 15.3175 1.18052C15.2645 1.29461 15.2228 1.34321 15.0779 1.32139C14.2175 1.19539 13.3487 1.13438 12.4791 1.13886C11.6175 1.13462 10.7566 1.19563 9.90429 1.32139C9.76836 1.34321 9.72733 1.29561 9.67735 1.19045C9.51944 0.860091 9.35182 0.533705 9.18591 0.207316C9.15493 0.1468 9.13587 0.0684127 9.04292 0.0684127C8.98595 0.0813095 8.93006 0.097184 8.87309 0.107105C7.29832 0.387863 5.76337 0.856906 4.30223 1.50395C4.18895 1.54981 4.09297 1.62955 4.02747 1.73211C3.70963 2.21722 3.40173 2.70732 3.11388 3.2103C1.03656 6.77411 0.14136 10.8963 0.555155 14.993C0.556134 15.034 0.567051 15.0741 0.586877 15.11C0.606703 15.1459 0.635118 15.1765 0.669354 15.1994C2.44274 16.4787 4.41493 17.4613 6.50811 18.1081C6.55041 18.1294 6.59944 18.1335 6.64476 18.1196C6.69007 18.1057 6.72828 18.0749 6.75114 18.0337C7.17408 17.4487 7.55705 16.8362 7.89752 16.2004C7.96049 16.0843 7.93942 16.0446 7.81748 16.0019C7.27839 15.8006 6.75529 15.5595 6.25238 15.2807C5.92355 15.1002 5.92839 15.1051 6.21724 14.865C6.26895 14.8113 6.33742 14.7763 6.41148 14.7655C6.48554 14.7547 6.56113 14.7688 6.62621 14.8055C8.26508 15.5387 10.0277 15.96 11.8232 16.0476C13.9987 16.1581 16.1702 15.7598 18.1622 14.8849C18.2847 14.8089 18.4301 14.7785 18.5731 14.7992C18.7161 14.8199 18.847 14.8904 18.9425 14.998C19.0425 15.0972 19.0429 15.1141 18.926 15.1766C18.3691 15.4913 17.7887 15.7639 17.1905 15.992C17.0606 16.0407 17.0105 16.0754 17.0905 16.2262C17.4215 16.8368 17.7887 17.4275 18.19 17.995C18.2036 18.0229 18.2228 18.0477 18.2461 18.0683C18.2694 18.0888 18.2962 18.1046 18.3257 18.1146C18.3551 18.1247 18.3863 18.1288 18.4174 18.1269C18.4485 18.1249 18.4788 18.1168 18.5067 18.1032C20.5727 17.456 22.5215 16.4847 24.2781 15.2262C24.3258 15.1943 24.3647 15.1513 24.3919 15.101C24.419 15.0507 24.4334 14.9945 24.4338 14.9375C24.4508 14.6557 24.47 14.374 24.489 14.0912L24.4987 13.8968ZM9.90624 11.8135C9.70266 12.0157 9.45756 12.1718 9.18738 12.2709C8.91719 12.37 8.62831 12.4098 8.34114 12.3876C8.05396 12.3653 7.77511 12.2816 7.52369 12.142C7.27227 12.0025 7.05435 11.8105 6.88486 11.5793C6.52831 11.1174 6.3389 10.5498 6.34706 9.96792C6.35522 9.38606 6.56039 8.82387 6.92976 8.37198C7.15929 8.09647 7.45773 7.88554 7.79503 7.76017C8.13234 7.63481 8.49671 7.59942 8.8521 7.65754C9.20749 7.71566 9.54139 7.86527 9.82035 8.09142C10.0993 8.31757 10.3137 8.61236 10.4421 8.94639C10.5726 9.22694 10.6455 9.53043 10.6568 9.83925C10.6813 10.2018 10.6275 10.5654 10.4987 10.9056C10.3699 11.2457 10.1696 11.5546 9.91063 11.8115L9.90624 11.8135ZM18.0021 11.7014C17.8039 11.9282 17.5567 12.1077 17.2789 12.2264C17.001 12.3451 16.6997 12.4 16.3975 12.3871C16.0953 12.3741 15.8001 12.2936 15.5337 12.1515C15.2672 12.0094 15.0364 11.8094 14.8587 11.5664C14.4932 11.0872 14.3057 10.4975 14.3273 9.8968C14.3323 9.53756 14.4195 9.18413 14.582 8.86314C14.7446 8.54214 14.9783 8.26193 15.2657 8.04361C15.6641 7.73721 16.1638 7.59072 16.6659 7.63317C17.168 7.67562 17.6358 7.90394 17.9763 8.2728C18.4025 8.74139 18.6412 9.34861 18.6473 9.97987C18.6534 10.6111 18.4265 11.2228 18.0094 11.6994L18.0021 11.7014Z" fill="white"/>
</svg>
