<svg width="100%" height="100%" viewBox="0 0 27 32" fill="none" xmlns="http://www.w3.org/2000/svg">
<path d="M7.5296 9.46313C8.57731 10.3319 9.73335 11.0617 10.9681 11.6343C10.5114 11.8449 10.014 11.9539 9.51104 11.9539C9.00813 11.9539 8.51165 11.8449 8.05499 11.6343C7.72792 11.3905 7.49657 11.04 7.40069 10.6436C7.30481 10.2471 7.35004 9.82941 7.5296 9.46313Z" fill="white"/>
<path d="M20.9717 3.80029C20.0026 2.80438 18.8437 2.01269 17.5635 1.47217C16.2833 0.931644 14.9082 0.653076 13.5186 0.653076C12.1289 0.653076 10.7528 0.931644 9.47266 1.47217C8.19247 2.01269 7.03357 2.80438 6.06445 3.80029C5.50894 3.69994 4.98354 3.47568 4.52637 3.14453C4.0692 2.81338 3.69236 2.38375 3.42383 1.88721C3.46983 2.04221 4.97827 7.07208 11.7803 10.2781C12.2715 9.87957 12.8851 9.66211 13.5176 9.66211C14.1501 9.66211 14.7637 9.87957 15.2549 10.2781C22.0549 7.07208 23.5663 2.04221 23.6113 1.88721C23.3429 2.38363 22.9668 2.81339 22.5098 3.14453C22.0528 3.47567 21.527 3.6998 20.9717 3.80029Z" fill="white"/>
<path d="M16.3037 16.4102C16.1959 16.3163 16.1101 16.1993 16.0537 16.0679C15.9973 15.9365 15.9714 15.794 15.9775 15.6511C15.9775 11.2901 13.5586 11.2722 13.5186 11.2722C13.4786 11.2722 11.0586 11.2901 11.0586 15.6511C11.065 15.794 11.0389 15.9367 10.9824 16.0681C10.926 16.1996 10.8405 16.3164 10.7324 16.4102L9.43262 17.1521C9.43262 17.1521 12.5325 18.6452 13.5205 23.9382C14.5105 18.6452 17.6074 17.1521 17.6074 17.1521L16.3037 16.4102Z" fill="white"/>
<path d="M23.9658 16.5022L23.9395 13.3022C23.9395 13.3022 24.24 8.98616 22.583 6.19116C22.0509 6.95848 21.4605 7.68413 20.8184 8.36206C21.1859 8.85619 21.4089 9.44307 21.4619 10.0566C21.5149 10.6702 21.3966 11.2864 21.1191 11.8362C20.1691 13.8182 17.4805 13.6821 17.4805 13.6821C17.592 14.1715 17.6344 14.6742 17.6064 15.1753L21.0068 17.2092L18.2646 18.7302C18.2646 18.7302 16.7456 19.3541 15.8496 22.2031C14.9536 25.0521 13.5166 29.3691 13.5166 29.3691C13.5166 29.3691 12.0796 25.0541 11.1826 22.2031C10.2856 19.3521 8.76758 18.7302 8.76758 18.7302L6.02539 17.2092L9.42578 15.1753C9.39834 14.6742 9.44073 14.1715 9.55176 13.6821C9.55176 13.6821 6.86504 13.8182 5.91504 11.8362C5.6375 11.2864 5.5183 10.6702 5.57129 10.0566C5.62428 9.44305 5.84716 8.85614 6.21484 8.36206C5.57286 7.68424 4.9838 6.95858 4.45215 6.19116C2.79615 8.98616 3.09375 13.3022 3.09375 13.3022L3.06738 16.5022C3.15519 19.7935 2.27836 23.0385 0.543945 25.8372C1.76758 24.9515 2.92828 23.9827 4.01855 22.9373L6.62402 27.1973L9.28223 24.5652L13.5156 31.4861L17.749 24.5652L20.4072 27.1973L23.0078 22.9373C24.0981 23.9827 25.2588 24.9515 26.4824 25.8372C24.7505 23.0378 23.8759 19.7928 23.9658 16.5022Z" fill="white"/>
<path d="M19.5068 9.46313C18.4593 10.3321 17.3032 11.062 16.0684 11.6343C16.525 11.8449 17.0225 11.9539 17.5254 11.9539C18.0283 11.9539 18.5248 11.8449 18.9814 11.6343C19.3085 11.3905 19.5399 11.04 19.6357 10.6436C19.7316 10.2471 19.6864 9.82941 19.5068 9.46313Z" fill="white"/>
</svg>
