<svg width="100%" height="100%" viewBox="0 0 30 30" fill="none" xmlns="http://www.w3.org/2000/svg">
<path d="M29.5 15C29.5 23.0081 23.0081 29.5 15 29.5C6.99187 29.5 0.5 23.0081 0.5 15C0.5 6.99187 6.99187 0.5 15 0.5C23.0081 0.5 29.5 6.99187 29.5 15Z" stroke="#424242"/>
<path d="M20.2436 16.1822C20.2208 16.1808 15.0669 19.235 14.9994 19.2611C14.9842 19.2524 9.78499 16.1752 9.76025 16.1783C9.77284 16.1968 14.9959 23.5714 14.9994 23.5714C15.0029 23.5714 20.2436 16.1822 20.2436 16.1822Z" fill="white"/>
<path d="M15.001 6.42859L9.77637 15.1667L15.001 18.2615L20.2257 15.1667L15.001 6.42859Z" fill="white"/>
</svg>
