<svg width="100%" height="100%" viewBox="0 0 512 512" fill="none" xmlns="http://www.w3.org/2000/svg">
<path d="M338.286 -2.28882e-05H393.143C395.619 -2.28882e-05 397.762 0.904739 399.571 2.71426C401.381 4.52379 402.286 6.66664 402.286 9.14283L402.286 402.286H457.143C459.619 402.286 461.762 403.19 463.571 405C465.381 406.81 466.286 408.952 466.286 411.429C466.286 413.714 465.333 416 463.429 418.286L372 509.429C370.286 511.143 368.19 512 365.714 512C363.048 512 360.857 511.143 359.143 509.429L267.714 418C266 416.286 265.143 414.095 265.143 411.429C265.143 408.952 266.048 406.81 267.857 405C269.667 403.19 271.81 402.286 274.286 402.286H329.143V9.14283C329.143 6.66664 330.048 4.52379 331.857 2.71426C333.667 0.904739 335.81 -2.28882e-05 338.286 -2.28882e-05ZM182.857 -2.28882e-05C185.524 -2.28882e-05 187.714 0.85712 189.429 2.57141L280.857 94C282.571 95.7143 283.429 97.9047 283.429 100.571C283.429 103.048 282.524 105.19 280.714 107C278.905 108.81 276.762 109.714 274.286 109.714H219.429L219.429 502.857C219.429 505.333 218.524 507.476 216.714 509.286C214.905 511.095 212.762 512 210.286 512H155.429C152.952 512 150.81 511.095 149 509.286C147.19 507.476 146.286 505.333 146.286 502.857L146.286 109.714H91.4286C88.7619 109.714 86.5714 108.857 84.8571 107.143C83.1428 105.429 82.2857 103.238 82.2857 100.571C82.2857 98.2857 83.2381 96 85.1428 93.7143L176.286 2.57141C178 0.85712 180.19 -2.28882e-05 182.857 -2.28882e-05Z" fill="currentColor"/>
</svg>
