<svg width="100%" height="100%" viewBox="0 0 31 31" fill="none" xmlns="http://www.w3.org/2000/svg">
<path d="M14.8999 17.996V25.118C14.8986 26.4349 14.3751 27.6975 13.4438 28.6288C12.5126 29.56 11.25 30.0837 9.93311 30.085H5.94897C4.63197 30.084 3.36925 29.5603 2.43799 28.629C1.50672 27.6978 0.982993 26.435 0.981934 25.118V21.138C0.982993 19.821 1.50672 18.5582 2.43799 17.627C3.36925 16.6957 4.63197 16.1721 5.94897 16.171H13.0701C13.5554 16.171 14.0208 16.3638 14.364 16.707C14.7072 17.0502 14.8999 17.5157 14.8999 18.001V17.996ZM30.7849 21.133V25.118C30.7836 26.4349 30.2601 27.6975 29.3289 28.6288C28.3977 29.56 27.135 30.0837 25.8181 30.085H21.834C20.517 30.0837 19.2544 29.56 18.323 28.6288C17.3916 27.6976 16.8676 26.435 16.866 25.118V17.996C16.8662 17.5107 17.0592 17.0454 17.4023 16.7023C17.7455 16.3592 18.2108 16.1663 18.696 16.166H25.8181C27.135 16.1673 28.3977 16.6911 29.3289 17.6223C30.2601 18.5535 30.7836 19.8161 30.7849 21.133ZM14.8999 5.24902V12.37C14.8999 12.8554 14.7072 13.3208 14.364 13.664C14.0208 14.0072 13.5554 14.2 13.0701 14.2H5.94897C4.63197 14.199 3.36925 13.6753 2.43799 12.744C1.50672 11.8128 0.982993 10.55 0.981934 9.233V5.24902C0.982728 3.93184 1.50621 2.66882 2.4375 1.73734C3.36879 0.805855 4.6318 0.282066 5.94897 0.281006H9.93311C11.2502 0.28233 12.5129 0.806218 13.4441 1.73764C14.3753 2.66906 14.8988 3.93193 14.8999 5.24902ZM30.7849 5.24902V9.233C30.7836 10.5499 30.2601 11.8125 29.3289 12.7437C28.3977 13.675 27.135 14.1987 25.8181 14.2H18.7C18.2147 14.1997 17.7494 14.0069 17.4062 13.6637C17.0631 13.3206 16.8704 12.8553 16.8701 12.37V5.24902C16.8714 3.93183 17.3953 2.66897 18.3267 1.73758C19.2581 0.806185 20.5207 0.28233 21.8379 0.281006H25.822C27.1391 0.28233 28.4018 0.806218 29.333 1.73764C30.2642 2.66906 30.788 3.93193 30.7891 5.24902H30.7849Z" fill="currentColor"/>
</svg>
