<svg width="100%" height="100%" viewBox="0 0 38 37" fill="none" xmlns="http://www.w3.org/2000/svg">
<path fill-rule="evenodd" clip-rule="evenodd" d="M37.0371 14.0609C34.2371 3.40291 22.8583 -1.72703 14.4463 0.870972C23.279 2.51312 31.2654 7.17611 37.0371 14.0609ZM20.541 6.41733C25.8428 8.47216 30.4608 11.9751 33.8682 16.5272C34.8837 18.1171 35.7131 19.8183 36.3408 21.5973C36.5429 22.3644 36.5958 23.1633 36.4961 23.9503C29.3791 12.1813 19.0353 6.2262 5.2793 5.8812C6.36426 5.02714 7.67795 4.51486 9.05469 4.40927C12.9937 4.04764 16.9583 4.74075 20.541 6.41733ZM9.83789 10.3071C18.6869 11.7011 25.9261 15.8662 31.0381 23.3132H31.0361C31.9528 24.8397 32.6015 26.5117 32.9541 28.2571C33.1457 28.9167 33.1397 29.618 32.9375 30.2744C32.7353 30.9308 32.346 31.5137 31.8164 31.9511C30.0354 24.9451 25.4586 20.3922 19.6016 16.9922C13.7766 13.6142 7.58652 11.9342 0.686524 13.8342C0.800599 13.2358 1.06514 12.6762 1.45508 12.2082C1.84502 11.7403 2.34805 11.3793 2.91602 11.1592C5.07225 10.1401 7.4989 9.84134 9.83789 10.3071ZM9.44319 16.9201C16.7702 18.4451 22.7034 22.1091 26.6824 28.5731C27.3316 29.7207 27.8093 30.9581 28.1004 32.244C28.6564 34.383 28.3565 34.773 26.0565 35.473C24.4195 29.944 20.8152 26.0542 15.9842 23.2602C11.1882 20.4902 6.05843 19.279 0.558427 20.579C-0.250579 18.773 0.0112007 18.058 1.73421 17.379C4.20192 16.467 6.88469 16.3072 9.44319 16.9201ZM1.00586 23.789C1.33783 24.7896 1.79846 25.7431 2.37598 26.6251C2.60193 26.9007 3.14423 26.9123 3.68568 26.9239C3.93025 26.9292 4.17465 26.9344 4.38965 26.964C4.41267 26.9666 4.4357 26.9694 4.45874 26.9725C4.47136 26.9741 4.48399 26.9758 4.49663 26.9775C4.51393 26.9799 4.53124 26.9823 4.54855 26.9847L4.54878 26.9848L4.54933 26.9848C4.57767 26.9888 4.60603 26.9928 4.63445 26.9965C4.66023 26.9999 4.68605 27.0031 4.71192 27.006C7.63136 27.371 10.435 28.3709 12.9268 29.9354C15.4185 31.4999 17.5376 33.5912 19.1348 36.0621C19.3348 36.3621 19.6646 36.818 19.9346 36.818C20.6785 36.8137 21.425 36.7296 22.1748 36.6451L22.1753 36.645C22.4705 36.6118 22.7662 36.5785 23.0625 36.5499C21.5015 27.8939 8.62282 20.793 1.00781 23.789H1.00586ZM9.61817 34.3993C7.43971 33.1435 5.53304 31.4669 4.00879 29.467C7.53578 28.907 14.6732 32.9992 16.6982 36.7822C14.2038 36.4653 11.7966 35.6552 9.61817 34.3993Z" fill="url(#paint0_linear_317_180)"/>
<defs>
<linearGradient id="paint0_linear_317_180" x1="37.1191" y1="-4.79492" x2="25.0806" y2="41.6057" gradientUnits="userSpaceOnUse">
<stop offset="0.16" stop-color="#C6F462"/>
<stop offset="0.89" stop-color="#33D9FF"/>
</linearGradient>
</defs>
</svg>
