<svg width="100%" height="100%" viewBox="0 0 196 57" fill="none" xmlns="http://www.w3.org/2000/svg">
<g filter="url(#filter0_d_2004_828)">
<path d="M132.611 33.021C132.611 34.142 132.354 34.9115 131.841 35.3295C131.328 35.7475 130.568 35.9565 129.561 35.9565C128.573 35.9565 127.823 35.7475 127.31 35.3295C126.797 34.9115 126.54 34.142 126.54 33.021C126.54 31.9 126.797 31.159 127.31 30.798C127.842 30.418 128.602 30.228 129.59 30.228C130.578 30.228 131.328 30.418 131.841 30.798C132.354 31.159 132.611 31.9 132.611 33.021ZM142.841 34.8735C142.841 35.1585 142.224 35.3675 140.989 35.5005C139.773 35.6335 138.614 35.7 137.512 35.7C136.41 35.7 135.697 35.6335 135.374 35.5005C135.051 35.3675 134.89 35.1585 134.89 34.8735V16.8044C134.89 16.3104 135.137 15.9589 135.631 15.7499C136.125 15.5409 137.056 15.4364 138.424 15.4364H148.997C149.396 15.4364 149.596 16.1584 149.596 17.6024C149.596 19.0274 149.501 20.1199 149.311 20.8799C149.14 21.6209 148.912 21.9914 148.627 21.9914L142.841 21.7064V23.6445C145.368 23.5304 147.059 23.4734 147.914 23.4734C148.199 23.4734 148.389 23.6254 148.484 23.9294C148.598 24.2334 148.655 24.8225 148.655 25.6965C148.655 26.5514 148.56 27.378 148.37 28.176C148.18 28.955 147.914 29.3445 147.572 29.3445L142.841 29.1735V34.8735ZM157.175 35.9565C155.047 35.9565 153.556 35.4055 152.701 34.3035C151.865 33.2015 151.447 31.2825 151.447 28.5465V20.7945C151.447 20.4144 152.007 20.0534 153.128 19.7114C154.249 19.3504 155.427 19.1699 156.662 19.1699C158.315 19.1699 159.142 19.5974 159.142 20.4524V27.6915C159.142 29.1355 159.199 30.19 159.313 30.855C159.427 31.501 159.712 31.824 160.168 31.824C160.776 31.824 161.08 31.5675 161.08 31.0545V20.7945C161.08 20.3954 161.669 20.0249 162.847 19.6829C164.025 19.3409 165.307 19.1699 166.694 19.1699C168.081 19.1699 168.775 19.5404 168.775 20.2814V34.959C168.775 35.225 168.176 35.415 166.979 35.529C165.782 35.643 164.604 35.7 163.445 35.7C162.286 35.7 161.697 35.548 161.678 35.244L161.393 33.3915H161.165C160.994 34.0755 160.652 34.636 160.139 35.073C159.873 35.301 159.474 35.51 158.942 35.7C158.429 35.871 157.84 35.9565 157.175 35.9565ZM187.948 26.238V35.016C187.948 35.225 187.406 35.396 186.323 35.529C185.24 35.643 184.119 35.7 182.96 35.7C181.82 35.7 181.079 35.6525 180.737 35.5575C180.414 35.4435 180.253 35.263 180.253 35.016V25.953C180.253 25.0979 180.215 24.5374 180.139 24.2714C180.082 24.0054 180.025 23.7679 179.968 23.5589C179.835 23.1979 179.597 23.0174 179.255 23.0174C178.723 23.0174 178.457 23.2739 178.457 23.787V35.016C178.457 35.225 177.916 35.396 176.833 35.529C175.769 35.643 174.657 35.7 173.498 35.7C172.358 35.7 171.617 35.6525 171.275 35.5575C170.933 35.4435 170.762 35.263 170.762 35.016V20.9654C170.762 20.5664 171.304 20.1674 172.387 19.7684C173.489 19.3694 174.648 19.1699 175.864 19.1699C177.08 19.1699 177.764 19.5214 177.916 20.2244L178.172 21.4784H178.372C178.923 20.3764 179.873 19.6069 181.222 19.1699C181.773 18.9989 182.381 18.9134 183.046 18.9134C184.965 18.9134 186.257 19.4929 186.922 20.652C187.606 21.7919 187.948 23.6539 187.948 26.238Z" fill="#F21616"/>
</g>
<g filter="url(#filter1_d_2004_828)">
<path d="M132.611 34.9209C132.611 36.0419 132.354 36.8114 131.841 37.2294C131.328 37.6474 130.568 37.8564 129.561 37.8564C128.573 37.8564 127.823 37.6474 127.31 37.2294C126.797 36.8114 126.54 36.0419 126.54 34.9209C126.54 33.7999 126.797 33.0589 127.31 32.6979C127.842 32.3179 128.602 32.1279 129.59 32.1279C130.578 32.1279 131.328 32.3179 131.841 32.6979C132.354 33.0589 132.611 33.7999 132.611 34.9209ZM142.841 36.7734C142.841 37.0584 142.224 37.2674 140.989 37.4004C139.773 37.5334 138.614 37.5999 137.512 37.5999C136.41 37.5999 135.697 37.5334 135.374 37.4004C135.051 37.2674 134.89 37.0584 134.89 36.7734V18.7044C134.89 18.2104 135.137 17.8589 135.631 17.6499C136.125 17.4409 137.056 17.3364 138.424 17.3364H148.997C149.396 17.3364 149.596 18.0584 149.596 19.5024C149.596 20.9274 149.501 22.0199 149.311 22.7799C149.14 23.5209 148.912 23.8914 148.627 23.8914L142.841 23.6064V25.5444C145.368 25.4304 147.059 25.3734 147.914 25.3734C148.199 25.3734 148.389 25.5254 148.484 25.8294C148.598 26.1334 148.655 26.7224 148.655 27.5964C148.655 28.4514 148.56 29.2779 148.37 30.0759C148.18 30.8549 147.914 31.2444 147.572 31.2444L142.841 31.0734V36.7734ZM157.175 37.8564C155.047 37.8564 153.555 37.3054 152.7 36.2034C151.864 35.1014 151.446 33.1824 151.446 30.4464V22.6944C151.446 22.3144 152.007 21.9534 153.128 21.6114C154.249 21.2504 155.427 21.0699 156.662 21.0699C158.315 21.0699 159.141 21.4974 159.141 22.3524V29.5914C159.141 31.0354 159.198 32.0899 159.312 32.7549C159.426 33.4009 159.711 33.7239 160.167 33.7239C160.775 33.7239 161.079 33.4674 161.079 32.9544V22.6944C161.079 22.2954 161.668 21.9249 162.846 21.5829C164.024 21.2409 165.307 21.0699 166.694 21.0699C168.081 21.0699 168.774 21.4404 168.774 22.1814V36.8589C168.774 37.1249 168.176 37.3149 166.979 37.4289C165.782 37.5429 164.604 37.5999 163.445 37.5999C162.286 37.5999 161.697 37.4479 161.678 37.1439L161.393 35.2914H161.165C160.994 35.9754 160.652 36.5359 160.139 36.9729C159.873 37.2009 159.474 37.4099 158.942 37.5999C158.429 37.7709 157.84 37.8564 157.175 37.8564ZM187.947 28.1379V36.9159C187.947 37.1249 187.406 37.2959 186.323 37.4289C185.24 37.5429 184.119 37.5999 182.96 37.5999C181.82 37.5999 181.079 37.5524 180.737 37.4574C180.414 37.3434 180.252 37.1629 180.252 36.9159V27.8529C180.252 26.9979 180.214 26.4374 180.138 26.1714C180.081 25.9054 180.024 25.6679 179.967 25.4589C179.834 25.0979 179.597 24.9174 179.255 24.9174C178.723 24.9174 178.457 25.1739 178.457 25.6869V36.9159C178.457 37.1249 177.915 37.2959 176.832 37.4289C175.768 37.5429 174.657 37.5999 173.498 37.5999C172.358 37.5999 171.617 37.5524 171.275 37.4574C170.933 37.3434 170.762 37.1629 170.762 36.9159V22.8654C170.762 22.4664 171.303 22.0674 172.386 21.6684C173.488 21.2694 174.647 21.0699 175.863 21.0699C177.079 21.0699 177.763 21.4214 177.915 22.1244L178.172 23.3784H178.371C178.922 22.2764 179.872 21.5069 181.221 21.0699C181.772 20.8989 182.38 20.8134 183.045 20.8134C184.964 20.8134 186.256 21.3929 186.921 22.5519C187.605 23.6919 187.947 25.5539 187.947 28.1379Z" fill="#1F43FF"/>
</g>
<g filter="url(#filter2_d_2004_828)">
<path d="M132.611 36.8211C132.611 37.9421 132.354 38.7116 131.841 39.1296C131.328 39.5476 130.568 39.7566 129.561 39.7566C128.573 39.7566 127.823 39.5476 127.31 39.1296C126.797 38.7116 126.54 37.9421 126.54 36.8211C126.54 35.7001 126.797 34.9591 127.31 34.5981C127.842 34.2181 128.602 34.0281 129.59 34.0281C130.578 34.0281 131.328 34.2181 131.841 34.5981C132.354 34.9591 132.611 35.7001 132.611 36.8211ZM142.841 38.6736C142.841 38.9586 142.224 39.1676 140.989 39.3006C139.773 39.4336 138.614 39.5001 137.512 39.5001C136.41 39.5001 135.697 39.4336 135.374 39.3006C135.051 39.1676 134.89 38.9586 134.89 38.6736V20.6046C134.89 20.1106 135.137 19.7591 135.631 19.5501C136.125 19.3411 137.056 19.2366 138.424 19.2366H148.997C149.396 19.2366 149.596 19.9586 149.596 21.4026C149.596 22.8276 149.501 23.9201 149.311 24.6801C149.14 25.4211 148.912 25.7916 148.627 25.7916L142.841 25.5066V27.4446C145.368 27.3306 147.059 27.2736 147.914 27.2736C148.199 27.2736 148.389 27.4256 148.484 27.7296C148.598 28.0336 148.655 28.6226 148.655 29.4966C148.655 30.3516 148.56 31.1781 148.37 31.9761C148.18 32.7551 147.914 33.1446 147.572 33.1446L142.841 32.9736V38.6736ZM157.175 39.7566C155.047 39.7566 153.555 39.2056 152.7 38.1036C151.864 37.0016 151.446 35.0826 151.446 32.3466V24.5946C151.446 24.2146 152.007 23.8536 153.128 23.5116C154.249 23.1506 155.427 22.9701 156.662 22.9701C158.315 22.9701 159.141 23.3976 159.141 24.2526V31.4916C159.141 32.9356 159.198 33.9901 159.312 34.6551C159.426 35.3011 159.711 35.6241 160.167 35.6241C160.775 35.6241 161.079 35.3676 161.079 34.8546V24.5946C161.079 24.1956 161.668 23.8251 162.846 23.4831C164.024 23.1411 165.307 22.9701 166.694 22.9701C168.081 22.9701 168.774 23.3406 168.774 24.0816V38.7591C168.774 39.0251 168.176 39.2151 166.979 39.3291C165.782 39.4431 164.604 39.5001 163.445 39.5001C162.286 39.5001 161.697 39.3481 161.678 39.0441L161.393 37.1916H161.165C160.994 37.8756 160.652 38.4361 160.139 38.8731C159.873 39.1011 159.474 39.3101 158.942 39.5001C158.429 39.6711 157.84 39.7566 157.175 39.7566ZM187.947 30.0381V38.8161C187.947 39.0251 187.406 39.1961 186.323 39.3291C185.24 39.4431 184.119 39.5001 182.96 39.5001C181.82 39.5001 181.079 39.4526 180.737 39.3576C180.414 39.2436 180.252 39.0631 180.252 38.8161V29.7531C180.252 28.8981 180.214 28.3376 180.138 28.0716C180.081 27.8056 180.024 27.5681 179.967 27.3591C179.834 26.9981 179.597 26.8176 179.255 26.8176C178.723 26.8176 178.457 27.0741 178.457 27.5871V38.8161C178.457 39.0251 177.915 39.1961 176.832 39.3291C175.768 39.4431 174.657 39.5001 173.498 39.5001C172.358 39.5001 171.617 39.4526 171.275 39.3576C170.933 39.2436 170.762 39.0631 170.762 38.8161V24.7656C170.762 24.3666 171.303 23.9676 172.386 23.5686C173.488 23.1696 174.647 22.9701 175.863 22.9701C177.079 22.9701 177.763 23.3216 177.915 24.0246L178.172 25.2786H178.371C178.922 24.1766 179.872 23.4071 181.221 22.9701C181.772 22.7991 182.38 22.7136 183.045 22.7136C184.964 22.7136 186.256 23.2931 186.921 24.4521C187.605 25.5921 187.947 27.4541 187.947 30.0381Z" fill="#F2BB16"/>
</g>
<path d="M8.2935 45C7.581 45 6.54075 45 5.17275 45C3.83325 45 2.92125 44.9002 2.43675 44.7007C1.95225 44.5012 1.71 44.1877 1.71 43.7602V16.785C1.71 16.1295 2.57925 15.6165 4.31775 15.246C6.08475 14.847 7.96575 14.6475 9.96075 14.6475C11.9558 14.6475 13.3808 14.904 14.2358 15.417C15.0908 15.93 15.5895 16.4715 15.732 17.0415L18.639 28.3275H19.0238L21.7598 17.5545C21.9593 16.785 22.8855 16.1152 24.5385 15.5452C26.22 14.9467 28.0583 14.6475 30.0533 14.6475C32.0483 14.6475 33.516 14.8042 34.4565 15.1177C35.4255 15.4312 35.91 15.8302 35.91 16.3147V43.7602C35.91 44.1307 35.0978 44.43 33.4733 44.658C31.8488 44.886 29.868 45 27.531 45C25.194 45 24.0255 44.5867 24.0255 43.7602C24.0255 41.5087 24.2678 37.5045 24.7523 31.7475H24.3675L22.1445 42.9052C22.059 43.3327 21.7028 43.6462 21.0758 43.8457C20.4773 44.0452 19.5653 44.145 18.3398 44.145C17.1143 44.145 16.359 44.0595 16.074 43.8885C15.8175 43.7175 15.6465 43.3897 15.561 42.9052L13.2525 31.7475H12.8678C13.3808 37.6185 13.6373 41.6227 13.6373 43.7602C13.6373 44.5012 11.856 44.9145 8.2935 45ZM52.2782 45.3848C50.1407 45.3848 48.3025 45.1995 46.7635 44.829C45.2245 44.4585 43.828 43.803 42.574 42.8625C39.9805 40.9815 38.6837 37.476 38.6837 32.346C38.6837 27.786 40.009 24.5227 42.6595 22.5562C45.139 20.7322 48.3452 19.8202 52.2782 19.8202C53.9597 19.8202 55.399 19.9057 56.596 20.0767C57.793 20.2192 59.0042 20.547 60.2297 21.06C61.4837 21.573 62.4812 22.2712 63.2222 23.1547C63.9917 24.0382 64.6187 25.2637 65.1032 26.8312C65.5877 28.3702 65.83 30.2085 65.83 32.346C65.83 36.678 64.6045 39.9412 62.1535 42.1357C59.7025 44.3017 56.4107 45.3848 52.2782 45.3848ZM50.782 37.0485C50.9815 38.0745 51.181 38.6872 51.3805 38.8867C51.6085 39.0862 51.8935 39.186 52.2355 39.186C52.606 39.186 52.891 39.0862 53.0905 38.8867C53.3185 38.6872 53.518 38.0745 53.689 37.0485C53.8885 36.0225 53.9882 34.74 53.9882 33.201C53.9882 31.6335 53.9455 30.4365 53.86 29.61C53.803 28.755 53.7175 28.0995 53.6035 27.6435C53.518 27.1875 53.3897 26.8312 53.2187 26.5747C52.9622 26.2042 52.6487 26.019 52.2782 26.019C51.9362 26.019 51.6512 26.133 51.4232 26.361C51.1952 26.5605 50.9815 27.1875 50.782 28.242C50.5825 29.268 50.4827 30.7357 50.4827 32.6452C50.4827 34.5547 50.5825 36.0225 50.782 37.0485ZM67.0941 23.2402C67.0941 22.9552 67.5074 22.5847 68.3339 22.1287C69.1604 21.6442 70.2861 21.2025 71.7111 20.8035C73.1361 20.4045 74.5326 20.205 75.9006 20.205C78.6651 20.205 80.0901 20.8747 80.1756 22.2142L81.2444 35.8087H81.8001L82.7406 22.8982C82.7976 22.1857 83.7809 21.5587 85.6904 21.0172C87.5999 20.4757 89.2814 20.205 90.7349 20.205C92.1884 20.205 93.2714 20.3332 93.9839 20.5897C94.7249 20.8462 95.1951 21.117 95.3946 21.402C95.5941 21.6585 95.6939 21.8865 95.6939 22.086C95.6939 22.2855 95.0811 23.7532 93.8556 26.4892C92.6586 29.2252 90.2504 35.0535 86.6309 43.974C86.3459 44.658 84.0231 45 79.6626 45C78.2946 45 77.3969 44.9287 76.9694 44.7862C76.5419 44.6152 76.2569 44.3445 76.1144 43.974C74.1479 39.015 72.1529 34.3552 70.1294 29.9947C68.1059 25.6057 67.0941 23.3542 67.0941 23.2402ZM108.635 35.3385C108.635 37.191 109.518 38.1172 111.285 38.1172C112.311 38.1172 113.651 37.7752 115.304 37.0912C116.957 36.3787 117.826 36.0225 117.912 36.0225C118.453 36.0225 119.166 36.8347 120.049 38.4592C120.933 40.0837 121.374 41.2807 121.374 42.0502C121.374 43.1617 120.234 44.0025 117.954 44.5725C115.674 45.1425 113.437 45.4275 111.243 45.4275C109.077 45.4275 107.253 45.2565 105.771 44.9145C104.317 44.5725 103.12 44.145 102.18 43.632C101.268 43.0905 100.455 42.435 99.7428 41.6655C99.0588 40.896 98.5458 40.1692 98.2038 39.4852C97.8618 38.7727 97.591 37.989 97.3915 37.134C97.1065 35.88 96.964 34.5832 96.964 33.2437C96.964 28.0567 98.3178 24.48 101.025 22.5135C102.365 21.516 103.861 20.8177 105.514 20.4187C107.167 20.0197 109.119 19.8202 111.371 19.8202C118.581 19.8202 122.187 22.3282 122.187 27.3442C122.187 32.6737 118.14 35.3385 110.046 35.3385H108.635ZM108.549 29.097V31.9185C109.376 31.9185 110.046 31.5907 110.559 30.9352C111.1 30.2797 111.371 29.4817 111.371 28.5412C111.371 26.8312 110.929 25.9762 110.046 25.9762C109.048 25.9762 108.549 27.0165 108.549 29.097Z" fill="white"/>
<defs>
<filter id="filter0_d_2004_828" x="118.94" y="7.8364" width="76.6072" height="35.72" filterUnits="userSpaceOnUse" color-interpolation-filters="sRGB">
<feFlood flood-opacity="0" result="BackgroundImageFix"/>
<feColorMatrix in="SourceAlpha" type="matrix" values="0 0 0 0 0 0 0 0 0 0 0 0 0 0 0 0 0 0 127 0" result="hardAlpha"/>
<feOffset/>
<feGaussianBlur stdDeviation="3.8"/>
<feComposite in2="hardAlpha" operator="out"/>
<feColorMatrix type="matrix" values="0 0 0 0 0 0 0 0 0 0 0 0 0 0 0 0 0 0 0.25 0"/>
<feBlend mode="normal" in2="BackgroundImageFix" result="effect1_dropShadow_2004_828"/>
<feBlend mode="normal" in="SourceGraphic" in2="effect1_dropShadow_2004_828" result="shape"/>
</filter>
<filter id="filter1_d_2004_828" x="118.94" y="9.7363" width="76.6072" height="35.72" filterUnits="userSpaceOnUse" color-interpolation-filters="sRGB">
<feFlood flood-opacity="0" result="BackgroundImageFix"/>
<feColorMatrix in="SourceAlpha" type="matrix" values="0 0 0 0 0 0 0 0 0 0 0 0 0 0 0 0 0 0 127 0" result="hardAlpha"/>
<feOffset/>
<feGaussianBlur stdDeviation="3.8"/>
<feComposite in2="hardAlpha" operator="out"/>
<feColorMatrix type="matrix" values="0 0 0 0 0 0 0 0 0 0 0 0 0 0 0 0 0 0 0.25 0"/>
<feBlend mode="normal" in2="BackgroundImageFix" result="effect1_dropShadow_2004_828"/>
<feBlend mode="normal" in="SourceGraphic" in2="effect1_dropShadow_2004_828" result="shape"/>
</filter>
<filter id="filter2_d_2004_828" x="118.94" y="11.6366" width="76.6072" height="35.72" filterUnits="userSpaceOnUse" color-interpolation-filters="sRGB">
<feFlood flood-opacity="0" result="BackgroundImageFix"/>
<feColorMatrix in="SourceAlpha" type="matrix" values="0 0 0 0 0 0 0 0 0 0 0 0 0 0 0 0 0 0 127 0" result="hardAlpha"/>
<feOffset/>
<feGaussianBlur stdDeviation="3.8"/>
<feComposite in2="hardAlpha" operator="out"/>
<feColorMatrix type="matrix" values="0 0 0 0 0 0 0 0 0 0 0 0 0 0 0 0 0 0 0.25 0"/>
<feBlend mode="normal" in2="BackgroundImageFix" result="effect1_dropShadow_2004_828"/>
<feBlend mode="normal" in="SourceGraphic" in2="effect1_dropShadow_2004_828" result="shape"/>
</filter>
</defs>
</svg>
