<svg width="100%" height="100%" viewBox="0 0 30 29" fill="none" xmlns="http://www.w3.org/2000/svg">
<path fill-rule="evenodd" clip-rule="evenodd" d="M15.2442 0C11.8169 0.0286517 8.51012 1.26951 5.91025 3.50293C3.31037 5.73635 1.5852 8.8183 1.04013 12.2021C0.495062 15.586 1.16565 19.0534 2.93271 21.9902C4.69976 24.9271 7.44943 27.1436 10.6944 28.2471C11.4094 28.3911 11.67 27.9349 11.67 27.5469C11.67 27.2109 11.6485 26.0604 11.6485 24.8604C7.64853 25.7234 6.81259 23.1309 6.81259 23.1309C6.55804 22.2539 5.98757 21.5016 5.212 21.0195C3.902 20.1305 5.31259 20.1309 5.31259 20.1309C5.77128 20.1925 6.20961 20.3592 6.59384 20.6172C6.97807 20.8752 7.29775 21.2179 7.52841 21.6191C7.72137 21.9766 7.98333 22.2913 8.29989 22.5459C8.61646 22.8005 8.98161 22.9898 9.37216 23.1016C9.76271 23.2134 10.171 23.2458 10.5743 23.1973C10.9776 23.1488 11.3679 23.0206 11.7208 22.8193C11.7792 22.0847 12.0978 21.3948 12.6202 20.875C9.42921 20.539 6.06943 19.2907 6.06943 13.7227C6.05245 12.2868 6.57979 10.8982 7.54599 9.83594C7.10957 8.58335 7.16152 7.21248 7.69052 5.99609C7.69052 5.99609 8.90562 5.61238 11.6446 7.48438C13.9998 6.84382 16.4828 6.84382 18.838 7.48438C21.577 5.61238 22.7921 5.99609 22.7921 5.99609C23.3217 7.21235 23.3736 8.58343 22.9366 9.83594C23.9127 10.8921 24.4416 12.2848 24.4132 13.7227C24.4132 19.2907 21.055 20.516 17.838 20.875C18.1841 21.2268 18.4505 21.6485 18.6192 22.1123C18.788 22.5761 18.8556 23.0715 18.8165 23.5635C18.8165 25.5065 18.7921 27.0629 18.7921 27.5459C18.7921 27.9299 19.0556 28.3861 19.7706 28.2461C23.0138 27.1434 25.7621 24.9285 27.5294 21.9941C29.2967 19.0597 29.9688 15.5953 29.4268 12.2129C28.8849 8.83052 27.1641 5.74899 24.5684 3.51367C21.9728 1.27836 18.6696 0.0341526 15.2442 0Z" fill="white"/>
</svg>
