<svg width="100%" height="100%" viewBox="0 0 33 32" fill="none" xmlns="http://www.w3.org/2000/svg">
<path d="M20.8012 29.8491C17.8381 30.8387 14.6352 30.8699 11.6531 29.938C8.67112 29.0062 6.06392 27.1595 4.20634 24.6636C2.34877 22.1676 1.33664 19.1511 1.31576 16.0481C1.29488 12.945 2.26637 9.91543 4.09019 7.39508C5.91401 4.87474 8.49604 2.9936 11.4653 2.02232C14.4345 1.05105 17.6377 1.03969 20.6138 1.9899C23.5899 2.94011 26.1855 4.80289 28.0274 7.31025C29.8693 9.81761 30.8624 12.8403 30.8638 15.9434C30.8163 17.1331 30.6708 18.3169 30.429 19.4831" stroke="white" stroke-width="1.784" stroke-miterlimit="50"/>
<path d="M19.5748 27.123C18.5117 28.3219 17.3464 29.4275 16.0918 30.4275" stroke="white" stroke-width="1.784" stroke-miterlimit="50"/>
<path d="M16.0879 1.11005C18.4085 3.15919 20.2357 5.69935 21.4352 8.5431C22.6347 11.3869 23.1759 14.4617 23.0184 17.5406" stroke="white" stroke-width="1.784" stroke-miterlimit="50"/>
<path d="M16.0882 1.11005C13.9241 2.98217 12.1852 5.28935 10.9873 7.87874C9.78943 10.4681 9.15978 13.2806 9.13965 16.1299C9.13965 25.6874 13.4665 28.5198 16.0701 30.4315" stroke="white" stroke-width="1.784" stroke-miterlimit="50"/>
<path d="M3.23145 8.71625H29.015" stroke="white" stroke-width="1.784" stroke-miterlimit="50"/>
<path d="M16.0879 1.10016V30.4275" stroke="white" stroke-width="1.784" stroke-miterlimit="50"/>
<path d="M3.63574 23.8075H19.0837" stroke="white" stroke-width="1.784" stroke-miterlimit="50"/>
<path d="M1.31152 16.127L30.8641 15.7668" stroke="white" stroke-width="1.784" stroke-miterlimit="50"/>
<path d="M28.908 30.6041L31.5419 27.9851L26.7865 23.2649L29.4907 21.5486C29.5299 21.5252 29.5614 21.4907 29.5805 21.4495C29.5996 21.4083 29.6057 21.3624 29.5981 21.3177C29.5904 21.273 29.5693 21.2316 29.5375 21.199C29.5058 21.1664 29.4647 21.144 29.4199 21.1349L20.3319 19.0228C20.2716 19.011 20.2089 19.0233 20.1577 19.0569C20.1064 19.0905 20.0704 19.1427 20.0576 19.2024C20.0518 19.2328 20.0518 19.2641 20.0576 19.2946L22.0317 28.4861C22.0413 28.5307 22.0641 28.5714 22.0971 28.6032C22.13 28.6349 22.172 28.6562 22.2171 28.6644C22.2623 28.6726 22.3087 28.6673 22.3509 28.6491C22.393 28.631 22.4285 28.6008 22.4533 28.5625L24.1527 25.8839L28.908 30.6041Z" stroke="white" stroke-width="1.784" stroke-miterlimit="50"/>
</svg>
