<svg width="100%" height="100%" viewBox="0 0 34 32" fill="none" xmlns="http://www.w3.org/2000/svg">
<path d="M10.4891 0.753906C8.41947 0.753774 6.3965 1.36736 4.67561 2.51709C2.95472 3.66682 1.61321 5.30133 0.821117 7.21338C0.0290253 9.12543 -0.178282 11.2294 0.225414 13.2593C0.629111 15.2891 1.62577 17.1537 3.08918 18.6172L15.5452 31.0732C15.8563 31.3825 16.277 31.5562 16.7156 31.5562C17.1543 31.5562 17.5755 31.3825 17.8865 31.0732L30.3421 18.6172C32.3026 16.6534 33.4036 13.9916 33.4036 11.2168C33.4036 8.44197 32.3026 5.78064 30.3421 3.81689C26.5861 0.0608945 20.8235 0.169148 16.7225 3.32715C14.9851 1.80616 12.7935 0.901404 10.4891 0.753906ZM10.4891 4.0542C11.4286 4.05475 12.359 4.24104 13.2259 4.60303C14.0928 4.96501 14.8794 5.4954 15.5404 6.16309C15.8513 6.47263 16.272 6.64648 16.7108 6.64648C17.1495 6.64648 17.5703 6.47263 17.8812 6.16309C18.5452 5.49866 19.3337 4.97155 20.2015 4.61182C21.0692 4.25208 21.9994 4.06668 22.9388 4.06641C23.8782 4.06613 24.8081 4.25064 25.6761 4.60986C26.5441 4.96908 27.333 5.49613 27.9974 6.16016C28.6618 6.82419 29.1889 7.61223 29.5487 8.47998C29.9084 9.34773 30.0938 10.2779 30.0941 11.2173C30.0943 12.1566 29.9093 13.0871 29.5501 13.9551C29.1909 14.823 28.6643 15.6115 28.0003 16.2759L16.7215 27.5552L5.42952 16.2759C4.43064 15.2734 3.75071 13.9976 3.4759 12.6094C3.2011 11.2212 3.34346 9.783 3.88508 8.47559C4.4267 7.16817 5.34335 6.05038 6.51936 5.26318C7.69537 4.47598 9.07832 4.05466 10.4935 4.05225L10.4891 4.0542Z" fill="currentColor"/>
</svg>
