<svg width="100%" height="100%" viewBox="0 0 64 53" fill="none" xmlns="http://www.w3.org/2000/svg">
<path fill-rule="evenodd" clip-rule="evenodd" d="M4.19245 0.797498C2.8611 1.12487 1.59444 2.23419 1.07005 3.5321L0.788818 4.22811V26.6268V49.0256L1.08324 49.758C1.49447 50.7807 2.60135 51.8783 3.59617 52.2501C3.99886 52.4005 4.69926 52.5548 5.15248 52.5928L5.97654 52.6619L5.97861 33.9379C5.98093 13.3436 5.94785 14.281 6.72857 12.7369C7.19779 11.8088 8.30991 10.5653 9.15679 10.0219C9.49845 9.80264 10.1448 9.48052 10.5931 9.30597L11.4084 8.9886L20.4896 8.92757L29.5706 8.86654L27.1571 5.87597C24.1887 2.19794 23.6037 1.58469 22.5799 1.07898L21.7893 0.688251L13.3031 0.666157C6.83416 0.64919 4.6685 0.680439 4.19245 0.797498ZM12.2018 11.3864C10.7863 11.6207 9.43412 12.6587 8.82356 13.9798L8.47885 14.7256L8.44723 33.6777L8.4155 52.6299L34.0196 52.5977C58.129 52.5673 59.6558 52.5529 60.1729 52.3505C60.9803 52.0347 61.8807 51.3049 62.3983 50.547C63.2764 49.2608 63.2325 50.3064 63.1961 31.5566L63.1635 14.7204L62.763 13.907C62.0845 12.5287 60.8547 11.6254 59.3185 11.3769C58.3128 11.2143 13.1872 11.2233 12.2018 11.3864ZM46.9638 19.6784C47.4432 19.8455 47.7224 20.2718 47.7224 20.8369C47.7224 21.2417 47.5831 21.4224 46.1356 22.8947C45.2628 23.7825 44.5487 24.5381 44.5487 24.5738C44.5487 24.6096 45.0842 25.0446 45.7389 25.5406C47.127 26.5924 48.7966 28.1651 50.2613 29.8005C52.0669 31.8165 52.111 32.0184 51.0377 33.3628C48.036 37.1231 43.775 40.3587 40.0909 41.6753C36.5276 42.9486 32.9554 42.7693 29.1991 41.1287L28.3141 40.7421L26.4367 42.5951C24.7054 44.3039 24.5245 44.4482 24.1133 44.4482C23.2424 44.4482 22.6588 43.6789 22.9459 42.9094C23.0184 42.7151 23.768 41.8623 24.6118 41.0142L26.146 39.4722L24.9414 38.5818C23.6678 37.6403 20.3166 34.3673 19.4221 33.1912C18.5154 31.999 18.5824 31.7937 20.639 29.4691C24.2006 25.4429 28.4378 22.7235 32.6063 21.7887C33.8949 21.4997 36.7526 21.4953 37.9573 21.7804C39.2034 22.0754 40.6763 22.568 41.5573 22.9842L42.2889 23.3299L44.0596 21.5658C45.5774 20.0538 46.1379 19.5946 46.5141 19.5548C46.5544 19.5507 46.7568 19.6062 46.9638 19.6784ZM33.0885 24.1234C30.5714 24.6905 28.0185 26.039 25.5068 28.1281C24.4078 29.0421 21.9121 31.5219 21.7089 31.9017C21.6063 32.0932 21.8597 32.3979 23.3949 33.9286C24.3885 34.9194 25.8051 36.1814 26.5427 36.733L27.8838 37.7359L28.765 36.8503L29.6461 35.9647L29.1608 34.9882C27.3741 31.393 29.0937 27.0668 32.9067 25.5645C33.6576 25.2685 33.9068 25.2332 35.2719 25.2292C36.9171 25.2243 37.7907 25.4331 38.8042 26.0728L39.2657 26.3642L39.892 25.7298L40.5184 25.0956L39.6346 24.7638C38.0257 24.1598 37.3642 24.0336 35.577 23.9898C34.394 23.9607 33.6283 24.0019 33.0885 24.1234ZM41.8122 27.2273L40.9741 28.0718L41.2866 28.6051C42.0384 29.8879 42.3737 31.7616 42.1121 33.2183C41.8827 34.4952 41.1103 35.9507 40.1669 36.8835C37.9762 39.0493 34.8719 39.52 32.0927 38.1078L31.3286 37.7194L30.7377 38.3015C30.4126 38.6217 30.1876 38.9187 30.2375 38.9614C30.6934 39.3524 33.1569 40.0038 34.6076 40.1171C38.7964 40.444 43.879 37.7792 48.1924 32.9944L49.0802 32.0095L47.646 30.5326C46.8572 29.7203 45.769 28.6808 45.2277 28.2227C44.2599 27.4038 42.8711 26.3827 42.7247 26.3827C42.6837 26.3827 42.2731 26.7627 41.8122 27.2273ZM34.5671 27.617C32.5219 27.9576 31.0022 29.6787 30.8989 31.7714C30.8546 32.6695 31.1014 33.9703 31.3447 34.1207C31.3984 34.1539 32.8097 32.8129 34.481 31.1406L37.5196 28.1003L36.9755 27.866C36.2908 27.5713 35.3971 27.479 34.5671 27.617ZM36.1256 32.9159C32.842 36.204 32.9641 35.9901 34.1642 36.3469C36.1467 36.9362 38.3739 35.911 39.3305 33.9685C39.6629 33.2936 39.7322 33.0043 39.7583 32.1837C39.7895 31.2017 39.5201 30.05 39.2382 29.9609C39.1707 29.9395 37.77 31.2693 36.1256 32.9159Z" fill="url(#paint0_linear_1_7123)"/>
<defs>
<linearGradient id="paint0_linear_1_7123" x1="0.788818" y1="0.661865" x2="69.4524" y2="42.3931" gradientUnits="userSpaceOnUse">
<stop stop-color="#FC466B"/>
<stop offset="1" stop-color="#3F5EFB"/>
</linearGradient>
</defs>
</svg>
