<svg width="100%" height="100%" viewBox="0 0 357 72" fill="none" xmlns="http://www.w3.org/2000/svg">
<g filter="url(#filter0_d_1_760)">
<path d="M23.778 51.86C23.778 52.2344 22.8854 52.5367 21.1002 52.7671C19.3437 52.9974 17.5873 53.1126 15.8308 53.1126C14.0744 53.1126 12.9514 53.0118 12.4619 52.8103C11.9724 52.6087 11.7277 52.292 11.7277 51.86V25.3838C11.7277 24.6351 12.5339 23.9729 14.1464 23.397C15.7876 22.8211 17.6737 22.5331 19.8044 22.5331C21.5609 22.5331 22.6982 22.8787 23.2165 23.5697C23.5909 24.0592 23.778 24.5055 23.778 24.9087V32.0352H24.1236C24.1236 31.8913 24.5555 30.6963 25.4193 28.4504C27.0606 24.2176 28.2555 22.1012 29.0042 22.1012C30.4151 22.1012 32.4019 22.5187 34.9646 23.3538C36.2027 23.7569 37.2681 24.3472 38.1607 25.1246C39.0534 25.8733 39.4997 26.7083 39.4997 27.6297C39.4997 28.2056 38.9094 29.3286 37.7288 30.9986C36.5771 32.6399 34.8206 34.8427 32.4595 37.6069C33.0066 38.1828 33.6976 38.917 34.5327 39.8097C35.3677 40.7023 36.4763 42.0412 37.8584 43.8265C39.2693 45.5829 39.9748 46.8355 39.9748 47.5841C39.9748 48.3328 39.2981 49.211 37.9448 50.2188C36.5915 51.1978 35.1517 52.004 33.6257 52.6375C32.0996 53.2422 30.9622 53.5445 30.2135 53.5445C29.724 53.5445 29.0474 52.8103 28.1835 51.3417C27.3485 49.8444 26.3263 47.6129 25.117 44.6471L23.778 46.2452V51.86ZM54.0113 30.8691V52.1624C54.0113 52.4791 53.1762 52.7383 51.5062 52.9398C49.8649 53.1126 48.1661 53.199 46.4096 53.199C44.682 53.199 43.559 53.127 43.0407 52.983C42.5512 52.8103 42.3064 52.5367 42.3064 52.1624V31.6465C42.3064 31.013 43.1127 30.394 44.7251 29.7893C46.3664 29.1558 48.1517 28.8391 50.0809 28.8391C52.7011 28.8391 54.0113 29.5157 54.0113 30.8691ZM48.1373 19.5097C50.0377 19.5097 51.5206 19.7977 52.586 20.3736C53.6801 20.9207 54.2272 21.9285 54.2272 23.397C54.2272 25.9884 52.2116 27.2842 48.1804 27.2842C44.1493 27.2842 42.1337 25.9884 42.1337 23.397C42.1337 20.8055 44.1349 19.5097 48.1373 19.5097ZM83.2781 38.8595V52.1624C83.2781 52.4791 82.4575 52.7383 80.8162 52.9398C79.1749 53.1126 77.4761 53.199 75.7196 53.199C73.992 53.199 72.869 53.127 72.3507 52.983C71.8612 52.8103 71.6165 52.5367 71.6165 52.1624V38.4275C71.6165 37.1318 71.5589 36.2824 71.4437 35.8793C71.3573 35.4761 71.2709 35.1162 71.1845 34.7995C70.983 34.2524 70.6231 33.9788 70.1048 33.9788C69.2985 33.9788 68.8954 34.3676 68.8954 35.145V52.1624C68.8954 52.4791 68.0748 52.7383 66.4335 52.9398C64.821 53.1126 63.1366 53.199 61.3801 53.199C59.6525 53.199 58.5295 53.127 58.0112 52.983C57.4929 52.8103 57.2337 52.5367 57.2337 52.1624V30.8691C57.2337 30.2644 58.0544 29.6597 59.6957 29.055C61.3657 28.4503 63.1222 28.148 64.965 28.148C66.8078 28.148 67.8444 28.6807 68.0748 29.7461L68.4635 31.6465H68.7658C69.6009 29.9764 71.0406 28.8103 73.085 28.148C73.92 27.8889 74.8414 27.7593 75.8492 27.7593C78.7574 27.7593 80.7154 28.6375 81.7232 30.394C82.7598 32.1216 83.2781 34.9434 83.2781 38.8595ZM100.721 50.3483V47.8433H100.375C100.26 47.9872 100.059 48.1744 99.7708 48.4047C99.4828 48.6063 98.763 48.8942 97.6112 49.2686C96.4882 49.6429 95.2069 49.8301 93.7672 49.8301C92.3563 49.8301 91.1613 49.6141 90.1823 49.1822C89.2033 48.7503 88.4403 48.2176 87.8932 47.5841C87.3461 46.9218 86.9142 46.0436 86.5974 44.9494C86.1079 43.2506 85.8632 40.947 85.8632 38.0388C85.8632 34.6987 86.5686 32.136 87.9796 30.3508C88.5266 29.6309 89.3329 29.0262 90.3983 28.5367C91.4925 28.0184 92.6586 27.7593 93.8968 27.7593C95.1349 27.7593 96.1571 27.9033 96.9634 28.1912C97.7696 28.4503 98.3743 28.7671 98.7774 29.1414C99.5836 29.9476 100.044 30.6531 100.16 31.2578L100.203 31.6465H100.548L100.937 29.962C101.225 28.7527 103.5 28.148 107.761 28.148C109.662 28.148 110.813 28.436 111.216 29.0118C111.447 29.3574 111.591 29.6885 111.648 30.0052C111.706 30.2932 111.735 30.7395 111.735 31.3442V49.4413C111.735 52.839 110.626 55.4305 108.409 57.2158C106.192 59.001 102.938 59.8936 98.6478 59.8936C94.0983 59.8936 91.003 59.4473 89.3617 58.5547C88.6418 58.1516 88.2819 57.7341 88.2819 57.3021C88.2819 56.6111 88.5554 55.4449 89.1025 53.8037C89.6784 52.1624 90.2111 51.3417 90.7006 51.3417C90.8158 51.3417 91.2189 51.4425 91.91 51.6441C94.0983 52.22 95.8692 52.5079 97.2225 52.5079C98.6046 52.5079 99.526 52.3351 99.9867 51.9896C100.476 51.6441 100.721 51.097 100.721 50.3483ZM98.9933 44.9062C99.3101 44.9062 99.5692 44.7911 99.7708 44.5607C99.9723 44.3304 100.073 44.0712 100.073 43.7833V34.8859C99.958 34.2812 99.6412 33.9788 99.1229 33.9788C98.0287 33.9788 97.4816 35.7785 97.4816 39.3778C97.4816 41.0478 97.6112 42.3867 97.8704 43.3945C98.1583 44.4023 98.5326 44.9062 98.9933 44.9062ZM137.77 53.5877C135.61 53.5877 133.753 53.4005 132.198 53.0262C130.643 52.6519 129.233 51.9896 127.966 51.0394C125.345 49.139 124.035 45.5973 124.035 40.4143C124.035 35.8073 125.374 32.5103 128.052 30.5235C130.557 28.6807 133.796 27.7593 137.77 27.7593C139.469 27.7593 140.923 27.8457 142.132 28.0184C143.342 28.1624 144.565 28.4935 145.804 29.0118C147.071 29.5301 148.078 30.2356 148.827 31.1282C149.604 32.0208 150.238 33.259 150.727 34.8427C151.217 36.3976 151.462 38.2548 151.462 40.4143C151.462 44.7911 150.224 48.088 147.747 50.3052C145.271 52.4935 141.945 53.5877 137.77 53.5877ZM136.258 45.1654C136.46 46.202 136.661 46.8211 136.863 47.0226C137.093 47.2242 137.381 47.325 137.727 47.325C138.101 47.325 138.389 47.2242 138.591 47.0226C138.821 46.8211 139.023 46.202 139.195 45.1654C139.397 44.1288 139.498 42.8331 139.498 41.2782C139.498 39.6945 139.454 38.4851 139.368 37.6501C139.311 36.7863 139.224 36.124 139.109 35.6633C139.023 35.2026 138.893 34.8427 138.72 34.5835C138.461 34.2092 138.144 34.022 137.77 34.022C137.425 34.022 137.137 34.1372 136.906 34.3676C136.676 34.5691 136.46 35.2026 136.258 36.268C136.057 37.3046 135.956 38.7875 135.956 40.7167C135.956 42.6459 136.057 44.1288 136.258 45.1654ZM167.985 38.9458V52.1624C167.985 52.4791 167.194 52.7383 165.61 52.9398C164.026 53.1126 162.083 53.199 159.779 53.199C157.476 53.199 156.324 52.8534 156.324 52.1624V38.9458H154.121C153.344 38.9458 152.955 37.6357 152.955 35.0154C152.955 33.9788 153.128 33.0142 153.473 32.1216C153.847 31.2002 154.323 30.7395 154.898 30.7395H156.324C156.324 28.8103 156.597 27.1258 157.144 25.6861C157.72 24.2464 158.397 23.1522 159.174 22.4036C159.981 21.6261 160.945 21.007 162.068 20.5463C163.738 19.8553 165.639 19.5097 167.769 19.5097C173.125 19.5097 175.803 20.388 175.803 22.1444C175.803 24.0448 175.616 25.5997 175.242 26.8091C174.867 28.0184 174.363 28.6231 173.73 28.6231C173.471 28.6231 172.981 28.5367 172.261 28.364C171.57 28.1624 170.908 28.0616 170.275 28.0616C168.604 28.0616 167.769 28.6375 167.769 29.7893C167.769 30.0772 167.841 30.394 167.985 30.7395H173.73C174.507 30.7395 174.896 32.0064 174.896 34.5403C174.896 35.6633 174.723 36.6855 174.378 37.6069C174.061 38.4995 173.629 38.9458 173.082 38.9458H167.985ZM204.836 52.8103C204.318 53.2998 203.138 53.5445 201.295 53.5445C199.452 53.5445 197.926 53.4293 196.716 53.199C195.507 52.9398 194.355 52.4503 193.261 51.7305C191.159 50.3196 190.108 47.3825 190.108 42.9194V36.1816H187.949C187.632 36.1816 187.358 35.8505 187.128 35.1882C186.898 34.5259 186.782 33.6189 186.782 32.4671C186.782 31.3154 186.955 30.3076 187.301 29.4438C187.675 28.5511 188.15 28.1048 188.726 28.1048H190.108V22.8787C190.108 21.986 190.972 21.2662 192.7 20.7191C194.456 20.172 196.169 19.8985 197.839 19.8985C200.46 19.8985 201.77 20.5463 201.77 21.8421V28.1048H204.966C205.715 28.1048 206.089 29.1846 206.089 31.3442C206.089 32.7551 205.916 33.9213 205.571 34.8427C205.254 35.7353 204.836 36.1816 204.318 36.1816H201.77V44.0856C201.77 44.8631 202.101 45.4245 202.763 45.7701C203.425 46.0868 204.001 46.2452 204.491 46.2452C205.009 46.2452 205.326 46.4899 205.441 46.9794C205.556 47.4689 205.614 48.2032 205.614 49.1822C205.614 51.1114 205.355 52.3208 204.836 52.8103ZM222.736 52.1624V40.1552C222.736 37.9956 222.649 36.4263 222.477 35.4473C222.304 34.4683 221.886 33.9788 221.224 33.9788C220.648 33.9788 220.36 34.3676 220.36 35.145V52.1624C220.36 52.4791 219.525 52.7383 217.855 52.9398C216.185 53.1126 214.472 53.199 212.715 53.199C210.959 53.199 209.85 53.127 209.39 52.983C208.929 52.8103 208.699 52.5367 208.699 52.1624V22.2308C208.699 21.6261 209.534 21.0214 211.204 20.4168C212.874 19.8121 214.63 19.5097 216.473 19.5097C218.402 19.5097 219.626 19.8697 220.144 20.5895C220.317 20.8199 220.403 21.0646 220.403 21.3238V27.6729L219.928 30.6531H220.231C220.634 30.0484 221.267 29.5157 222.131 29.055C223.744 28.1912 225.5 27.7593 227.4 27.7593C230.136 27.7593 231.979 28.6375 232.929 30.394C233.908 32.1216 234.397 34.9434 234.397 38.8595V52.1624C234.397 52.4791 233.548 52.7383 231.849 52.9398C230.179 53.1126 228.466 53.199 226.709 53.199C224.982 53.199 223.888 53.127 223.427 52.983C222.966 52.8103 222.736 52.5367 222.736 52.1624ZM248.782 43.4377C248.782 45.3094 249.674 46.2452 251.46 46.2452C252.496 46.2452 253.85 45.8996 255.52 45.2086C257.19 44.4887 258.068 44.1288 258.154 44.1288C258.701 44.1288 259.421 44.9494 260.314 46.5907C261.207 48.232 261.653 49.4413 261.653 50.2188C261.653 51.3417 260.501 52.1912 258.198 52.7671C255.894 53.3429 253.634 53.6309 251.417 53.6309C249.228 53.6309 247.385 53.4581 245.888 53.1126C244.42 52.7671 243.21 52.3351 242.26 51.8169C241.339 51.2698 240.518 50.6075 239.798 49.8301C239.107 49.0526 238.589 48.3184 238.243 47.6273C237.898 46.9074 237.624 46.1156 237.423 45.2518C237.135 43.9848 236.991 42.6747 236.991 41.3214C236.991 36.0808 238.358 32.4671 241.094 30.4803C242.447 29.4725 243.959 28.7671 245.629 28.364C247.299 27.9608 249.271 27.7593 251.546 27.7593C258.831 27.7593 262.473 30.2932 262.473 35.361C262.473 40.7455 258.385 43.4377 250.207 43.4377H248.782ZM248.695 37.1318V39.9824C249.53 39.9824 250.207 39.6513 250.725 38.989C251.273 38.3268 251.546 37.5205 251.546 36.5703C251.546 34.8427 251.1 33.9788 250.207 33.9788C249.199 33.9788 248.695 35.0298 248.695 37.1318ZM288.788 52.1624V40.1552C288.788 37.9956 288.702 36.4263 288.529 35.4473C288.356 34.4683 287.939 33.9788 287.276 33.9788C286.701 33.9788 286.413 34.3676 286.413 35.145V52.1624C286.413 52.4791 285.578 52.7383 283.908 52.9398C282.237 53.1126 280.524 53.199 278.768 53.199C277.011 53.199 275.903 53.127 275.442 52.983C274.981 52.8103 274.751 52.5367 274.751 52.1624V22.2308C274.751 21.6261 275.586 21.0214 277.256 20.4168C278.926 19.8121 280.683 19.5097 282.525 19.5097C284.455 19.5097 285.678 19.8697 286.197 20.5895C286.369 20.8199 286.456 21.0646 286.456 21.3238V27.6729L285.981 30.6531H286.283C286.686 30.0484 287.32 29.5157 288.183 29.055C289.796 28.1912 291.552 27.7593 293.453 27.7593C296.188 27.7593 298.031 28.6375 298.981 30.394C299.96 32.1216 300.45 34.9434 300.45 38.8595V52.1624C300.45 52.4791 299.6 52.7383 297.902 52.9398C296.231 53.1126 294.518 53.199 292.762 53.199C291.034 53.199 289.94 53.127 289.479 52.983C289.018 52.8103 288.788 52.5367 288.788 52.1624ZM315.352 30.8691V52.1624C315.352 52.4791 314.517 52.7383 312.847 52.9398C311.206 53.1126 309.507 53.199 307.751 53.199C306.023 53.199 304.9 53.127 304.382 52.983C303.892 52.8103 303.648 52.5367 303.648 52.1624V31.6465C303.648 31.013 304.454 30.394 306.066 29.7893C307.708 29.1558 309.493 28.8391 311.422 28.8391C314.042 28.8391 315.352 29.5157 315.352 30.8691ZM309.478 19.5097C311.379 19.5097 312.862 19.7977 313.927 20.3736C315.021 20.9207 315.568 21.9285 315.568 23.397C315.568 25.9884 313.553 27.2842 309.522 27.2842C305.49 27.2842 303.475 25.9884 303.475 23.397C303.475 20.8055 305.476 19.5097 309.478 19.5097ZM330.237 21.4965V52.1624C330.237 52.4791 329.416 52.7383 327.775 52.9398C326.133 53.1126 324.435 53.199 322.678 53.199C320.95 53.199 319.828 53.127 319.309 52.983C318.82 52.8103 318.575 52.5367 318.575 52.1624V22.274C318.575 21.6405 319.381 21.0214 320.994 20.4168C322.635 19.8121 324.391 19.5097 326.263 19.5097C328.912 19.5097 330.237 20.172 330.237 21.4965ZM344.915 21.4965V52.1624C344.915 52.4791 344.094 52.7383 342.453 52.9398C340.812 53.1126 339.113 53.199 337.356 53.199C335.629 53.199 334.506 53.127 333.987 52.983C333.498 52.8103 333.253 52.5367 333.253 52.1624V22.274C333.253 21.6405 334.059 21.0214 335.672 20.4168C337.313 19.8121 339.07 19.5097 340.941 19.5097C343.59 19.5097 344.915 20.172 344.915 21.4965Z" fill="#F21616"/>
</g>
<g filter="url(#filter1_d_1_760)">
<path d="M23.778 47.5402C23.778 47.9145 22.8854 48.2169 21.1002 48.4472C19.3437 48.6776 17.5873 48.7928 15.8308 48.7928C14.0744 48.7928 12.9514 48.692 12.4619 48.4904C11.9724 48.2889 11.7277 47.9721 11.7277 47.5402V21.0639C11.7277 20.3153 12.5339 19.653 14.1464 19.0771C15.7876 18.5013 17.6737 18.2133 19.8044 18.2133C21.5609 18.2133 22.6982 18.5588 23.2165 19.2499C23.5909 19.7394 23.778 20.1857 23.778 20.5888V27.7154H24.1236C24.1236 27.5714 24.5555 26.3765 25.4193 24.1305C27.0606 19.8978 28.2555 17.7814 29.0042 17.7814C30.4151 17.7814 32.4019 18.1989 34.9646 19.034C36.2027 19.4371 37.2681 20.0274 38.1607 20.8048C39.0534 21.5534 39.4997 22.3885 39.4997 23.3099C39.4997 23.8858 38.9094 25.0087 37.7288 26.6788C36.5771 28.3201 34.8206 30.5228 32.4595 33.2871C33.0066 33.863 33.6976 34.5972 34.5327 35.4898C35.3677 36.3825 36.4763 37.7214 37.8584 39.5066C39.2693 41.2631 39.9748 42.5156 39.9748 43.2643C39.9748 44.0129 39.2981 44.8912 37.9448 45.8989C36.5915 46.878 35.1517 47.6842 33.6257 48.3177C32.0996 48.9223 30.9622 49.2247 30.2135 49.2247C29.724 49.2247 29.0474 48.4904 28.1835 47.0219C27.3485 45.5246 26.3263 43.2931 25.117 40.3273L23.778 41.9253V47.5402ZM54.0113 26.5492V47.8426C54.0113 48.1593 53.1762 48.4184 51.5062 48.62C49.8649 48.7928 48.1661 48.8792 46.4096 48.8792C44.682 48.8792 43.559 48.8072 43.0407 48.6632C42.5512 48.4904 42.3064 48.2169 42.3064 47.8426V27.3267C42.3064 26.6932 43.1127 26.0741 44.7251 25.4695C46.3664 24.836 48.1517 24.5192 50.0809 24.5192C52.7011 24.5192 54.0113 25.1959 54.0113 26.5492ZM48.1373 15.1899C50.0377 15.1899 51.5206 15.4779 52.586 16.0537C53.6801 16.6008 54.2272 17.6086 54.2272 19.0771C54.2272 21.6686 52.2116 22.9644 48.1804 22.9644C44.1493 22.9644 42.1337 21.6686 42.1337 19.0771C42.1337 16.4857 44.1349 15.1899 48.1373 15.1899ZM83.2781 34.5396V47.8426C83.2781 48.1593 82.4575 48.4184 80.8162 48.62C79.1749 48.7928 77.4761 48.8792 75.7196 48.8792C73.992 48.8792 72.869 48.8072 72.3507 48.6632C71.8612 48.4904 71.6165 48.2169 71.6165 47.8426V34.1077C71.6165 32.812 71.5589 31.9626 71.4437 31.5594C71.3573 31.1563 71.2709 30.7964 71.1845 30.4796C70.983 29.9326 70.6231 29.659 70.1048 29.659C69.2985 29.659 68.8954 30.0477 68.8954 30.8252V47.8426C68.8954 48.1593 68.0748 48.4184 66.4335 48.62C64.821 48.7928 63.1366 48.8792 61.3801 48.8792C59.6525 48.8792 58.5295 48.8072 58.0112 48.6632C57.4929 48.4904 57.2337 48.2169 57.2337 47.8426V26.5492C57.2337 25.9446 58.0544 25.3399 59.6957 24.7352C61.3657 24.1305 63.1222 23.8282 64.965 23.8282C66.8078 23.8282 67.8444 24.3609 68.0748 25.4263L68.4635 27.3267H68.7658C69.6009 25.6566 71.0406 24.4905 73.085 23.8282C73.92 23.569 74.8414 23.4395 75.8492 23.4395C78.7574 23.4395 80.7154 24.3177 81.7232 26.0741C82.7598 27.8018 83.2781 30.6236 83.2781 34.5396ZM100.721 46.0285V43.5234H100.375C100.26 43.6674 100.059 43.8546 99.7708 44.0849C99.4828 44.2865 98.763 44.5744 97.6112 44.9487C96.4882 45.3231 95.2069 45.5102 93.7672 45.5102C92.3563 45.5102 91.1613 45.2943 90.1823 44.8624C89.2033 44.4304 88.4403 43.8978 87.8932 43.2643C87.3461 42.602 86.9142 41.7238 86.5974 40.6296C86.1079 38.9308 85.8632 36.6272 85.8632 33.719C85.8632 30.3789 86.5686 27.8162 87.9796 26.0309C88.5266 25.3111 89.3329 24.7064 90.3983 24.2169C91.4925 23.6986 92.6586 23.4395 93.8968 23.4395C95.1349 23.4395 96.1571 23.5834 96.9634 23.8714C97.7696 24.1305 98.3743 24.4473 98.7774 24.8216C99.5836 25.6278 100.044 26.3333 100.16 26.938L100.203 27.3267H100.548L100.937 25.6422C101.225 24.4329 103.5 23.8282 107.761 23.8282C109.662 23.8282 110.813 24.1161 111.216 24.692C111.447 25.0375 111.591 25.3687 111.648 25.6854C111.706 25.9734 111.735 26.4197 111.735 27.0243V45.1215C111.735 48.5192 110.626 51.1107 108.409 52.8959C106.192 54.6812 102.938 55.5738 98.6478 55.5738C94.0983 55.5738 91.003 55.1275 89.3617 54.2349C88.6418 53.8318 88.2819 53.4142 88.2819 52.9823C88.2819 52.2913 88.5554 51.1251 89.1025 49.4838C89.6784 47.8426 90.2111 47.0219 90.7006 47.0219C90.8158 47.0219 91.2189 47.1227 91.91 47.3243C94.0983 47.9001 95.8692 48.1881 97.2225 48.1881C98.6046 48.1881 99.526 48.0153 99.9867 47.6698C100.476 47.3243 100.721 46.7772 100.721 46.0285ZM98.9933 40.5864C99.3101 40.5864 99.5692 40.4712 99.7708 40.2409C99.9723 40.0105 100.073 39.7514 100.073 39.4634V30.566C99.958 29.9614 99.6412 29.659 99.1229 29.659C98.0287 29.659 97.4816 31.4587 97.4816 35.0579C97.4816 36.728 97.6112 38.0669 97.8704 39.0747C98.1583 40.0825 98.5326 40.5864 98.9933 40.5864ZM137.77 49.2679C135.61 49.2679 133.753 49.0807 132.198 48.7064C130.643 48.3321 129.233 47.6698 127.966 46.7196C125.345 44.8192 124.035 41.2775 124.035 36.0945C124.035 31.4874 125.374 28.1905 128.052 26.2037C130.557 24.3609 133.796 23.4395 137.77 23.4395C139.469 23.4395 140.923 23.5258 142.132 23.6986C143.342 23.8426 144.565 24.1737 145.804 24.692C147.071 25.2103 148.078 25.9158 148.827 26.8084C149.604 27.701 150.238 28.9392 150.727 30.5228C151.217 32.0777 151.462 33.935 151.462 36.0945C151.462 40.4712 150.224 43.7682 147.747 45.9853C145.271 48.1737 141.945 49.2679 137.77 49.2679ZM136.258 40.8456C136.46 41.8822 136.661 42.5012 136.863 42.7028C137.093 42.9044 137.381 43.0051 137.727 43.0051C138.101 43.0051 138.389 42.9044 138.591 42.7028C138.821 42.5012 139.023 41.8822 139.195 40.8456C139.397 39.809 139.498 38.5132 139.498 36.9583C139.498 35.3747 139.454 34.1653 139.368 33.3303C139.311 32.4665 139.224 31.8042 139.109 31.3435C139.023 30.8828 138.893 30.5228 138.72 30.2637C138.461 29.8894 138.144 29.7022 137.77 29.7022C137.425 29.7022 137.137 29.8174 136.906 30.0477C136.676 30.2493 136.46 30.8828 136.258 31.9482C136.057 32.9847 135.956 34.4676 135.956 36.3969C135.956 38.3261 136.057 39.809 136.258 40.8456ZM167.985 34.626V47.8426C167.985 48.1593 167.194 48.4184 165.61 48.62C164.026 48.7928 162.083 48.8792 159.779 48.8792C157.476 48.8792 156.324 48.5336 156.324 47.8426V34.626H154.121C153.344 34.626 152.955 33.3159 152.955 30.6956C152.955 29.659 153.128 28.6944 153.473 27.8018C153.847 26.8804 154.323 26.4197 154.898 26.4197H156.324C156.324 24.4905 156.597 22.806 157.144 21.3663C157.72 19.9266 158.397 18.8324 159.174 18.0837C159.981 17.3063 160.945 16.6872 162.068 16.2265C163.738 15.5355 165.639 15.1899 167.769 15.1899C173.125 15.1899 175.803 16.0681 175.803 17.8246C175.803 19.725 175.616 21.2799 175.242 22.4893C174.867 23.6986 174.363 24.3033 173.73 24.3033C173.471 24.3033 172.981 24.2169 172.261 24.0441C171.57 23.8426 170.908 23.7418 170.275 23.7418C168.604 23.7418 167.769 24.3177 167.769 25.4695C167.769 25.7574 167.841 26.0741 167.985 26.4197H173.73C174.507 26.4197 174.896 27.6866 174.896 30.2205C174.896 31.3435 174.723 32.3657 174.378 33.2871C174.061 34.1797 173.629 34.626 173.082 34.626H167.985ZM204.836 48.4904C204.318 48.9799 203.138 49.2247 201.295 49.2247C199.452 49.2247 197.926 49.1095 196.716 48.8792C195.507 48.62 194.355 48.1305 193.261 47.4106C191.159 45.9997 190.108 43.0627 190.108 38.5996V31.8618H187.949C187.632 31.8618 187.358 31.5306 187.128 30.8684C186.898 30.2061 186.782 29.2991 186.782 28.1473C186.782 26.9955 186.955 25.9878 187.301 25.1239C187.675 24.2313 188.15 23.785 188.726 23.785H190.108V18.5588C190.108 17.6662 190.972 16.9464 192.7 16.3993C194.456 15.8522 196.169 15.5786 197.839 15.5786C200.46 15.5786 201.77 16.2265 201.77 17.5223V23.785H204.966C205.715 23.785 206.089 24.8648 206.089 27.0243C206.089 28.4353 205.916 29.6014 205.571 30.5228C205.254 31.4155 204.836 31.8618 204.318 31.8618H201.77V39.7658C201.77 40.5432 202.101 41.1047 202.763 41.4502C203.425 41.767 204.001 41.9253 204.491 41.9253C205.009 41.9253 205.326 42.1701 205.441 42.6596C205.556 43.1491 205.614 43.8834 205.614 44.8624C205.614 46.7916 205.355 48.0009 204.836 48.4904ZM222.736 47.8426V35.8354C222.736 33.6758 222.649 32.1065 222.477 31.1275C222.304 30.1485 221.886 29.659 221.224 29.659C220.648 29.659 220.36 30.0477 220.36 30.8252V47.8426C220.36 48.1593 219.525 48.4184 217.855 48.62C216.185 48.7928 214.472 48.8792 212.715 48.8792C210.959 48.8792 209.85 48.8072 209.39 48.6632C208.929 48.4904 208.699 48.2169 208.699 47.8426V17.911C208.699 17.3063 209.534 16.7016 211.204 16.0969C212.874 15.4923 214.63 15.1899 216.473 15.1899C218.402 15.1899 219.626 15.5499 220.144 16.2697C220.317 16.5001 220.403 16.7448 220.403 17.004V23.3531L219.928 26.3333H220.231C220.634 25.7286 221.267 25.1959 222.131 24.7352C223.744 23.8714 225.5 23.4395 227.4 23.4395C230.136 23.4395 231.979 24.3177 232.929 26.0741C233.908 27.8018 234.397 30.6236 234.397 34.5396V47.8426C234.397 48.1593 233.548 48.4184 231.849 48.62C230.179 48.7928 228.466 48.8792 226.709 48.8792C224.982 48.8792 223.888 48.8072 223.427 48.6632C222.966 48.4904 222.736 48.2169 222.736 47.8426ZM248.782 39.1179C248.782 40.9895 249.674 41.9253 251.46 41.9253C252.496 41.9253 253.85 41.5798 255.52 40.8888C257.19 40.1689 258.068 39.809 258.154 39.809C258.701 39.809 259.421 40.6296 260.314 42.2709C261.207 43.9121 261.653 45.1215 261.653 45.8989C261.653 47.0219 260.501 47.8714 258.198 48.4472C255.894 49.0231 253.634 49.3111 251.417 49.3111C249.228 49.3111 247.385 49.1383 245.888 48.7928C244.42 48.4472 243.21 48.0153 242.26 47.497C241.339 46.9499 240.518 46.2877 239.798 45.5102C239.107 44.7328 238.589 43.9985 238.243 43.3075C237.898 42.5876 237.624 41.7958 237.423 40.9319C237.135 39.665 236.991 38.3549 236.991 37.0015C236.991 31.761 238.358 28.1473 241.094 26.1605C242.447 25.1527 243.959 24.4473 245.629 24.0441C247.299 23.641 249.271 23.4395 251.546 23.4395C258.831 23.4395 262.473 25.9734 262.473 31.0411C262.473 36.4257 258.385 39.1179 250.207 39.1179H248.782ZM248.695 32.812V35.6626C249.53 35.6626 250.207 35.3315 250.725 34.6692C251.273 34.0069 251.546 33.2007 251.546 32.2505C251.546 30.5228 251.1 29.659 250.207 29.659C249.199 29.659 248.695 30.71 248.695 32.812ZM288.788 47.8426V35.8354C288.788 33.6758 288.702 32.1065 288.529 31.1275C288.356 30.1485 287.939 29.659 287.276 29.659C286.701 29.659 286.413 30.0477 286.413 30.8252V47.8426C286.413 48.1593 285.578 48.4184 283.908 48.62C282.237 48.7928 280.524 48.8792 278.768 48.8792C277.011 48.8792 275.903 48.8072 275.442 48.6632C274.981 48.4904 274.751 48.2169 274.751 47.8426V17.911C274.751 17.3063 275.586 16.7016 277.256 16.0969C278.926 15.4923 280.683 15.1899 282.525 15.1899C284.455 15.1899 285.678 15.5499 286.197 16.2697C286.369 16.5001 286.456 16.7448 286.456 17.004V23.3531L285.981 26.3333H286.283C286.686 25.7286 287.32 25.1959 288.183 24.7352C289.796 23.8714 291.552 23.4395 293.453 23.4395C296.188 23.4395 298.031 24.3177 298.981 26.0741C299.96 27.8018 300.45 30.6236 300.45 34.5396V47.8426C300.45 48.1593 299.6 48.4184 297.902 48.62C296.231 48.7928 294.518 48.8792 292.762 48.8792C291.034 48.8792 289.94 48.8072 289.479 48.6632C289.018 48.4904 288.788 48.2169 288.788 47.8426ZM315.352 26.5492V47.8426C315.352 48.1593 314.517 48.4184 312.847 48.62C311.206 48.7928 309.507 48.8792 307.751 48.8792C306.023 48.8792 304.9 48.8072 304.382 48.6632C303.892 48.4904 303.648 48.2169 303.648 47.8426V27.3267C303.648 26.6932 304.454 26.0741 306.066 25.4695C307.708 24.836 309.493 24.5192 311.422 24.5192C314.042 24.5192 315.352 25.1959 315.352 26.5492ZM309.478 15.1899C311.379 15.1899 312.862 15.4779 313.927 16.0537C315.021 16.6008 315.568 17.6086 315.568 19.0771C315.568 21.6686 313.553 22.9644 309.522 22.9644C305.49 22.9644 303.475 21.6686 303.475 19.0771C303.475 16.4857 305.476 15.1899 309.478 15.1899ZM330.237 17.1767V47.8426C330.237 48.1593 329.416 48.4184 327.775 48.62C326.133 48.7928 324.435 48.8792 322.678 48.8792C320.95 48.8792 319.828 48.8072 319.309 48.6632C318.82 48.4904 318.575 48.2169 318.575 47.8426V17.9542C318.575 17.3207 319.381 16.7016 320.994 16.0969C322.635 15.4923 324.391 15.1899 326.263 15.1899C328.912 15.1899 330.237 15.8522 330.237 17.1767ZM344.915 17.1767V47.8426C344.915 48.1593 344.094 48.4184 342.453 48.62C340.812 48.7928 339.113 48.8792 337.356 48.8792C335.629 48.8792 334.506 48.8072 333.987 48.6632C333.498 48.4904 333.253 48.2169 333.253 47.8426V17.9542C333.253 17.3207 334.059 16.7016 335.672 16.0969C337.313 15.4923 339.07 15.1899 340.941 15.1899C343.59 15.1899 344.915 15.8522 344.915 17.1767Z" fill="#0066FF"/>
</g>
<g filter="url(#filter2_d_1_760)">
<path d="M23.778 44.6611C23.778 45.0354 22.8854 45.3377 21.1002 45.5681C19.3437 45.7984 17.5873 45.9136 15.8308 45.9136C14.0744 45.9136 12.9514 45.8128 12.4619 45.6113C11.9724 45.4097 11.7277 45.093 11.7277 44.6611V18.1848C11.7277 17.4361 12.5339 16.7739 14.1464 16.198C15.7876 15.6221 17.6737 15.3342 19.8044 15.3342C21.5609 15.3342 22.6982 15.6797 23.2165 16.3708C23.5909 16.8603 23.778 17.3066 23.778 17.7097V24.8363H24.1236C24.1236 24.6923 24.5555 23.4973 25.4193 21.2514C27.0606 17.0186 28.2555 14.9023 29.0042 14.9023C30.4151 14.9023 32.4019 15.3198 34.9646 16.1548C36.2027 16.5579 37.2681 17.1482 38.1607 17.9256C39.0534 18.6743 39.4997 19.5093 39.4997 20.4307C39.4997 21.0066 38.9094 22.1296 37.7288 23.7997C36.5771 25.4409 34.8206 27.6437 32.4595 30.4079C33.0066 30.9838 33.6976 31.7181 34.5327 32.6107C35.3677 33.5033 36.4763 34.8422 37.8584 36.6275C39.2693 38.3839 39.9748 39.6365 39.9748 40.3851C39.9748 41.1338 39.2981 42.012 37.9448 43.0198C36.5915 43.9988 35.1517 44.805 33.6257 45.4385C32.0996 46.0432 30.9622 46.3455 30.2135 46.3455C29.724 46.3455 29.0474 45.6113 28.1835 44.1428C27.3485 42.6455 26.3263 40.4139 25.117 37.4481L23.778 39.0462V44.6611ZM54.0113 23.6701V44.9634C54.0113 45.2801 53.1762 45.5393 51.5062 45.7409C49.8649 45.9136 48.1661 46 46.4096 46C44.682 46 43.559 45.928 43.0407 45.784C42.5512 45.6113 42.3064 45.3377 42.3064 44.9634V24.4475C42.3064 23.8141 43.1127 23.195 44.7251 22.5903C46.3664 21.9568 48.1517 21.6401 50.0809 21.6401C52.7011 21.6401 54.0113 22.3168 54.0113 23.6701ZM48.1373 12.3108C50.0377 12.3108 51.5206 12.5987 52.586 13.1746C53.6801 13.7217 54.2272 14.7295 54.2272 16.198C54.2272 18.7895 52.2116 20.0852 48.1804 20.0852C44.1493 20.0852 42.1337 18.7895 42.1337 16.198C42.1337 13.6065 44.1349 12.3108 48.1373 12.3108ZM83.2781 31.6605V44.9634C83.2781 45.2801 82.4575 45.5393 80.8162 45.7409C79.1749 45.9136 77.4761 46 75.7196 46C73.992 46 72.869 45.928 72.3507 45.784C71.8612 45.6113 71.6165 45.3377 71.6165 44.9634V31.2286C71.6165 29.9328 71.5589 29.0834 71.4437 28.6803C71.3573 28.2772 71.2709 27.9172 71.1845 27.6005C70.983 27.0534 70.6231 26.7799 70.1048 26.7799C69.2985 26.7799 68.8954 27.1686 68.8954 27.946V44.9634C68.8954 45.2801 68.0748 45.5393 66.4335 45.7409C64.821 45.9136 63.1366 46 61.3801 46C59.6525 46 58.5295 45.928 58.0112 45.784C57.4929 45.6113 57.2337 45.3377 57.2337 44.9634V23.6701C57.2337 23.0654 58.0544 22.4607 59.6957 21.8561C61.3657 21.2514 63.1222 20.949 64.965 20.949C66.8078 20.949 67.8444 21.4817 68.0748 22.5471L68.4635 24.4475H68.7658C69.6009 22.7775 71.0406 21.6113 73.085 20.949C73.92 20.6899 74.8414 20.5603 75.8492 20.5603C78.7574 20.5603 80.7154 21.4385 81.7232 23.195C82.7598 24.9226 83.2781 27.7445 83.2781 31.6605ZM100.721 43.1494V40.6443H100.375C100.26 40.7882 100.059 40.9754 99.7708 41.2058C99.4828 41.4073 98.763 41.6953 97.6112 42.0696C96.4882 42.4439 95.2069 42.6311 93.7672 42.6311C92.3563 42.6311 91.1613 42.4151 90.1823 41.9832C89.2033 41.5513 88.4403 41.0186 87.8932 40.3851C87.3461 39.7229 86.9142 38.8446 86.5974 37.7505C86.1079 36.0516 85.8632 33.7481 85.8632 30.8398C85.8632 27.4997 86.5686 24.937 87.9796 23.1518C88.5266 22.4319 89.3329 21.8273 90.3983 21.3378C91.4925 20.8195 92.6586 20.5603 93.8968 20.5603C95.1349 20.5603 96.1571 20.7043 96.9634 20.9922C97.7696 21.2514 98.3743 21.5681 98.7774 21.9424C99.5836 22.7487 100.044 23.4541 100.16 24.0588L100.203 24.4475H100.548L100.937 22.7631C101.225 21.5537 103.5 20.949 107.761 20.949C109.662 20.949 110.813 21.237 111.216 21.8129C111.447 22.1584 111.591 22.4895 111.648 22.8063C111.706 23.0942 111.735 23.5405 111.735 24.1452V42.2424C111.735 45.6401 110.626 48.2316 108.409 50.0168C106.192 51.802 102.938 52.6947 98.6478 52.6947C94.0983 52.6947 91.003 52.2483 89.3617 51.3557C88.6418 50.9526 88.2819 50.5351 88.2819 50.1032C88.2819 49.4121 88.5554 48.2459 89.1025 46.6047C89.6784 44.9634 90.2111 44.1428 90.7006 44.1428C90.8158 44.1428 91.2189 44.2436 91.91 44.4451C94.0983 45.021 95.8692 45.3089 97.2225 45.3089C98.6046 45.3089 99.526 45.1362 99.9867 44.7906C100.476 44.4451 100.721 43.898 100.721 43.1494ZM98.9933 37.7073C99.3101 37.7073 99.5692 37.5921 99.7708 37.3617C99.9723 37.1314 100.073 36.8722 100.073 36.5843V27.6869C99.958 27.0822 99.6412 26.7799 99.1229 26.7799C98.0287 26.7799 97.4816 28.5795 97.4816 32.1788C97.4816 33.8488 97.6112 35.1878 97.8704 36.1956C98.1583 37.2034 98.5326 37.7073 98.9933 37.7073ZM137.77 46.3887C135.61 46.3887 133.753 46.2016 132.198 45.8272C130.643 45.4529 129.233 44.7906 127.966 43.8404C125.345 41.94 124.035 38.3983 124.035 33.2154C124.035 28.6083 125.374 25.3114 128.052 23.3246C130.557 21.4817 133.796 20.5603 137.77 20.5603C139.469 20.5603 140.923 20.6467 142.132 20.8195C143.342 20.9634 144.565 21.2946 145.804 21.8129C147.071 22.3312 148.078 23.0366 148.827 23.9292C149.604 24.8219 150.238 26.06 150.727 27.6437C151.217 29.1986 151.462 31.0558 151.462 33.2154C151.462 37.5921 150.224 40.889 147.747 43.1062C145.271 45.2945 141.945 46.3887 137.77 46.3887ZM136.258 37.9664C136.46 39.003 136.661 39.6221 136.863 39.8236C137.093 40.0252 137.381 40.126 137.727 40.126C138.101 40.126 138.389 40.0252 138.591 39.8236C138.821 39.6221 139.023 39.003 139.195 37.9664C139.397 36.9298 139.498 35.6341 139.498 34.0792C139.498 32.4955 139.454 31.2862 139.368 30.4511C139.311 29.5873 139.224 28.925 139.109 28.4643C139.023 28.0036 138.893 27.6437 138.72 27.3845C138.461 27.0102 138.144 26.8231 137.77 26.8231C137.425 26.8231 137.137 26.9382 136.906 27.1686C136.676 27.3701 136.46 28.0036 136.258 29.069C136.057 30.1056 135.956 31.5885 135.956 33.5177C135.956 35.4469 136.057 36.9298 136.258 37.9664ZM167.985 31.7469V44.9634C167.985 45.2801 167.194 45.5393 165.61 45.7409C164.026 45.9136 162.083 46 159.779 46C157.476 46 156.324 45.6545 156.324 44.9634V31.7469H154.121C153.344 31.7469 152.955 30.4367 152.955 27.8165C152.955 26.7799 153.128 25.8153 153.473 24.9226C153.847 24.0012 154.323 23.5405 154.898 23.5405H156.324C156.324 21.6113 156.597 19.9268 157.144 18.4871C157.72 17.0474 158.397 15.9532 159.174 15.2046C159.981 14.4271 160.945 13.8081 162.068 13.3474C163.738 12.6563 165.639 12.3108 167.769 12.3108C173.125 12.3108 175.803 13.189 175.803 14.9454C175.803 16.8459 175.616 18.4007 175.242 19.6101C174.867 20.8195 174.363 21.4241 173.73 21.4241C173.471 21.4241 172.981 21.3378 172.261 21.165C171.57 20.9634 170.908 20.8627 170.275 20.8627C168.604 20.8627 167.769 21.4385 167.769 22.5903C167.769 22.8782 167.841 23.195 167.985 23.5405H173.73C174.507 23.5405 174.896 24.8075 174.896 27.3414C174.896 28.4643 174.723 29.4865 174.378 30.4079C174.061 31.3006 173.629 31.7469 173.082 31.7469H167.985ZM204.836 45.6113C204.318 46.1008 203.138 46.3455 201.295 46.3455C199.452 46.3455 197.926 46.2304 196.716 46C195.507 45.7409 194.355 45.2514 193.261 44.5315C191.159 43.1206 190.108 40.1836 190.108 35.7205V28.9826H187.949C187.632 28.9826 187.358 28.6515 187.128 27.9892C186.898 27.327 186.782 26.4199 186.782 25.2682C186.782 24.1164 186.955 23.1086 187.301 22.2448C187.675 21.3522 188.15 20.9058 188.726 20.9058H190.108V15.6797C190.108 14.7871 190.972 14.0672 192.7 13.5201C194.456 12.973 196.169 12.6995 197.839 12.6995C200.46 12.6995 201.77 13.3474 201.77 14.6431V20.9058H204.966C205.715 20.9058 206.089 21.9856 206.089 24.1452C206.089 25.5561 205.916 26.7223 205.571 27.6437C205.254 28.5363 204.836 28.9826 204.318 28.9826H201.77V36.8866C201.77 37.6641 202.101 38.2256 202.763 38.5711C203.425 38.8878 204.001 39.0462 204.491 39.0462C205.009 39.0462 205.326 39.2909 205.441 39.7805C205.556 40.27 205.614 41.0042 205.614 41.9832C205.614 43.9124 205.355 45.1218 204.836 45.6113ZM222.736 44.9634V32.9562C222.736 30.7967 222.649 29.2274 222.477 28.2484C222.304 27.2694 221.886 26.7799 221.224 26.7799C220.648 26.7799 220.36 27.1686 220.36 27.946V44.9634C220.36 45.2801 219.525 45.5393 217.855 45.7409C216.185 45.9136 214.472 46 212.715 46C210.959 46 209.85 45.928 209.39 45.784C208.929 45.6113 208.699 45.3377 208.699 44.9634V15.0318C208.699 14.4271 209.534 13.8225 211.204 13.2178C212.874 12.6131 214.63 12.3108 216.473 12.3108C218.402 12.3108 219.626 12.6707 220.144 13.3906C220.317 13.6209 220.403 13.8657 220.403 14.1248V20.4739L219.928 23.4541H220.231C220.634 22.8495 221.267 22.3168 222.131 21.8561C223.744 20.9922 225.5 20.5603 227.4 20.5603C230.136 20.5603 231.979 21.4385 232.929 23.195C233.908 24.9226 234.397 27.7445 234.397 31.6605V44.9634C234.397 45.2801 233.548 45.5393 231.849 45.7409C230.179 45.9136 228.466 46 226.709 46C224.982 46 223.888 45.928 223.427 45.784C222.966 45.6113 222.736 45.3377 222.736 44.9634ZM248.782 36.2388C248.782 38.1104 249.674 39.0462 251.46 39.0462C252.496 39.0462 253.85 38.7007 255.52 38.0096C257.19 37.2898 258.068 36.9298 258.154 36.9298C258.701 36.9298 259.421 37.7505 260.314 39.3917C261.207 41.033 261.653 42.2424 261.653 43.0198C261.653 44.1428 260.501 44.9922 258.198 45.5681C255.894 46.144 253.634 46.4319 251.417 46.4319C249.228 46.4319 247.385 46.2591 245.888 45.9136C244.42 45.5681 243.21 45.1362 242.26 44.6179C241.339 44.0708 240.518 43.4085 239.798 42.6311C239.107 41.8536 238.589 41.1194 238.243 40.4283C237.898 39.7085 237.624 38.9166 237.423 38.0528C237.135 36.7859 236.991 35.4757 236.991 34.1224C236.991 28.8818 238.358 25.2682 241.094 23.2814C242.447 22.2736 243.959 21.5681 245.629 21.165C247.299 20.7619 249.271 20.5603 251.546 20.5603C258.831 20.5603 262.473 23.0942 262.473 28.162C262.473 33.5465 258.385 36.2388 250.207 36.2388H248.782ZM248.695 29.9328V32.7835C249.53 32.7835 250.207 32.4523 250.725 31.7901C251.273 31.1278 251.546 30.3216 251.546 29.3713C251.546 27.6437 251.1 26.7799 250.207 26.7799C249.199 26.7799 248.695 27.8309 248.695 29.9328ZM288.788 44.9634V32.9562C288.788 30.7967 288.702 29.2274 288.529 28.2484C288.356 27.2694 287.939 26.7799 287.276 26.7799C286.701 26.7799 286.413 27.1686 286.413 27.946V44.9634C286.413 45.2801 285.578 45.5393 283.908 45.7409C282.237 45.9136 280.524 46 278.768 46C277.011 46 275.903 45.928 275.442 45.784C274.981 45.6113 274.751 45.3377 274.751 44.9634V15.0318C274.751 14.4271 275.586 13.8225 277.256 13.2178C278.926 12.6131 280.683 12.3108 282.525 12.3108C284.455 12.3108 285.678 12.6707 286.197 13.3906C286.369 13.6209 286.456 13.8657 286.456 14.1248V20.4739L285.981 23.4541H286.283C286.686 22.8495 287.32 22.3168 288.183 21.8561C289.796 20.9922 291.552 20.5603 293.453 20.5603C296.188 20.5603 298.031 21.4385 298.981 23.195C299.96 24.9226 300.45 27.7445 300.45 31.6605V44.9634C300.45 45.2801 299.6 45.5393 297.902 45.7409C296.231 45.9136 294.518 46 292.762 46C291.034 46 289.94 45.928 289.479 45.784C289.018 45.6113 288.788 45.3377 288.788 44.9634ZM315.352 23.6701V44.9634C315.352 45.2801 314.517 45.5393 312.847 45.7409C311.206 45.9136 309.507 46 307.751 46C306.023 46 304.9 45.928 304.382 45.784C303.892 45.6113 303.648 45.3377 303.648 44.9634V24.4475C303.648 23.8141 304.454 23.195 306.066 22.5903C307.708 21.9568 309.493 21.6401 311.422 21.6401C314.042 21.6401 315.352 22.3168 315.352 23.6701ZM309.478 12.3108C311.379 12.3108 312.862 12.5987 313.927 13.1746C315.021 13.7217 315.568 14.7295 315.568 16.198C315.568 18.7895 313.553 20.0852 309.522 20.0852C305.49 20.0852 303.475 18.7895 303.475 16.198C303.475 13.6065 305.476 12.3108 309.478 12.3108ZM330.237 14.2976V44.9634C330.237 45.2801 329.416 45.5393 327.775 45.7409C326.133 45.9136 324.435 46 322.678 46C320.95 46 319.828 45.928 319.309 45.784C318.82 45.6113 318.575 45.3377 318.575 44.9634V15.075C318.575 14.4415 319.381 13.8225 320.994 13.2178C322.635 12.6131 324.391 12.3108 326.263 12.3108C328.912 12.3108 330.237 12.973 330.237 14.2976ZM344.915 14.2976V44.9634C344.915 45.2801 344.094 45.5393 342.453 45.7409C340.812 45.9136 339.113 46 337.356 46C335.629 46 334.506 45.928 333.987 45.784C333.498 45.6113 333.253 45.3377 333.253 44.9634V15.075C333.253 14.4415 334.059 13.8225 335.672 13.2178C337.313 12.6131 339.07 12.3108 340.941 12.3108C343.59 12.3108 344.915 12.973 344.915 14.2976Z" fill="#F2BB16"/>
</g>
<defs>
<filter id="filter0_d_1_760" x="0.209855" y="7.99208" width="356.223" height="63.4192" filterUnits="userSpaceOnUse" color-interpolation-filters="sRGB">
<feFlood flood-opacity="0" result="BackgroundImageFix"/>
<feColorMatrix in="SourceAlpha" type="matrix" values="0 0 0 0 0 0 0 0 0 0 0 0 0 0 0 0 0 0 127 0" result="hardAlpha"/>
<feOffset/>
<feGaussianBlur stdDeviation="5.75884"/>
<feComposite in2="hardAlpha" operator="out"/>
<feColorMatrix type="matrix" values="0 0 0 0 0 0 0 0 0 0 0 0 0 0 0 0 0 0 0.25 0"/>
<feBlend mode="normal" in2="BackgroundImageFix" result="effect1_dropShadow_1_760"/>
<feBlend mode="normal" in="SourceGraphic" in2="effect1_dropShadow_1_760" result="shape"/>
</filter>
<filter id="filter1_d_1_760" x="0.209855" y="3.67226" width="356.223" height="63.4192" filterUnits="userSpaceOnUse" color-interpolation-filters="sRGB">
<feFlood flood-opacity="0" result="BackgroundImageFix"/>
<feColorMatrix in="SourceAlpha" type="matrix" values="0 0 0 0 0 0 0 0 0 0 0 0 0 0 0 0 0 0 127 0" result="hardAlpha"/>
<feOffset/>
<feGaussianBlur stdDeviation="5.75884"/>
<feComposite in2="hardAlpha" operator="out"/>
<feColorMatrix type="matrix" values="0 0 0 0 0 0 0 0 0 0 0 0 0 0 0 0 0 0 0.25 0"/>
<feBlend mode="normal" in2="BackgroundImageFix" result="effect1_dropShadow_1_760"/>
<feBlend mode="normal" in="SourceGraphic" in2="effect1_dropShadow_1_760" result="shape"/>
</filter>
<filter id="filter2_d_1_760" x="0.209855" y="0.793107" width="356.223" height="63.4192" filterUnits="userSpaceOnUse" color-interpolation-filters="sRGB">
<feFlood flood-opacity="0" result="BackgroundImageFix"/>
<feColorMatrix in="SourceAlpha" type="matrix" values="0 0 0 0 0 0 0 0 0 0 0 0 0 0 0 0 0 0 127 0" result="hardAlpha"/>
<feOffset/>
<feGaussianBlur stdDeviation="5.75884"/>
<feComposite in2="hardAlpha" operator="out"/>
<feColorMatrix type="matrix" values="0 0 0 0 0 0 0 0 0 0 0 0 0 0 0 0 0 0 0.25 0"/>
<feBlend mode="normal" in2="BackgroundImageFix" result="effect1_dropShadow_1_760"/>
<feBlend mode="normal" in="SourceGraphic" in2="effect1_dropShadow_1_760" result="shape"/>
</filter>
</defs>
</svg>
