<svg width="100%" height="100%" viewBox="0 0 20 23" fill="none" xmlns="http://www.w3.org/2000/svg">
<g id="Group 306">
<g id="Group 305">
<path id="Path 305" d="M16.0646 12.0441C16.0747 11.1944 16.3006 10.3611 16.7203 9.62223C17.1401 8.88334 17.7403 8.26286 18.465 7.81901C18.0049 7.16375 17.3992 6.62407 16.6954 6.24235C15.9917 5.86063 15.2089 5.64755 14.4088 5.6193C12.6818 5.4433 11.0377 6.63493 10.1627 6.63493C9.28771 6.63493 7.93453 5.64411 6.50353 5.66911C5.56312 5.69538 4.64592 5.96558 3.84142 6.45329C3.03693 6.941 2.3729 7.6297 1.91467 8.45133C-0.0413332 11.8443 1.41492 16.8721 3.32092 19.6261C4.25192 20.9721 5.36392 22.4873 6.82092 22.4313C8.22592 22.3763 8.75671 21.5221 10.4547 21.5221C12.1527 21.5221 12.6308 22.431 14.1168 22.403C15.6278 22.375 16.5859 21.0313 17.5099 19.6803C18.1704 18.7077 18.6874 17.6449 19.0455 16.5251C18.1656 16.1505 17.4146 15.5269 16.8849 14.7306C16.3552 13.9344 16.07 13.0004 16.0646 12.0441Z" fill="white"/>
<path id="Path 306" d="M13.2722 3.7998C14.109 2.81795 14.5241 1.54515 14.4265 0.258789C13.1632 0.381128 11.9943 0.981991 11.1594 1.93799C10.7433 2.40203 10.4246 2.94511 10.2224 3.53467C10.0202 4.12423 9.93843 4.74838 9.98216 5.37012C10.6143 5.37866 11.2402 5.24151 11.8108 4.96924C12.3813 4.69697 12.8812 4.29658 13.2722 3.7998Z" fill="white"/>
</g>
</g>
</svg>
