<svg width="100%" height="100%" viewBox="0 0 17 16" fill="none" xmlns="http://www.w3.org/2000/svg">
<path d="M10.0406 0.758955L16.7192 7.32146C16.8995 7.49845 17.0015 7.74373 17.0015 8.00037C17.0015 8.25701 16.8995 8.50193 16.7192 8.67928L10.0406 15.2418C9.67658 15.5982 9.10033 15.5848 8.75274 15.21C8.4053 14.839 8.41835 14.2432 8.78357 13.8843L13.8191 8.93894H0.911095C0.408304 8.93894 0 8.51863 0 8.00105C0 7.48347 0.408304 7.06394 0.911095 7.06394H13.8167L8.7812 2.11862C8.41653 1.75896 8.40515 1.16325 8.75046 0.790986C9.09957 0.415986 9.6422 0.402705 10.0406 0.758955Z" fill="currentColor"/>
</svg>
