<svg width="27" height="21" viewBox="0 0 27 21" fill="none" xmlns="http://www.w3.org/2000/svg">
<g id="Group 1142">
<path id="Path 1154" d="M23.1833 0.988014C22.6553 1.28801 21.7323 1.8709 20.9543 2.3679C20.6499 2.00418 20.2717 1.70927 19.8449 1.50242C19.4181 1.29557 18.9523 1.18153 18.4782 1.16795H15.2422C14.749 1.49289 14.1714 1.66599 13.5808 1.66599C12.9902 1.66599 12.4124 1.49289 11.9192 1.16795H8.68332C8.20908 1.18152 7.7431 1.29533 7.31613 1.50217C6.88917 1.70902 6.51087 2.00416 6.20627 2.3679C5.42927 1.8679 4.50624 1.29001 3.97824 0.988014C2.46424 0.123014 -0.0108547 1.57899 0.878145 4.31199C1.20325 4.95128 1.67977 5.50121 2.26608 5.91428C2.8524 6.32735 3.53074 6.59091 4.24216 6.68186C3.19516 9.53286 1.94215 13.107 1.80515 13.531C1.55936 14.1721 1.517 14.8732 1.68357 15.5393C1.85013 16.2054 2.21769 16.804 2.7363 17.2539C3.9363 18.1849 9.59519 20.563 9.59519 20.563H17.5722C17.5722 20.563 23.2341 18.1849 24.4311 17.2539C24.9498 16.804 25.3175 16.2054 25.4839 15.5393C25.6503 14.8732 25.6075 14.1719 25.3613 13.531C25.2203 13.107 23.9713 9.53086 22.9253 6.68186C23.6367 6.59125 24.3151 6.32789 24.9013 5.91477C25.4875 5.50166 25.9637 4.95148 26.2883 4.31199C27.1723 1.57899 24.7003 0.123014 23.1833 0.988014Z" fill="#766258"/>
<g id="Group 1140">
<g id="Group 1138">
<path id="Path 1155" d="M7.56027 3.24094C7.56027 3.24094 5.01224 1.57901 3.97824 0.988014C2.46424 0.123014 -0.0108547 1.57899 0.878145 4.31199C1.29115 5.58499 3.24217 6.82395 5.60617 6.82395L7.56027 3.24094Z" fill="#BC2B55"/>
<path id="Path 1156" d="M5.45516 3.97986L3.12801 2.42883C2.73701 2.16783 1.79904 3.68485 2.98104 4.79285C3.30649 5.01563 3.67542 5.16696 4.06356 5.23694C4.45171 5.30692 4.85023 5.29396 5.23299 5.19885L5.45516 3.97986Z" fill="#BF9862"/>
<path id="Path 1157" d="M8.68335 1.16786C8.04374 1.20657 7.42519 1.41136 6.88892 1.7621C6.35265 2.11283 5.91708 2.59739 5.62525 3.16786C5.09325 4.09786 2.02525 12.8519 1.80225 13.5309C1.55647 14.172 1.51386 14.8731 1.68042 15.5392C1.84699 16.2053 2.21455 16.8039 2.73316 17.2538C3.93316 18.1848 9.59229 20.5629 9.59229 20.5629H13.5803V1.66273C13.3524 1.47021 13.0872 1.32661 12.8015 1.24061C12.5158 1.15461 12.2155 1.12803 11.9192 1.16273L8.68335 1.16786Z" fill="#BC2B55"/>
<path id="Path 1158" d="M8.92752 9.63086C8.92752 9.79873 8.8777 9.96294 8.78445 10.1025C8.69121 10.2421 8.55867 10.351 8.40359 10.4153C8.24852 10.4796 8.07802 10.4963 7.91336 10.4636C7.7487 10.4309 7.59732 10.3503 7.47854 10.2317C7.35977 10.1131 7.27875 9.96174 7.24588 9.79712C7.21301 9.6325 7.22987 9.46179 7.29397 9.30664C7.35808 9.15149 7.46674 9.01895 7.60623 8.92554C7.74572 8.83213 7.90955 8.78218 8.07742 8.78198C8.30268 8.78198 8.51887 8.87133 8.67825 9.03052C8.83763 9.18971 8.92725 9.4056 8.92752 9.63086Z" fill="white"/>
</g>
<g id="Group 1139">
<path id="Path 1159" d="M19.6001 3.24094C19.6001 3.24094 22.1479 1.57901 23.1819 0.988014C24.6949 0.123014 27.171 1.57899 26.282 4.31199C25.87 5.58499 23.9189 6.82395 21.5549 6.82395L19.6001 3.24094Z" fill="#93153F"/>
<path id="Path 1160" d="M21.7061 3.97986L24.032 2.42883C24.424 2.16783 25.3619 3.68485 24.1799 4.79285C23.8542 5.01543 23.4852 5.16673 23.0969 5.2367C22.7087 5.30666 22.3099 5.29372 21.927 5.19885L21.7061 3.97986Z" fill="#BF9862"/>
<path id="Path 1161" d="M18.478 1.16808C19.1176 1.207 19.736 1.41185 20.2722 1.76257C20.8085 2.11328 21.2439 2.59774 21.5359 3.16808C22.0669 4.09808 25.1359 12.8521 25.3589 13.5311C25.6047 14.1722 25.6473 14.8734 25.4807 15.5394C25.3142 16.2055 24.9466 16.8041 24.428 17.254C23.228 18.185 17.5691 20.5631 17.5691 20.5631H13.5801V1.66296C13.8082 1.47046 14.0733 1.32684 14.3591 1.24084C14.645 1.15484 14.9455 1.12829 15.2419 1.16296L18.478 1.16808Z" fill="#93153F"/>
<path id="Path 1162" d="M18.2339 9.63086C18.2337 9.79906 18.2836 9.96358 18.377 10.1035C18.4703 10.2435 18.6029 10.3525 18.7583 10.417C18.9137 10.4815 19.0845 10.4983 19.2495 10.4656C19.4145 10.4328 19.5661 10.3518 19.6851 10.2329C19.804 10.114 19.885 9.96258 19.9177 9.79761C19.9505 9.63263 19.9336 9.46151 19.8691 9.30615C19.8047 9.15079 19.6956 9.01813 19.5557 8.92481C19.4157 8.83148 19.2512 8.78179 19.083 8.78198C18.9715 8.78198 18.8611 8.80377 18.7581 8.84644C18.6551 8.8891 18.5615 8.95168 18.4827 9.03052C18.4038 9.10936 18.3413 9.2029 18.2986 9.30591C18.2559 9.40891 18.2339 9.51937 18.2339 9.63086Z" fill="white"/>
</g>
</g>
<g id="Group 1141">
<path id="Path 1163" d="M13.1373 18.1989C12.8765 18.2048 12.6172 18.1584 12.3746 18.0627C12.1319 17.9669 11.9107 17.8239 11.7242 17.6415C11.5377 17.4592 11.3896 17.2413 11.2884 17.0009C11.1872 16.7605 11.1351 16.5022 11.1351 16.2414C11.1351 15.9805 11.1872 15.7223 11.2884 15.4819C11.3896 15.2414 11.5377 15.0236 11.7242 14.8412C11.9107 14.6589 12.1319 14.5156 12.3746 14.4198C12.6172 14.3241 12.8765 14.278 13.1373 14.2839H13.5804V9.30973H11.6334C11.2143 9.30144 10.8024 9.42029 10.4522 9.65055C10.102 9.88082 9.82968 10.2118 9.6712 10.5998L8.12041 14.7069C7.96182 15.1203 7.96182 15.5776 8.12041 15.9909L9.01031 18.2987C9.1702 18.6839 9.44247 19.012 9.79156 19.2402C10.1406 19.4683 10.5504 19.586 10.9673 19.5778H13.5762V18.1989H13.1373Z" fill="#DDBC99"/>
<path id="Path 1164" d="M19.041 14.7079L17.489 10.6008C17.3306 10.2127 17.0585 9.88183 16.7083 9.65154C16.358 9.42126 15.9462 9.30254 15.5271 9.31097H13.5801V14.2848H14.0229C14.2837 14.2789 14.5432 14.3253 14.7859 14.4211C15.0285 14.5168 15.2495 14.6599 15.436 14.8422C15.6226 15.0246 15.7706 15.2424 15.8718 15.4828C15.973 15.7233 16.0251 15.9815 16.0251 16.2424C16.0251 16.5032 15.973 16.7615 15.8718 17.0019C15.7706 17.2423 15.6226 17.4602 15.436 17.6425C15.2495 17.8249 15.0285 17.9679 14.7859 18.0637C14.5432 18.1594 14.2837 18.2058 14.0229 18.1999H13.5801V19.5788H16.189C16.6059 19.5869 17.0157 19.4693 17.3647 19.2411C17.7138 19.013 17.9861 18.6849 18.146 18.2997L19.0359 15.9919C19.1961 15.5792 19.198 15.1219 19.041 14.7079Z" fill="#DCB78B"/>
<path id="Path 1165" d="M14.0229 18.199C14.2837 18.2049 14.5432 18.1585 14.7859 18.0628C15.0285 17.967 15.2495 17.824 15.436 17.6416C15.6226 17.4593 15.7706 17.2414 15.8718 17.001C15.973 16.7606 16.0251 16.5023 16.0251 16.2415C16.0251 15.9806 15.973 15.7224 15.8718 15.4819C15.7706 15.2415 15.6226 15.0237 15.436 14.8413C15.2495 14.659 15.0285 14.5157 14.7859 14.4199C14.5432 14.3242 14.2837 14.2781 14.0229 14.2839H13.5801V18.199H14.0229Z" fill="#564237"/>
<path id="Path 1166" d="M11.1792 16.2419C11.1792 16.7612 11.3855 17.2593 11.7527 17.6265C12.1199 17.9937 12.6179 18.2 13.1372 18.2H13.5803V14.2849H13.1372C12.6181 14.2849 12.1203 14.4912 11.7532 14.8582C11.386 15.2251 11.1795 15.7228 11.1792 16.2419Z" fill="#604C3F"/>
</g>
</g>
</svg>
