<svg width="100%" height="100%" viewBox="0 0 31 29" fill="none" xmlns="http://www.w3.org/2000/svg">
<path id="layer2" d="M22.157 0.470947L21.392 2.97095C23.7322 3.69053 25.692 5.30773 26.8427 7.46875C27.9934 9.62977 28.2413 12.1586 27.532 14.502L30.032 15.2639C30.4897 13.7749 30.6489 12.2101 30.5003 10.6594C30.3518 9.10872 29.8985 7.60263 29.1664 6.22754C28.4344 4.85245 27.438 3.63555 26.2345 2.64648C25.0309 1.65742 23.6439 0.915811 22.1531 0.464111L22.157 0.470947ZM15.751 2.66406L0.151037 18.2119C0.143996 19.8084 0.695486 21.3573 1.71003 22.5901L6.18003 21.833L9.25104 28.593L14.565 27.7451L11.5841 20.9619L23.576 18.4771C22.133 14.2271 20.1 10.4231 15.751 2.66406ZM21.003 4.25293L20.236 6.76001C21.5736 7.17108 22.694 8.09508 23.352 9.33008C24.0099 10.5651 24.152 12.0106 23.747 13.3501L26.254 14.115C26.5592 13.1227 26.6653 12.08 26.5664 11.0466C26.4674 10.0132 26.1653 9.00936 25.6774 8.09302C25.1895 7.17668 24.5254 6.36578 23.7232 5.70679C22.9211 5.0478 21.9966 4.55369 21.003 4.25293Z" fill="url(#paint0_linear_317_1639)"/>
<defs>
<linearGradient id="paint0_linear_317_1639" x1="21" y1="-5.5" x2="1.00623" y2="40.5873" gradientUnits="userSpaceOnUse">
<stop stop-color="#803EDF"/>
<stop offset="0.349" stop-color="#BF80DA"/>
<stop offset="0.418" stop-color="#9084D7"/>
<stop offset="0.554" stop-color="#388BD3"/>
<stop offset="0.616" stop-color="#168FD2"/>
<stop offset="0.821" stop-color="#14D480"/>
</linearGradient>
</defs>
</svg>
