<svg width="100%" height="100%" viewBox="0 0 25 24" fill="none" xmlns="http://www.w3.org/2000/svg">
<g id="Group 1075">
<path id="Path 1040" d="M7.54189 7.01598C7.09199 7.15488 6.61635 7.18884 6.15127 7.11534C5.68619 7.04184 5.24393 6.86301 4.85879 6.59215C4.40018 6.22107 4.04777 5.73545 3.83706 5.18443C3.62634 4.63342 3.56484 4.03636 3.65883 3.45396C3.73082 2.6742 4.09033 1.94915 4.66738 1.41978C5.24443 0.890419 5.99784 0.59458 6.7809 0.589951C6.4162 0.315338 5.98939 0.135323 5.53823 0.0655369C5.08706 -0.00424884 4.62559 0.0384567 4.19497 0.190049C3.35369 0.561543 2.61213 1.12648 2.03066 1.83897C1.44919 2.55147 1.04432 3.39147 0.84902 4.29015C0.22802 9.41115 7.18984 9.92711 7.18984 9.92711C10.8488 9.79111 11.2018 5.76793 11.2018 5.76793C9.91854 5.96804 8.68008 6.39042 7.54189 7.01598Z" fill="#EAE7D0"/>
<path id="Path 1041" d="M7.54189 7.01587C6.28265 7.26494 4.97797 7.13996 3.78896 6.65625C2.59995 6.17254 1.57872 5.35135 0.850973 4.29395C0.229973 9.41495 7.19179 9.93091 7.19179 9.93091C10.8508 9.79491 11.204 5.77197 11.204 5.77197C9.9203 5.97061 8.68096 6.39148 7.54189 7.01587Z" fill="#DDD9BF"/>
<path id="Path 1042" d="M24.8369 4.29893C24.6416 3.40026 24.2367 2.56051 23.6553 1.84801C23.0738 1.13551 22.3322 0.570576 21.491 0.199081C21.0603 0.0477556 20.5991 0.00503572 20.1479 0.0748139C19.6968 0.144592 19.2699 0.324612 18.905 0.598984C19.6881 0.603613 20.4415 0.899452 21.0186 1.42882C21.5956 1.95818 21.9551 2.68323 22.0271 3.463C22.1215 4.04541 22.0601 4.64237 21.8494 5.19347C21.6386 5.74456 21.2858 6.23013 20.8269 6.60094C20.4418 6.8718 19.9997 7.05088 19.5347 7.12437C19.0696 7.19787 18.5939 7.16391 18.144 7.02501C17.005 6.40062 15.7656 5.97975 14.4819 5.78111C14.4819 5.78111 14.8349 9.80405 18.4939 9.94005C18.4999 9.93105 25.4579 9.41494 24.8369 4.29893Z" fill="#EAE7D0"/>
<path id="Path 1043" d="M24.8369 4.29883C24.1092 5.35624 23.0879 6.17767 21.8989 6.66138C20.7099 7.14508 19.4052 7.27007 18.146 7.021C17.0069 6.39661 15.7676 5.9755 14.4839 5.77686C14.4839 5.77686 14.8371 9.80003 18.4961 9.93604C18.5001 9.93104 25.4579 9.41483 24.8369 4.29883Z" fill="#DDD9BF"/>
<path id="Path 1044" d="M20.7771 9.98678C19.2171 9.77578 17.7161 10.7588 17.7161 11.2458C17.7161 11.7328 18.258 12.7728 20.355 13.1118C20.9933 13.1421 21.6261 12.9807 22.1719 12.6482C22.7176 12.3156 23.1513 11.827 23.417 11.2458C23.417 10.7588 22.3371 10.1988 20.7771 9.98678Z" fill="#146D51"/>
<path id="Path 1045" d="M20.376 10.5988C19.427 10.4708 18.5139 11.0679 18.5139 11.3649C18.5139 11.6619 18.8441 12.2929 20.1201 12.4989C20.508 12.5171 20.8925 12.4188 21.2241 12.2167C21.5557 12.0146 21.8192 11.718 21.981 11.3649C21.981 11.0659 21.325 10.7248 20.376 10.5988Z" fill="#0B4237"/>
<path id="Path 1046" d="M5.14404 9.9868C3.58404 10.1968 2.50391 10.7588 2.50391 11.2458C2.76961 11.8271 3.20329 12.3156 3.74902 12.6482C4.29476 12.9807 4.92755 13.1421 5.56592 13.1118C7.66592 12.7728 8.20508 11.7338 8.20508 11.2458C8.20508 10.7578 6.70004 9.7758 5.14404 9.9868Z" fill="#146D51"/>
<path id="Path 1047" d="M5.54492 10.599C4.59592 10.727 3.93896 11.0681 3.93896 11.3651C4.10076 11.7183 4.36447 12.0151 4.69629 12.2171C5.02811 12.4192 5.41294 12.5175 5.80103 12.4991C7.07703 12.2931 7.40698 11.6611 7.40698 11.3651C7.40698 11.0691 6.49392 10.469 5.54492 10.599Z" fill="#0B4237"/>
<path id="Path 1048" d="M18.5521 10.804C18.5521 10.804 19.2702 9.33988 18.8392 8.65088C18.4548 8.38002 18.0123 8.20312 17.5472 8.13403C16.2119 7.1648 14.6042 6.64282 12.9542 6.64282C11.3042 6.64282 9.69648 7.1648 8.36117 8.13403C7.89602 8.20304 7.45353 8.37996 7.06918 8.65088C6.63818 9.33988 7.35604 10.804 7.35604 10.804C7.40805 11.4015 7.35933 12.0035 7.212 12.585C6.896 14.685 9.51205 19.7058 9.51205 19.7058C9.74205 20.1058 10.7181 22.9138 12.9571 22.9138C15.1961 22.9138 16.172 20.1078 16.401 19.7058C16.401 19.7058 19.014 14.681 18.701 12.585C18.5515 12.0039 18.5012 11.4018 18.5521 10.804Z" fill="#1D9976"/>
<path id="Path 1049" d="M17.5472 8.13403C16.2119 7.1648 14.6042 6.64282 12.9542 6.64282C11.3042 6.64282 9.69649 7.1648 8.36118 8.13403C7.94118 8.13403 9.60507 11.762 9.60507 11.762L10.4381 17.7129C10.6671 18.1129 10.7152 22.9128 12.9542 22.9128C15.1932 22.9128 15.335 17.9809 15.565 17.5789L16.3031 11.761C16.3031 11.761 17.8522 8.13403 17.5472 8.13403Z" fill="#1FAD84"/>
<path id="Path 1050" d="M8.36103 8.13403C7.99003 8.13403 9.60493 11.762 9.60493 11.762L10.4379 17.7129C10.6669 18.1129 10.715 22.9128 12.9541 22.9128V6.64185C11.3371 6.81981 9.77387 7.3278 8.36103 8.13403Z" fill="#30C49D"/>
<path id="Path 1051" d="M12.8711 17.427C9.23109 17.427 9.20093 18.886 9.20093 18.886C9.26254 19.6185 9.36548 20.3469 9.50903 21.0679C9.83351 21.6916 10.3312 22.2084 10.9424 22.5559C11.5535 22.9034 12.2522 23.0669 12.9541 23.0269C13.6582 23.082 14.3627 22.9249 14.9766 22.5757C15.5905 22.2265 16.0855 21.7012 16.3979 21.0679C16.5688 20.3518 16.6724 19.6214 16.707 18.886C16.707 18.886 16.5111 17.427 12.8711 17.427Z" fill="#146D51"/>
<g id="Group 1073">
<path id="Path 1052" d="M10.7891 19.0698C9.85605 22.0868 12.5439 21.3188 12.5439 21.3188C11.4089 20.9458 10.7891 19.0698 10.7891 19.0698Z" fill="#0B4237"/>
<path id="Path 1053" d="M15.3181 19.0698C15.3181 19.0698 14.698 20.9458 13.563 21.3188C13.563 21.3188 16.2511 22.0868 15.3181 19.0698Z" fill="#0B4237"/>
</g>
<g id="Group 1074">
<path id="Path 1054" d="M8.62886 9.3689L6.96285 9.31104C6.96285 9.31104 6.84805 9.43582 6.94405 10.0388C6.95075 10.1891 6.99112 10.3361 7.06245 10.4685C7.13379 10.601 7.23412 10.7156 7.35591 10.804L9.60493 11.762L9.73897 11.532L8.62886 9.3689Z" fill="#0B4237"/>
<path id="Path 1055" d="M18.9441 9.31104L17.2791 9.3689L16.1689 11.532L16.303 11.762L18.552 10.804C18.6736 10.7155 18.7738 10.6007 18.845 10.4683C18.9161 10.3358 18.9563 10.189 18.9629 10.0388C19.0589 9.43582 18.9441 9.31104 18.9441 9.31104Z" fill="#0B4237"/>
</g>
<path id="Path 1056" d="M18.9441 9.31104C18.9754 9.40845 18.9953 9.5089 19.0039 9.61084C18.9999 9.37284 18.9441 9.31104 18.9441 9.31104Z" fill="#494949"/>
<path id="Path 1057" d="M17.4209 6.86987C16.8419 6.22887 15.0349 5.65894 12.9209 5.65894C10.9719 5.65894 9.25489 5.95893 8.53589 6.70093C8.33207 7.20517 8.21126 7.73912 8.17798 8.28198C8.17798 9.08198 17.613 9.08198 17.613 8.28198C17.6021 7.80561 17.5375 7.33187 17.4209 6.86987Z" fill="#115649"/>
<path id="Path 1058" d="M12.9231 5.65894C10.9741 5.65894 9.25709 5.95893 8.53809 6.70093C8.33426 7.20517 8.21321 7.73912 8.17993 8.28198C8.17993 8.68198 10.58 8.88184 12.957 8.88184L12.9231 5.65894Z" fill="#0B4237"/>
</g>
</svg>
