<svg width="100%" height="100%" viewBox="0 0 21 21" fill="none" xmlns="http://www.w3.org/2000/svg">
<g id="Group 309">
<path id="Path 307" d="M6.90625 8.90918L10.75 5.06396L14.5952 8.91211L16.8311 6.67578L10.75 0.591797L4.66992 6.67188L6.90625 8.90918Z" fill="#F3BA2F"/>
<path id="Path 308" d="M0.853516 10.4858L3.08984 8.25L5.32666 10.4858L3.09082 12.7222L0.853516 10.4858Z" fill="#F3BA2F"/>
<path id="Path 309" d="M6.90576 12.0679L10.7495 15.9121L14.5947 12.064L16.8345 14.2998L10.7534 20.3848L4.67383 14.3042L6.90576 12.0679Z" fill="#F3BA2F"/>
<path id="Path 310" d="M16.1729 10.4902L18.4087 8.25391L20.6455 10.4902L18.4087 12.7261L16.1729 10.4902Z" fill="#F3BA2F"/>
<path id="Path 311" d="M13.0186 10.4878L10.7495 8.21582L9.07373 9.896L8.87988 10.0859L8.47949 10.4858L10.7476 12.7539L13.0186 10.4878Z" fill="#F3BA2F"/>
</g>
</svg>
