<svg width="26" height="28" viewBox="0 0 26 28" fill="none" xmlns="http://www.w3.org/2000/svg">
<path d="M13.4541 26.2579C19.231 26.2579 23.9141 21.5748 23.9141 15.7979C23.9141 10.021 19.231 5.33789 13.4541 5.33789C7.67724 5.33789 2.99414 10.021 2.99414 15.7979C2.99414 21.5748 7.67724 26.2579 13.4541 26.2579Z" fill="#FFC500"/>
<path d="M14.2001 24.7759C12.4887 24.7736 10.8039 24.3517 9.29333 23.5474C7.78272 22.743 6.49225 21.5808 5.53503 20.1621C4.5778 18.7434 3.98304 17.1118 3.8026 15.4099C3.62217 13.708 3.86164 11.9878 4.50011 10.3999C3.75492 11.6366 3.27386 13.0141 3.08703 14.4458C2.9002 15.8775 3.01154 17.3323 3.41442 18.7188C3.8173 20.1052 4.50285 21.3933 5.42785 22.502C6.35284 23.6106 7.49729 24.5159 8.78918 25.1606C10.0811 25.8054 11.4924 26.1756 12.9344 26.2483C14.3764 26.3209 15.8179 26.0944 17.1681 25.5828C18.5182 25.0712 19.7479 24.2857 20.7797 23.2756C21.8114 22.2656 22.623 21.0528 23.1632 19.7139C22.233 21.2593 20.9186 22.5378 19.348 23.4248C17.7774 24.3118 16.0039 24.7773 14.2001 24.7759Z" fill="#FF9F1E"/>
<path d="M13.4541 5.33789C11.213 5.33412 9.03029 6.05379 7.23096 7.38989C9.70037 6.43709 12.4149 6.32391 14.9551 7.06787C14.9335 7.0949 14.9146 7.12421 14.8989 7.15503C14.5889 7.73303 15.2211 8.67388 16.3091 9.25488C17.3971 9.83588 18.5311 9.84504 18.8411 9.26904C18.8709 9.21286 18.8921 9.15232 18.9041 9.08984C20.3456 10.2036 21.5138 11.6317 22.3198 13.2654C23.1258 14.8991 23.5483 16.6952 23.5549 18.5168C23.9714 16.9666 24.0258 15.3414 23.7136 13.7668C23.4015 12.1923 22.7313 10.7106 21.7549 9.43652C20.7785 8.16241 19.522 7.13007 18.0828 6.41919C16.6436 5.70831 15.0603 5.33794 13.4551 5.33691L13.4541 5.33789Z" fill="#FFE059"/>
<path d="M19.6791 10.3969C19.7344 10.1123 19.3837 9.80471 18.8958 9.70987C18.4079 9.61502 17.9675 9.76887 17.9122 10.0535C17.8569 10.3381 18.2076 10.6457 18.6955 10.7406C19.1834 10.8354 19.6238 10.6816 19.6791 10.3969Z" fill="#FFE059"/>
<path d="M17.4024 10.7902C17.4833 10.65 17.3837 10.4411 17.18 10.3234C16.9762 10.2058 16.7455 10.224 16.6646 10.3642C16.5837 10.5043 16.6832 10.7133 16.887 10.8309C17.0907 10.9486 17.3215 10.9303 17.4024 10.7902Z" fill="#FFE059"/>
<path d="M10.5322 14.2427C10.5715 13.3506 10.1445 12.6071 9.5784 12.5822C9.01233 12.5573 8.52157 13.2603 8.48228 14.1524C8.44299 15.0446 8.87003 15.788 9.43611 15.813C10.0022 15.8379 10.4929 15.1349 10.5322 14.2427Z" fill="#00305F"/>
<path d="M10.0711 14.4989C10.2274 14.4989 10.3541 14.3722 10.3541 14.2159C10.3541 14.0596 10.2274 13.9329 10.0711 13.9329C9.91479 13.9329 9.78809 14.0596 9.78809 14.2159C9.78809 14.3722 9.91479 14.4989 10.0711 14.4989Z" fill="white"/>
<path d="M17.4793 15.7996C18.0454 15.7747 18.4724 15.0313 18.4331 14.1391C18.3938 13.247 17.9031 12.5439 17.337 12.5689C16.7709 12.5938 16.3439 13.3372 16.3832 14.2294C16.4225 15.1215 16.9132 15.8246 17.4793 15.7996Z" fill="#00305F"/>
<path d="M16.8367 14.4989C16.993 14.4989 17.1197 14.3722 17.1197 14.2159C17.1197 14.0596 16.993 13.9329 16.8367 13.9329C16.6804 13.9329 16.5537 14.0596 16.5537 14.2159C16.5537 14.3722 16.6804 14.4989 16.8367 14.4989Z" fill="white"/>
<path d="M3.5271 14.499C3.5271 14.499 10.075 9.52503 21.927 13.332L21.0339 11.2039L7.50098 10.4038L2.25098 12.573L3.5271 14.499Z" fill="#FF9F1E"/>
<path d="M24.3087 12.566C24.3093 13.0441 24.2791 13.5217 24.2186 13.9959C24.1986 14.1359 24.1785 14.2861 24.1485 14.4261C23.8951 14.401 23.6532 14.3077 23.4486 14.1561C20.3053 12.2983 16.7094 11.3466 13.0587 11.4061C6.74868 11.4061 3.48858 13.6061 3.45858 13.6361C3.23188 13.8016 2.95924 13.8925 2.67855 13.8961C2.64855 13.6161 2.61848 13.326 2.60848 13.026C2.59848 12.876 2.59872 12.716 2.59872 12.566C2.596 11.8947 2.65958 11.2248 2.78866 10.566C2.87866 10.064 3.00556 9.56933 3.16854 9.08604C3.92213 6.86051 5.37789 4.93972 7.31673 3.6124C9.25557 2.28508 11.5728 1.62284 13.9202 1.72544C16.2677 1.82804 18.5182 2.68983 20.3338 4.18125C22.1495 5.67267 23.4321 7.71315 23.9886 9.99595C24.0869 10.3673 24.1604 10.7449 24.2086 11.1261C24.2774 11.6029 24.311 12.0842 24.3087 12.566Z" fill="#F89A56"/>
<path d="M16.7188 5.11084L17.4307 8.36597H9.50586L10.5337 5.11084H16.7188Z" fill="#D37535"/>
<path d="M24.3087 12.5658C24.3093 13.0439 24.2791 13.5215 24.2186 13.9958C20.9196 12.2246 17.2646 11.2179 13.524 11.05C9.78342 10.882 6.05287 11.5573 2.60848 13.0258C2.59848 12.8758 2.59872 12.7158 2.59872 12.5658C2.596 11.8945 2.65958 11.2246 2.78866 10.5658C2.87866 10.0638 3.00556 9.56913 3.16854 9.08584C6.21562 8.0606 9.41381 7.55687 12.6285 7.59585C16.5432 7.57487 20.417 8.39316 23.9886 9.99575C24.0869 10.3671 24.1604 10.7448 24.2086 11.1259C24.2774 11.6028 24.311 12.084 24.3087 12.5658Z" fill="#D37535"/>
<path d="M16.7185 3.80591V9.68604H10.1885V3.80591C10.1885 2.93998 10.5325 2.10962 11.1448 1.49731C11.7571 0.885008 12.5877 0.541016 13.4536 0.541016C14.3195 0.541016 15.1499 0.885008 15.7622 1.49731C16.3745 2.10962 16.7185 2.93998 16.7185 3.80591Z" fill="#F7B386"/>
<path d="M16.7185 7.33594V9.68604H10.1885V7.13599C10.9585 7.07599 11.7784 7.0459 12.6284 7.0459C13.9969 7.04576 15.3637 7.1427 16.7185 7.33594Z" fill="#D37535"/>
<path d="M25.5387 13.7989C25.4008 13.9972 25.2168 14.1591 25.0025 14.2706C24.7883 14.3821 24.5502 14.4399 24.3087 14.439C24.2552 14.4407 24.2014 14.4373 24.1485 14.429C23.8951 14.404 23.6532 14.3106 23.4486 14.159C20.3053 12.3012 16.7094 11.3495 13.0587 11.409C6.74869 11.409 3.48859 13.609 3.45859 13.639C3.23189 13.8045 2.95925 13.8954 2.67856 13.899C2.35451 13.9183 2.03307 13.8315 1.76279 13.6517C1.49251 13.4719 1.28815 13.209 1.18076 12.9027C1.07337 12.5963 1.06872 12.2631 1.16757 11.9539C1.26643 11.6447 1.46342 11.3763 1.72861 11.189C2.06927 10.9614 2.4233 10.7543 2.78867 10.5689C5.99681 9.05816 9.51378 8.31856 13.0587 8.40901C16.9445 8.36798 20.7782 9.30321 24.2086 11.129C24.5389 11.3048 24.8593 11.4985 25.1686 11.7091C25.4939 11.9379 25.7154 12.2859 25.7848 12.6776C25.8541 13.0692 25.7657 13.4723 25.5387 13.7989Z" fill="#F89A56"/>
<path d="M13.4691 4.68282C14.3516 4.68282 15.0671 3.96737 15.0671 3.08482C15.0671 2.20227 14.3516 1.48682 13.4691 1.48682C12.5865 1.48682 11.8711 2.20227 11.8711 3.08482C11.8711 3.96737 12.5865 4.68282 13.4691 4.68282Z" fill="#D37535"/>
<path d="M13.4691 4.48702C14.3516 4.48702 15.0671 3.77157 15.0671 2.88902C15.0671 2.00646 14.3516 1.29102 13.4691 1.29102C12.5865 1.29102 11.8711 2.00646 11.8711 2.88902C11.8711 3.77157 12.5865 4.48702 13.4691 4.48702Z" fill="white"/>
<path d="M25.5378 18.669V25.4119C25.5158 25.8664 25.3149 26.2938 24.979 26.6009C24.6431 26.9079 24.1996 27.0698 23.7449 27.0511H2.40869C2.12547 27.0514 1.84603 26.9874 1.59106 26.8641C1.3361 26.7407 1.11233 26.5612 0.936768 26.3389V26.325C0.739988 26.0611 0.632857 25.7411 0.630859 25.4119V18.669C0.648571 18.2145 0.845499 17.7855 1.17871 17.4759C1.51192 17.1663 1.95412 17.0012 2.40869 17.0169H23.7449C24.0369 17.0128 24.3254 17.0791 24.5864 17.21C24.8475 17.3409 25.0735 17.5327 25.2449 17.7691C25.4378 18.0292 25.5407 18.3451 25.5378 18.669Z" fill="#14C48D"/>
<path d="M25.2458 17.7691L0.936768 26.325C0.739988 26.0611 0.632857 25.7411 0.630859 25.4119V18.669C0.648571 18.2145 0.845499 17.7855 1.17871 17.4759C1.51192 17.1663 1.95412 17.0012 2.40869 17.0169H23.7449C24.037 17.0126 24.3259 17.0789 24.5872 17.2098C24.8484 17.3406 25.0743 17.5325 25.2458 17.7691Z" fill="#28E0A3"/>
<path d="M3.21876 24.7419V19.3861H4.74258C5.2057 19.3861 5.57296 19.4994 5.84436 19.726C6.11576 19.9526 6.25146 20.2477 6.25146 20.6112C6.25146 20.915 6.1693 21.1789 6.00496 21.403C5.84063 21.6271 5.61405 21.7864 5.32522 21.881V21.896C5.68626 21.9383 5.97509 22.0753 6.19171 22.3068C6.40833 22.5359 6.51664 22.8347 6.51664 23.2032C6.51664 23.6613 6.35231 24.0323 6.02364 24.3162C5.69497 24.6 5.2804 24.7419 4.77993 24.7419H3.21876ZM3.84621 19.9538V21.6831H4.48861C4.83222 21.6831 5.10237 21.6009 5.29907 21.4366C5.49578 21.2698 5.59413 21.0357 5.59413 20.7344C5.59413 20.214 5.25177 19.9538 4.56704 19.9538H3.84621ZM3.84621 22.2471V24.1742H4.69776C5.06627 24.1742 5.35136 24.0871 5.55305 23.9128C5.75722 23.7385 5.8593 23.4995 5.8593 23.1957C5.8593 22.5633 5.42855 22.2471 4.56704 22.2471H3.84621ZM11.5214 22.5757C11.5214 24.0796 10.8429 24.8316 9.48586 24.8316C8.18612 24.8316 7.53626 24.1083 7.53626 22.6616V19.3861H8.16371V22.6205C8.16371 23.7186 8.62684 24.2676 9.55308 24.2676C10.447 24.2676 10.8939 23.7373 10.8939 22.6766V19.3861H11.5214V22.5757ZM13.4896 24.7419H12.8622V19.3861H13.4896V24.7419ZM14.9014 24.7419V19.3861H16.3804C18.2678 19.3861 19.2114 20.2564 19.2114 21.9968C19.2114 22.8235 18.9488 23.4883 18.4234 23.9912C17.9005 24.4917 17.1996 24.7419 16.3207 24.7419H14.9014ZM15.5289 19.9538V24.1742H16.3281C17.0303 24.1742 17.5768 23.9863 17.9677 23.6103C18.3586 23.2343 18.5541 22.7015 18.5541 22.0118C18.5541 20.6398 17.8246 19.9538 16.3655 19.9538H15.5289ZM23.0434 24.7419H20.2647V19.3861H20.8921V24.1742H23.0434V24.7419Z" fill="#00305F"/>
</svg>
