<svg width="100%" height="100%" viewBox="0 0 19 19" fill="none" xmlns="http://www.w3.org/2000/svg">
<g id="bell Icon">
<path id="Vector" d="M13.8242 6.63916C13.8242 5.44569 13.3533 4.30109 12.5151 3.45718C11.6769 2.61327 10.5401 2.13916 9.35469 2.13916C8.16929 2.13916 7.03245 2.61327 6.19425 3.45718C5.35605 4.30109 4.88516 5.44569 4.88516 6.63916C4.88516 11.8892 2.65039 13.3892 2.65039 13.3892H16.059C16.059 13.3892 13.8242 11.8892 13.8242 6.63916Z" stroke="white" stroke-linecap="round" stroke-linejoin="round"/>
<path id="Vector_2" d="M10.6433 16.3889C10.5124 16.6162 10.3244 16.8049 10.0982 16.9361C9.87206 17.0672 9.61564 17.1363 9.35463 17.1363C9.09363 17.1363 8.8372 17.0672 8.61103 16.9361C8.38486 16.8049 8.19688 16.6162 8.06592 16.3889" stroke="white" stroke-linecap="round" stroke-linejoin="round"/>
</g>
</svg>
