<svg width="100%" height="100%" viewBox="0 0 14 9" fill="none" xmlns="http://www.w3.org/2000/svg">
<path id="Path 112" d="M6.13498 0.47699L0.644985 6.81897C0.524336 6.95808 0.446242 7.12896 0.42001 7.31122C0.393778 7.49348 0.420513 7.67944 0.497036 7.84692C0.573559 8.01441 0.696572 8.15638 0.851528 8.25586C1.00648 8.35534 1.1868 8.40817 1.37094 8.40802H12.352C12.5362 8.40817 12.7163 8.35534 12.8713 8.25586C13.0263 8.15638 13.1494 8.01441 13.2259 7.84692C13.3024 7.67944 13.3292 7.49348 13.3029 7.31122C13.2767 7.12896 13.1986 6.95808 13.078 6.81897L7.58798 0.47699C7.49767 0.372951 7.38605 0.289537 7.26071 0.232361C7.13537 0.175184 6.99918 0.145569 6.86142 0.145569C6.72365 0.145569 6.58758 0.175184 6.46225 0.232361C6.33691 0.289537 6.22528 0.372951 6.13498 0.47699Z" fill="currentColor"/>
</svg>
