<svg width="100%" height="100%" viewBox="0 0 21 20" fill="none" xmlns="http://www.w3.org/2000/svg">
<g opacity="0.6">
<path d="M18.2071 2.05688V13.5989H5.50712L4.92997 14.1279L2.81303 16.1479V2.05591H18.2041M19.1661 0.131836H1.85111C1.72483 0.131836 1.59961 0.156721 1.48295 0.205078C1.36629 0.253435 1.26043 0.324475 1.17118 0.413818C1.08193 0.503161 1.01116 0.609121 0.962928 0.72583C0.914692 0.842539 0.889798 0.96771 0.88993 1.09399V18.408C0.888255 18.5981 0.94352 18.7844 1.04862 18.9429C1.15372 19.1014 1.30394 19.2249 1.47977 19.2974C1.65561 19.3698 1.84916 19.388 2.03544 19.3496C2.22171 19.3112 2.3921 19.2181 2.52494 19.082L6.27592 15.5229H19.1661C19.4212 15.5229 19.6658 15.4216 19.8462 15.2412C20.0266 15.0608 20.128 14.8162 20.128 14.561V1.09888C20.1285 0.972461 20.1041 0.847206 20.0562 0.730225C20.0083 0.613243 19.9377 0.506951 19.8487 0.417236C19.7596 0.327522 19.6538 0.256047 19.5371 0.207275C19.4205 0.158504 19.2954 0.133206 19.169 0.132812L19.1661 0.131836Z" fill="white"/>
<path d="M6.66406 4.94189H14.364C14.6192 4.94189 14.8638 5.04322 15.0442 5.22363C15.2246 5.40404 15.3259 5.64867 15.3259 5.90381C15.3259 6.15895 15.2246 6.40382 15.0442 6.58423C14.8638 6.76464 14.6192 6.86597 14.364 6.86597H6.66406C6.40892 6.86597 6.16405 6.76464 5.98364 6.58423C5.80323 6.40382 5.7019 6.15895 5.7019 5.90381C5.70217 5.64875 5.80378 5.40423 5.98413 5.22388C6.16448 5.04352 6.40901 4.94216 6.66406 4.94189Z" fill="white"/>
<path d="M6.66406 8.79004H10.512C10.7671 8.79004 11.0117 8.89137 11.1921 9.07178C11.3725 9.25219 11.4741 9.49681 11.4741 9.75195C11.4741 10.0071 11.3725 10.2517 11.1921 10.4321C11.0117 10.6125 10.7671 10.7139 10.512 10.7139H6.66406C6.40892 10.7139 6.16405 10.6125 5.98364 10.4321C5.80323 10.2517 5.7019 10.0071 5.7019 9.75195C5.7019 9.49681 5.80323 9.25219 5.98364 9.07178C6.16405 8.89137 6.40892 8.79004 6.66406 8.79004Z" fill="white"/>
</g>
</svg>
