<svg width="17" height="19" viewBox="0 0 17 19" fill="none" xmlns="http://www.w3.org/2000/svg">
<path id="Vector" d="M14.6667 0C15.1529 0 15.6192 0.193154 15.963 0.536971C16.3068 0.880787 16.5 1.3471 16.5 1.83333V12.8333C16.5 13.3196 16.3068 13.7859 15.963 14.1297C15.6192 14.4735 15.1529 14.6667 14.6667 14.6667H12.8333V16.5C12.8333 16.9862 12.6402 17.4525 12.2964 17.7964C11.9525 18.1402 11.4862 18.3333 11 18.3333H1.83333C1.3471 18.3333 0.880787 18.1402 0.536971 17.7964C0.193154 17.4525 0 16.9862 0 16.5V5.5C0 5.01377 0.193154 4.54745 0.536971 4.20364C0.880787 3.85982 1.3471 3.66667 1.83333 3.66667H3.66667V1.83333C3.66667 1.3471 3.85982 0.880787 4.20364 0.536971C4.54745 0.193154 5.01377 0 5.5 0H14.6667ZM6.41667 11.9167H4.58333C4.34969 11.9169 4.12497 12.0064 3.95508 12.1668C3.78519 12.3272 3.68295 12.5464 3.66926 12.7796C3.65557 13.0129 3.73145 13.2425 3.88141 13.4217C4.03137 13.6008 4.24408 13.716 4.47608 13.7436L4.58333 13.75H6.41667C6.65031 13.7497 6.87503 13.6603 7.04492 13.4999C7.21481 13.3395 7.31705 13.1203 7.33074 12.8871C7.34443 12.6538 7.26855 12.4242 7.11859 12.245C6.96863 12.0658 6.75592 11.9507 6.52392 11.9231L6.41667 11.9167ZM14.6667 1.83333H5.5V3.66667H11C11.4862 3.66667 11.9525 3.85982 12.2964 4.20364C12.6402 4.54745 12.8333 5.01377 12.8333 5.5V12.8333H14.6667V1.83333ZM8.25 8.25H4.58333C4.34022 8.25 4.10706 8.34658 3.93515 8.51849C3.76324 8.69039 3.66667 8.92355 3.66667 9.16667C3.66667 9.40978 3.76324 9.64294 3.93515 9.81485C4.10706 9.98676 4.34022 10.0833 4.58333 10.0833H8.25C8.49312 10.0833 8.72627 9.98676 8.89818 9.81485C9.07009 9.64294 9.16667 9.40978 9.16667 9.16667C9.16667 8.92355 9.07009 8.69039 8.89818 8.51849C8.72627 8.34658 8.49312 8.25 8.25 8.25Z" fill="#FF0000"/>
</svg>
