<svg width="10%" height="100%" viewBox="0 0 36 36" fill="none" xmlns="http://www.w3.org/2000/svg">
<g id="Group 441">
<path id="Path 93" d="M16.7432 21.2871V29.833C16.7418 31.4135 16.1133 32.9287 14.9956 34.0461C13.878 35.1636 12.3626 35.7919 10.7821 35.793H6.00012C4.41975 35.7916 2.90445 35.1633 1.78687 34.0459C0.669276 32.9285 0.0406513 31.4134 0.0390625 29.833V25.052C0.0406509 23.4715 0.669305 21.9562 1.78687 20.8386C2.90443 19.7211 4.41965 19.0927 6.00012 19.0911H14.5461C15.1296 19.0911 15.6892 19.3228 16.1018 19.7354C16.5144 20.1479 16.7461 20.7075 16.7461 21.291L16.7432 21.2871ZM35.8052 25.052V29.833C35.8036 31.4134 35.175 32.9285 34.0574 34.0459C32.9398 35.1633 31.4245 35.7916 29.8441 35.793H25.0631C23.4828 35.7914 21.9678 35.163 20.8502 34.0457C19.7327 32.9283 19.104 31.4133 19.1022 29.833V21.2871C19.1022 20.7036 19.3339 20.144 19.7465 19.7314C20.159 19.3189 20.7186 19.0869 21.3021 19.0869H29.8481C31.4286 19.0885 32.9438 19.7172 34.0614 20.8347C35.179 21.9523 35.8075 23.4676 35.8091 25.0481L35.8052 25.052ZM16.7432 5.98999V14.5359C16.7432 15.1194 16.5113 15.679 16.0988 16.0916C15.6862 16.5041 15.1266 16.7361 14.5431 16.7361H6.00012C4.41973 16.7342 2.90461 16.1055 1.78711 14.988C0.669606 13.8705 0.0409151 12.3553 0.0390625 10.7749V5.9939C0.0406509 4.41343 0.669305 2.89832 1.78687 1.78076C2.90443 0.663201 4.41965 0.0345474 6.00012 0.032959H10.7811C12.3617 0.0342831 13.8771 0.6629 14.9948 1.78052C16.1124 2.89814 16.7407 4.41335 16.7421 5.9939L16.7432 5.98999ZM35.8052 5.98999V10.771C35.8033 12.3514 35.1746 13.8666 34.0571 14.9841C32.9396 16.1016 31.4245 16.7301 29.8441 16.7319H21.3002C20.7167 16.7319 20.1571 16.5002 19.7445 16.0876C19.3319 15.6751 19.1001 15.1155 19.1001 14.532V5.98608C19.1017 4.40562 19.7302 2.89027 20.8478 1.77271C21.9653 0.655145 23.4807 0.0264908 25.0612 0.0249023H29.8422C31.4226 0.0264908 32.9379 0.655145 34.0554 1.77271C35.173 2.89027 35.8015 4.40562 35.8031 5.98608L35.8052 5.98999Z" fill="currentColor"/>
</g>
</svg>
