<svg width="100%" height="100%" viewBox="0 0 27 27" fill="none" xmlns="http://www.w3.org/2000/svg">
<path d="M9.21111 22.4446C11.5438 23.6412 14.2272 23.9654 16.7778 23.3586C19.3283 22.7518 21.5782 21.254 23.1221 19.1351C24.6661 17.0161 25.4024 14.4155 25.1985 11.8017C24.9946 9.18791 23.8638 6.73291 22.01 4.87907C20.1561 3.02523 17.7011 1.89447 15.0874 1.69056C12.4736 1.48665 9.87291 2.223 7.754 3.76691C5.63509 5.31082 4.13729 7.56077 3.53049 10.1113C2.9237 12.6618 3.24782 15.3452 4.44444 17.6779L2 24.8891L9.21111 22.4446Z" stroke="currentColor" stroke-width="2.44444" stroke-linecap="round" stroke-linejoin="round"/>
<path d="M9.33301 12.667H9.34634" stroke="currentColor" stroke-width="2.44444" stroke-linecap="round" stroke-linejoin="round"/>
<path d="M14.2227 12.667H14.236" stroke="currentColor" stroke-width="2.44444" stroke-linecap="round" stroke-linejoin="round"/>
<path d="M19.1123 12.667H19.1256" stroke="currentColor" stroke-width="2.44444" stroke-linecap="round" stroke-linejoin="round"/>
</svg>
