<svg width="100%" height="100%" viewBox="0 0 25 23" fill="none" xmlns="http://www.w3.org/2000/svg">
<path id="Path 130" opacity="0.67" fill-rule="evenodd" clip-rule="evenodd" d="M15.3691 0H9.81903C7.35138 0.0254963 4.99346 1.02361 3.25751 2.77759C1.52156 4.53156 0.547791 6.89965 0.547791 9.36743C0.547791 11.8352 1.52156 14.2033 3.25751 15.9573C4.99346 17.7113 7.35138 18.7096 9.81903 18.7351H15.3691C15.4891 18.7351 15.6081 18.728 15.7281 18.728L19.5361 21.915C19.7073 22.058 19.9156 22.1492 20.1368 22.178C20.358 22.2067 20.5828 22.1719 20.7849 22.0774C20.9869 21.9829 21.1579 21.8327 21.2776 21.6445C21.3974 21.4564 21.4611 21.2379 21.4611 21.0149V16.481C22.9141 15.2351 23.9507 13.5744 24.4317 11.7219C24.9127 9.8694 24.8147 7.91392 24.1513 6.11865C23.4879 4.32338 22.2907 2.77427 20.7206 1.67969C19.1506 0.585109 17.283 -0.00232925 15.3691 -0.00390625V0ZM7.96906 11.0591C7.70976 11.0591 7.45625 10.9822 7.24066 10.8381C7.02507 10.6941 6.8571 10.4893 6.75787 10.2498C6.65865 10.0102 6.6327 9.7465 6.68329 9.49219C6.73387 9.23788 6.85871 9.00439 7.04205 8.82104C7.2254 8.6377 7.45901 8.51274 7.71332 8.46216C7.96763 8.41157 8.23121 8.43764 8.47076 8.53687C8.71032 8.63609 8.91509 8.80394 9.05914 9.01953C9.2032 9.23512 9.28009 9.48876 9.28009 9.74805C9.28009 10.0952 9.14237 10.4283 8.89716 10.6741C8.65194 10.9198 8.31929 11.0583 7.97211 11.0591H7.96906ZM12.591 11.0591C12.3317 11.0591 12.0783 10.9822 11.8627 10.8381C11.6471 10.6941 11.479 10.4893 11.3798 10.2498C11.2806 10.0102 11.2547 9.7465 11.3052 9.49219C11.3558 9.23788 11.4807 9.00439 11.664 8.82104C11.8473 8.6377 12.081 8.51274 12.3353 8.46216C12.5896 8.41157 12.8532 8.43764 13.0927 8.53687C13.3323 8.63609 13.537 8.80394 13.6811 9.01953C13.8251 9.23512 13.902 9.48876 13.902 9.74805C13.902 10.0952 13.7643 10.4283 13.5191 10.6741C13.2739 10.9198 12.9412 11.0583 12.5941 11.0591H12.591ZM17.2131 11.0591C16.9537 11.0593 16.7002 10.9826 16.4844 10.8386C16.2687 10.6947 16.1005 10.49 16.0012 10.2505C15.9018 10.011 15.8756 9.74729 15.9261 9.49292C15.9766 9.23855 16.1014 9.00474 16.2847 8.82129C16.468 8.63784 16.7015 8.51282 16.9559 8.46216C17.2102 8.41149 17.4739 8.43742 17.7136 8.53662C17.9532 8.63582 18.158 8.80392 18.3021 9.01953C18.4462 9.23515 18.523 9.48871 18.523 9.74805C18.523 10.0951 18.3854 10.4278 18.1404 10.6736C17.8954 10.9193 17.563 11.058 17.216 11.0591H17.2131Z" fill="currentColor"/>
</svg>
