<svg width="100%" height="100%" viewBox="0 0 52 52" fill="none" xmlns="http://www.w3.org/2000/svg">
<g filter="url(#filter0_d_2004_813)">
<rect x="0.5" y="0.5" width="49" height="49" rx="9.5" fill="currentColor" stroke="white"/>
<g clip-path="url(#clip0_2004_813)">
<path d="M31.2378 19.2773C30.0906 18.7509 28.8603 18.3631 27.574 18.1409C27.5505 18.1367 27.5271 18.1474 27.5151 18.1688C27.3568 18.4502 27.1816 18.8173 27.0589 19.1059C25.6753 18.8987 24.2989 18.8987 22.9438 19.1059C22.821 18.8109 22.6394 18.4502 22.4805 18.1688C22.4684 18.1481 22.445 18.1374 22.4216 18.1409C21.136 18.3624 19.9057 18.7502 18.7577 19.2773C18.7478 19.2816 18.7393 19.2888 18.7336 19.298C16.4001 22.7843 15.7608 26.1849 16.0744 29.5433C16.0758 29.5597 16.085 29.5754 16.0978 29.5854C17.6374 30.7161 19.1288 31.4025 20.5925 31.8575C20.6159 31.8646 20.6407 31.8561 20.6556 31.8368C21.0018 31.3639 21.3105 30.8654 21.5751 30.3411C21.5907 30.3104 21.5758 30.274 21.5439 30.2618C21.0543 30.0761 20.5882 29.8497 20.1397 29.5926C20.1043 29.5719 20.1014 29.5212 20.1341 29.4969C20.2284 29.4262 20.3228 29.3526 20.4129 29.2783C20.4293 29.2647 20.452 29.2619 20.4711 29.2704C23.4169 30.6154 26.6061 30.6154 29.5172 29.2704C29.5363 29.2611 29.5591 29.264 29.5761 29.2776C29.6662 29.3518 29.7606 29.4261 29.8556 29.4968C29.8883 29.5211 29.8861 29.5719 29.8507 29.5926C29.4023 29.8547 28.9361 30.0761 28.4459 30.2611C28.414 30.2732 28.3997 30.3104 28.4154 30.3411C28.6857 30.8646 28.9943 31.3632 29.3342 31.836C29.3484 31.856 29.3739 31.8646 29.3973 31.8574C30.8681 31.4025 32.3595 30.7161 33.8991 29.5854C33.9126 29.5754 33.9211 29.5604 33.9225 29.544C34.2978 25.6613 33.2938 22.2886 31.2612 19.2987C31.2562 19.2888 31.2477 19.2816 31.2378 19.2773ZM22.0151 27.4984C21.1282 27.4984 20.3974 26.6842 20.3974 25.6842C20.3974 24.6842 21.114 23.87 22.0151 23.87C22.9232 23.87 23.6469 24.6914 23.6327 25.6842C23.6327 26.6842 22.9161 27.4984 22.0151 27.4984ZM27.9961 27.4984C27.1092 27.4984 26.3784 26.6842 26.3784 25.6842C26.3784 24.6842 27.095 23.87 27.9961 23.87C28.9042 23.87 29.6279 24.6914 29.6138 25.6842C29.6138 26.6842 28.9043 27.4984 27.9961 27.4984Z" fill="white"/>
</g>
</g>
<defs>
<filter id="filter0_d_2004_813" x="0" y="0" width="52" height="52" filterUnits="userSpaceOnUse" color-interpolation-filters="sRGB">
<feFlood flood-opacity="0" result="BackgroundImageFix"/>
<feColorMatrix in="SourceAlpha" type="matrix" values="0 0 0 0 0 0 0 0 0 0 0 0 0 0 0 0 0 0 127 0" result="hardAlpha"/>
<feOffset dx="2" dy="2"/>
<feComposite in2="hardAlpha" operator="out"/>
<feColorMatrix type="matrix" values="0 0 0 0 1 0 0 0 0 1 0 0 0 0 1 0 0 0 1 0"/>
<feBlend mode="normal" in2="BackgroundImageFix" result="effect1_dropShadow_2004_813"/>
<feBlend mode="normal" in="SourceGraphic" in2="effect1_dropShadow_2004_813" result="shape"/>
</filter>
<clipPath id="clip0_2004_813">
<rect x="16" y="16" width="18" height="18" rx="9" fill="white"/>
</clipPath>
</defs>
</svg>
