<svg width="100%" height="100%" viewBox="0 0 29 29" fill="none" xmlns="http://www.w3.org/2000/svg">
<g id="Group 940" opacity="1">
<path id="Path 903" d="M24.3571 24.4438C26.3261 22.4751 27.6672 19.9668 28.2106 17.2358C28.7539 14.5049 28.4753 11.6741 27.4098 9.10156C26.3443 6.52904 24.5399 4.33044 22.2248 2.78345C19.9096 1.23646 17.1877 0.410645 14.4032 0.410645C11.6188 0.410645 8.89684 1.23646 6.58169 2.78345C4.26653 4.33044 2.46211 6.52904 1.39663 9.10156C0.331153 11.6741 0.0524964 14.5049 0.595848 17.2358C1.1392 19.9668 2.48009 22.4751 4.44912 24.4438C7.09115 27.0799 10.671 28.5605 14.4032 28.5605C18.1354 28.5605 21.715 27.0799 24.3571 24.4438ZM5.98403 6.07104C7.64914 4.40601 9.7707 3.2721 12.0802 2.81274C14.3897 2.35339 16.7836 2.58908 18.9591 3.49023C21.1346 4.39139 22.9942 5.91732 24.3024 7.87524C25.6106 9.83316 26.3087 12.1352 26.3087 14.49C26.3087 16.8448 25.6106 19.1466 24.3024 21.1045C22.9942 23.0624 21.1346 24.5884 18.9591 25.4895C16.7836 26.3907 14.3897 26.6266 12.0802 26.1672C9.7707 25.7079 7.64914 24.574 5.98403 22.9089C3.75429 20.6744 2.5021 17.6467 2.5021 14.49C2.5021 11.3333 3.75429 8.30555 5.98403 6.07104ZM15.9491 11.4709C15.9491 10.8586 16.1924 10.2712 16.6254 9.83813C17.0584 9.40511 17.6458 9.16187 18.2582 9.16187C18.8706 9.16187 19.4577 9.40511 19.8908 9.83813C20.3238 10.2712 20.567 10.8586 20.567 11.4709C20.567 11.6469 20.4971 11.8158 20.3727 11.9402C20.2483 12.0646 20.0797 12.1345 19.9037 12.1345C19.7277 12.1345 19.5589 12.0646 19.4345 11.9402C19.31 11.8158 19.2401 11.6469 19.2401 11.4709C19.2401 11.2105 19.1367 10.9608 18.9525 10.7766C18.7684 10.5925 18.5186 10.489 18.2582 10.489C17.9978 10.489 17.748 10.5925 17.5639 10.7766C17.3797 10.9608 17.276 11.2105 17.276 11.4709C17.276 11.6469 17.2064 11.8158 17.0819 11.9402C16.9575 12.0646 16.7887 12.1345 16.6127 12.1345C16.4367 12.1345 16.2679 12.0646 16.1435 11.9402C16.019 11.8158 15.9491 11.6469 15.9491 11.4709ZM8.59316 11.4639C8.59316 10.8515 8.83641 10.2643 9.26943 9.8313C9.70245 9.39828 10.2899 9.15503 10.9022 9.15503C11.5146 9.15503 12.1018 9.39828 12.5348 9.8313C12.9678 10.2643 13.2111 10.8515 13.2111 11.4639C13.2111 11.6398 13.1412 11.8087 13.0167 11.9331C12.8923 12.0575 12.7237 12.1274 12.5478 12.1274C12.3718 12.1274 12.2029 12.0575 12.0785 11.9331C11.9541 11.8087 11.8842 11.6398 11.8842 11.4639C11.876 11.2087 11.769 10.9669 11.5856 10.7893C11.4022 10.6117 11.157 10.5122 10.9018 10.5122C10.6465 10.5122 10.401 10.6117 10.2177 10.7893C10.0343 10.9669 9.92723 11.2087 9.91909 11.4639C9.91909 11.6397 9.84933 11.8083 9.725 11.9326C9.60066 12.057 9.43209 12.127 9.25625 12.127C9.08041 12.127 8.91159 12.057 8.78725 11.9326C8.66292 11.8083 8.59316 11.6397 8.59316 11.4639ZM8.29824 17.394C8.24027 17.2039 8.25494 16.9988 8.33974 16.8191C8.42455 16.6393 8.57339 16.4978 8.75698 16.4216C8.94057 16.3455 9.14579 16.3405 9.33291 16.4075C9.52003 16.4745 9.67562 16.6086 9.76919 16.7839C10.1876 17.6587 10.8448 18.3973 11.6652 18.9143C12.4855 19.4313 13.4355 19.7056 14.4052 19.7056C15.3748 19.7056 16.3248 19.4313 17.1452 18.9143C17.9655 18.3973 18.6228 17.6587 19.0412 16.7839C19.075 16.6773 19.1308 16.5788 19.205 16.4951C19.2792 16.4114 19.37 16.3442 19.4718 16.2979C19.5736 16.2515 19.6842 16.2269 19.796 16.2258C19.9079 16.2247 20.0186 16.2471 20.1212 16.2915C20.2239 16.3359 20.3162 16.4014 20.392 16.4836C20.4678 16.5659 20.5255 16.6633 20.5614 16.7693C20.5973 16.8752 20.6104 16.9875 20.6002 17.0989C20.59 17.2103 20.5566 17.3183 20.5021 17.416C19.9592 18.5768 19.0963 19.5583 18.0145 20.2454C16.9328 20.9324 15.6771 21.2963 14.3957 21.2942C13.1142 21.2921 11.8602 20.9242 10.7807 20.2336C9.70117 19.5431 8.84122 18.5586 8.30215 17.396L8.29824 17.394Z" fill="currentColor"/>
</g>
</svg>
