<svg width="100%" height="100%" viewBox="0 0 23 23" fill="none" xmlns="http://www.w3.org/2000/svg">
<path id="Path 500" d="M16.2705 0.00012207H6.94434C2.89334 0.00012207 0.478516 2.41494 0.478516 6.46594V15.7799C0.478516 19.8419 2.89334 22.257 6.94434 22.257H16.2593C20.3103 22.257 22.7256 19.8421 22.7256 15.7911V6.46594C22.7366 2.41494 20.3215 0.00012207 16.2705 0.00012207ZM10.4385 17.2601C10.052 17.616 9.57492 17.8582 9.05957 17.9601L6.32129 18.35C6.22177 18.3628 6.12181 18.3701 6.02148 18.3719C5.80463 18.3772 5.58903 18.3398 5.38672 18.2616C5.18441 18.1833 4.99915 18.066 4.84229 17.9161C4.65672 17.7199 4.52078 17.4823 4.44531 17.223C4.36984 16.9637 4.35741 16.6901 4.40869 16.4249L4.79736 13.6871C4.89288 13.1693 5.13616 12.69 5.49756 12.307L10.4614 7.34412C10.5504 7.57712 10.6397 7.811 10.7617 8.078C10.8727 8.312 10.9954 8.55695 11.1284 8.77795C11.2309 8.95034 11.3424 9.11724 11.4624 9.27795C11.5701 9.44169 11.689 9.59778 11.8184 9.745C11.856 9.79956 11.8971 9.85167 11.9414 9.901C12.2087 10.2186 12.5027 10.5126 12.8203 10.7799C12.8641 10.8292 12.9127 10.8742 12.9653 10.9139C13.1323 11.0479 13.2994 11.1811 13.4434 11.2811C13.6156 11.4142 13.798 11.5332 13.9893 11.6371C14.2113 11.7711 14.4567 11.893 14.7017 12.016C14.9467 12.139 15.1903 12.2271 15.4243 12.3051L10.4385 17.2601ZM17.5835 10.1161L16.5596 11.151C16.4941 11.2151 16.4061 11.2511 16.3145 11.2511C16.2807 11.2535 16.2468 11.2497 16.2144 11.2401C15.0964 10.9161 14.0789 10.3145 13.2559 9.49133C12.4329 8.66817 11.8311 7.65018 11.5073 6.5321C11.4898 6.47365 11.4892 6.41138 11.5049 6.35242C11.5206 6.29345 11.5524 6.24012 11.5967 6.19812L12.6313 5.16296C14.3223 3.47196 15.9367 3.50496 17.5947 5.16296C17.9853 5.4475 18.3028 5.82064 18.5215 6.25159C18.7401 6.68254 18.8536 7.15898 18.8525 7.64221C18.8515 8.12545 18.7357 8.60164 18.5151 9.03162C18.2946 9.46159 17.9753 9.83329 17.5835 10.1161Z" fill="white"/>
</svg>
