<svg width="30" height="30" viewBox="0 0 30 30" fill="none" xmlns="http://www.w3.org/2000/svg">
<g id="element">
<path id="Vector" d="M29.5 15C29.5 23.0081 23.0081 29.5 15 29.5C6.99187 29.5 0.5 23.0081 0.5 15C0.5 6.99187 6.99187 0.5 15 0.5C23.0081 0.5 29.5 6.99187 29.5 15Z" stroke="#424242"/>
<g id="Group">
<path id="Vector_2" d="M20.2434 16.1822C20.2207 16.1808 15.0667 19.235 14.9992 19.2611C14.9841 19.2524 9.78486 16.1752 9.76013 16.1783C9.77272 16.1968 14.9958 23.5714 14.9992 23.5714C15.0028 23.5714 20.2434 16.1822 20.2434 16.1822Z" fill="white"/>
<path id="Vector_3" d="M15.0009 6.42859L9.77625 15.1667L15.0009 18.2615L20.2256 15.1667L15.0009 6.42859Z" fill="white"/>
</g>
</g>
</svg>
