<svg width="100%" height="100%" viewBox="0 0 30 26" fill="none" xmlns="http://www.w3.org/2000/svg">
<g id="Group 1162">
<g id="Layer 3">
<path id="Ellipse 242" d="M14.9805 21.8228C20.7574 21.8228 25.4405 17.1397 25.4405 11.3628C25.4405 5.58593 20.7574 0.902832 14.9805 0.902832C9.20361 0.902832 4.52051 5.58593 4.52051 11.3628C4.52051 17.1397 9.20361 21.8228 14.9805 21.8228Z" fill="#FFC500"/>
<path id="Path 1190" d="M15.7215 20.3408C14.0101 20.3385 12.3254 19.9169 10.8148 19.1125C9.30421 18.3082 8.01374 17.1457 7.05651 15.7271C6.09928 14.3084 5.50452 12.6767 5.32409 10.9749C5.14365 9.27298 5.38313 7.5527 6.0216 5.96484C5.2764 7.20151 4.79534 8.57905 4.60851 10.0107C4.42168 11.4424 4.53302 12.8974 4.9359 14.2839C5.33879 15.6704 6.02434 16.9585 6.94933 18.0671C7.87433 19.1758 9.01877 20.0809 10.3107 20.7256C11.6026 21.3703 13.0139 21.7406 14.4559 21.8132C15.8979 21.8859 17.3394 21.6593 18.6896 21.1477C20.0397 20.6361 21.2694 19.8506 22.3011 18.8406C23.3329 17.8305 24.1445 16.6178 24.6847 15.2788C23.7546 16.8244 22.4402 18.1029 20.8695 18.99C19.2988 19.877 17.5254 20.3424 15.7215 20.3408Z" fill="#FF9F1E"/>
<path id="Path 1191" d="M14.9807 0.898926C12.7396 0.895084 10.5571 1.61477 8.75781 2.95093C11.2272 1.99813 13.9415 1.88495 16.4817 2.62891C16.4604 2.65611 16.4417 2.68515 16.4258 2.71582C16.1158 3.29382 16.7477 4.23492 17.8357 4.81592C18.9237 5.39692 20.0577 5.40583 20.3677 4.82983C20.3975 4.77366 20.4187 4.71336 20.4307 4.65088C21.8724 5.76451 23.041 7.19273 23.8472 8.82642C24.6534 10.4601 25.076 12.2561 25.0828 14.0779C25.499 12.5277 25.553 10.9026 25.2407 9.32812C24.9285 7.75365 24.2583 6.27211 23.282 4.99805C22.3057 3.72398 21.0495 2.69141 19.6104 1.98047C18.1712 1.26953 16.5878 0.899174 14.9827 0.897949L14.9807 0.898926Z" fill="#FFE059"/>
<path id="Ellipse 243" d="M16.1147 3.82226C16.2596 3.56988 16.0976 3.20473 15.7528 3.00667C15.408 2.80861 15.011 2.85265 14.866 3.10503C14.721 3.35742 14.883 3.72257 15.2279 3.92063C15.5727 4.11868 15.9697 4.07465 16.1147 3.82226Z" fill="#FFE059"/>
<path id="Path 1192" d="M15.1406 18.2988H14.8208C13.866 18.2988 12.9503 17.9197 12.2751 17.2446C11.6 16.5695 11.2207 15.6537 11.2207 14.699C13.7059 14.2 16.2655 14.2 18.7507 14.699C18.7501 15.1724 18.6561 15.641 18.4744 16.0781C18.2926 16.5152 18.0266 16.9123 17.6914 17.2466C17.3562 17.5809 16.9584 17.8458 16.5208 18.0264C16.0831 18.2069 15.614 18.2995 15.1406 18.2988Z" fill="#00305F"/>
<path id="Path 1193" d="M15.5376 16.3069C15.0416 16.3077 14.5604 16.4761 14.1721 16.7847C13.7838 17.0933 13.5112 17.5238 13.3984 18.0068C13.8477 18.1997 14.3316 18.2991 14.8206 18.2988H15.1404C15.9911 18.2996 16.8145 17.9982 17.4634 17.448C17.2738 17.1029 16.9953 16.815 16.6565 16.6143C16.3177 16.4136 15.9314 16.3073 15.5376 16.3069Z" fill="#FF4F4F"/>
<g id="Group 1156">
<path id="Path 1194" d="M11.2159 11.9858C11.2159 11.9858 8.04382 13.029 7.91582 9.76904C7.78782 6.50904 9.8709 6.39282 9.8709 6.39282C9.8709 6.39282 9.21986 8.10595 10.1329 7.87695C11.0459 7.64795 10.7019 5.07691 10.5809 4.90991C10.4599 4.74291 12.2857 5.62698 13.0357 8.33398C13.2547 9.06001 13.1884 9.84226 12.8501 10.521C12.5119 11.1997 11.9274 11.7236 11.2159 11.9858Z" fill="#E85D00"/>
<path id="Path 1195" d="M10.54 11.627C10.54 11.627 8.85305 11.6598 8.75805 10.4858C8.66305 9.31184 9.34887 9.18604 9.34887 9.18604C9.34887 9.18604 9.41504 10.1959 10.54 9.77295C10.8496 9.66625 11.1119 9.45439 11.2815 9.17432C11.451 8.89424 11.517 8.5637 11.468 8.23999C11.468 8.23999 13.752 10.421 10.54 11.627Z" fill="#FFFEF8"/>
</g>
<g id="Group 1157">
<path id="Path 1196" d="M20.0587 11.9858C20.0587 11.9858 16.8877 13.029 16.7587 9.76904C16.6297 6.50904 18.7135 6.39282 18.7135 6.39282C18.7135 6.39282 18.0637 8.10595 18.9767 7.87695C19.8897 7.64795 19.5457 5.07691 19.4237 4.90991C19.3017 4.74291 21.1286 5.62698 21.8786 8.33398C22.0976 9.06001 22.0313 9.84226 21.693 10.521C21.3548 11.1997 20.7703 11.7236 20.0587 11.9858Z" fill="#E85D00"/>
<path id="Path 1197" d="M19.3827 11.627C19.3827 11.627 17.6956 11.6598 17.6016 10.4858C17.5076 9.31184 18.1915 9.18604 18.1915 9.18604C18.1915 9.18604 18.2577 10.1959 19.3827 9.77295C19.6924 9.66644 19.9549 9.45466 20.1246 9.17456C20.2943 8.89447 20.3605 8.56383 20.3116 8.23999C20.3116 8.23999 22.5947 10.421 19.3827 11.627Z" fill="#FFFEF8"/>
</g>
<g id="Group 1158">
<path id="Ellipse 244" d="M14.2454 12.866C14.3443 12.866 14.4244 12.6252 14.4244 12.328C14.4244 12.0309 14.3443 11.79 14.2454 11.79C14.1465 11.79 14.0664 12.0309 14.0664 12.328C14.0664 12.6252 14.1465 12.866 14.2454 12.866Z" fill="#00305F"/>
<path id="Ellipse 245" d="M15.7142 12.866C15.813 12.866 15.8932 12.6252 15.8932 12.328C15.8932 12.0309 15.813 11.79 15.7142 11.79C15.6153 11.79 15.5352 12.0309 15.5352 12.328C15.5352 12.6252 15.6153 12.866 15.7142 12.866Z" fill="#00305F"/>
</g>
</g>
<path id="Path 1198" d="M29.7802 18.2639C29.7802 24.0339 24.8301 25.7139 14.9801 25.7139C5.13014 25.7139 0.180089 24.0339 0.180089 18.2639C0.160894 17.615 0.259179 16.968 0.470128 16.354C0.910128 15.064 2.02017 13.604 4.76017 13.604C4.76017 13.604 2.30016 14.704 3.25016 16.114C4.20016 17.524 9.51014 18.394 14.9801 18.394C20.4501 18.394 25.7601 17.524 26.7101 16.114C27.6601 14.704 25.2001 13.604 25.2001 13.604C27.9401 13.604 29.0501 15.064 29.4901 16.354C29.7012 16.968 29.7995 17.615 29.7802 18.2639Z" fill="#BC4F04"/>
<path id="Path 1199" d="M29.4902 16.354C28.3102 20.384 23.4702 21.634 14.9802 21.634C6.49022 21.634 1.65021 20.384 0.470215 16.354C0.910215 15.064 2.02025 13.604 4.76025 13.604C4.76025 13.604 2.30024 14.704 3.25024 16.114C4.20024 17.524 9.51023 18.394 14.9802 18.394C20.4502 18.394 25.7602 17.524 26.7102 16.114C27.6602 14.704 25.2002 13.604 25.2002 13.604C27.9402 13.604 29.0502 15.064 29.4902 16.354Z" fill="#E85D00"/>
<g id="Group 1161">
<g id="Group 1160">
<g id="Group 1159">
<path id="Path 1200" d="M3.66992 23.6118C3.81659 22.7678 3.96561 21.9138 4.11694 21.0498C4.26828 20.1858 4.4173 19.332 4.56396 18.488C5.07663 18.578 5.5949 18.6617 6.1189 18.739C6.6429 18.816 7.163 18.887 7.677 18.949C7.653 19.149 7.62867 19.3488 7.604 19.5488L7.53101 20.1489C7.22967 20.1129 6.92705 20.074 6.62305 20.032C6.32305 19.99 6.01706 19.9469 5.71606 19.9009L5.64795 20.3508C5.62495 20.5058 5.6021 20.651 5.5791 20.802C5.85777 20.844 6.13941 20.8845 6.42407 20.9238C6.70907 20.9638 6.98796 20.9999 7.26196 21.0339C7.2393 21.2213 7.21558 21.411 7.19092 21.603C7.16792 21.794 7.14312 21.9889 7.12012 22.1799C6.84012 22.1459 6.55611 22.1059 6.26611 22.0679C5.97611 22.0299 5.69001 21.9859 5.40601 21.9429C5.35867 22.2555 5.31032 22.5733 5.26099 22.896C5.21165 23.2187 5.16361 23.5362 5.11694 23.8489C4.87894 23.8139 4.63897 23.7748 4.39697 23.7358C4.15497 23.6968 3.91292 23.6528 3.66992 23.6118Z" fill="white"/>
<path id="Path 1201" d="M10.4731 24.563C10.088 24.5408 9.71119 24.4425 9.36422 24.274C9.04572 24.1203 8.76369 23.9004 8.53707 23.6289C8.31046 23.3575 8.14451 23.0408 8.05026 22.7C7.9511 22.3402 7.92384 21.9644 7.97018 21.594C8.00749 21.2247 8.11523 20.8658 8.28732 20.5369C8.44553 20.2318 8.66115 19.9602 8.92233 19.7368C9.18013 19.5186 9.47844 19.3536 9.80026 19.251C10.1397 19.1425 10.4971 19.1013 10.8523 19.1299C11.2064 19.1504 11.553 19.2406 11.8723 19.395C12.4915 19.6957 12.9669 20.2286 13.1953 20.878C13.3191 21.2279 13.3761 21.598 13.3632 21.969C13.357 22.3422 13.2774 22.7105 13.1291 23.053C12.9888 23.3755 12.7812 23.6642 12.5202 23.8999C12.2559 24.1377 11.9449 24.3179 11.6071 24.429C11.2417 24.548 10.8562 24.5935 10.4731 24.563ZM10.5593 23.3269C10.8016 23.3509 11.0454 23.3013 11.2592 23.1848C11.461 23.0665 11.6247 22.8931 11.7312 22.6848C11.8474 22.4448 11.9145 22.1841 11.9284 21.9178C11.9423 21.6514 11.9028 21.3849 11.8122 21.1341C11.7296 20.9218 11.5916 20.7355 11.4123 20.595C11.225 20.4552 10.9999 20.3751 10.7663 20.365C10.5354 20.3436 10.3029 20.3902 10.0981 20.4991C9.89853 20.6121 9.73404 20.7778 9.62228 20.9781C9.4936 21.2122 9.41735 21.4715 9.39913 21.7381C9.36935 22.005 9.39955 22.275 9.48727 22.5288C9.56339 22.7554 9.70662 22.9535 9.89816 23.0965C10.0897 23.2394 10.3205 23.3204 10.5593 23.3289V23.3269Z" fill="white"/>
<path id="Path 1202" d="M14.0918 24.5989C14.1045 23.7429 14.1178 22.8764 14.1318 21.999C14.1458 21.1217 14.1587 20.2549 14.1707 19.3989C14.4897 19.4049 14.8098 19.406 15.1328 19.406C15.4558 19.406 15.7767 19.4059 16.0938 19.3989L16.5737 20.968C16.7357 21.5014 16.9 22.0239 17.0667 22.5359C17.2 22.0106 17.3335 21.4789 17.4668 20.9409C17.6001 20.4029 17.7251 19.8695 17.8418 19.3408C18.1598 19.3262 18.4773 19.3097 18.7947 19.291C19.1127 19.271 19.4267 19.2508 19.7397 19.2268C19.8064 20.0801 19.877 20.9442 19.9517 21.8188C20.0263 22.6935 20.0975 23.5572 20.1648 24.4099C19.9328 24.4279 19.6978 24.444 19.4648 24.46C19.2318 24.476 18.9936 24.4899 18.7646 24.5029C18.7326 23.9216 18.6995 23.3349 18.6648 22.7429C18.6301 22.1509 18.5967 21.5639 18.5647 20.9819C18.44 21.5713 18.3068 22.1665 18.1648 22.7678C18.0228 23.3692 17.8808 23.9637 17.7388 24.551C17.5328 24.558 17.3226 24.567 17.1086 24.572C16.8946 24.577 16.6817 24.5839 16.4707 24.5889C16.292 24.0209 16.1178 23.4463 15.9478 22.865C15.7778 22.2837 15.6111 21.7076 15.4478 21.137C15.4478 21.7083 15.4511 22.2856 15.4578 22.8689C15.4644 23.4522 15.4675 24.0298 15.4668 24.6018C15.2441 24.6018 15.0157 24.6018 14.7817 24.6018C14.5507 24.5988 14.3198 24.5989 14.0918 24.5989Z" fill="white"/>
<path id="Path 1203" d="M23.778 24.159C23.3958 24.2123 23.007 24.1909 22.633 24.0961C22.2904 24.0086 21.9704 23.8489 21.6945 23.6278C21.4186 23.4067 21.193 23.1293 21.0329 22.8141C20.8639 22.4812 20.7619 22.1182 20.7328 21.746C20.6966 21.3763 20.7306 21.0032 20.8329 20.6461C20.9281 20.3163 21.0857 20.0075 21.297 19.7369C21.507 19.472 21.7668 19.251 22.0619 19.086C22.6921 18.7439 23.4267 18.6473 24.1239 18.8151C24.7911 18.9871 25.3639 19.4144 25.7189 20.005C25.9105 20.3231 26.0402 20.6748 26.101 21.0411C26.1696 21.4081 26.1647 21.7849 26.0868 22.15C26.013 22.4941 25.8664 22.8182 25.6569 23.1009C25.4438 23.3866 25.1738 23.6252 24.8639 23.8011C24.529 23.9907 24.16 24.1122 23.778 24.159ZM23.6169 22.93C23.8595 22.9058 24.0891 22.8089 24.2758 22.652C24.4503 22.4964 24.5766 22.2941 24.6398 22.069C24.7126 21.8103 24.7267 21.5388 24.6808 21.274C24.6465 21.0103 24.5549 20.7574 24.412 20.5331C24.2887 20.3413 24.1159 20.1862 23.912 20.0841C23.7004 19.9837 23.4634 19.9488 23.2318 19.984C23.0014 20.0095 22.7833 20.1013 22.6039 20.2482C22.4303 20.3983 22.3015 20.5934 22.2318 20.8121C22.1525 21.0671 22.1297 21.3362 22.1649 21.6009C22.1878 21.8687 22.2707 22.1279 22.4079 22.359C22.5282 22.5652 22.7084 22.73 22.9245 22.8314C23.1406 22.9329 23.3823 22.9663 23.6178 22.9271L23.6169 22.93Z" fill="white"/>
</g>
</g>
</g>
</g>
</svg>
