<svg width="100%" height="100%" viewBox="0 0 24 24" fill="none" xmlns="http://www.w3.org/2000/svg">
<path id="Path 861" d="M20.438 0.72583H4.27808C3.82331 0.72583 3.37303 0.81547 2.95288 0.989502C2.53273 1.16353 2.15092 1.41867 1.82935 1.74023C1.50778 2.0618 1.25265 2.44362 1.07861 2.86377C0.904581 3.28392 0.814941 3.7342 0.814941 4.18897V20.3499C0.814941 21.2683 1.17991 22.1491 1.82935 22.7986C2.47878 23.448 3.35963 23.813 4.27808 23.813H20.438C21.3565 23.813 22.2374 23.448 22.887 22.7986C23.5366 22.1492 23.9018 21.2684 23.9021 20.3499V4.18897C23.9021 3.73411 23.8123 3.28374 23.6382 2.86353C23.4641 2.44331 23.2091 2.06133 22.8875 1.73975C22.5658 1.41816 22.1837 1.16323 21.7634 0.989258C21.3432 0.815285 20.8928 0.725699 20.438 0.72583ZM7.35303 18.853C7.04093 18.853 6.73582 18.7603 6.47632 18.5869C6.21682 18.4135 6.01445 18.1672 5.89502 17.8789C5.77558 17.5906 5.74453 17.2731 5.80542 16.967C5.86631 16.6609 6.01662 16.3799 6.2373 16.1592C6.45799 15.9385 6.73906 15.7882 7.04517 15.7273C7.35127 15.6664 7.66845 15.6977 7.95679 15.8171C8.24513 15.9366 8.49165 16.1387 8.66504 16.3982C8.83843 16.6577 8.93091 16.9628 8.93091 17.2749C8.93091 17.6934 8.76468 18.0947 8.46875 18.3906C8.17282 18.6866 7.77154 18.853 7.35303 18.853ZM11.6819 18.8979C11.68 17.32 11.0526 15.807 9.93677 14.6912C8.82095 13.5753 7.30798 12.9479 5.72998 12.946V10.24C8.02524 10.2429 10.2257 11.156 11.8486 12.7791C13.4715 14.4021 14.3843 16.6027 14.387 18.8979H11.6819ZM16.822 18.8979C16.8188 15.9571 15.6493 13.1375 13.5698 11.0579C11.4904 8.97824 8.67088 7.80837 5.72998 7.80493V5.09888C9.38891 5.10232 12.8971 6.55752 15.4844 9.14478C18.0716 11.732 19.5266 15.24 19.53 18.8989L16.822 18.8979Z" fill="currentColor"/>
</svg>
