<svg width="100%" height="100%" viewBox="0 0 31 32" fill="none" xmlns="http://www.w3.org/2000/svg">
<g id="Group 921" filter="url(#filter0_d_246_6035)">
<g id="Group">
<g id="Group_2">
<path id="Vector" d="M5.37318 13.6782C6.15684 12.8875 7.19254 12.406 8.29187 12.3042C7.34286 11.4504 6.74409 10.2178 6.74409 8.84089C6.74409 6.26492 8.83152 4.17749 11.408 4.17749C13.8687 4.17749 15.8835 6.08353 16.0583 8.49916C13.8692 9.44617 12.3329 11.6278 12.3329 14.1607C12.3329 15.0856 12.5434 15.9896 12.9347 16.8098C12.371 17.1044 11.8514 17.4852 11.3985 17.9422C10.237 19.1117 9.5771 20.7286 9.58962 22.3771L9.59063 22.4107L9.59163 22.4392L9.63272 23.2194H4.04636L4.00026 17.0413C3.99074 15.7811 4.48429 14.5725 5.37318 13.6782Z" fill="currentColor"/>
<path id="Vector_2" d="M15.3836 17.6249C14.4351 16.7716 13.8344 15.5385 13.8344 14.1616C13.8344 11.5851 15.9228 9.49719 18.4988 9.49719C21.0752 9.49719 23.1632 11.5851 23.1632 14.1616C23.1632 15.536 22.5649 16.7681 21.6179 17.6219C24.043 17.8098 25.9586 19.8181 25.9761 22.2908L26.0222 23.2193H18.9307H11.1376L11.0915 22.3605C11.0825 21.1008 11.5766 19.8923 12.465 18.9979C13.2496 18.2067 14.2848 17.7267 15.3836 17.6249Z" fill="currentColor"/>
<path id="Vector_3" d="M23.9919 6.00833V7.74101C23.9919 8.45853 23.4086 9.04126 22.6906 9.04126C21.9716 9.04126 21.3893 8.45853 21.3893 7.74101V6.00833H19.6587C18.9406 6.00833 18.3579 5.42509 18.3579 4.70707C18.3579 3.98955 18.9406 3.40631 19.6587 3.40631H21.3893V1.69918C21.3893 0.981161 21.9716 0.398926 22.6906 0.398926C23.4086 0.398926 23.9919 0.981161 23.9919 1.69918V3.40581H25.6995C26.4185 3.40581 27.0002 3.98904 27.0002 4.70657C27.0002 5.42459 26.4185 6.00783 25.6995 6.00783L23.9919 6.00833Z" fill="currentColor"/>
</g>
</g>
</g>
<defs>
<filter id="filter0_d_246_6035" x="0.000244141" y="0.398926" width="31" height="30.8204" filterUnits="userSpaceOnUse" color-interpolation-filters="sRGB">
<feFlood flood-opacity="0" result="BackgroundImageFix"/>
<feColorMatrix in="SourceAlpha" type="matrix" values="0 0 0 0 0 0 0 0 0 0 0 0 0 0 0 0 0 0 127 0" result="hardAlpha"/>
<feOffset dy="4"/>
<feGaussianBlur stdDeviation="2"/>
<feComposite in2="hardAlpha" operator="out"/>
<feColorMatrix type="matrix" values="0 0 0 0 0 0 0 0 0 0 0 0 0 0 0 0 0 0 0.25 0"/>
<feBlend mode="normal" in2="BackgroundImageFix" result="effect1_dropShadow_246_6035"/>
<feBlend mode="normal" in="SourceGraphic" in2="effect1_dropShadow_246_6035" result="shape"/>
</filter>
</defs>
</svg>
