<svg width="100%" height="100%" viewBox="0 0 22 26" fill="none" xmlns="http://www.w3.org/2000/svg">
<path d="M11.2823 21.5579C17.0592 21.5579 21.7423 16.8748 21.7423 11.0979C21.7423 5.32104 17.0592 0.637939 11.2823 0.637939C5.50537 0.637939 0.822266 5.32104 0.822266 11.0979C0.822266 16.8748 5.50537 21.5579 11.2823 21.5579Z" fill="#00C769"/>
<path d="M12.0233 20.0759C10.3116 20.0743 8.6266 19.653 7.11559 18.8489C5.60459 18.0447 4.31369 16.8823 3.35631 15.4634C2.39894 14.0445 1.80424 12.4124 1.62414 10.7102C1.44403 9.00804 1.68412 7.28777 2.32336 5.69995C1.57816 6.93662 1.0971 8.31415 0.91027 9.74585C0.72344 11.1775 0.834778 12.6323 1.23766 14.0188C1.64055 15.4053 2.3261 16.6934 3.25109 17.802C4.17608 18.9106 5.32053 19.816 6.61242 20.4607C7.90431 21.1054 9.31568 21.4757 10.7577 21.5483C12.1997 21.621 13.6412 21.3944 14.9913 20.8828C16.3415 20.3712 17.5712 19.5857 18.6029 18.5757C19.6346 17.5657 20.4462 16.3529 20.9864 15.0139C20.0562 16.5593 18.7419 17.8376 17.1713 18.7246C15.6007 19.6116 13.8271 20.0772 12.0233 20.0759Z" fill="#00AD5B"/>
<path d="M11.2815 0.637939C9.04058 0.633741 6.85833 1.35347 5.05957 2.68994C7.52884 1.73648 10.2434 1.62328 12.7834 2.36792C12.7612 2.39412 12.7425 2.42295 12.7275 2.45386C12.4165 3.03186 13.0495 3.97296 14.1365 4.55396C15.2235 5.13495 16.3594 5.14387 16.6694 4.56787C16.6987 4.51146 16.7199 4.45125 16.7324 4.38892C18.1738 5.5026 19.342 6.93048 20.1479 8.56396C20.9539 10.1974 21.3767 11.9934 21.3835 13.8149C21.7998 12.2648 21.8537 10.6396 21.5415 9.06519C21.2293 7.49076 20.5591 6.00935 19.5828 4.73535C18.6064 3.46136 17.3502 2.42884 15.9111 1.71802C14.472 1.00719 12.8885 0.637052 11.2834 0.635986L11.2815 0.637939Z" fill="#31E38E"/>
<path d="M17.5072 5.69602C17.5626 5.4114 17.2119 5.10378 16.724 5.00894C16.236 4.9141 15.7956 5.06794 15.7403 5.35257C15.685 5.63719 16.0357 5.94481 16.5236 6.03965C17.0115 6.13449 17.4519 5.98064 17.5072 5.69602Z" fill="#31E38E"/>
<path d="M15.2305 6.09022C15.3115 5.95008 15.2119 5.74111 15.0081 5.62348C14.8044 5.50584 14.5736 5.52408 14.4927 5.66422C14.4118 5.80436 14.5114 6.01333 14.7151 6.13097C14.9189 6.24861 15.1496 6.23036 15.2305 6.09022Z" fill="#31E38E"/>
<path d="M8.86631 12.3141C8.73111 12.3145 8.60118 12.2614 8.50522 12.1661L5.75229 9.41295C5.66252 9.31584 5.61376 9.18776 5.61631 9.05553C5.61885 8.9233 5.67251 8.7973 5.76596 8.70372C5.85942 8.61014 5.98555 8.55631 6.11777 8.55358C6.24999 8.55084 6.3782 8.59943 6.47544 8.68907L9.22837 11.441C9.3001 11.5125 9.34892 11.6037 9.36875 11.703C9.38858 11.8023 9.37848 11.9054 9.33969 11.9989C9.30091 12.0924 9.23525 12.1722 9.15097 12.2284C9.06669 12.2845 8.96757 12.3143 8.86631 12.3141Z" fill="#00305F"/>
<path d="M6.11443 12.3141C6.01338 12.3139 5.91471 12.2836 5.83074 12.2274C5.74677 12.1712 5.68121 12.0915 5.64251 11.9982C5.6038 11.9048 5.59366 11.8021 5.61321 11.703C5.63276 11.6039 5.68113 11.5127 5.75237 11.441L8.5053 8.68907C8.60254 8.59943 8.73074 8.55084 8.86297 8.55358C8.99519 8.55631 9.12132 8.61014 9.21477 8.70372C9.30823 8.7973 9.36188 8.9233 9.36443 9.05553C9.36698 9.18776 9.31822 9.31584 9.22845 9.41295L6.47552 12.1661C6.37956 12.2614 6.24963 12.3145 6.11443 12.3141Z" fill="#00305F"/>
<path d="M13.7004 12.314C13.5994 12.3136 13.501 12.2833 13.4172 12.2271C13.3333 12.1708 13.268 12.0909 13.2294 11.9976C13.1908 11.9043 13.1805 11.8017 13.2001 11.7026C13.2197 11.6036 13.2683 11.5125 13.3395 11.4409L16.0924 8.68897C16.1885 8.59322 16.3184 8.53961 16.454 8.5398C16.5896 8.53998 16.7196 8.59393 16.8153 8.68994C16.9111 8.78595 16.9649 8.91593 16.9648 9.05151C16.9646 9.1871 16.9104 9.3171 16.8144 9.41284L14.0624 12.166C14.0148 12.2133 13.9583 12.2507 13.8962 12.2761C13.834 12.3015 13.7675 12.3143 13.7004 12.314Z" fill="#00305F"/>
<path d="M16.4493 12.3141C16.3141 12.3145 16.1842 12.2613 16.0882 12.1661L13.3353 9.41294C13.2846 9.3662 13.244 9.30979 13.2157 9.24692C13.1874 9.18405 13.1719 9.11616 13.1705 9.04721C13.1691 8.97827 13.1817 8.90978 13.2074 8.8458C13.2331 8.78181 13.2715 8.72369 13.3202 8.6749C13.3689 8.62611 13.4269 8.58766 13.4908 8.56186C13.5548 8.53607 13.6233 8.52342 13.6922 8.52475C13.7612 8.52608 13.8293 8.54119 13.8922 8.56943C13.9551 8.59767 14.0116 8.63842 14.0585 8.68906L16.8104 11.441C16.8821 11.5124 16.9309 11.6035 16.9508 11.7027C16.9707 11.8019 16.9606 11.9049 16.922 11.9984C16.8833 12.0919 16.8176 12.1717 16.7335 12.2279C16.6494 12.2841 16.5505 12.3141 16.4493 12.3141Z" fill="#00305F"/>
<path d="M14.1436 16.531C13.76 16.5339 13.3895 16.3908 13.1074 16.1309C13.058 16.0752 12.9974 16.0308 12.9294 16.0002C12.8615 15.9697 12.7878 15.9539 12.7134 15.9539C12.6389 15.9539 12.5655 15.9697 12.4976 16.0002C12.4296 16.0308 12.369 16.0752 12.3196 16.1309C12.0361 16.3902 11.6657 16.5339 11.2815 16.5339C10.8973 16.5339 10.5269 16.3902 10.2434 16.1309C10.1941 16.0752 10.1335 16.0307 10.0657 16.0002C9.99784 15.9697 9.92447 15.9539 9.8501 15.9539C9.77573 15.9539 9.70211 15.9697 9.63428 16.0002C9.56645 16.0307 9.5059 16.0752 9.45654 16.1309C9.17347 16.3902 8.80337 16.5342 8.41943 16.5342C8.0355 16.5342 7.66564 16.3902 7.38257 16.1309C7.33304 16.0753 7.27224 16.031 7.20435 16.0005C7.13645 15.97 7.06295 15.954 6.98853 15.9539C6.853 15.9539 6.72303 15.9 6.6272 15.8042C6.53137 15.7084 6.47754 15.5784 6.47754 15.4429C6.47754 15.3073 6.53137 15.1774 6.6272 15.0815C6.72303 14.9857 6.853 14.9319 6.98853 14.9319C7.37264 14.9293 7.74334 15.0723 8.02637 15.332C8.07606 15.3871 8.13681 15.431 8.20459 15.4612C8.27237 15.4913 8.34574 15.5068 8.41992 15.5068C8.4941 15.5068 8.56747 15.4913 8.63525 15.4612C8.70304 15.431 8.76378 15.3871 8.81348 15.332C9.0965 15.0722 9.46684 14.928 9.85107 14.928C10.2353 14.928 10.6054 15.0722 10.8884 15.332C10.9381 15.3871 10.9989 15.431 11.0667 15.4612C11.1344 15.4913 11.2078 15.5068 11.282 15.5068C11.3562 15.5068 11.4295 15.4913 11.4973 15.4612C11.5651 15.431 11.6258 15.3871 11.6755 15.332C11.9584 15.0722 12.3283 14.928 12.7124 14.928C13.0965 14.928 13.4667 15.0722 13.7495 15.332C13.7994 15.387 13.8601 15.4309 13.928 15.4609C13.9958 15.491 14.0693 15.5063 14.1436 15.5063C14.2178 15.5063 14.291 15.491 14.3589 15.4609C14.4267 15.4309 14.4877 15.387 14.5376 15.332C14.8206 15.0723 15.1913 14.9293 15.5754 14.9319C15.711 14.9319 15.8409 14.9857 15.9368 15.0815C16.0326 15.1774 16.0864 15.3073 16.0864 15.4429C16.0864 15.5784 16.0326 15.7084 15.9368 15.8042C15.8409 15.9 15.711 15.9539 15.5754 15.9539C15.501 15.9538 15.4273 15.9695 15.3594 16C15.2915 16.0305 15.2308 16.0752 15.1814 16.1309C14.8983 16.3904 14.5276 16.5334 14.1436 16.531Z" fill="#00305F"/>
<path d="M17.6393 17.0369H4.64734C3.76424 17.0369 3.04834 17.7528 3.04834 18.6359V23.1349C3.04834 24.018 3.76424 24.7339 4.64734 24.7339H17.6393C18.5224 24.7339 19.2383 24.018 19.2383 23.1349V18.6359C19.2383 17.7528 18.5224 17.0369 17.6393 17.0369Z" fill="#ED205F"/>
<path d="M7.55102 18.7629H5.45949V20.6154H7.39415V21.1794H5.45949V23.551H4.83204V18.1952H7.55102V18.7629ZM12.4848 21.3848C12.4848 22.8887 11.8063 23.6407 10.4493 23.6407C9.14954 23.6407 8.49967 22.9173 8.49967 21.4707V18.1952H9.12713V21.4296C9.12713 22.5277 9.59025 23.0767 10.5165 23.0767C11.4104 23.0767 11.8573 22.5463 11.8573 21.4856V18.1952H12.4848V21.3848ZM13.8256 23.551V18.1952H15.3046C17.1919 18.1952 18.1356 19.0655 18.1356 20.8059C18.1356 21.6326 17.8729 22.2974 17.3476 22.8003C16.8247 23.3008 16.1238 23.551 15.2448 23.551H13.8256ZM14.453 18.7629V22.9833H15.2523C15.9545 22.9833 16.501 22.7953 16.8919 22.4194C17.2828 22.0434 17.4783 21.5105 17.4783 20.8208C17.4783 19.4489 16.7487 18.7629 15.2897 18.7629H14.453Z" fill="white"/>
</svg>
