<svg width="100%" height="100%" viewBox="0 0 30 31" fill="none" xmlns="http://www.w3.org/2000/svg">
<g id="Group 938">
<path id="Path 897" d="M26.725 0.999128H22.5858C22.2016 0.963737 21.8144 1.01328 21.4515 1.14439C21.0887 1.27551 20.7592 1.48488 20.4864 1.75767C20.2136 2.03047 20.0043 2.35994 19.8732 2.72276C19.742 3.08559 19.6925 3.47288 19.7279 3.85704V7.99595C19.6925 8.38008 19.742 8.76745 19.8732 9.13023C20.0043 9.49302 20.2136 9.82236 20.4864 10.0951C20.7593 10.3678 21.0889 10.5771 21.4518 10.7081C21.8146 10.8391 22.2017 10.8887 22.5858 10.8531H26.725C27.1091 10.8887 27.4962 10.8391 27.859 10.7081C28.2218 10.5771 28.5513 10.3678 28.8241 10.0951C29.0969 9.82236 29.3065 9.49302 29.4376 9.13023C29.5687 8.76745 29.6183 8.38008 29.5829 7.99595V3.85704C29.6183 3.47288 29.5687 3.08559 29.4376 2.72276C29.3065 2.35994 29.0971 2.03047 28.8243 1.75767C28.5515 1.48488 28.2218 1.27551 27.859 1.14439C27.4962 1.01328 27.1091 0.963737 26.725 0.999128ZM27.0348 5.65904C26.8694 5.8212 26.647 5.91197 26.4154 5.91197C26.1837 5.91197 25.9612 5.8212 25.7958 5.65904L25.5419 5.40513V8.55894C25.5419 8.79419 25.4484 9.0198 25.2821 9.18614C25.1158 9.35248 24.8901 9.44615 24.6549 9.44615C24.4197 9.44615 24.194 9.35248 24.0277 9.18614C23.8614 9.0198 23.7679 8.79419 23.7679 8.55894V5.39903L23.5148 5.65294C23.3505 5.81724 23.1277 5.90953 22.8954 5.90953C22.663 5.90953 22.4401 5.81724 22.2757 5.65294C22.1114 5.48864 22.0192 5.26591 22.0192 5.03355C22.0192 4.80119 22.1114 4.57822 22.2757 4.41392L24.0358 2.65391C24.1134 2.58141 24.2041 2.52414 24.3028 2.48497C24.3318 2.47097 24.3598 2.47114 24.3878 2.45714C24.4593 2.42846 24.5359 2.41419 24.6129 2.41514H24.6979C24.7945 2.41339 24.8903 2.4324 24.9789 2.47105H25.007C25.1018 2.51037 25.188 2.56772 25.2609 2.64C25.2749 2.654 25.2749 2.65391 25.2889 2.65391L27.0489 4.41392C27.1306 4.49593 27.1951 4.59357 27.2386 4.70079C27.2822 4.808 27.3039 4.92271 27.3026 5.03843C27.3013 5.15416 27.2771 5.26841 27.2311 5.37462C27.1851 5.48082 27.1183 5.57694 27.0348 5.65709V5.65904Z" fill="currentColor"/>
<path id="Path 898" d="M26.725 10.8508H26.0629V17.342L25.8798 17.187C25.3197 16.729 24.6185 16.4788 23.8949 16.4788C23.1714 16.4788 22.47 16.729 21.9098 17.187L16.0539 22.2129C15.4933 22.6704 14.7921 22.9204 14.0685 22.9204C13.345 22.9204 12.6435 22.6704 12.0829 22.2129L11.6049 21.8188C11.0885 21.3917 10.4486 21.142 9.77947 21.106C9.11029 21.07 8.44712 21.2497 7.88787 21.6189L2.62297 25.1528C2.285 24.2679 2.11755 23.3271 2.12981 22.3799V10.5798C2.12981 6.60983 4.22992 4.51196 8.19792 4.51196H19.728V3.85083C19.7102 3.34743 19.8217 2.84795 20.0519 2.3999H8.19988C3.07488 2.3999 0.0199463 5.45483 0.0199463 10.5798V22.3799C-0.0108188 23.7547 0.258492 25.1197 0.809009 26.3799C2.01901 29.0549 4.60888 30.561 8.19988 30.561H19.9999C25.1249 30.561 28.1799 27.5058 28.1799 22.3818V10.5278C27.7306 10.7586 27.2297 10.8698 26.725 10.8508Z" fill="currentColor"/>
</g>
</svg>
