<svg width="100%" height="100%" viewBox="0 0 27 29" fill="none" xmlns="http://www.w3.org/2000/svg">
<g id="Group 939" opacity="1">
<path id="Path 899" d="M26.0779 8.68994C26.0761 8.52194 26.032 8.35716 25.9497 8.21069C25.8674 8.06423 25.7495 7.94068 25.6069 7.85181C25.5313 7.742 25.4467 7.6388 25.354 7.54297L18.9541 1.14282C18.8582 1.05018 18.7548 0.96563 18.645 0.889893C18.5562 0.747308 18.4328 0.629439 18.2864 0.547119C18.1399 0.464799 17.9749 0.420736 17.8069 0.418945C17.739 0.424914 17.6719 0.438367 17.6069 0.458984C17.4749 0.434739 17.3412 0.421322 17.207 0.418945H3.30688C2.65151 0.419739 2.02323 0.680381 1.55981 1.1438C1.0964 1.60722 0.835755 2.2355 0.834961 2.89087V26.0908C0.835755 26.7462 1.0964 27.3747 1.55981 27.8381C2.02323 28.3016 2.65151 28.5622 3.30688 28.563H23.6069C24.2623 28.5622 24.8906 28.3016 25.354 27.8381C25.8174 27.3747 26.0783 26.7462 26.0791 26.0908V9.29102C26.0767 9.15681 26.0633 9.02289 26.0391 8.89087C26.0594 8.82549 26.0722 8.75816 26.0779 8.68994ZM22.5901 7.66797H18.8291V3.90698L22.5901 7.66797ZM23.606 26.5168H3.30591C3.1923 26.5168 3.08335 26.4718 3.00293 26.3916C2.92251 26.3114 2.87722 26.2025 2.87695 26.0889V2.88892C2.87695 2.77514 2.92223 2.66615 3.00269 2.58569C3.08314 2.50524 3.19213 2.45996 3.30591 2.45996H16.783V8.68799C16.7832 8.95896 16.8909 9.2188 17.0825 9.4104C17.2741 9.60201 17.534 9.7097 17.8049 9.70996H24.033V26.0869C24.0332 26.2005 23.9885 26.3095 23.9084 26.3901C23.8284 26.4707 23.7196 26.5163 23.606 26.5168Z" fill="currentColor"/>
<path id="Path 900" d="M9.83203 18.543H9.10693C8.86856 18.5418 8.63736 18.6243 8.45361 18.7761C8.26987 18.928 8.14536 19.1395 8.10156 19.3738C8.05777 19.6081 8.09762 19.8504 8.21411 20.0583C8.33061 20.2663 8.51633 20.4269 8.73901 20.512C8.70208 20.574 8.6499 20.6253 8.5874 20.6614C8.5249 20.6974 8.45423 20.7171 8.38208 20.718H7.65698C7.54347 20.718 7.43451 20.6728 7.35425 20.5925C7.27398 20.5123 7.229 20.4036 7.229 20.29V17.3899C7.229 17.2764 7.27398 17.1677 7.35425 17.0874C7.43451 17.0071 7.54347 16.9619 7.65698 16.9619H9.10693C9.37799 16.9619 9.63793 16.8543 9.82959 16.6626C10.0213 16.4709 10.1289 16.211 10.1289 15.9399C10.1289 15.6689 10.0213 15.4089 9.82959 15.2173C9.63793 15.0256 9.37799 14.918 9.10693 14.918H7.65698C7.0017 14.9188 6.37342 15.1794 5.91016 15.6428C5.4469 16.1063 5.18656 16.7346 5.18604 17.3899V20.29C5.18683 20.9452 5.44744 21.5732 5.91064 22.0366C6.37385 22.5 7.00178 22.7609 7.65698 22.762H8.38208C9.03745 22.7612 9.66573 22.5005 10.1292 22.0371C10.5926 21.5737 10.8532 20.9454 10.854 20.29V19.564C10.854 19.4298 10.8275 19.297 10.7761 19.1731C10.7248 19.0492 10.6496 18.9364 10.5547 18.8416C10.4598 18.7467 10.3471 18.6716 10.2231 18.6204C10.0992 18.5691 9.9662 18.5428 9.83203 18.543Z" fill="currentColor"/>
<path id="Path 901" d="M13.457 14.918C13.1861 14.9182 12.9262 15.0259 12.7346 15.2175C12.543 15.4091 12.4353 15.669 12.4351 15.9399V21.74C12.4351 22.011 12.5427 22.271 12.7344 22.4626C12.926 22.6543 13.186 22.762 13.457 22.762C13.7281 22.762 13.988 22.6543 14.1797 22.4626C14.3713 22.271 14.479 22.011 14.479 21.74V15.9399C14.4787 15.669 14.371 15.4091 14.1794 15.2175C13.9878 15.0259 13.728 14.9182 13.457 14.918Z" fill="currentColor"/>
<path id="Path 902" d="M20.7073 14.918H17.8071C17.5362 14.9182 17.2766 15.0259 17.085 15.2175C16.8934 15.4091 16.7854 15.669 16.7852 15.9399V21.74C16.7852 22.011 16.8928 22.271 17.0845 22.4626C17.2761 22.6543 17.5361 22.762 17.8071 22.762C18.0782 22.762 18.3384 22.6543 18.53 22.4626C18.7217 22.271 18.8293 22.011 18.8293 21.74V19.8618H19.9822C20.2532 19.8618 20.5132 19.7542 20.7048 19.5625C20.8965 19.3708 21.0042 19.1109 21.0042 18.8398C21.0042 18.5688 20.8965 18.3088 20.7048 18.1172C20.5132 17.9255 20.2532 17.8179 19.9822 17.8179H18.8293V16.9619H20.7073C20.9783 16.9619 21.2383 16.8543 21.4299 16.6626C21.6216 16.4709 21.7292 16.211 21.7292 15.9399C21.7292 15.6689 21.6216 15.4089 21.4299 15.2173C21.2383 15.0256 20.9783 14.918 20.7073 14.918Z" fill="currentColor"/>
</g>
</svg>
