<svg width="100%" height="100%" viewBox="0 0 20 20" fill="none" xmlns="http://www.w3.org/2000/svg">
<g id="Group 302">
<path id="Path 301" d="M19.1382 10.2139C19.1353 9.56237 19.0791 8.91235 18.9702 8.27002H9.91699V11.9702H15.1021C14.9985 12.5608 14.7742 13.1235 14.4434 13.6235C14.1125 14.1235 13.6823 14.5498 13.1792 14.876L16.2729 17.2759C17.2159 16.3621 17.9578 15.2618 18.4512 14.0449C18.9445 12.828 19.1786 11.5214 19.1382 10.209V10.2139Z" fill="#4280EF"/>
<path id="Path 302" d="M9.91748 19.5811C12.2544 19.6449 14.5276 18.8145 16.2734 17.2598L13.1797 14.876C12.4356 15.3531 11.5927 15.6544 10.7148 15.7573C9.83699 15.8602 8.94699 15.7618 8.11279 15.4697C7.2786 15.1776 6.5223 14.6993 5.90039 14.0713C5.27848 13.4432 4.80734 12.6822 4.52344 11.8452L1.3457 14.291C2.14295 15.8813 3.36698 17.2186 4.88086 18.1528C6.39474 19.0871 8.13853 19.5815 9.91748 19.5811Z" fill="#34A353"/>
<path id="Path 303" d="M4.52295 11.8242C4.12601 10.6297 4.12601 9.3386 4.52295 8.14404L1.34521 5.67676C0.675079 7.01359 0.326172 8.48849 0.326172 9.98389C0.326172 11.4793 0.675079 12.9542 1.34521 14.291L4.52295 11.8242Z" fill="#F6B704"/>
<path id="Path 304" d="M9.91748 4.19305C11.2854 4.1744 12.6065 4.69189 13.5977 5.63495L16.3364 2.87518C14.5972 1.24979 12.2978 0.358712 9.91748 0.38739C8.13855 0.387035 6.39472 0.88137 4.88086 1.81561C3.367 2.74986 2.14304 4.08671 1.3457 5.67694L4.52344 8.14423C4.89726 7.00481 5.61853 6.01104 6.58594 5.30243C7.55335 4.59382 8.71838 4.20578 9.91748 4.19305Z" fill="#E54335"/>
</g>
</svg>
