<svg width="159" height="39" viewBox="0 0 159 39" fill="none" xmlns="http://www.w3.org/2000/svg">
<g id="Group 710">
<path id="Path 125" d="M0.714844 15.1219L1.69592 17.005L3.00391 15.1219L11.1799 21.983L12.9799 19.292L14.2878 18.552L16.5769 20.099L18.5388 19.292L24.0989 32.61L25.7339 33.8209L27.0419 32.072L28.6769 33.8209H30.8029L31.9479 28.4399L32.7659 26.691L35.2189 24.4709L36.1998 19.561L39.7999 16.736L42.7429 18.619L44.5428 14.1799L46.1779 19.427V21.3099L48.1399 18.35L49.6119 19.292L50.4299 16.467V14.1799L53.0459 13.507L54.0269 10.007L55.8269 11.4869L57.6268 10.814L60.8978 5.29797L64.4979 4.76001L65.6428 2.47302L67.6049 5.43298V7.31604L71.2048 7.047L72.3499 10.41L73.8219 9.19897L75.7839 10.813V8.93201L80.3629 11.354V12.968L82.8629 13.103L84.4249 12.027L86.7358 13.641L91.3148 27.901L92.9498 23.731L95.2389 20.906L98.1819 21.306V14.306L99.8169 9.328L101.617 8.521L103.579 10.5389L106.522 16.8619L108.975 12.692L110.283 9.05994L111.918 7.89294L113.88 9.86804V12.155L115.68 11.348V7.89404L119.28 6.23596V4.63196L122.551 3.95898L124.351 7.18799L126.64 5.03601L127.785 6.38098L128.93 7.90393L130.73 5.97693L133.019 4.63196L135.799 7.05396L137.434 9.07202L140.05 6.11194V1L145.61 3.01794L149.535 7.18799L155.095 7.90393L158.365 5.43896V38.869H0.714844V15.1219Z" fill="url(#paint0_linear_317_911)"/>
<path id="Path 126" d="M0.714844 15.1219L1.69592 17.005L3.00391 15.1219L11.1799 21.983L12.9799 19.292L14.2878 18.552L16.5769 20.099L18.5388 19.292L24.0989 32.61L25.7339 33.8209L27.0419 32.072L28.6769 33.8209H30.8029L31.9479 28.4399L32.7659 26.691L35.2189 24.4709L36.1998 19.561L39.7999 16.736L42.7429 18.619L44.5428 14.1799L46.1779 19.427V21.3099L48.1399 18.35L49.6119 19.292L50.4299 16.467V14.1799L53.0459 13.507L54.0269 10.007L55.8269 11.4869L57.6268 10.814L60.8978 5.29797L64.4979 4.76001L65.6428 2.47302L67.6049 5.43298V7.31604L71.2048 7.047L72.3499 10.41L73.8219 9.19897L75.7839 10.813V8.93201L80.3629 11.354V12.968L82.8629 13.103L84.4249 12.027L86.7358 13.641L91.3148 27.901L92.9498 23.731L95.2389 20.906L98.1819 21.306V14.306L99.8169 9.328L101.617 8.521L103.579 10.5389L106.522 16.8619L108.975 12.692L110.283 9.05994L111.918 7.89294L113.88 9.86804V12.155L115.68 11.348V7.89404L119.28 6.23596V4.63196L122.551 3.95898L124.351 7.18799L126.64 5.03601L127.785 6.38098L128.93 7.90393L130.73 5.97693L133.019 4.63196L135.799 7.05396L137.434 9.07202L140.05 6.11194V1L145.61 3.01794L149.535 7.18799L155.095 7.90393L158.365 5.43896" stroke="#00FCE0" stroke-width="0.758" stroke-miterlimit="10"/>
</g>
<defs>
<linearGradient id="paint0_linear_317_911" x1="79.3822" y1="5.62002" x2="79.4095" y2="44.4739" gradientUnits="userSpaceOnUse">
<stop stop-color="#00FCE0"/>
<stop offset="0.134" stop-color="#00FCE0" stop-opacity="0.796"/>
<stop offset="0.335" stop-color="#00FCE0" stop-opacity="0.518"/>
<stop offset="0.516" stop-color="#00FCE0" stop-opacity="0.294"/>
<stop offset="0.671" stop-color="#00FCE0" stop-opacity="0.133"/>
<stop offset="0.793" stop-color="#00FCE0" stop-opacity="0.035"/>
<stop offset="0.867" stop-color="#00FCE0" stop-opacity="0"/>
</linearGradient>
</defs>
</svg>
