<svg width="100%" height="100%" viewBox="0 0 22 20" fill="none" xmlns="http://www.w3.org/2000/svg">
<path id="Union" opacity="0.67" fill-rule="evenodd" clip-rule="evenodd" d="M21.4301 6.79296C21.4301 6.79263 21.4301 6.79231 21.4301 6.79199C21.4291 5.23319 20.8094 3.73841 19.7073 2.63599C18.6053 1.53356 17.1109 0.913699 15.5521 0.912109C14.0762 1.64289 12.5826 2.33567 11.0726 2.98987C9.56256 2.33567 8.06889 1.64289 6.59308 0.912109C5.03428 0.913699 3.53986 1.53356 2.43781 2.63599C1.33575 3.73841 0.716086 5.23319 0.715027 6.79199C0.715041 6.79231 0.715056 6.79263 0.71507 6.79296C0.715055 6.79296 0.715041 6.79296 0.715027 6.79297C0.715574 7.20802 0.763302 7.62157 0.857117 8.02588C0.94785 8.41497 1.07844 8.79378 1.24701 9.15601C1.328 9.33409 1.41922 9.50742 1.52008 9.67505C1.58507 9.78708 1.65304 9.8973 1.72395 10.0056C1.90747 10.2954 2.11428 10.5715 2.34306 10.831C2.42538 10.9277 2.5101 11.0224 2.59711 11.115L4.01936 12.4812L11.048 19.28L11.0726 19.2565L11.0971 19.28L18.1258 12.4812L19.548 11.115C19.635 11.0224 19.7198 10.9277 19.8021 10.831C20.0309 10.5715 20.2377 10.2954 20.4212 10.0056C20.4921 9.8973 20.5601 9.78708 20.6251 9.67505C20.7259 9.50742 20.8171 9.33409 20.8981 9.15601C21.0667 8.79378 21.1973 8.41497 21.288 8.02588C21.3818 7.62157 21.4296 7.20802 21.4301 6.79297C21.4301 6.79296 21.4301 6.79296 21.4301 6.79296Z" fill="currentColor"/>
</svg>
