<svg width="100%" height="100%" viewBox="0 0 22 17" fill="none" xmlns="http://www.w3.org/2000/svg">
<g id="Group 314">
<path id="Path 313" d="M18.4839 1.20611C18.4849 1.07369 18.4458 0.943862 18.3726 0.833554C18.2993 0.723246 18.1947 0.637392 18.0723 0.586972C17.9498 0.536552 17.8152 0.524104 17.6855 0.550839C17.5559 0.577574 17.4373 0.64214 17.3447 0.736874L15.5356 2.54596C14.0606 1.84679 12.4728 1.41578 10.8467 1.27301C7.83455 1.42728 5.00104 2.74876 2.94678 4.95709C1.07078 7.10109 0.132812 8.30715 0.132812 8.64215C0.132812 8.97715 1.13778 10.1822 2.94678 12.3262C3.39432 12.8629 3.91275 13.336 4.48779 13.733L2.67871 15.6089C2.61712 15.6705 2.568 15.7438 2.53467 15.8243C2.50134 15.9047 2.48438 15.9911 2.48438 16.0782C2.48438 16.1653 2.50134 16.2516 2.53467 16.3321C2.568 16.4126 2.61712 16.4853 2.67871 16.5469C2.7403 16.6085 2.81357 16.6576 2.89404 16.691C2.97451 16.7243 3.06036 16.7413 3.14746 16.7413C3.23456 16.7413 3.3209 16.7243 3.40137 16.691C3.48184 16.6576 3.55511 16.6085 3.6167 16.5469L18.3545 1.67486C18.4385 1.53255 18.4849 1.37133 18.4888 1.20611H18.4839ZM4.95068 12.2588C3.7131 11.2115 2.63077 9.99401 1.73584 8.64215C2.63719 7.29494 3.71877 6.07745 4.95068 5.02398C6.17896 3.78448 7.77285 2.97246 9.49756 2.70709C11.2223 2.44172 12.9867 2.73692 14.5308 3.54986L13.3916 4.68902C12.6351 4.19638 11.7493 3.94002 10.8467 3.95221C10.2276 3.94438 9.61292 4.0587 9.03809 4.28863C8.46325 4.51857 7.93947 4.85944 7.49658 5.29205C7.04639 5.72194 6.69407 6.24339 6.46289 6.82135C6.23171 7.3993 6.12722 8.02037 6.15674 8.64215C6.14477 9.56575 6.40058 10.4728 6.89355 11.254L5.48682 12.7281C5.29378 12.589 5.11419 12.4317 4.95068 12.2588ZM7.89844 10.2491C7.62556 9.75813 7.48765 9.20374 7.49854 8.64215C7.48565 8.2022 7.56856 7.76478 7.74121 7.35992C7.91386 6.95506 8.17213 6.59219 8.49854 6.29693C9.1217 5.67322 9.96226 5.31486 10.8438 5.29693C11.3852 5.27673 11.9206 5.41571 12.3838 5.69684L7.89551 10.252L7.89844 10.2491ZM18.7515 4.95709C18.4781 4.65026 18.1877 4.35935 17.8809 4.086L16.8755 5.086C18.0888 6.11344 19.1489 7.3095 20.0234 8.63727C19.1229 9.9848 18.0412 11.2016 16.8086 12.254C15.1588 13.7212 13.0526 14.5734 10.8467 14.6661C9.83939 14.6158 8.84526 14.4134 7.89844 14.066L6.89844 15.0709C8.16459 15.5706 9.49588 15.8864 10.8516 16.0088C13.8636 15.8533 16.6967 14.5321 18.7515 12.3243C20.6265 10.1803 21.5645 8.97519 21.5645 8.64019C21.5645 8.30519 20.5595 7.10009 18.7515 4.95709Z" fill="#7D7D7F"/>
<path id="Path 314" d="M10.8467 11.9912C10.5756 11.9789 10.3072 11.9336 10.0469 11.8569L8.97461 12.9292C9.56393 13.1958 10.2038 13.3321 10.8506 13.3291C11.4695 13.3367 12.084 13.2221 12.6587 12.9922C13.2333 12.7623 13.7569 12.4212 14.1997 11.9888C14.6372 11.5496 14.9812 11.0267 15.2114 10.4512C15.4417 9.87567 15.5534 9.25985 15.5396 8.64014C15.5499 7.99259 15.4133 7.35115 15.1396 6.76416L14.0679 7.83594C14.1446 8.09624 14.1894 8.36514 14.2017 8.63623C14.214 9.07643 14.1306 9.51372 13.957 9.91846C13.7835 10.3232 13.5242 10.6855 13.1968 10.98C12.5744 11.6093 11.7316 11.9721 10.8467 11.9912Z" fill="#7D7D7F"/>
</g>
</svg>
