<svg width="100%" height="100%" viewBox="0 0 26 23" fill="none" xmlns="http://www.w3.org/2000/svg">
<g id="Group 1089">
<path id="Path 1077" d="M12.2771 22.3189L2.29297 12.7239C0.925964 11.3849 0.131805 9.56786 0.0778809 7.65508C0.0781114 6.24152 0.512039 4.86203 1.3208 3.70269C2.12956 2.54335 3.27429 1.65976 4.60083 1.17144C5.92737 0.683118 7.37184 0.613485 8.73926 0.971733C10.1067 1.32998 11.3314 2.09883 12.248 3.17486L12.2771 22.3189Z" fill="#DB6574"/>
<path id="Path 1078" d="M13 22.3189L22.9841 12.7239C24.3511 11.3849 25.1453 9.56786 25.1992 7.65508C25.199 6.24152 24.7651 4.86203 23.9563 3.70269C23.1475 2.54335 22.0028 1.65976 20.6763 1.17144C19.3497 0.683118 17.9053 0.613485 16.5378 0.971733C15.1704 1.32998 13.9457 2.09883 13.0291 3.17486L13 22.3189Z" fill="#D1525C"/>
</g>
</svg>
