<svg width="32" height="32" viewBox="0 0 32 32" fill="none" xmlns="http://www.w3.org/2000/svg">
<rect opacity="0.3" x="0.273499" width="31.5897" height="31.5897" rx="5.26496" fill="url(#paint0_linear_1_6158)" fill-opacity="0.4"/>
<path d="M22.7943 13.022C22.7867 12.4536 22.6802 11.8908 22.4793 11.3588C22.3052 10.9101 22.0392 10.5025 21.6983 10.1623C21.3575 9.82199 20.9493 9.55644 20.4998 9.38257C19.9738 9.18545 19.4181 9.07886 18.8564 9.06734C18.1332 9.03507 17.9039 9.02606 16.0679 9.02606C14.232 9.02606 13.9967 9.02606 13.2788 9.06734C12.7173 9.07894 12.1618 9.18553 11.6361 9.38257C11.1865 9.55632 10.7783 9.82183 10.4374 10.1621C10.0966 10.5024 9.83061 10.91 9.65658 11.3588C9.45872 11.8835 9.35219 12.4382 9.34157 12.9987C9.30924 13.7215 9.29947 13.9504 9.29947 15.7833C9.29947 17.6161 9.29947 17.8503 9.34157 18.5678C9.35285 19.1292 9.45885 19.6832 9.65658 20.2093C9.8309 20.6579 10.0971 21.0654 10.438 21.4055C10.779 21.7457 11.1873 22.0111 11.6368 22.1847C12.1612 22.3898 12.7167 22.504 13.2795 22.5225C14.0035 22.5548 14.2328 22.5645 16.0687 22.5645C17.9046 22.5645 18.1399 22.5645 18.8579 22.5225C19.4196 22.5115 19.9753 22.4051 20.5013 22.208C20.9507 22.0339 21.3588 21.7683 21.6996 21.4281C22.0404 21.0878 22.3065 20.6804 22.4808 20.2318C22.6785 19.7064 22.7846 19.1525 22.7958 18.5904C22.8282 17.8683 22.8379 17.6394 22.8379 15.8058C22.8364 13.973 22.8364 13.7403 22.7943 13.022ZM16.0634 19.2493C14.1433 19.2493 12.5879 17.6964 12.5879 15.7795C12.5879 13.8626 14.1433 12.3097 16.0634 12.3097C16.9852 12.3097 17.8692 12.6753 18.521 13.326C19.1728 13.9767 19.539 14.8593 19.539 15.7795C19.539 16.6998 19.1728 17.5823 18.521 18.2331C17.8692 18.8838 16.9852 19.2493 16.0634 19.2493ZM19.6774 12.9905C19.5709 12.9906 19.4655 12.9697 19.3671 12.9291C19.2687 12.8885 19.1793 12.8289 19.1041 12.7537C19.0288 12.6786 18.9691 12.5893 18.9284 12.4911C18.8877 12.3929 18.8668 12.2877 18.8669 12.1814C18.8669 12.0752 18.8879 11.97 18.9286 11.8719C18.9693 11.7738 19.029 11.6846 19.1042 11.6095C19.1794 11.5344 19.2687 11.4749 19.367 11.4342C19.4653 11.3936 19.5706 11.3727 19.677 11.3727C19.7834 11.3727 19.8887 11.3936 19.987 11.4342C20.0853 11.4749 20.1746 11.5344 20.2498 11.6095C20.325 11.6846 20.3847 11.7738 20.4254 11.8719C20.4661 11.97 20.487 12.0752 20.487 12.1814C20.487 12.6287 20.1247 12.9905 19.6774 12.9905Z" fill="white"/>
<path d="M16.0634 18.0338C17.3103 18.0338 18.3211 17.0247 18.3211 15.7799C18.3211 14.5351 17.3103 13.526 16.0634 13.526C14.8165 13.526 13.8057 14.5351 13.8057 15.7799C13.8057 17.0247 14.8165 18.0338 16.0634 18.0338Z" fill="white"/>
<defs>
<linearGradient id="paint0_linear_1_6158" x1="0.273499" y1="0" x2="38.1484" y2="19.1755" gradientUnits="userSpaceOnUse">
<stop stop-color="#FC466B"/>
<stop offset="1" stop-color="#3F5EFB"/>
</linearGradient>
</defs>
</svg>
