<svg width="22" height="22" viewBox="0 0 22 22" fill="none" xmlns="http://www.w3.org/2000/svg">
<g id="Layer 3">
<path id="Ellipse 248" d="M10.9859 21.5379C16.7628 21.5379 21.4459 16.8548 21.4459 11.0779C21.4459 5.30102 16.7628 0.61792 10.9859 0.61792C5.20898 0.61792 0.525879 5.30102 0.525879 11.0779C0.525879 16.8548 5.20898 21.5379 10.9859 21.5379Z" fill="#FFC500"/>
<path id="Path 1210" d="M11.7271 20.0559C10.0157 20.0536 8.33097 19.6318 6.82037 18.8274C5.30976 18.023 4.0193 16.8608 3.06207 15.4421C2.10484 14.0235 1.50984 12.3916 1.3294 10.6897C1.14897 8.98783 1.38869 7.26778 2.02716 5.67993C1.28196 6.9166 0.800655 8.29413 0.613826 9.72583C0.426996 11.1575 0.538578 12.6123 0.941463 13.9988C1.34435 15.3853 2.0299 16.6734 2.95489 17.782C3.87988 18.8906 5.02433 19.7959 6.31622 20.4407C7.60811 21.0854 9.01948 21.4557 10.4615 21.5283C11.9035 21.601 13.345 21.3744 14.6951 20.8628C16.0453 20.3512 17.275 19.5657 18.3067 18.5557C19.3384 17.5456 20.1498 16.3329 20.69 14.9939C19.7599 16.5394 18.4457 17.8178 16.8751 18.7048C15.3044 19.5919 13.5309 20.0574 11.7271 20.0559Z" fill="#FF9F1E"/>
<path id="Path 1211" d="M10.9858 0.61792C8.74459 0.613506 6.56173 1.33325 4.7627 2.66992C7.23245 1.71712 9.94731 1.60394 12.4878 2.3479C12.4657 2.37474 12.4464 2.40382 12.4307 2.43481C12.1207 3.01181 12.7528 3.95291 13.8408 4.53491C14.9288 5.11691 16.0628 5.12483 16.3728 4.54883C16.4025 4.4926 16.4237 4.43232 16.4358 4.36987C17.8775 5.48335 19.0459 6.91141 19.8521 8.54492C20.6582 10.1784 21.0808 11.9743 21.0876 13.7959C21.5039 12.2457 21.5581 10.6206 21.2458 9.04614C20.9336 7.47171 20.2635 5.9903 19.2871 4.71631C18.3108 3.44232 17.0543 2.4098 15.6152 1.69897C14.1761 0.988149 12.5929 0.618009 10.9878 0.616943L10.9858 0.61792Z" fill="#FFE059"/>
<path id="Ellipse 249" d="M12.0839 3.25706C12.1392 2.97243 11.7885 2.66482 11.3006 2.56997C10.8127 2.47513 10.3723 2.62898 10.317 2.9136C10.2616 3.19822 10.6123 3.50584 11.1003 3.60068C11.5882 3.69553 12.0286 3.54168 12.0839 3.25706Z" fill="#FFE059"/>
<path id="Ellipse 250" d="M12.6275 4.33314C12.7084 4.193 12.6088 3.98403 12.4051 3.8664C12.2013 3.74876 11.9706 3.767 11.8897 3.90714C11.8088 4.04728 11.9083 4.25625 12.1121 4.37389C12.3158 4.49153 12.5466 4.47328 12.6275 4.33314Z" fill="#FFE059"/>
<path id="Path 1212" d="M7.93996 12.0988C7.57727 12.1002 7.21564 12.0622 6.8611 11.9858C6.24036 11.8853 5.67424 11.5709 5.261 11.0969C5.18552 10.9886 5.15473 10.8554 5.17506 10.7251C5.1954 10.5947 5.26527 10.4773 5.37013 10.3972C5.47499 10.3171 5.60667 10.2804 5.73781 10.2951C5.86894 10.3098 5.98943 10.3745 6.07399 10.4758C6.50699 11.0418 7.845 11.1839 8.834 10.9909C9.49999 10.9122 10.1094 10.5779 10.534 10.0588C10.592 9.93626 10.6965 9.84191 10.8242 9.79634C10.9519 9.75077 11.0926 9.75779 11.2151 9.81587C11.3376 9.87396 11.432 9.97845 11.4776 10.1062C11.5231 10.2339 11.5161 10.3743 11.458 10.4968L11.4441 10.5239C11.172 10.9288 10.8153 11.2699 10.3987 11.5239C9.98214 11.7778 9.51561 11.9385 9.03102 11.9948C8.67147 12.064 8.3061 12.0988 7.93996 12.0988Z" fill="#00305F"/>
<path id="Path 1213" d="M14.032 12.0989C13.667 12.1 13.3028 12.0667 12.9442 11.999C12.4596 11.9426 11.9928 11.7818 11.5762 11.5279C11.1597 11.2739 10.8032 10.9327 10.5311 10.5279C10.4988 10.4688 10.4785 10.4039 10.4713 10.3369C10.464 10.27 10.4699 10.2023 10.4888 10.1377C10.5078 10.0731 10.5394 10.0127 10.5816 9.96023C10.6238 9.90776 10.6761 9.86436 10.7352 9.83205C10.7943 9.79975 10.8591 9.77922 10.9261 9.77199C10.993 9.76476 11.0607 9.77087 11.1253 9.78982C11.1899 9.80876 11.2501 9.84011 11.3026 9.88234C11.355 9.92458 11.3987 9.97681 11.431 10.0359L11.4451 10.063C11.8698 10.582 12.4791 10.916 13.1451 10.9949C14.1341 11.1879 15.4721 11.046 15.9051 10.479C15.9452 10.4237 15.996 10.3768 16.0545 10.3413C16.113 10.3059 16.1778 10.2826 16.2454 10.2727C16.3131 10.2628 16.3821 10.2665 16.4483 10.2837C16.5145 10.3009 16.5766 10.331 16.6309 10.3726C16.6852 10.4141 16.7306 10.4663 16.7645 10.5257C16.7983 10.585 16.8201 10.6504 16.8282 10.7183C16.8363 10.7862 16.8307 10.8552 16.8118 10.9209C16.7929 10.9866 16.761 11.0477 16.7181 11.1009C16.3048 11.5748 15.7387 11.8895 15.118 11.99C14.761 12.0657 14.3969 12.1022 14.032 12.0989Z" fill="#00305F"/>
<path id="Path 1214" d="M7.3999 11.5989L8.15601 16.147C8.23667 16.8569 8.56494 17.5157 9.08301 18.0078C9.60108 18.4999 10.2758 18.7938 10.989 18.8379C11.7021 18.7936 12.3767 18.4996 12.8948 18.0076C13.4128 17.5155 13.7412 16.8569 13.822 16.147L14.585 11.5569C13.36 10.9419 11.8629 11.3639 10.9089 10.4829C9.52894 11.5259 8.5659 10.9939 7.3999 11.5989Z" fill="#00305F"/>
<path id="Path 1215" d="M4.49111 9.36081C4.38568 9.36135 4.28267 9.32932 4.19619 9.26901C4.10971 9.2087 4.04413 9.12326 4.0082 9.02414C3.97228 8.92502 3.96775 8.81701 3.99551 8.7153C4.02326 8.61359 4.08194 8.52292 4.16323 8.45578C4.80962 7.94125 5.56343 7.57913 6.36904 7.39597C6.13724 7.20823 5.86627 7.07482 5.57607 7.00583C5.3211 6.94266 5.05659 6.92748 4.79604 6.96091C4.66554 6.97975 4.53301 6.94741 4.42568 6.87082C4.31836 6.79423 4.24473 6.67931 4.22012 6.54977C4.1955 6.42024 4.22161 6.28613 4.29336 6.17551C4.36511 6.06488 4.47681 5.98613 4.60513 5.95578C5.25283 5.85795 5.91486 5.96716 6.49697 6.26755C7.07908 6.56794 7.55152 7.04429 7.84707 7.62888C7.89224 7.71273 7.91323 7.80749 7.90737 7.90256C7.90152 7.99762 7.86922 8.08928 7.81411 8.16696C7.759 8.24464 7.68316 8.30533 7.59536 8.34225C7.50757 8.37918 7.41111 8.39088 7.31704 8.37595C6.40693 8.35726 5.52017 8.66473 4.81704 9.24289C4.72562 9.31931 4.61027 9.36101 4.49111 9.36081Z" fill="#00305F"/>
<path id="Path 1216" d="M17.4809 9.36081C17.5863 9.36114 17.6893 9.32891 17.7756 9.26852C17.8619 9.20814 17.9273 9.12273 17.9631 9.02365C17.9989 8.92458 18.0034 8.81667 17.9756 8.71506C17.9478 8.61344 17.8893 8.52286 17.8081 8.45578C17.1622 7.941 16.4084 7.57885 15.603 7.39597C15.8347 7.20806 16.1057 7.07462 16.396 7.00583C16.651 6.94266 16.9155 6.92748 17.176 6.96091C17.3065 6.97975 17.4393 6.94741 17.5466 6.87082C17.6539 6.79423 17.7276 6.67931 17.7522 6.54977C17.7768 6.42024 17.7505 6.28613 17.6787 6.17551C17.607 6.06488 17.4952 5.98613 17.3669 5.95578C16.7192 5.85795 16.0572 5.96716 15.4751 6.26755C14.893 6.56794 14.4205 7.04429 14.125 7.62888C14.0798 7.71273 14.0591 7.80749 14.0649 7.90256C14.0708 7.99762 14.1031 8.08928 14.1582 8.16696C14.2133 8.24464 14.2889 8.30533 14.3767 8.34225C14.4645 8.37918 14.561 8.39088 14.655 8.37595C15.5651 8.35726 16.4519 8.66473 17.155 9.24289C17.2465 9.31923 17.3618 9.36092 17.4809 9.36081Z" fill="#00305F"/>
<path id="Path 1217" d="M14.009 14.999C13.6893 14.4852 13.2439 14.0612 12.7148 13.7673C12.1858 13.4734 11.5908 13.3191 10.9856 13.3191C10.3804 13.3191 9.78512 13.4734 9.2561 13.7673C8.72709 14.0612 8.28163 14.4852 7.96191 14.999L8.15308 16.146C8.23375 16.856 8.56177 17.5147 9.07983 18.0068C9.5979 18.4989 10.2729 18.7928 10.9861 18.8369C11.6992 18.7926 12.3738 18.4987 12.8918 18.0066C13.4099 17.5145 13.7382 16.8559 13.8191 16.146L14.009 14.999Z" fill="#FF4F4F"/>
</g>
</svg>
