<svg width="32" height="32" viewBox="0 0 32 32" fill="none" xmlns="http://www.w3.org/2000/svg">
<g id="Linkedin">
<rect id="Background" opacity="0.3" x="0.136749" width="31.5897" height="31.5897" rx="5.26496" fill="url(#paint0_linear_1_6155)" fill-opacity="0.4"/>
<path id="Vector" d="M12.4952 21.812V13.6925H9.79687V21.812H12.4952ZM11.1464 12.5833C12.0874 12.5833 12.6731 11.9598 12.6731 11.1807C12.6555 10.3839 12.0874 9.77777 11.1642 9.77777C10.2413 9.77777 9.63766 10.384 9.63766 11.1807C9.63766 11.9598 10.2232 12.5833 11.1288 12.5833H11.1463H11.1464ZM13.9888 21.812H16.6871V17.2777C16.6871 17.035 16.7046 16.7926 16.7759 16.6191C16.971 16.1343 17.415 15.6321 18.1604 15.6321C19.1368 15.6321 19.5274 16.3767 19.5274 17.4682V21.8119H22.2256V17.1563C22.2256 14.6623 20.8944 13.5019 19.119 13.5019C17.6634 13.5019 17.0242 14.3157 16.6692 14.8699H16.6872V13.6923H13.9888C14.0242 14.4542 13.9888 21.8118 13.9888 21.8118L13.9888 21.812Z" fill="white"/>
</g>
<defs>
<linearGradient id="paint0_linear_1_6155" x1="0.136749" y1="0" x2="38.0116" y2="19.1755" gradientUnits="userSpaceOnUse">
<stop stop-color="#FC466B"/>
<stop offset="1" stop-color="#3F5EFB"/>
</linearGradient>
</defs>
</svg>
