<svg width="30" height="30" viewBox="0 0 30 30" fill="none" xmlns="http://www.w3.org/2000/svg">
<path id="Path 223" d="M28.1494 4.23486C27.5552 3.2711 26.7438 2.45989 25.7803 1.86523C24.0493 0.805234 21.6895 0.805176 16.9805 0.805176H12.6689C7.95895 0.805176 5.60891 0.805234 3.87891 1.86523C2.9102 2.45703 2.0949 3.26866 1.49902 4.23486C0.439023 5.96486 0.439453 8.32516 0.439453 13.0352V14.4751C0.439453 17.8251 0.439234 19.4959 0.990234 20.8159C1.34983 21.69 1.87852 22.4845 2.5459 23.1538C3.21327 23.8231 4.00586 24.3538 4.87891 24.7158C6.13204 25.1314 7.45186 25.3116 8.77051 25.2471C9.55807 25.1607 10.3541 25.2705 11.0889 25.5669C11.5789 25.8459 11.8795 26.357 12.4805 27.377L13.2607 28.6958C13.4246 28.9639 13.6537 29.1856 13.9277 29.3394C14.2018 29.4931 14.511 29.5737 14.8252 29.5737C15.1394 29.5737 15.4486 29.4931 15.7227 29.3394C15.9967 29.1856 16.2268 28.9639 16.3906 28.6958L17.1689 27.377C17.7689 26.357 18.0795 25.8459 18.5605 25.5669C19.2953 25.2705 20.0913 25.1607 20.8789 25.2471C22.1976 25.3116 23.5174 25.1314 24.7705 24.7158C25.6439 24.354 26.4368 23.8236 27.1045 23.1543C27.7722 22.485 28.3013 21.6902 28.6611 20.8159C29.2101 19.4959 29.21 17.8251 29.21 14.4751V13.0352C29.209 8.32516 29.2094 5.96486 28.1494 4.23486ZM9.06934 15.5352C8.7163 15.5342 8.37112 15.4284 8.07812 15.2314C7.78513 15.0345 7.55704 14.7553 7.42285 14.4287C7.28866 14.1022 7.25437 13.743 7.32422 13.397C7.39406 13.0509 7.56509 12.7333 7.81543 12.4844C8.06576 12.2354 8.385 12.0664 8.73145 11.9985C9.07789 11.9306 9.43593 11.967 9.76172 12.103C10.0875 12.239 10.3662 12.4686 10.5615 12.7627C10.7568 13.0568 10.8604 13.4018 10.8594 13.7549C10.8589 13.9893 10.8119 14.2216 10.7217 14.438C10.6314 14.6544 10.4993 14.8508 10.333 15.0161C10.1668 15.1814 9.96981 15.3123 9.75293 15.4014C9.53605 15.4904 9.30378 15.5359 9.06934 15.5352ZM14.8291 15.5352C14.4756 15.5361 14.1302 15.4321 13.8359 15.2363C13.5416 15.0406 13.3115 14.7619 13.1758 14.4355C13.0401 14.1092 13.0045 13.7496 13.0732 13.4028C13.142 13.0561 13.3126 12.7377 13.5625 12.4878C13.8124 12.2379 14.1308 12.0677 14.4775 11.999C14.8243 11.9303 15.1834 11.9663 15.5098 12.1021C15.8361 12.2378 16.1148 12.4669 16.3105 12.7612C16.5063 13.0555 16.6104 13.4014 16.6094 13.7549C16.6078 14.2265 16.4194 14.6782 16.0859 15.0117C15.7525 15.3452 15.3007 15.5336 14.8291 15.5352ZM20.5791 15.5352C20.2261 15.5342 19.8819 15.4284 19.5889 15.2314C19.2959 15.0345 19.0678 14.7553 18.9336 14.4287C18.7994 14.1022 18.7651 13.743 18.835 13.397C18.9048 13.0509 19.0749 12.7333 19.3252 12.4844C19.5755 12.2354 19.8948 12.0664 20.2412 11.9985C20.5877 11.9306 20.9467 11.967 21.2725 12.103C21.5982 12.239 21.876 12.4686 22.0713 12.7627C22.2666 13.0568 22.3701 13.4018 22.3691 13.7549C22.3676 14.2282 22.1784 14.6819 21.8428 15.0156C21.5071 15.3494 21.0524 15.5362 20.5791 15.5352Z" fill="white"/>
</svg>
