<svg width="100%" height="100%" viewBox="0 0 32 33" fill="none" xmlns="http://www.w3.org/2000/svg">
<path id="Path 115" fill-rule="evenodd" clip-rule="evenodd" d="M15.8759 32.293C8.42492 32.293 4.69995 32.293 2.38495 29.978C0.0699487 27.663 0.0699463 23.938 0.0699463 16.487C0.0699463 9.036 0.0699487 5.31101 2.38495 2.99701C4.69995 0.683009 8.42492 0.682007 15.8759 0.682007C23.3269 0.682007 27.052 0.682009 29.366 2.99701C31.68 5.31201 31.681 9.037 31.681 16.487C31.681 23.937 31.681 27.664 29.366 29.978C27.051 32.292 23.3259 32.293 15.8759 32.293ZM15.8759 10.56C16.1903 10.5603 16.4917 10.6853 16.7139 10.9077C16.9361 11.1301 17.0609 11.4316 17.0609 11.746V15.3H20.6169C20.9314 15.3 21.2329 15.4249 21.4552 15.6472C21.6775 15.8695 21.8024 16.1711 21.8024 16.4855C21.8024 16.7999 21.6775 17.1015 21.4552 17.3238C21.2329 17.5461 20.9314 17.671 20.6169 17.671H17.0609V21.227C17.0609 21.5414 16.936 21.8429 16.7137 22.0652C16.4914 22.2876 16.1898 22.4125 15.8754 22.4125C15.561 22.4125 15.2595 22.2876 15.0372 22.0652C14.8148 21.8429 14.6899 21.5414 14.6899 21.227V17.671H11.1339C10.8195 17.671 10.518 17.5461 10.2957 17.3238C10.0733 17.1015 9.94843 16.7999 9.94843 16.4855C9.94843 16.1711 10.0733 15.8695 10.2957 15.6472C10.518 15.4249 10.8195 15.3 11.1339 15.3H14.6899V11.744C14.6905 11.4298 14.8157 11.1287 15.038 10.9067C15.2604 10.6847 15.5617 10.56 15.8759 10.56Z" fill="url(#paint0_linear_317_852)"/>
<defs>
<linearGradient id="paint0_linear_317_852" x1="16.2548" y1="-10.6664" x2="15.4645" y2="46.9605" gradientUnits="userSpaceOnUse">
<stop stop-color="#803EDF"/>
<stop offset="0.349" stop-color="#BF80DA"/>
<stop offset="0.418" stop-color="#9084D7"/>
<stop offset="0.554" stop-color="#388BD3"/>
<stop offset="0.616" stop-color="#168FD2"/>
<stop offset="0.821" stop-color="#14D480"/>
</linearGradient>
</defs>
</svg>
