<svg width="100%" height="100%" viewBox="0 0 24 24" fill="none" xmlns="http://www.w3.org/2000/svg">
<path id="Path 862" d="M12.3579 0.698975C10.075 0.699172 7.84341 1.37629 5.9453 2.64478C4.0472 3.91326 2.56783 5.71597 1.69432 7.8252C0.820815 9.93442 0.592328 12.2553 1.03783 14.4944C1.48333 16.7334 2.5829 18.7901 4.19725 20.4043C5.81161 22.0185 7.86831 23.1179 10.1074 23.5632C12.3465 24.0085 14.6675 23.7799 16.7766 22.9062C18.8857 22.0326 20.6885 20.553 21.9568 18.6548C23.2251 16.7566 23.9021 14.5249 23.9021 12.2419C23.9021 10.726 23.6033 9.22499 23.0232 7.82446C22.443 6.42394 21.5927 5.15123 20.5207 4.07935C19.4488 3.00747 18.1762 2.15742 16.7756 1.57739C15.375 0.997361 13.8738 0.698843 12.3579 0.698975ZM12.3579 5.31592C13.0428 5.31592 13.7125 5.51914 14.282 5.89966C14.8515 6.28018 15.2953 6.82083 15.5574 7.45361C15.8195 8.08639 15.888 8.78283 15.7544 9.45459C15.6208 10.1263 15.2909 10.7432 14.8066 11.2275C14.3223 11.7118 13.7054 12.0417 13.0337 12.1753C12.3619 12.3089 11.6655 12.2404 11.0327 11.9783C10.3999 11.7162 9.85902 11.2724 9.4785 10.7029C9.09799 10.1334 8.89501 9.46373 8.89501 8.77881C8.8966 7.86131 9.26213 6.98204 9.91137 6.33374C10.5606 5.68544 11.4404 5.32131 12.3579 5.32104V5.31592ZM17.907 20.335C16.2729 21.4551 14.3381 22.0544 12.3569 22.0544C10.3758 22.0544 8.44095 21.4551 6.80687 20.335C6.46241 20.1151 6.21171 19.7754 6.10277 19.3816C5.99383 18.9877 6.03451 18.5675 6.21703 18.2019C7.05703 16.6629 8.78895 15.7019 12.3559 15.7019C15.9229 15.7019 17.6559 16.6599 18.4939 18.2019C18.6786 18.5676 18.721 18.9889 18.6125 19.384C18.5041 19.7791 18.2525 20.1197 17.907 20.3398V20.335Z" fill="currentColor"/>
</svg>
