<svg width="52" height="66" viewBox="0 0 52 66" fill="none" xmlns="http://www.w3.org/2000/svg">
<g id="Group 638">
<g id="Group 635">
<path id="Path 502" d="M20.5205 28.2991H4.32031V22.8989H20.5205C21.2366 22.8989 21.9233 22.6145 22.4297 22.1082C22.936 21.6018 23.2207 20.9151 23.2207 20.199V3.99902H28.6206V20.199C28.6182 22.3465 27.7641 24.4053 26.2456 25.9238C24.7271 27.4424 22.668 28.2967 20.5205 28.2991Z" fill="#00FCE0"/>
</g>
<g id="Group 636">
<path id="Path 503" fill-rule="evenodd" clip-rule="evenodd" d="M18.1934 3.03589C19.0291 2.20016 20.0213 1.53725 21.1133 1.08496C22.2052 0.632675 23.3757 0.399892 24.5576 0.399902H42.1206C44.5076 0.399902 46.7965 1.34806 48.4844 3.03589C50.1722 4.72372 51.1206 7.01295 51.1206 9.3999V56.2C51.1206 58.5869 50.1722 60.8761 48.4844 62.564C46.7965 64.2518 44.5076 65.2 42.1206 65.2H9.7207C7.33375 65.2 5.04427 64.2518 3.35645 62.564C1.66862 60.8761 0.720703 58.5869 0.720703 56.2V24.2371C0.720693 23.0552 0.953476 21.8847 1.40576 20.7927C1.85805 19.7008 2.52072 18.7088 3.35645 17.873L18.1934 3.03589ZM24.5576 7.59985C24.3212 7.5998 24.0871 7.64639 23.8687 7.73682C23.6502 7.82724 23.4519 7.95982 23.2847 8.12695L8.44727 22.9629C8.28013 23.1301 8.14755 23.3287 8.05713 23.5471C7.96671 23.7655 7.92036 23.9994 7.92041 24.2358V56.199C7.92041 56.6764 8.11019 57.1341 8.44775 57.4717C8.78532 57.8092 9.24331 57.999 9.7207 57.999H42.1206C42.598 57.999 43.0555 57.8092 43.3931 57.4717C43.7306 57.1341 43.9204 56.6764 43.9204 56.199V9.39893C43.9204 8.92154 43.7306 8.46379 43.3931 8.12622C43.0555 7.78866 42.598 7.59888 42.1206 7.59888L24.5576 7.59985Z" fill="#00FCE0"/>
</g>
<g id="Group 637">
<path id="Path 504" d="M25.9204 51.699C25.2043 51.699 24.5176 51.4146 24.0112 50.9082C23.5049 50.4019 23.2207 49.7151 23.2207 48.999V44.499H18.7207C18.0046 44.499 17.3179 44.2146 16.8115 43.7083C16.3052 43.2019 16.0205 42.5152 16.0205 41.7991C16.0205 41.083 16.3052 40.396 16.8115 39.8896C17.3179 39.3833 18.0046 39.0989 18.7207 39.0989H23.2207V34.5989C23.2207 33.8828 23.5049 33.196 24.0112 32.6897C24.5176 32.1833 25.2043 31.8989 25.9204 31.8989C26.6365 31.8989 27.3232 32.1833 27.8296 32.6897C28.3359 33.196 28.6206 33.8828 28.6206 34.5989V39.0989H33.1206C33.8367 39.0989 34.5234 39.3833 35.0298 39.8896C35.5361 40.396 35.8203 41.083 35.8203 41.7991C35.8203 42.5152 35.5361 43.2019 35.0298 43.7083C34.5234 44.2146 33.8367 44.499 33.1206 44.499H28.6206V48.999C28.6206 49.7151 28.3359 50.4019 27.8296 50.9082C27.3232 51.4146 26.6365 51.699 25.9204 51.699Z" fill="white"/>
</g>
</g>
</svg>
