<svg width="100%" height="100%" viewBox="0 0 19 4" fill="none" xmlns="http://www.w3.org/2000/svg">
<g id="Group 1097">
<path id="Ellipse 206" opacity="0.6" d="M1.79724 3.72193C2.74938 3.72193 3.52124 2.95006 3.52124 1.99793C3.52124 1.04579 2.74938 0.273926 1.79724 0.273926C0.845103 0.273926 0.0732422 1.04579 0.0732422 1.99793C0.0732422 2.95006 0.845103 3.72193 1.79724 3.72193Z" fill="white"/>
<path id="Ellipse 207" opacity="0.6" d="M9.2323 3.72193C10.1844 3.72193 10.9563 2.95006 10.9563 1.99793C10.9563 1.04579 10.1844 0.273926 9.2323 0.273926C8.28016 0.273926 7.5083 1.04579 7.5083 1.99793C7.5083 2.95006 8.28016 3.72193 9.2323 3.72193Z" fill="white"/>
<path id="Ellipse 208" opacity="0.6" d="M16.6674 3.72193C17.6195 3.72193 18.3914 2.95006 18.3914 1.99793C18.3914 1.04579 17.6195 0.273926 16.6674 0.273926C15.7152 0.273926 14.9434 1.04579 14.9434 1.99793C14.9434 2.95006 15.7152 3.72193 16.6674 3.72193Z" fill="white"/>
</g>
</svg>
