<svg width="100%" height="100%" viewBox="0 0 29 29" fill="none" xmlns="http://www.w3.org/2000/svg">
<g id="&#240;&#159;&#148;&#141;-Product-Icons" opacity="1">
<g id="ic fluent poll 24 regular">
<path id="&#240;&#159;&#142;&#168;-Color" d="M14.613 0.077881C15.1276 0.0777496 15.6371 0.179138 16.1125 0.375977C16.588 0.572816 17.0201 0.861265 17.384 1.2251C17.748 1.58893 18.0367 2.02092 18.2336 2.49634C18.4306 2.97176 18.532 3.48125 18.532 3.99585V24.6418C18.532 25.6811 18.1191 26.678 17.3843 27.4128C16.6494 28.1477 15.6528 28.5605 14.6135 28.5605C13.5743 28.5605 12.5776 28.1477 11.8428 27.4128C11.1079 26.678 10.6951 25.6811 10.6951 24.6418V3.99902C10.6947 3.48425 10.7957 2.97424 10.9924 2.49854C11.1892 2.02284 11.4777 1.5907 11.8416 1.22656C12.2054 0.862425 12.6375 0.57355 13.113 0.376465C13.5886 0.179379 14.0983 0.0778808 14.613 0.077881ZM24.582 7.198C25.6211 7.198 26.6178 7.61069 27.3525 8.34546C28.0873 9.08023 28.5 10.0768 28.5 11.116V24.6418C28.5 25.6811 28.0872 26.678 27.3523 27.4128C26.6174 28.1477 25.6208 28.5605 24.5815 28.5605C23.5423 28.5605 22.5457 28.1477 21.8108 27.4128C21.0759 26.678 20.6631 25.6811 20.6631 24.6418V11.116C20.6632 10.6014 20.7647 10.092 20.9617 9.6167C21.1587 9.1414 21.4474 8.70943 21.8113 8.3457C22.1752 7.98198 22.6071 7.6936 23.0825 7.49683C23.5579 7.30005 24.0675 7.19787 24.582 7.198ZM4.64502 14.3179C5.15962 14.3177 5.66931 14.4191 6.14478 14.616C6.62024 14.8128 7.05209 15.1013 7.41602 15.4651C7.77994 15.8289 8.06866 16.2609 8.26562 16.7363C8.46259 17.2117 8.56396 17.7212 8.56396 18.2358V24.6418C8.56396 25.6811 8.15112 26.678 7.41626 27.4128C6.6814 28.1477 5.68476 28.5605 4.64551 28.5605C3.60626 28.5605 2.60962 28.1477 1.87476 27.4128C1.13989 26.678 0.727051 25.6811 0.727051 24.6418V18.2358C0.727051 17.7213 0.828249 17.2119 1.02515 16.7366C1.22204 16.2612 1.51069 15.8294 1.87451 15.4656C2.23833 15.1018 2.6704 14.8131 3.14575 14.6162C3.62111 14.4193 4.1305 14.3179 4.64502 14.3179ZM14.613 2.21802C14.1404 2.21802 13.6872 2.40556 13.353 2.73975C13.0188 3.07394 12.8311 3.52738 12.8311 4V24.646C12.8311 25.1187 13.0187 25.572 13.353 25.9062C13.6873 26.2405 14.1408 26.4285 14.6135 26.4285C15.0863 26.4285 15.5397 26.2405 15.874 25.9062C16.2083 25.572 16.396 25.1187 16.396 24.646V3.99902C16.3963 3.76471 16.3502 3.53247 16.2607 3.31592C16.1713 3.09936 16.0401 2.9026 15.8745 2.73682C15.7089 2.57104 15.5124 2.43958 15.2959 2.34985C15.0794 2.26012 14.8474 2.21387 14.613 2.21387V2.21802ZM24.582 9.33789C24.3479 9.33776 24.116 9.38389 23.8997 9.47339C23.6833 9.56288 23.4869 9.69413 23.3213 9.85962C23.1557 10.0251 23.0244 10.2215 22.9348 10.4377C22.8452 10.654 22.7991 10.8858 22.7991 11.1199V24.646C22.7991 25.1187 22.9868 25.572 23.321 25.9062C23.6553 26.2405 24.1088 26.4285 24.5815 26.4285C25.0543 26.4285 25.5075 26.2405 25.8418 25.9062C26.1761 25.572 26.364 25.1187 26.364 24.646V11.1199C26.3645 10.8855 26.3188 10.6534 26.2295 10.4368C26.1402 10.2201 26.009 10.0231 25.8435 9.85718C25.678 9.69128 25.4814 9.55977 25.2649 9.46997C25.0484 9.38017 24.8164 9.33398 24.582 9.33398V9.33789ZM4.64502 16.458C4.1724 16.458 3.7192 16.6458 3.38501 16.98C3.05082 17.3142 2.86304 17.7674 2.86304 18.24V24.646C2.86304 25.1187 3.05073 25.572 3.38501 25.9062C3.71929 26.2405 4.17276 26.4285 4.64551 26.4285C5.11826 26.4285 5.57172 26.2405 5.90601 25.9062C6.24029 25.572 6.42798 25.1187 6.42798 24.646V18.24C6.42837 18.0056 6.38264 17.7733 6.29321 17.5566C6.20379 17.34 6.07234 17.1432 5.90674 16.9773C5.74113 16.8114 5.54464 16.6796 5.32812 16.5898C5.11161 16.5001 4.87942 16.4539 4.64502 16.4539V16.458Z" fill="currentColor"/>
</g>
</g>
</svg>
