<svg width="100%" height="100%" viewBox="0 0 26 18" fill="none" xmlns="http://www.w3.org/2000/svg">
<g opacity="0.6">
<path d="M14.4847 14.915H7.0846V4.33203L8.6786 5.92603C8.91192 6.14627 9.22203 6.26683 9.54285 6.26221C9.86367 6.25758 10.17 6.128 10.3969 5.90112C10.6237 5.67424 10.7533 5.36794 10.7579 5.04712C10.7626 4.7263 10.642 4.41619 10.4218 4.18286L6.72156 0.48291C6.49036 0.2519 6.17706 0.12207 5.85023 0.12207C5.52339 0.12207 5.20985 0.2519 4.97864 0.48291L1.27869 4.18286C1.05845 4.41619 0.937884 4.7263 0.942511 5.04712C0.947138 5.36794 1.07647 5.67424 1.30335 5.90112C1.53023 6.128 1.83678 6.25758 2.1576 6.26221C2.47842 6.26683 2.78829 6.14627 3.02161 5.92603L4.61561 4.33203V16.147C4.61561 16.4738 4.74543 16.7874 4.97645 17.0186C5.20746 17.2498 5.5207 17.3796 5.84754 17.3799H14.4757C14.8026 17.3799 15.1159 17.2502 15.3471 17.019C15.5782 16.7879 15.7081 16.4743 15.7081 16.1475C15.7081 15.8206 15.5782 15.507 15.3471 15.2759C15.1159 15.0447 14.8026 14.915 14.4757 14.915H14.4847Z" fill="white"/>
<path d="M25.2166 11.5779C24.9853 11.3469 24.6718 11.217 24.345 11.217C24.0181 11.217 23.7048 11.3469 23.4736 11.5779L21.8794 13.1719V1.35693C21.8794 1.03009 21.7498 0.716555 21.5188 0.485352C21.2878 0.254148 20.9743 0.124289 20.6475 0.124023H12.0195C11.6927 0.124023 11.3791 0.253725 11.1479 0.484863C10.9168 0.716002 10.7871 1.02957 10.7871 1.35645C10.7871 1.68332 10.9168 1.99689 11.1479 2.22803C11.3791 2.45917 11.6927 2.58887 12.0195 2.58887H19.4194V13.1719L17.8264 11.5779C17.7132 11.458 17.5772 11.362 17.4263 11.2957C17.2753 11.2293 17.1126 11.1938 16.9478 11.1914C16.7829 11.189 16.6191 11.2197 16.4663 11.2817C16.3135 11.3437 16.1747 11.4359 16.0581 11.5525C15.9415 11.6691 15.8494 11.8079 15.7874 11.9607C15.7253 12.1135 15.6946 12.2772 15.697 12.4421C15.6994 12.607 15.7349 12.7697 15.8013 12.9207C15.8677 13.0716 15.9636 13.2078 16.0835 13.321L19.7834 17.021C20.0147 17.252 20.3282 17.3816 20.655 17.3816C20.9819 17.3816 21.2954 17.252 21.5266 17.021L25.2266 13.321C25.4563 13.0885 25.5842 12.7741 25.5823 12.4473C25.5804 12.1204 25.4489 11.8078 25.2166 11.5779Z" fill="white"/>
</g>
</svg>
