<svg width="100%" height="100%" viewBox="0 0 25 25" fill="none" xmlns="http://www.w3.org/2000/svg">
<g id="vuesax/bold/star">
<g id="star">
<path id="Vector" d="M13.9488 3.56581L15.7367 7.14176C15.9806 7.63955 16.6307 8.11702 17.1793 8.20845L20.42 8.74688C22.4925 9.09228 22.9801 10.5958 21.4867 12.079L18.9673 14.5984C18.5406 15.0251 18.307 15.848 18.439 16.4372L19.1603 19.556C19.7292 22.0246 18.4187 22.9796 16.2345 21.6894L13.197 19.8913C12.6484 19.5662 11.7443 19.5662 11.1855 19.8913L8.148 21.6894C5.97398 22.9796 4.65332 22.0145 5.22222 19.556L5.9435 16.4372C6.07557 15.848 5.84191 15.0251 5.41524 14.5984L2.89581 12.079C1.4126 10.5958 1.89008 9.09228 3.96251 8.74688L7.20322 8.20845C7.74164 8.11702 8.39181 7.63955 8.63563 7.14176L10.4236 3.56581C11.3989 1.62544 12.9837 1.62544 13.9488 3.56581Z" fill="currentColor"/>
</g>
</g>
</svg>
