<svg width="100%" height="100%" viewBox="0 0 20 20" fill="none" xmlns="http://www.w3.org/2000/svg">
<path d="M16.867 16.614C18.2229 15.2572 19.1459 13.5286 19.5196 11.6472C19.8933 9.7658 19.701 7.81597 18.9666 6.04395C18.2322 4.27192 16.9889 2.75742 15.3939 1.69189C13.7989 0.626366 11.9238 0.0576172 10.0057 0.0576172C8.08751 0.0576172 6.21225 0.626366 4.61725 1.69189C3.02225 2.75742 1.77912 4.27192 1.04474 6.04395C0.310357 7.81597 0.117829 9.7658 0.491518 11.6472C0.865206 13.5286 1.78826 15.2572 3.14411 16.614C4.96536 18.431 7.43304 19.4514 10.0057 19.4514C12.5783 19.4514 15.0457 18.431 16.867 16.614ZM4.20197 3.948C5.34988 2.80011 6.81241 2.01835 8.4046 1.70166C9.99679 1.38497 11.6472 1.54745 13.147 2.1687C14.6468 2.78995 15.9287 3.8421 16.8306 5.19189C17.7325 6.54169 18.2139 8.12857 18.2139 9.75195C18.2139 11.3753 17.7325 12.9622 16.8306 14.312C15.9287 15.6618 14.6468 16.714 13.147 17.3352C11.6472 17.9565 9.99679 18.1189 8.4046 17.8022C6.81241 17.4856 5.34988 16.7038 4.20197 15.5559C2.66432 14.0158 1.80073 11.9287 1.80036 9.75244C1.79998 7.57616 2.6629 5.48861 4.20001 3.948H4.20197ZM11.0711 7.67383C11.0711 7.2516 11.2389 6.84665 11.5374 6.5481C11.836 6.24954 12.2409 6.08203 12.6631 6.08203C13.0854 6.08203 13.4903 6.24954 13.7889 6.5481C14.0874 6.84665 14.2549 7.2516 14.2549 7.67383C14.2549 7.79516 14.207 7.91152 14.1212 7.99731C14.0354 8.08311 13.919 8.13135 13.7977 8.13135C13.6763 8.13135 13.5597 8.08311 13.4739 7.99731C13.3881 7.91152 13.3402 7.79516 13.3402 7.67383C13.3402 7.49428 13.2686 7.32227 13.1417 7.19531C13.0147 7.06835 12.8427 6.99683 12.6631 6.99683C12.4836 6.99683 12.3114 7.06835 12.1844 7.19531C12.0574 7.32227 11.9861 7.49428 11.9861 7.67383C11.989 7.73571 11.9793 7.79769 11.9576 7.85571C11.9359 7.91374 11.9027 7.96666 11.8599 8.01147C11.8172 8.05629 11.7658 8.09208 11.7088 8.11646C11.6519 8.14083 11.5906 8.15332 11.5286 8.15332C11.4667 8.15332 11.4054 8.14083 11.3485 8.11646C11.2915 8.09208 11.2401 8.05629 11.1973 8.01147C11.1546 7.96666 11.1211 7.91374 11.0994 7.85571C11.0777 7.79769 11.0682 7.73571 11.0711 7.67383ZM6.00006 7.67383C6.00006 7.2516 6.16781 6.84665 6.46637 6.5481C6.76493 6.24954 7.16988 6.08203 7.5921 6.08203C8.01433 6.08203 8.41928 6.24954 8.71784 6.5481C9.01639 6.84665 9.18414 7.2516 9.18414 7.67383C9.18704 7.73571 9.17727 7.79769 9.15558 7.85571C9.13389 7.91374 9.10069 7.96666 9.05792 8.01147C9.01516 8.05629 8.96375 8.09208 8.9068 8.11646C8.84985 8.14083 8.78857 8.15332 8.72663 8.15332C8.66468 8.15332 8.6034 8.14083 8.54645 8.11646C8.4895 8.09208 8.43809 8.05629 8.39533 8.01147C8.35256 7.96666 8.31911 7.91374 8.29743 7.85571C8.27574 7.79769 8.26621 7.73571 8.26911 7.67383C8.26911 7.49428 8.19783 7.32227 8.07086 7.19531C7.9439 7.06835 7.77166 6.99683 7.5921 6.99683C7.41255 6.99683 7.24031 7.06835 7.11334 7.19531C6.98638 7.32227 6.9151 7.49428 6.9151 7.67383C6.918 7.73571 6.90822 7.79769 6.88654 7.85571C6.86485 7.91374 6.83165 7.96666 6.78888 8.01147C6.74611 8.05629 6.69471 8.09208 6.63776 8.11646C6.58081 8.14083 6.51953 8.15332 6.45758 8.15332C6.39564 8.15332 6.33436 8.14083 6.27741 8.11646C6.22046 8.09208 6.16905 8.05629 6.12628 8.01147C6.08352 7.96666 6.05031 7.91374 6.02863 7.85571C6.00694 7.79769 5.99717 7.73571 6.00006 7.67383ZM5.80011 11.7629C5.7725 11.6961 5.75822 11.6245 5.75836 11.5522C5.7585 11.4799 5.77297 11.4083 5.80084 11.3416C5.82872 11.2748 5.86962 11.2142 5.92096 11.1633C5.9723 11.1124 6.03321 11.0722 6.10016 11.0449C6.16684 11.0178 6.23812 11.0038 6.31012 11.0039C6.41856 11.0039 6.52458 11.036 6.61481 11.0962C6.70504 11.1563 6.77528 11.2419 6.81696 11.342C7.10546 11.945 7.5588 12.454 8.12433 12.8103C8.68986 13.1666 9.34457 13.3557 10.013 13.3557C10.6814 13.3557 11.3364 13.1666 11.9019 12.8103C12.4675 12.454 12.9205 11.945 13.209 11.342C13.2354 11.2728 13.2755 11.2094 13.327 11.156C13.3784 11.1027 13.4403 11.0603 13.5086 11.0315C13.5769 11.0027 13.6503 10.988 13.7244 10.9883C13.7986 10.9886 13.8717 11.0038 13.9398 11.0332C14.0078 11.0626 14.0694 11.1057 14.1204 11.1594C14.1715 11.2132 14.2111 11.2767 14.2369 11.3462C14.2627 11.4157 14.2741 11.4897 14.2706 11.5637C14.267 11.6378 14.2485 11.7102 14.2161 11.7769C13.8424 12.5778 13.2474 13.2555 12.5015 13.7297C11.7556 14.204 10.8898 14.4552 10.0059 14.4539C9.12203 14.4525 8.25694 14.1985 7.51251 13.7219C6.76809 13.2454 6.17528 12.5661 5.80402 11.7639L5.80011 11.7629Z" fill="white"/>
</svg>
