<svg width="100%" height="100%" viewBox="0 0 21 22" fill="none" xmlns="http://www.w3.org/2000/svg">
<path id="Path 121" d="M7.67899 4.76501C8.90499 2.56501 9.518 1.46497 10.435 1.46497C11.352 1.46497 11.965 2.56501 13.191 4.76501L13.508 5.33398C13.6953 5.76356 13.9651 6.15227 14.302 6.47803C14.6966 6.71009 15.1346 6.85842 15.589 6.91394L16.205 7.05298C18.587 7.59198 19.777 7.86097 20.06 8.77197C20.343 9.68297 19.532 10.632 17.909 12.53L17.489 13.022C17.1497 13.3462 16.8778 13.7343 16.689 14.1639C16.5984 14.6309 16.5984 15.111 16.689 15.578L16.752 16.233C16.998 18.766 17.12 20.033 16.379 20.595C15.638 21.157 14.522 20.645 12.293 19.618L11.716 19.353C11.3475 19.0691 10.8953 18.915 10.43 18.915C9.96473 18.915 9.51257 19.0691 9.14402 19.353L8.56699 19.618C6.33699 20.645 5.22199 21.158 4.48099 20.595C3.73999 20.032 3.862 18.766 4.107 16.233L4.17099 15.578C4.26162 15.111 4.26162 14.6309 4.17099 14.1639C3.9818 13.7345 3.70998 13.3465 3.37101 13.022L2.95099 12.53C1.32799 10.63 0.516016 9.68297 0.799016 8.77197C1.08202 7.86097 2.273 7.59198 4.654 7.05298L5.26999 6.91394C5.7244 6.85861 6.16254 6.71028 6.55701 6.47803C6.89457 6.15282 7.16443 5.76397 7.35102 5.33398L7.67899 4.76501Z" stroke="white" stroke-miterlimit="10"/>
</svg>
