<svg width="41" height="42" viewBox="0 0 41 42" fill="none" xmlns="http://www.w3.org/2000/svg">
<g id="Group 609">
<path id="Ellipse 10" d="M20.392 41.494C31.6299 41.494 40.74 32.3839 40.74 21.146C40.74 9.90808 31.6299 0.797974 20.392 0.797974C9.15412 0.797974 0.0440063 9.90808 0.0440063 21.146C0.0440063 32.3839 9.15412 41.494 20.392 41.494Z" fill="black"/>
<g id="Group 608">
<path id="Union" fill-rule="evenodd" clip-rule="evenodd" d="M11.216 10.7531C11.3844 10.5886 11.6097 10.4955 11.845 10.493H33.545C33.633 10.4928 33.7191 10.5188 33.7924 10.5676C33.8656 10.6165 33.9227 10.6859 33.9564 10.7672C33.99 10.8486 33.9987 10.9381 33.9814 11.0244C33.964 11.1107 33.9215 11.1899 33.859 11.252L29.574 15.538C29.4068 15.7041 29.1807 15.7972 28.945 15.797H7.24499C7.15716 15.797 7.07131 15.771 6.99828 15.7222C6.92525 15.6734 6.86832 15.6041 6.83471 15.523C6.8011 15.4418 6.7923 15.3525 6.80944 15.2664C6.82658 15.1802 6.86888 15.101 6.93099 15.0389L11.216 10.7531ZM11.216 26.754C11.2987 26.6716 11.3968 26.6063 11.5048 26.5619C11.6127 26.5175 11.7283 26.4947 11.845 26.495H33.545C33.6329 26.495 33.7187 26.521 33.7917 26.5698C33.8648 26.6186 33.9217 26.6879 33.9553 26.769C33.9889 26.8502 33.9977 26.9395 33.9806 27.0256C33.9635 27.1118 33.9212 27.191 33.859 27.2531L29.574 31.5389C29.407 31.7053 29.1808 31.7988 28.945 31.799H7.24502C7.15699 31.7992 7.0709 31.7732 6.99765 31.7244C6.9244 31.6755 6.8673 31.6061 6.83365 31.5248C6.79999 31.4434 6.79129 31.3539 6.80862 31.2676C6.82596 31.1813 6.86857 31.1021 6.93103 31.04L11.216 26.754ZM28.94 18.441C29.1757 18.4408 29.4018 18.5338 29.569 18.7L33.855 22.986C33.9175 23.048 33.96 23.1272 33.9774 23.2135C33.9947 23.2998 33.986 23.3894 33.9524 23.4707C33.9187 23.5521 33.8616 23.6216 33.7884 23.6704C33.7151 23.7192 33.629 23.7452 33.541 23.745H11.841C11.7242 23.7451 11.6086 23.7222 11.5006 23.6776C11.3927 23.633 11.2946 23.5675 11.212 23.485L6.92599 19.199C6.86387 19.1369 6.82157 19.0578 6.80443 18.9717C6.7873 18.8855 6.79609 18.7962 6.8297 18.7151C6.86332 18.6339 6.92025 18.5645 6.99328 18.5157C7.06631 18.467 7.15215 18.441 7.23998 18.441H28.94Z" fill="url(#paint0_linear_317_896)"/>
</g>
</g>
<defs>
<linearGradient id="paint0_linear_317_896" x1="20" y1="-12" x2="43.3124" y2="34.9162" gradientUnits="userSpaceOnUse">
<stop stop-color="#00FFA3"/>
<stop offset="1" stop-color="#DC1FFF"/>
</linearGradient>
</defs>
</svg>
