<svg width="22" height="22" viewBox="0 0 22 22" fill="none" xmlns="http://www.w3.org/2000/svg">
<g id="Group 1163">
<g id="Layer 3">
<path id="Ellipse 246" d="M10.7969 21.5379C16.5738 21.5379 21.2569 16.8548 21.2569 11.0779C21.2569 5.30102 16.5738 0.61792 10.7969 0.61792C5.02002 0.61792 0.336914 5.30102 0.336914 11.0779C0.336914 16.8548 5.02002 21.5379 10.7969 21.5379Z" fill="#FFC500"/>
<path id="Path 1204" d="M11.538 20.0559C9.82632 20.0543 8.14104 19.633 6.63003 18.8289C5.11903 18.0247 3.82837 16.8622 2.871 15.4434C1.91362 14.0245 1.31868 12.3924 1.13858 10.6902C0.958473 8.98802 1.19856 7.26775 1.8378 5.67993C1.09377 6.91646 0.613692 8.29354 0.427639 9.72461C0.241586 11.1557 0.353627 12.6097 0.756741 13.9954C1.15985 15.381 1.84548 16.6684 2.77017 17.7764C3.69486 18.8843 4.8388 19.7889 6.13003 20.4333C7.42126 21.0778 8.83183 21.4481 10.2731 21.521C11.7144 21.5939 13.1551 21.3678 14.5048 20.8569C15.8544 20.3461 17.0836 19.5615 18.1154 18.5525C19.1471 17.5435 19.959 16.3318 20.4999 14.9939C19.5699 16.5393 18.2557 17.8176 16.6852 18.7046C15.1148 19.5916 13.3416 20.0572 11.538 20.0559Z" fill="#FF9F1E"/>
<path id="Path 1205" d="M10.8003 0.61792C8.55938 0.613722 6.37689 1.33345 4.57812 2.66992C7.04754 1.71712 9.7621 1.60394 12.3022 2.3479C12.2801 2.37468 12.261 2.40377 12.2454 2.43481C11.9354 3.01181 12.5683 3.95291 13.6553 4.53491C14.7423 5.11691 15.8772 5.12483 16.1882 4.54883C16.2169 4.49214 16.2381 4.43202 16.2512 4.36987C17.6926 5.48355 18.8608 6.91169 19.6667 8.54517C20.4727 10.1786 20.8955 11.9744 20.9023 13.7959C21.3186 12.2457 21.3725 10.6206 21.0603 9.04614C20.7481 7.47171 20.0779 5.9903 19.1016 4.71631C18.1252 3.44232 16.8688 2.4098 15.4297 1.69897C13.9906 0.988149 12.4073 0.618009 10.8022 0.616943L10.8003 0.61792Z" fill="#FFE059"/>
<path id="Ellipse 247" d="M11.9301 3.53711C12.0751 3.28472 11.9131 2.91957 11.5683 2.72151C11.2234 2.52345 10.8264 2.56749 10.6814 2.81988C10.5365 3.07226 10.6985 3.43741 11.0433 3.63547C11.3881 3.83353 11.7851 3.78949 11.9301 3.53711Z" fill="#FFE059"/>
<path id="Path 1206" d="M10.9563 18.012H10.6362C9.68145 18.012 8.76571 17.6326 8.09058 16.9575C7.41545 16.2824 7.03613 15.3666 7.03613 14.4119C9.52123 13.9119 12.0811 13.9119 14.5662 14.4119C14.5662 14.8855 14.4728 15.3546 14.2913 15.792C14.1097 16.2294 13.8437 16.6265 13.5083 16.9609C13.1729 17.2954 12.7748 17.5604 12.3369 17.7407C11.899 17.921 11.4299 18.0133 10.9563 18.012Z" fill="#00305F"/>
<path id="Path 1207" d="M6.93625 5.76782L7.44528 6.79883C7.48887 6.88675 7.55286 6.96304 7.63205 7.021C7.71124 7.07895 7.80313 7.11687 7.90012 7.13184L9.03928 7.29688C9.15193 7.31132 9.2582 7.35749 9.34567 7.42993C9.43315 7.50237 9.49823 7.59807 9.53342 7.70605C9.56861 7.81404 9.5724 7.92997 9.5444 8.04004C9.51641 8.15011 9.45772 8.24983 9.37522 8.32788L8.55222 9.12793C8.4817 9.19609 8.42899 9.28051 8.39865 9.37378C8.36832 9.46705 8.36121 9.56624 8.37814 9.66284L8.57224 10.7979C8.59299 10.9095 8.58163 11.0247 8.53952 11.1301C8.49741 11.2356 8.42614 11.327 8.3342 11.3936C8.24226 11.4602 8.1333 11.4992 8.01999 11.5063C7.90669 11.5135 7.79389 11.4884 7.69431 11.4338L6.67526 10.8989C6.58855 10.8535 6.49213 10.8298 6.39426 10.8298C6.29639 10.8298 6.19997 10.8535 6.11325 10.8989L5.09519 11.4338C4.9956 11.4884 4.88256 11.5135 4.76926 11.5063C4.65595 11.4992 4.54699 11.4602 4.45505 11.3936C4.36311 11.327 4.29208 11.2356 4.24997 11.1301C4.20786 11.0247 4.1965 10.9095 4.21726 10.7979L4.41721 9.66284C4.43414 9.56624 4.42703 9.46705 4.3967 9.37378C4.36637 9.28051 4.31366 9.19609 4.24313 9.12793L3.41818 8.32788C3.33568 8.24983 3.27699 8.15011 3.24899 8.04004C3.221 7.92997 3.22479 7.81404 3.25998 7.70605C3.29517 7.59807 3.3605 7.50237 3.44797 7.42993C3.53544 7.35749 3.64147 7.31132 3.75412 7.29688L4.8923 7.13184C4.98962 7.11786 5.08201 7.08028 5.16135 7.02222C5.24069 6.96415 5.30439 6.88736 5.34714 6.79883L5.85715 5.76782C5.90639 5.66665 5.98319 5.5814 6.07858 5.52173C6.17398 5.46206 6.28418 5.43042 6.3967 5.43042C6.50922 5.43042 6.61942 5.46206 6.71481 5.52173C6.81021 5.5814 6.88701 5.66665 6.93625 5.76782Z" fill="#E85D00"/>
<path id="Path 1208" d="M14.657 5.76782L14.147 6.79883C14.1037 6.88695 14.0397 6.96325 13.9605 7.02124C13.8813 7.07923 13.789 7.1172 13.6919 7.13184L12.553 7.29688C12.4405 7.31148 12.3345 7.35767 12.2471 7.43018C12.1598 7.50268 12.0947 7.59859 12.0596 7.70654C12.0245 7.8145 12.0208 7.93029 12.0489 8.04028C12.0769 8.15028 12.1356 8.2499 12.2181 8.32788L13.0411 9.12793C13.1116 9.19609 13.1643 9.28051 13.1946 9.37378C13.225 9.46705 13.2321 9.56624 13.2151 9.66284L13.0149 10.7979C12.9962 10.909 13.0091 11.0231 13.0518 11.1274C13.0945 11.2318 13.1654 11.3223 13.2566 11.3884C13.3479 11.4546 13.456 11.4936 13.5684 11.5017C13.6808 11.5098 13.7933 11.4863 13.8931 11.4338L14.9122 10.8989C14.9991 10.8535 15.0956 10.8298 15.1937 10.8298C15.2917 10.8298 15.3883 10.8535 15.4752 10.8989L16.492 11.4338C16.5916 11.4884 16.7046 11.5135 16.8179 11.5063C16.9312 11.4992 17.0402 11.4602 17.1321 11.3936C17.2241 11.327 17.2953 11.2356 17.3375 11.1301C17.3796 11.0247 17.3909 10.9095 17.3702 10.7979L17.1761 9.66284C17.1591 9.56624 17.166 9.46705 17.1963 9.37378C17.2267 9.28051 17.2796 9.19609 17.3502 9.12793L18.1741 8.32788C18.2566 8.2499 18.3153 8.15028 18.3433 8.04028C18.3714 7.93029 18.3677 7.8145 18.3326 7.70654C18.2975 7.59859 18.2324 7.50268 18.1451 7.43018C18.0577 7.35767 17.9517 7.31148 17.8392 7.29688L16.7 7.13184C16.6027 7.11786 16.5103 7.08028 16.431 7.02222C16.3516 6.96415 16.2879 6.88736 16.2452 6.79883L15.7352 5.76782C15.6858 5.66692 15.609 5.58193 15.5137 5.52246C15.4184 5.46299 15.3084 5.4314 15.1961 5.4314C15.0838 5.4314 14.9738 5.46299 14.8785 5.52246C14.7832 5.58193 14.7064 5.66692 14.657 5.76782Z" fill="#E85D00"/>
<path id="Path 1209" d="M11.3528 16.022C10.8568 16.0221 10.3753 16.1901 9.98706 16.4988C9.59881 16.8075 9.3267 17.2387 9.21484 17.7219C9.66369 17.9149 10.1472 18.0139 10.6357 18.0129H10.9558C11.8064 18.0141 12.6298 17.7127 13.2788 17.1628C13.0893 16.8177 12.8105 16.5298 12.4717 16.3291C12.1329 16.1284 11.7465 16.0224 11.3528 16.022Z" fill="#FF4F4F"/>
</g>
</g>
</svg>
