<svg width="100%" height="100%" viewBox="0 0 140 212" fill="none" xmlns="http://www.w3.org/2000/svg">
<g id="Group 443" filter="url(#filter0_d_317_508)">
<g id="Group 442">
<path id="Rectangle 308" d="M80.23 12.948H59.646C33.6649 12.948 12.603 34.0099 12.603 59.991V152.172C12.603 178.153 33.6649 199.215 59.646 199.215H80.23C106.211 199.215 127.273 178.153 127.273 152.172V59.991C127.273 34.0099 106.211 12.948 80.23 12.948Z" fill="url(#paint0_radial_317_508)"/>
<path id="Rectangle 309" d="M80.229 18.8931H59.646C36.9476 18.8931 18.547 37.2937 18.547 59.9921V152.172C18.547 174.87 36.9476 193.271 59.646 193.271H80.229C102.927 193.271 121.328 174.87 121.328 152.172V59.9921C121.328 37.2937 102.927 18.8931 80.229 18.8931Z" fill="url(#paint1_radial_317_508)"/>
</g>
<path id="Path 94" d="M57.5999 87.72L73.279 103.399C73.9474 104.133 74.3178 105.09 74.3178 106.082C74.3178 107.075 73.9474 108.031 73.279 108.765L57.5999 124.444C55.2629 127.271 59.6909 130.805 61.6669 128.829L82.02 108.476C82.6056 107.816 82.9289 106.964 82.9289 106.082C82.9289 105.2 82.6056 104.348 82.02 103.688L61.6669 83.335C59.6929 81.359 55.2649 84.893 57.5999 87.72Z" fill="white"/>
</g>
<defs>
<filter id="filter0_d_317_508" x="0.603027" y="0.947998" width="138.67" height="210.267" filterUnits="userSpaceOnUse" color-interpolation-filters="sRGB">
<feFlood flood-opacity="0" result="BackgroundImageFix"/>
<feColorMatrix in="SourceAlpha" type="matrix" values="0 0 0 0 0 0 0 0 0 0 0 0 0 0 0 0 0 0 127 0" result="hardAlpha"/>
<feOffset/>
<feGaussianBlur stdDeviation="6"/>
<feComposite in2="hardAlpha" operator="out"/>
<feColorMatrix type="matrix" values="0 0 0 0 0 0 0 0 0 0 0 0 0 0 0 0 0 0 0.75 0"/>
<feBlend mode="normal" in2="BackgroundImageFix" result="effect1_dropShadow_317_508"/>
<feBlend mode="normal" in="SourceGraphic" in2="effect1_dropShadow_317_508" result="shape"/>
</filter>
<radialGradient id="paint0_radial_317_508" cx="0" cy="0" r="1" gradientUnits="userSpaceOnUse" gradientTransform="translate(-83.8457 -167.46) scale(235.946 400.492)">
<stop offset="0.228" stop-color="#4D75C7"/>
<stop offset="0.543" stop-color="#4351A3"/>
<stop offset="0.997" stop-color="#34176B"/>
</radialGradient>
<radialGradient id="paint1_radial_317_508" cx="0" cy="0" r="1" gradientUnits="userSpaceOnUse" gradientTransform="translate(-53.8663 -293.158) scale(318.315 540.053)">
<stop stop-color="#8D00DC"/>
<stop offset="0.085" stop-color="#7300B9"/>
<stop offset="0.234" stop-color="#4A0182"/>
<stop offset="0.363" stop-color="#2C0159"/>
<stop offset="0.464" stop-color="#1A0141"/>
<stop offset="0.526" stop-color="#140238"/>
<stop offset="1" stop-color="#140238"/>
</radialGradient>
</defs>
</svg>
