<svg width="100%" height="100%" viewBox="0 0 52 52" fill="none" xmlns="http://www.w3.org/2000/svg">
<g id="telegram" filter="url(#filter0_d_2004_810)">
<rect id="bg" x="0.5" y="0.5" width="49" height="49" rx="9.5" fill="currentColor" stroke="white"/>
<path id="Path-3" d="M15.6411 24.2081L15.6334 24.2113C15.1943 24.3919 14.8915 24.5583 14.702 24.704C14.5233 24.8413 14.502 24.9156 14.5011 24.9168C14.5011 24.9169 14.5011 24.9169 14.5011 24.9169C14.5011 24.9168 14.5012 24.9161 14.5014 24.9146L15.6411 24.2081ZM15.6411 24.2081L15.6487 24.2047M15.6411 24.2081L15.6487 24.2047M15.6487 24.2047C21.2846 21.6642 25.0384 19.9913 26.914 19.1842L26.7163 18.7249M15.6487 24.2047L26.7163 18.7249M26.7163 18.7249L26.914 19.1842C29.6 18.0283 31.2101 17.3552 32.238 16.9693M26.7163 18.7249L32.238 16.9693M34.3547 16.6157L34.3547 16.6156C34.3183 16.5851 34.2511 16.5516 34.1548 16.5278C34.0613 16.5047 33.9755 16.4994 33.9363 16.5001L34.3547 16.6157ZM34.3547 16.6157C34.3914 16.6464 34.4483 16.7326 34.4792 16.9281C34.5085 17.1134 34.5031 17.3266 34.4857 17.5158L34.9836 17.5616M34.3547 16.6157L34.9836 17.5616M34.9836 17.5616L34.4857 17.5158C34.1971 20.6537 32.9422 28.3079 32.3015 31.8517C32.037 33.3142 31.5755 33.479 31.4251 33.4933L31.4251 33.4933M34.9836 17.5616L31.4251 33.4933M31.4251 33.4933C31.0166 33.5322 30.6338 33.399 30.1878 33.1279M31.4251 33.4933L30.1878 33.1279M32.238 16.9693C33.2748 16.58 33.6656 16.505 33.9362 16.5001L32.238 16.9693ZM30.1878 33.1279C29.9637 32.9917 29.7356 32.8282 29.4857 32.6445M30.1878 33.1279L29.4857 32.6445M29.4857 32.6445C29.4451 32.6147 29.4039 32.5843 29.3622 32.5535M29.4857 32.6445L29.3622 32.5535M29.3622 32.5535C29.1516 32.3982 28.9262 32.2319 28.6909 32.0724M29.3622 32.5535L28.6909 32.0724M28.6909 32.0724C27.8441 31.498 27.1816 31.0321 26.5225 30.5679L26.4361 30.507C25.8058 30.0629 25.1711 29.6157 24.3779 29.0749C23.9279 28.7681 23.7289 28.5376 23.6496 28.3805C23.5871 28.2567 23.5892 28.1636 23.6412 28.0409C23.7068 27.8862 23.8482 27.702 24.0829 27.4549C24.1837 27.3488 24.2927 27.2401 24.4113 27.1218C24.4265 27.1066 24.4419 27.0913 24.4574 27.0757C24.5919 26.9415 24.7359 26.7969 24.8787 26.6434C24.9397 26.5778 25.2454 26.2839 25.6849 25.8613C26.1982 25.3678 26.894 24.6987 27.5961 24.0127C28.239 23.3846 28.8796 22.7492 29.3667 22.2429C29.6096 21.9905 29.8193 21.7651 29.9732 21.5864C30.0496 21.4977 30.1181 21.4138 30.1715 21.3401C30.1981 21.3034 30.2256 21.2627 30.2497 21.2208C30.2692 21.1869 30.3068 21.1178 30.3266 21.0309L28.6909 32.0724Z" fill="white" stroke="white"/>
</g>
<defs>
<filter id="filter0_d_2004_810" x="0" y="0" width="52" height="52" filterUnits="userSpaceOnUse" color-interpolation-filters="sRGB">
<feFlood flood-opacity="0" result="BackgroundImageFix"/>
<feColorMatrix in="SourceAlpha" type="matrix" values="0 0 0 0 0 0 0 0 0 0 0 0 0 0 0 0 0 0 127 0" result="hardAlpha"/>
<feOffset dx="2" dy="2"/>
<feComposite in2="hardAlpha" operator="out"/>
<feColorMatrix type="matrix" values="0 0 0 0 1 0 0 0 0 1 0 0 0 0 1 0 0 0 1 0"/>
<feBlend mode="normal" in2="BackgroundImageFix" result="effect1_dropShadow_2004_810"/>
<feBlend mode="normal" in="SourceGraphic" in2="effect1_dropShadow_2004_810" result="shape"/>
</filter>
</defs>
</svg>
