<svg width="16" height="16" viewBox="0 0 16 16" fill="none" xmlns="http://www.w3.org/2000/svg">
<g id="tags 2" clip-path="url(#clip0_1_1445)">
<path id="Vector" d="M14.3516 5.43364C15.8838 6.98638 15.8838 9.48248 14.3516 11.0352L11.0703 14.3545C10.7979 14.6299 10.3525 14.6329 10.0771 14.3604C9.79883 14.0879 9.79883 13.6426 10.0713 13.3643L13.3496 10.0479C14.3428 9.04302 14.3428 7.42583 13.3496 6.42095L9.6084 2.63491C9.33301 2.35864 9.33594 1.91362 9.61426 1.64058C9.88965 1.36753 10.335 1.37017 10.5811 1.64644L14.3516 5.43364ZM4.71875 4.69243C4.71875 5.23736 4.2998 5.62993 3.78125 5.62993C3.26357 5.62993 2.84375 5.23736 2.84375 4.69243C2.84375 4.20025 3.26357 3.75493 3.78125 3.75493C4.2998 3.75493 4.71875 4.20025 4.71875 4.69243ZM12.5322 6.90728C13.2646 7.6397 13.2646 8.82915 12.5322 9.56158L8.62402 13.4698C7.8916 14.2022 6.70215 14.2022 5.96973 13.4698L1.04932 8.5479C0.697549 8.19634 0.5 7.72173 0.5 7.22368V2.8438C0.5 2.06714 1.12959 1.43755 1.90625 1.43755H6.28613C6.78418 1.43755 7.25879 1.63501 7.61035 1.98687L12.5322 6.90728ZM1.90625 2.81743V7.22368C1.90625 7.34673 1.95576 7.46685 2.04365 7.55474L6.96582 12.4766C7.14746 12.6612 7.44629 12.6612 7.62793 12.4766L11.5391 8.56548C11.7236 8.38384 11.7236 8.08501 11.5391 7.90337L6.61719 2.9812C6.5293 2.89331 6.40918 2.81743 6.28613 2.81743H1.90625Z" fill="#FCB808"/>
</g>
<defs>
<clipPath id="clip0_1_1445">
<rect width="15" height="15" fill="white" transform="translate(0.5 0.5)"/>
</clipPath>
</defs>
</svg>
