<svg width="100%" height="100%" viewBox="0 0 21 19" fill="none" xmlns="http://www.w3.org/2000/svg">
<g id="Group 1085">
<path id="Path 1068" d="M18.4229 12.3599C18.7817 12.3528 19.1239 12.208 19.3792 11.9556C19.6344 11.7033 19.783 11.3625 19.7942 11.0037C19.8054 10.645 19.6782 10.2957 19.4392 10.0279C19.2002 9.76014 18.8675 9.59447 18.5098 9.56502V9.53694C18.7152 9.5757 18.9266 9.56792 19.1287 9.51423C19.3307 9.46055 19.5184 9.36225 19.6775 9.22664C19.8366 9.09102 19.9633 8.92154 20.0483 8.73054C20.1334 8.53954 20.1744 8.33211 20.1687 8.12312C20.1537 7.75545 19.9964 7.4079 19.73 7.15413C19.4635 6.90035 19.1087 6.76011 18.7407 6.76301H13.5227V3.26301C13.5227 0.0910134 11.1458 0.246976 10.3108 0.399976C10.2304 0.414735 10.1577 0.457225 10.1055 0.520094C10.0532 0.582962 10.0245 0.662212 10.0247 0.74397V5.01204L6.17676 9.91194V16.9119L8.27686 17.961H17.6938C18.0662 17.9637 18.4246 17.8197 18.6917 17.5601C18.9587 17.3006 19.113 16.9464 19.1208 16.574C19.1236 16.2461 19.0109 15.9274 18.8027 15.6739C18.5946 15.4204 18.3039 15.2482 17.9817 15.1871V15.16C18.0097 15.16 18.0388 15.16 18.0688 15.16C18.4235 15.1578 18.764 15.0211 19.0217 14.7774C19.2795 14.5337 19.4352 14.2013 19.4573 13.8472C19.4794 13.4932 19.3663 13.144 19.1409 12.8702C18.9154 12.5964 18.5943 12.4182 18.2427 12.3719V12.3499C18.3024 12.3571 18.3627 12.3604 18.4229 12.3599Z" fill="#E5E5E5"/>
<g id="Group 1083">
<path id="Path 1069" d="M17.7227 17.2578H8.27783L6.17773 16.208V16.908L8.27783 17.958H17.7227C17.9362 17.9579 18.1469 17.9087 18.3386 17.8147C18.5303 17.7207 18.6979 17.5841 18.8286 17.4153C18.9594 17.2465 19.0498 17.0502 19.093 16.8411C19.1362 16.632 19.1309 16.4158 19.0776 16.209C18.9999 16.5092 18.8248 16.775 18.5796 16.9648C18.3343 17.1547 18.0328 17.2577 17.7227 17.2578Z" fill="#CCCCCC"/>
<path id="Path 1070" d="M18.0728 14.459H16.3237V15.1589H18.0728C18.2863 15.1588 18.497 15.1099 18.6887 15.0159C18.8804 14.9218 19.0479 14.7852 19.1787 14.6165C19.3095 14.4477 19.3999 14.2511 19.4431 14.042C19.4863 13.8329 19.481 13.6167 19.4277 13.4099C19.35 13.7102 19.1747 13.9762 18.9294 14.166C18.6842 14.3559 18.3829 14.4589 18.0728 14.459Z" fill="#CCCCCC"/>
<path id="Path 1071" d="M18.4229 11.6609H16.3228V12.3608H18.4229C18.6364 12.3607 18.8469 12.3118 19.0386 12.2178C19.2303 12.1237 19.3978 11.9871 19.5286 11.8184C19.6593 11.6496 19.7498 11.453 19.793 11.2439C19.8361 11.0348 19.8311 10.8186 19.7778 10.6118C19.7001 10.9121 19.5248 11.1781 19.2795 11.3679C19.0343 11.5578 18.733 11.6608 18.4229 11.6609Z" fill="#CCCCCC"/>
<path id="Path 1072" d="M18.7717 8.86182H16.3237V9.56201H18.7717C19.143 9.56201 19.4992 9.41441 19.7617 9.15186C20.0243 8.8893 20.1719 8.53317 20.1719 8.16187C20.1717 8.04383 20.1567 7.92642 20.1277 7.81201C20.0501 8.11261 19.8749 8.37878 19.6294 8.56885C19.3839 8.75892 19.0822 8.86192 18.7717 8.86182Z" fill="#CCCCCC"/>
</g>
<path id="Path 1073" d="M5.479 7.53491H1.27905C1.001 7.53544 0.734453 7.64616 0.537842 7.84277C0.341231 8.03938 0.230509 8.30593 0.22998 8.58398V17.6838C0.230509 17.9619 0.341231 18.2284 0.537842 18.425C0.734453 18.6217 1.001 18.7324 1.27905 18.7329H5.479C5.75723 18.7326 6.02388 18.6222 6.2207 18.4255C6.41753 18.2289 6.52852 17.9621 6.52905 17.6838V8.58398C6.52852 8.30576 6.41753 8.03892 6.2207 7.84229C6.02388 7.64565 5.75723 7.53518 5.479 7.53491Z" fill="#1C74BB"/>
<g id="Group 1084">
<path id="Path 1074" d="M1.28101 17.6799V8.57983C1.28154 8.30161 1.39228 8.03502 1.58911 7.83838C1.78594 7.64174 2.05283 7.53127 2.33105 7.53101H1.28101C1.00296 7.53153 0.736406 7.64226 0.539795 7.83887C0.343184 8.03548 0.232462 8.30178 0.231934 8.57983V17.6799C0.232462 17.958 0.343184 18.2245 0.539795 18.4211C0.736406 18.6178 1.00296 18.7285 1.28101 18.729H2.33105C2.05283 18.7287 1.78594 18.618 1.58911 18.4214C1.39228 18.2247 1.28154 17.9582 1.28101 17.6799Z" fill="#035FA1"/>
<path id="Ellipse 204" d="M4.08025 17.329C4.6596 17.329 5.12925 16.8593 5.12925 16.28C5.12925 15.7006 4.6596 15.231 4.08025 15.231C3.5009 15.231 3.03125 15.7006 3.03125 16.28C3.03125 16.8593 3.5009 17.329 4.08025 17.329Z" fill="#035FA1"/>
</g>
<path id="Ellipse 205" d="M4.07988 16.9808C4.46648 16.9808 4.77988 16.6674 4.77988 16.2808C4.77988 15.8942 4.46648 15.5808 4.07988 15.5808C3.69328 15.5808 3.37988 15.8942 3.37988 16.2808C3.37988 16.6674 3.69328 16.9808 4.07988 16.9808Z" fill="#E5E5E5"/>
</g>
</svg>
