<svg width="32" height="32" viewBox="0 0 32 32" fill="none" xmlns="http://www.w3.org/2000/svg">
<g id="Twitter">
<rect id="Background" opacity="0.3" width="31.5897" height="31.5897" rx="5.26496" fill="url(#paint0_linear_1_6152)" fill-opacity="0.4"/>
<path id="Vector" d="M23.3849 11.2052C22.8267 11.4465 22.227 11.6095 21.5965 11.6831C22.247 11.3036 22.7337 10.7061 22.9657 10.0024C22.3546 10.3564 21.6857 10.6056 20.9881 10.7391C20.519 10.2507 19.8977 9.92697 19.2206 9.81819C18.5436 9.70941 17.8486 9.82165 17.2436 10.1375C16.6387 10.4534 16.1576 10.9551 15.875 11.5649C15.5925 12.1747 15.5243 12.8584 15.681 13.5099C14.4426 13.4493 13.2312 13.1354 12.1252 12.5886C11.0193 12.0419 10.0436 11.2745 9.26147 10.3362C8.99404 10.786 8.84027 11.3076 8.84027 11.8631C8.83998 12.3631 8.96625 12.8555 9.2079 13.2966C9.44955 13.7376 9.79911 14.1137 10.2255 14.3914C9.73099 14.376 9.24735 14.2457 8.81487 14.0113V14.0504C8.81482 14.7517 9.0636 15.4315 9.51899 15.9743C9.97438 16.5171 10.6083 16.8896 11.3133 17.0285C10.8545 17.1496 10.3735 17.1674 9.90664 17.0807C10.1055 17.6842 10.493 18.2119 11.0147 18.5899C11.5364 18.968 12.1663 19.1775 12.8162 19.1891C11.713 20.0337 10.3505 20.4918 8.94791 20.4898C8.69946 20.4898 8.45122 20.4757 8.20447 20.4474C9.62816 21.34 11.2854 21.8138 12.978 21.812C18.7076 21.812 21.8399 17.1844 21.8399 13.1709C21.8399 13.0405 21.8365 12.9088 21.8305 12.7784C22.4398 12.3488 22.9657 11.8167 23.3836 11.2072L23.3849 11.2052Z" fill="white"/>
</g>
<defs>
<linearGradient id="paint0_linear_1_6152" x1="0" y1="0" x2="37.8749" y2="19.1755" gradientUnits="userSpaceOnUse">
<stop stop-color="#FC466B"/>
<stop offset="1" stop-color="#3F5EFB"/>
</linearGradient>
</defs>
</svg>
