<svg width="100%" height="100%" viewBox="0 0 30 34" fill="none" xmlns="http://www.w3.org/2000/svg">
<path id="Path 102" d="M17.058 33.309C22.43 32.232 29.377 28.367 29.377 18.373C29.377 9.27901 22.72 3.22302 17.933 0.440023C17.692 0.304586 17.419 0.23617 17.1425 0.241842C16.8661 0.247514 16.5962 0.327038 16.3609 0.47225C16.1255 0.617462 15.9334 0.823028 15.8043 1.06759C15.6753 1.31215 15.6141 1.58678 15.627 1.863V5.006C15.627 7.484 14.586 12.006 11.691 13.889C10.212 14.849 8.61604 13.411 8.43704 11.658L8.28903 10.218C8.28898 9.84444 8.18638 9.47802 7.99243 9.15871C7.79847 8.8394 7.5206 8.57944 7.18908 8.40719C6.85756 8.23493 6.48511 8.15695 6.11233 8.18178C5.73956 8.20662 5.38077 8.33328 5.07504 8.54799C3.54053 9.68352 2.29557 11.1651 1.44137 12.8723C0.587173 14.5795 0.147827 16.4641 0.159022 18.373C0.159022 30.595 9.24903 33.65 13.794 33.65C14.058 33.65 14.336 33.642 14.626 33.626C12.381 33.434 8.75302 32.042 8.75302 27.539C8.75302 24.017 11.322 21.634 13.275 20.476C13.3937 20.4082 13.5285 20.3736 13.6652 20.3758C13.8019 20.3779 13.9355 20.4169 14.052 20.4885C14.1684 20.5601 14.2635 20.6616 14.3272 20.7826C14.3909 20.9036 14.4209 21.0395 14.414 21.176V22.189C14.4341 23.2133 14.79 24.2027 15.427 25.005C16.235 25.943 17.42 24.96 17.515 23.726C17.5165 23.6378 17.5407 23.5513 17.5854 23.4752C17.6301 23.399 17.6938 23.3358 17.7702 23.2915C17.8465 23.2472 17.9331 23.2235 18.0214 23.2225C18.1097 23.2215 18.1967 23.2434 18.274 23.286C19.0313 23.7085 19.6628 24.3247 20.1036 25.0715C20.5445 25.8183 20.7789 26.6688 20.783 27.536C20.783 31.059 18.843 32.678 17.058 33.309Z" fill="url(#paint0_linear_317_706)"/>
<defs>
<linearGradient id="paint0_linear_317_706" x1="14.7679" y1="-9.78104" x2="14.7679" y2="48.9177" gradientUnits="userSpaceOnUse">
<stop stop-color="#803EDF"/>
<stop offset="0.349" stop-color="#BF80DA"/>
<stop offset="0.418" stop-color="#9084D7"/>
<stop offset="0.554" stop-color="#388BD3"/>
<stop offset="0.616" stop-color="#168FD2"/>
<stop offset="0.821" stop-color="#14D480"/>
</linearGradient>
</defs>
</svg>
