<svg width="100%" height="100%" viewBox="0 0 138 138" fill="none" xmlns="http://www.w3.org/2000/svg">
<g id="Group 324" filter="url(#filter0_d_317_1795)">
<path id="Path 98" d="M133.2 64.7418C133.181 80.6898 127.239 96.0622 116.527 107.877C105.815 119.692 91.0962 127.107 75.2263 128.684C59.3565 130.261 43.4666 125.887 30.6391 116.411C17.8115 106.935 8.96059 93.0329 5.80337 77.4005C2.64616 61.7682 5.40765 45.5202 13.5522 31.8087C21.6967 18.0972 34.6436 7.89958 49.8815 3.19374C65.1194 -1.51211 81.562 -0.390658 96.0198 6.34071C110.478 13.0721 121.92 24.9335 128.127 39.6239C131.488 47.571 133.213 56.1134 133.2 64.7418Z" fill="#8F57DD"/>
<path id="Path 99" d="M128.12 39.6299C121.561 24.1611 109.253 11.8427 93.79 5.27002C81.9621 0.26057 68.9064 -1.09743 56.3008 1.3706C43.6951 3.83863 32.1155 10.02 23.05 19.1201C14.7672 27.3974 8.89195 37.7719 6.05395 49.1326C3.21594 60.4932 3.52206 72.4118 6.93932 83.6118C10.3566 94.8119 16.7563 104.871 25.453 112.713C34.1497 120.554 44.8158 125.882 56.3087 128.125C67.8016 130.368 79.6882 129.443 90.6954 125.448C101.703 121.453 111.416 114.539 118.794 105.446C126.173 96.3536 130.938 85.425 132.581 73.8311C134.224 62.2371 132.682 50.4145 128.12 39.6299ZM68.67 34.1399C72.1708 34.1399 75.5928 35.1781 78.5035 37.123C81.4143 39.0679 83.683 41.8322 85.0227 45.0664C86.3624 48.3007 86.7129 51.8597 86.0299 55.2932C85.3469 58.7267 83.6612 61.8803 81.1858 64.3557C78.7104 66.8311 75.5565 68.517 72.123 69.2C68.6896 69.8829 65.1307 69.5323 61.8965 68.1926C58.6622 66.853 55.8979 64.5843 53.953 61.6736C52.0081 58.7628 50.97 55.3408 50.97 51.8401C50.97 49.5157 51.4279 47.2139 52.3174 45.0664C53.2069 42.9189 54.5106 40.9678 56.1542 39.3242C57.7978 37.6806 59.749 36.3768 61.8965 35.4873C64.0439 34.5978 66.3456 34.1399 68.67 34.1399ZM99.22 106.51C95.9971 108.889 92.5026 110.877 88.8101 112.43C82.4371 115.116 75.591 116.5 68.675 116.5C61.7591 116.5 54.913 115.116 48.54 112.43C44.8475 110.877 41.3529 108.889 38.13 106.51V102.37C38.1299 99.6465 38.6663 96.9495 39.7085 94.4331C40.7507 91.9168 42.2784 89.6303 44.2043 87.7043C46.1303 85.7784 48.4166 84.2507 50.933 83.2085C53.4493 82.1663 56.1463 81.6298 58.87 81.6299H78.51C81.2298 81.6295 83.923 82.1649 86.4358 83.2056C88.9486 84.2462 91.2318 85.7716 93.155 87.6948C95.0782 89.618 96.6036 91.9012 97.6443 94.4141C98.6849 96.9269 99.2204 99.6203 99.22 102.34V106.51Z" fill="#210849"/>
<g id="Path 100">
<path id="Vector" d="M68.679 9.26611C61.1901 9.26611 53.9208 10.7329 47.0789 13.6233C40.4696 16.4209 34.5359 20.4219 29.4424 25.5154C24.3419 30.616 20.3413 36.5483 17.5524 43.1465C14.6591 49.9937 13.192 57.2595 13.192 64.7419C13.192 72.231 14.6591 79.5002 17.5502 86.3423C20.3483 92.9529 24.3492 98.8862 29.443 103.979C34.5345 109.072 40.4681 113.073 47.0737 115.869C53.9205 118.762 61.1896 120.229 68.679 120.229C76.1608 120.229 83.4266 118.762 90.2736 115.869C96.8728 113.08 102.805 109.079 107.906 103.979C112.999 98.8853 117 92.9517 119.795 86.3484C122.688 79.5002 124.155 72.2307 124.155 64.7419C124.155 57.2598 122.688 49.9937 119.796 43.1475C117.007 36.5496 113.006 30.6172 107.906 25.5161C102.804 20.4146 96.8712 16.4138 90.2756 13.626C83.4265 10.7329 76.1603 9.26611 68.679 9.26611ZM68.679 0.216064C77.3879 0.216064 85.835 1.92603 93.797 5.28906C101.486 8.53906 108.382 13.1941 114.305 19.116C120.227 25.0391 124.882 31.9351 128.132 39.624C131.495 47.585 133.205 56.033 133.205 64.7419C133.205 73.45 131.495 81.9089 128.132 89.8701C124.882 97.5481 120.227 104.456 114.305 110.378C108.382 116.301 101.486 120.955 93.797 124.205C85.835 127.569 77.3879 129.279 68.679 129.279C59.9709 129.279 51.512 127.569 43.551 124.205C35.873 120.955 28.965 116.301 23.043 110.378C17.12 104.456 12.4659 97.5481 9.21594 89.8701C5.85205 81.9089 4.14197 73.45 4.14197 64.7419C4.14197 56.033 5.85205 47.585 9.21594 39.624C12.4659 31.9351 17.12 25.0391 23.043 19.116C28.965 13.1941 35.873 8.53906 43.551 5.28906C51.512 1.92603 59.9709 0.216064 68.679 0.216064Z" fill="white"/>
</g>
</g>
<defs>
<filter id="filter0_d_317_1795" x="0.129639" y="0.170654" width="137.09" height="137.15" filterUnits="userSpaceOnUse" color-interpolation-filters="sRGB">
<feFlood flood-opacity="0" result="BackgroundImageFix"/>
<feColorMatrix in="SourceAlpha" type="matrix" values="0 0 0 0 0 0 0 0 0 0 0 0 0 0 0 0 0 0 127 0" result="hardAlpha"/>
<feOffset dy="4"/>
<feGaussianBlur stdDeviation="2"/>
<feComposite in2="hardAlpha" operator="out"/>
<feColorMatrix type="matrix" values="0 0 0 0 0 0 0 0 0 0 0 0 0 0 0 0 0 0 0.25 0"/>
<feBlend mode="normal" in2="BackgroundImageFix" result="effect1_dropShadow_317_1795"/>
<feBlend mode="normal" in="SourceGraphic" in2="effect1_dropShadow_317_1795" result="shape"/>
</filter>
</defs>
</svg>
