<svg width="100%" height="100%" viewBox="0 0 27 20" fill="none" xmlns="http://www.w3.org/2000/svg">
<path id="Path 1078" opacity="0.6" fill-rule="evenodd" clip-rule="evenodd" d="M6.45703 14.0889C5.40812 13.9461 4.44646 13.428 3.75024 12.6306C3.05402 11.8332 2.67041 10.8105 2.67041 9.75195C2.67041 8.69337 3.05402 7.67071 3.75024 6.87329C4.44646 6.07587 5.40812 5.55783 6.45703 5.41504C7.35189 4.48585 8.42493 3.74656 9.61206 3.2417C10.7992 2.73684 12.0759 2.47656 13.366 2.47656C14.656 2.47656 15.9327 2.73684 17.1199 3.2417C18.307 3.74656 19.38 4.48585 20.2749 5.41504C21.3238 5.55783 22.2855 6.07587 22.9817 6.87329C23.6779 7.67071 24.0615 8.69337 24.0615 9.75195C24.0615 10.8105 23.6779 11.8332 22.9817 12.6306C22.2855 13.428 21.3238 13.9461 20.2749 14.0889C19.38 15.0181 18.307 15.7573 17.1199 16.2622C15.9327 16.7671 14.656 17.0271 13.366 17.0271C12.0759 17.0271 10.7992 16.7671 9.61206 16.2622C8.42493 15.7573 7.35189 15.0181 6.45703 14.0889ZM13.366 0.052002C10.2049 0.170274 7.19166 1.42092 4.87598 3.57593C3.23067 5.01619 1.78919 6.67375 0.591064 8.50293C0.346963 8.87412 0.216797 9.30867 0.216797 9.75293C0.216797 10.1972 0.346963 10.6317 0.591064 11.0029C1.78936 12.8323 3.23082 14.4901 4.87598 15.9309C5.98992 17.0476 7.31317 17.9336 8.77002 18.5381C10.2269 19.1426 11.7887 19.4536 13.366 19.4536C14.9432 19.4536 16.5051 19.1426 17.9619 18.5381C19.4188 17.9336 20.742 17.0476 21.856 15.9309C23.5011 14.4901 24.9428 12.8323 26.1411 11.0029C26.3851 10.6317 26.5149 10.1972 26.5149 9.75293C26.5149 9.30869 26.3851 8.87417 26.1411 8.50293C24.9429 6.67381 23.5012 5.01626 21.856 3.57593C19.5403 1.42092 16.5271 0.170274 13.366 0.052002ZM10.9409 9.75195C10.9409 9.27233 11.0831 8.80357 11.3496 8.40479C11.6161 8.006 11.9949 7.69502 12.438 7.51147C12.8811 7.32793 13.3687 7.27997 13.8391 7.37354C14.3095 7.4671 14.7417 7.69797 15.0808 8.03711C15.42 8.37625 15.6508 8.8084 15.7444 9.27881C15.838 9.74921 15.79 10.2368 15.6064 10.6799C15.4229 11.123 15.1122 11.5018 14.7134 11.7683C14.3146 12.0348 13.8456 12.177 13.366 12.177C13.0475 12.177 12.7322 12.1143 12.438 11.9924C12.1438 11.8706 11.8765 11.6917 11.6514 11.4666C11.4262 11.2414 11.2474 10.9741 11.1255 10.6799C11.0036 10.3857 10.9409 10.0704 10.9409 9.75195ZM13.366 4.90186C12.4067 4.90186 11.469 5.18631 10.6714 5.71924C9.87381 6.25216 9.25234 7.00977 8.88525 7.896C8.51817 8.78222 8.42199 9.75719 8.60913 10.698C8.79627 11.6388 9.25824 12.5031 9.93652 13.1814C10.6148 13.8597 11.4791 14.3217 12.4199 14.5088C13.3607 14.6959 14.3357 14.5998 15.2219 14.2327C16.1081 13.8656 16.8658 13.2441 17.3987 12.4465C17.9316 11.649 18.2161 10.7112 18.2161 9.75195C18.2166 9.11475 18.0914 8.48361 17.8479 7.89478C17.6044 7.30594 17.2473 6.77102 16.7969 6.32031C16.3464 5.8696 15.8116 5.51194 15.2229 5.26807C14.6342 5.02419 14.0032 4.89879 13.366 4.89893V4.90186Z" fill="white"/>
</svg>
