<svg width="100%" height="100%" viewBox="0 0 19 17" fill="none" xmlns="http://www.w3.org/2000/svg">
<path id="Path 312" d="M17.2275 0.465821H2.54248C2.3156 0.46569 2.09099 0.510437 1.88135 0.597169C1.6717 0.6839 1.48127 0.8113 1.3208 0.97168C1.16033 1.13206 1.03314 1.32214 0.946289 1.53174C0.859437 1.74133 0.814453 1.96599 0.814453 2.19287V14.2871C0.814453 14.7454 0.996738 15.1847 1.3208 15.5088C1.64486 15.8329 2.08419 16.0151 2.54248 16.0151H16.3638C16.8221 16.0151 17.2614 15.8329 17.5854 15.5088C17.9095 15.1847 18.0918 14.7454 18.0918 14.2871V4.78711C18.0915 4.55804 18.0004 4.33824 17.8384 4.17627C17.6764 4.0143 17.4566 3.92312 17.2275 3.92285H3.40576C3.17661 3.92285 2.95695 3.83195 2.79492 3.66992C2.63289 3.50789 2.5415 3.28823 2.5415 3.05908C2.5415 2.82994 2.63289 2.61027 2.79492 2.44824C2.95695 2.28621 3.17661 2.19482 3.40576 2.19482H18.0938V1.33203C18.0939 1.21827 18.0713 1.10562 18.0278 1.00049C17.9844 0.895362 17.9208 0.799681 17.8403 0.719239C17.7599 0.638797 17.6642 0.575213 17.5591 0.531739C17.454 0.488265 17.3413 0.465689 17.2275 0.465821ZM15.0679 8.67188C15.325 8.67188 15.5763 8.74827 15.79 8.89111C16.0038 9.03396 16.1702 9.23707 16.2686 9.47461C16.3669 9.71215 16.3929 9.97341 16.3428 10.2256C16.2926 10.4778 16.1686 10.7093 15.9868 10.8911C15.805 11.0729 15.5735 11.1969 15.3213 11.2471C15.0691 11.2972 14.8079 11.2712 14.5703 11.1729C14.3328 11.0745 14.1297 10.9081 13.9868 10.6943C13.844 10.4806 13.7676 10.2293 13.7676 9.97217C13.7676 9.80145 13.8014 9.63233 13.8667 9.47461C13.932 9.31689 14.0277 9.17345 14.1484 9.05274C14.2692 8.93202 14.4126 8.83633 14.5703 8.771C14.728 8.70567 14.8972 8.67188 15.0679 8.67188Z" fill="#00FCE0"/>
</svg>
