<svg width="100%" height="100%" viewBox="0 0 29 19" fill="none" xmlns="http://www.w3.org/2000/svg">
<g id="Page-1">
<g id="Group">
<path id="Vector" d="M1.38693 7.50982C1.39062 7.50613 1.39062 7.50613 1.38693 7.50982C4.4612 4.13293 9.53947 0.560426 14.6583 0.560426C14.7137 0.560426 14.7727 0.560426 14.8281 0.560426C20.0097 0.479232 25.1655 4.09233 28.2619 7.50244C28.2619 7.50244 28.2619 7.50244 28.2656 7.50613C28.738 8.03389 29 8.70927 29 9.41417C29 10.1191 28.7417 10.7981 28.2656 11.3222C26.5531 13.2081 24.4495 14.9058 22.3385 16.1052C19.8104 17.5483 17.3451 18.2753 15.0052 18.2753C14.9462 18.2753 14.8871 18.2753 14.8318 18.2753C14.7727 18.2753 14.7174 18.2753 14.6583 18.2753C12.3185 18.2753 9.84948 17.5483 7.32511 16.1089C5.21409 14.9095 3.10675 13.2081 1.39431 11.3259C1.39431 11.3259 1.39432 11.3259 1.39062 11.3222C0.914537 10.7981 0.656195 10.1191 0.656195 9.41417C0.656195 8.70927 0.914536 8.03389 1.38693 7.50982ZM18.3046 10.108C18.4412 9.41786 18.3711 8.70927 18.1017 8.05972C17.8322 7.41018 17.382 6.86028 16.7952 6.46908C16.2121 6.07787 15.5293 5.8712 14.8281 5.8712C14.3594 5.8712 13.9054 5.96346 13.4736 6.14061C13.0418 6.31776 12.6543 6.5761 12.3222 6.90826C11.99 7.24041 11.7317 7.62423 11.5545 8.05603C11.3774 8.48783 11.2851 8.94178 11.2851 9.41048V9.41417C11.2851 10.1191 11.4918 10.7981 11.883 11.3813C12.2742 11.9644 12.8241 12.4183 13.4736 12.684C14.1232 12.9535 14.8318 13.0236 15.5219 12.887C16.2121 12.7505 16.8395 12.4146 17.334 11.9164C17.8322 11.4256 18.1681 10.7982 18.3046 10.108Z" fill="currentColor"/>
</g>
</g>
</svg>
