<svg width="32" height="32" viewBox="0 0 32 32" fill="none" xmlns="http://www.w3.org/2000/svg">
<g id="Youtube">
<rect id="Background" opacity="0.3" x="0.410278" width="31.5897" height="31.5897" rx="5.26496" fill="url(#paint0_linear_1_6163)" fill-opacity="0.4"/>
<path id="Vector" d="M23.4034 12.1748C23.3179 11.8563 23.1502 11.5658 22.9172 11.3325C22.6841 11.0991 22.3939 10.9311 22.0755 10.8451C20.9034 10.5299 16.2052 10.5299 16.2052 10.5299C16.2052 10.5299 11.507 10.5299 10.3349 10.8435C10.0164 10.9291 9.726 11.0971 9.4929 11.3304C9.2598 11.5638 9.09221 11.8545 9.00697 12.1731C8.69342 13.3468 8.69342 15.7949 8.69342 15.7949C8.69342 15.7949 8.69342 18.2429 9.00697 19.4149C9.17967 20.0622 9.6894 20.5719 10.3349 20.7446C11.507 21.0598 16.2052 21.0598 16.2052 21.0598C16.2052 21.0598 20.9034 21.0598 22.0755 20.7446C22.7227 20.5719 23.2307 20.0622 23.4034 19.4149C23.717 18.2429 23.717 15.7949 23.717 15.7949C23.717 15.7949 23.717 13.3468 23.4034 12.1748ZM14.7129 18.0417V13.548L18.6029 15.7781L14.7129 18.0417Z" fill="white"/>
</g>
<defs>
<linearGradient id="paint0_linear_1_6163" x1="0.410278" y1="0" x2="38.2852" y2="19.1755" gradientUnits="userSpaceOnUse">
<stop stop-color="#FC466B"/>
<stop offset="1" stop-color="#3F5EFB"/>
</linearGradient>
</defs>
</svg>
