<svg width="100%" height="100%" viewBox="0 0 24 24" fill="none" xmlns="http://www.w3.org/2000/svg">
<g opacity="0.65">
<path d="M3.49976 8.23073V5.4615C3.49976 3.54975 5.06675 1.99997 6.99975 1.99997C8.93274 1.99997 10.4998 3.54975 10.4998 5.4615V9.2692C10.4998 10.2251 9.71625 11 8.74976 11C7.78325 11 6.99975 10.2251 6.99975 9.2692V5.4615" stroke="currentColor" stroke-width="1.5" stroke-linecap="round"/>
<path d="M12.4997 1.99997H12.7725C16.0337 1.99997 17.6643 1.99997 18.7967 2.7978C19.1211 3.02639 19.4092 3.29749 19.6521 3.60286C20.4998 4.66864 20.4998 6.20332 20.4998 9.27269V11.8181C20.4998 14.7814 20.4998 16.2629 20.0308 17.4462C19.277 19.3486 17.6826 20.8491 15.6614 21.5586C14.4041 22 12.83 22 9.68157 22C7.8825 22 6.98297 22 6.26453 21.7477C5.10954 21.3424 4.1985 20.4849 3.76772 19.3978C3.49976 18.7217 3.49976 17.875 3.49976 16.1818V12" stroke="currentColor" stroke-width="1.5" stroke-linecap="round" stroke-linejoin="round"/>
<path d="M20.4997 12C20.4997 13.8409 19.0074 15.3334 17.1665 15.3334C16.5006 15.3334 15.7157 15.2167 15.0684 15.3901C14.4932 15.5442 14.044 15.9935 13.8899 16.5686C13.7165 17.2159 13.8331 18.0008 13.8331 18.6667C13.8331 20.5076 12.3407 22 10.4998 22" stroke="currentColor" stroke-width="1.5" stroke-linecap="round" stroke-linejoin="round"/>
</g>
</svg>
