<svg width="100%" height="100%" viewBox="0 0 24 15" fill="none" xmlns="http://www.w3.org/2000/svg">
<path d="M10.6027 0.801025L0.987731 11.907C0.776676 12.1507 0.640197 12.4501 0.59442 12.7692C0.548643 13.0884 0.595641 13.414 0.729674 13.7072C0.863707 14.0005 1.07923 14.249 1.35052 14.4233C1.62182 14.5975 1.93727 14.6901 2.2597 14.69H21.4899C21.8124 14.6901 22.1278 14.5975 22.3991 14.4233C22.6704 14.249 22.8859 14.0005 23.02 13.7072C23.154 13.414 23.201 13.0884 23.1552 12.7692C23.1094 12.4501 22.973 12.1507 22.7619 11.907L13.1469 0.801025C12.9888 0.618819 12.7934 0.472698 12.5739 0.372559C12.3545 0.272419 12.1162 0.220581 11.8749 0.220581C11.6337 0.220581 11.3952 0.272419 11.1757 0.372559C10.9563 0.472698 10.7608 0.618819 10.6027 0.801025Z" fill="currentColor"/>
</svg>
