<svg width="100%" height="100%" viewBox="0 0 13 13" fill="none" xmlns="http://www.w3.org/2000/svg">
<g opacity="0.7">
<path d="M7.63867 12.2998H6.0625C4.65243 12.2995 3.29981 11.7393 2.30273 10.7422C1.30566 9.74511 0.745382 8.39347 0.745117 6.9834V5.40723C0.745382 3.99715 1.30566 2.64453 2.30273 1.64746C3.29981 0.650387 4.65243 0.0901089 6.0625 0.0898438H7.63867C9.04875 0.0901089 10.4004 0.650387 11.3975 1.64746C12.3945 2.64453 12.9548 3.99715 12.9551 5.40723V6.9834C12.9548 8.39347 12.3945 9.74511 11.3975 10.7422C10.4004 11.7393 9.04875 12.2995 7.63867 12.2998ZM6.0625 1.27246C4.96616 1.27352 3.91488 1.70914 3.13965 2.48438C2.36441 3.25961 1.92879 4.31088 1.92773 5.40723V6.9834C1.92879 8.07984 2.36444 9.13086 3.13965 9.90625C3.91485 10.6816 4.96606 11.1178 6.0625 11.1191H7.63867C8.7352 11.1178 9.78616 10.6816 10.5615 9.90625C11.3369 9.13089 11.7731 8.07993 11.7744 6.9834V5.40723C11.7731 4.31079 11.3369 3.25958 10.5615 2.48438C9.78613 1.70917 8.73511 1.27352 7.63867 1.27246H6.0625Z" fill="white"/>
</g>
<g opacity="0.7">
<path d="M6.85106 8.36348C6.71008 8.36349 6.57339 8.31259 6.4663 8.2209C6.35921 8.12921 6.28879 8.00278 6.26708 7.86348C6.20601 7.46248 6.26201 7.05184 6.42821 6.68184C6.59441 6.31183 6.86328 5.99824 7.2036 5.77754C7.40928 5.63541 7.57527 5.44308 7.68602 5.21895C7.79678 4.99481 7.84846 4.74601 7.83641 4.49629V4.46992C7.83499 4.25321 7.75029 4.0461 7.59911 3.89082C7.44793 3.73555 7.24246 3.64414 7.02587 3.63692C6.67468 3.59497 6.32041 3.68827 6.03466 3.89668C5.97731 3.95447 5.93257 4.02365 5.9038 4.09981C5.87502 4.17597 5.86286 4.25681 5.86766 4.33809C5.86766 4.49483 5.80565 4.64522 5.69481 4.75606C5.58398 4.86689 5.43359 4.92891 5.27684 4.92891C5.1201 4.92891 4.96971 4.86689 4.85888 4.75606C4.74804 4.64522 4.68602 4.49483 4.68602 4.33809C4.68043 4.09785 4.72408 3.85939 4.81493 3.63692C4.90578 3.41445 5.04121 3.21277 5.21337 3.04512C5.46636 2.82649 5.76183 2.66183 6.08056 2.56074C6.39928 2.45966 6.7351 2.42437 7.06786 2.45723C7.58647 2.47442 8.07872 2.6911 8.44188 3.06172C8.80505 3.43234 9.01139 3.92861 9.01806 4.44746C9.03757 4.89904 8.94181 5.34783 8.73974 5.75215C8.53766 6.15647 8.23567 6.50255 7.86278 6.75801L7.85009 6.7668C7.69958 6.86308 7.58 7.00149 7.50634 7.16426C7.43267 7.32703 7.40805 7.50718 7.43505 7.68379C7.4589 7.83879 7.42024 7.99767 7.32763 8.12422C7.23501 8.25077 7.09586 8.33544 6.94091 8.35957C6.91102 8.36278 6.88112 8.36402 6.85106 8.36348Z" fill="white"/>
</g>
<g opacity="0.7">
<path d="M6.85059 8.55957C7.00648 8.55957 7.15848 8.60673 7.28809 8.69336C7.41769 8.77999 7.51851 8.90283 7.57813 9.04688C7.63774 9.19092 7.65353 9.34907 7.62305 9.50195C7.59256 9.65484 7.51753 9.79511 7.40723 9.90527C7.29692 10.0154 7.15683 10.0908 7.00391 10.1211C6.85098 10.1514 6.69182 10.136 6.54785 10.0762C6.40388 10.0164 6.2808 9.91487 6.19434 9.78516C6.10787 9.65544 6.0623 9.50257 6.0625 9.34668C6.06277 9.13786 6.1462 8.9376 6.29395 8.79004C6.4417 8.64248 6.64177 8.55957 6.85059 8.55957Z" fill="currentColor"/>
</g>
</svg>
