<svg width="100%" height="100%" viewBox="0 0 14 14" fill="none" xmlns="http://www.w3.org/2000/svg">
<path d="M13.7947 4.022C13.7871 3.45355 13.6805 2.89075 13.4797 2.35878C13.3055 1.91006 13.0395 1.50255 12.6987 1.16227C12.3578 0.821995 11.9496 0.55644 11.5002 0.382574C10.9742 0.185447 10.4185 0.0788568 9.85672 0.0673424C9.13349 0.0350687 8.90419 0.026062 7.06828 0.026062C5.23238 0.026062 4.99707 0.0260621 4.2791 0.0673424C3.71762 0.0789415 3.16218 0.18553 2.63641 0.382574C2.18687 0.556319 1.77862 0.821831 1.43776 1.16212C1.0969 1.50241 0.830945 1.90999 0.656911 2.35878C0.45906 2.88351 0.352523 3.43816 0.341906 3.99874C0.309578 4.72152 0.299805 4.95044 0.299805 6.78329C0.299805 8.61613 0.299805 8.85031 0.341906 9.56783C0.353183 10.1292 0.459187 10.6832 0.656911 11.2093C0.831237 11.6579 1.09739 12.0654 1.43836 12.4055C1.77933 12.7457 2.18763 13.0111 2.63716 13.1847C3.16149 13.3898 3.71703 13.504 4.27985 13.5225C5.00383 13.5548 5.23313 13.5645 7.06904 13.5645C8.90494 13.5645 9.14025 13.5645 9.85822 13.5225C10.4199 13.5115 10.9757 13.4051 11.5017 13.208C11.951 13.0339 12.3591 12.7683 12.6999 12.4281C13.0407 12.0878 13.3068 11.6804 13.4812 11.2318C13.6789 10.7064 13.7849 10.1525 13.7962 9.59035C13.8285 8.86832 13.8383 8.6394 13.8383 6.8058C13.8368 4.97295 13.8368 4.74028 13.7947 4.022ZM7.06377 10.2493C5.14367 10.2493 3.58819 8.69644 3.58819 6.77953C3.58819 4.86262 5.14367 3.30973 7.06377 3.30973C7.98556 3.30973 8.86958 3.6753 9.52138 4.32601C10.1732 4.97673 10.5394 5.85928 10.5394 6.77953C10.5394 7.69978 10.1732 8.58234 9.52138 9.23305C8.86958 9.88377 7.98556 10.2493 7.06377 10.2493ZM10.6777 3.99048C10.5712 3.99058 10.4658 3.96972 10.3674 3.92909C10.2691 3.88847 10.1797 3.82887 10.1044 3.75372C10.0291 3.67857 9.96943 3.58934 9.92873 3.49113C9.88804 3.39292 9.86715 3.28766 9.86724 3.18138C9.86724 3.07518 9.8882 2.97002 9.92891 2.8719C9.96962 2.77378 10.0293 2.68463 10.1045 2.60953C10.1797 2.53444 10.269 2.47487 10.3673 2.43422C10.4656 2.39358 10.5709 2.37266 10.6773 2.37266C10.7837 2.37266 10.889 2.39358 10.9873 2.43422C11.0856 2.47487 11.1749 2.53444 11.2501 2.60953C11.3253 2.68463 11.385 2.77378 11.4257 2.8719C11.4664 2.97002 11.4874 3.07518 11.4874 3.18138C11.4874 3.62871 11.125 3.99048 10.6777 3.99048Z" fill="currentColor"/>
<path d="M7.06333 9.03382C8.3102 9.03382 9.32099 8.02471 9.32099 6.77991C9.32099 5.53511 8.3102 4.526 7.06333 4.526C5.81645 4.526 4.80566 5.53511 4.80566 6.77991C4.80566 8.02471 5.81645 9.03382 7.06333 9.03382Z" fill="currentColor"/>
</svg>
