<svg width="100%" height="100%" viewBox="0 0 62 62" fill="none" xmlns="http://www.w3.org/2000/svg">
<path d="M61.523 30.531C61.523 34.608 59.8389 38.5484 58.3629 42.0974C56.837 45.7614 54.6216 49.0983 51.837 51.9265C46.1392 57.6274 38.5007 60.9698 30.4468 61.2859C26.4197 61.2259 22.4425 60.3865 18.7349 58.8133C15.0569 57.2893 12.5439 53.977 9.77595 51.201C7.00795 48.4249 3.90404 45.8321 2.37604 42.1541C0.848043 38.4761 0.605047 34.6071 0.605047 30.5301C0.605047 26.4531 0.125816 22.1299 1.59382 18.5779C3.11782 14.8999 6.33293 11.9641 9.10993 9.19607C11.8869 6.42807 14.95 3.53059 18.628 2.00759C22.17 0.539592 26.3669 0.387475 30.4429 0.387475C34.4068 0.359462 38.3374 1.1103 42.0118 2.59744C45.725 4.05127 49.1186 6.21687 52.001 8.97244C54.8467 11.7947 57.1194 15.1413 58.6939 18.8269C60.1659 22.3689 61.523 26.454 61.523 30.531Z" fill="#6FC7BA"/>
<path d="M32.5225 46.9502L38.9844 47.9072L41.5532 30.5312L38.9844 13.1465L32.5225 14.1025L34.3652 26.6025L20.8423 16.1924L16.8613 21.3848L28.7251 30.5293L16.8613 39.6641L20.8423 44.8643L34.3652 34.4443L32.5225 46.9502Z" fill="#1A1A1A"/>
</svg>
