<svg width="100%" height="100%" viewBox="0 0 14 13" fill="none" xmlns="http://www.w3.org/2000/svg">
<path d="M3.49525 12.812V4.69251H0.796897V12.812H3.49525ZM2.14642 3.58327C3.08739 3.58327 3.67309 2.9598 3.67309 2.18066C3.65556 1.38394 3.08742 0.777771 2.16428 0.777771C1.24128 0.777771 0.637695 1.38396 0.637695 2.18066C0.637695 2.95983 1.22326 3.58327 2.12881 3.58327H2.14634H2.14642ZM4.98878 12.812H7.68714V8.27766C7.68714 8.03499 7.70467 7.79258 7.77593 7.6191C7.971 7.13426 8.41498 6.6321 9.16038 6.6321C10.1368 6.6321 10.5274 7.37668 10.5274 8.46818V12.8119H13.2256V8.15629C13.2256 5.66231 11.8944 4.50189 10.119 4.50189C8.66338 4.50189 8.02425 5.31567 7.66919 5.86993H7.6872V4.69234H4.98884C5.02426 5.45423 4.98884 12.8118 4.98884 12.8118L4.98878 12.812Z" fill="currentColor"/>
</svg>
