<svg width="100%" height="100%" viewBox="0 0 21 21" fill="none" xmlns="http://www.w3.org/2000/svg">
<path d="M18.3071 0.318362H2.2002C1.93571 0.318362 1.67355 0.370469 1.4292 0.471682C1.18485 0.572895 0.962896 0.721188 0.775879 0.908205C0.588862 1.09522 0.440568 1.31718 0.339355 1.56153C0.238142 1.80588 0.186035 2.06755 0.186035 2.33203V18.4424C0.186035 18.7069 0.238142 18.9685 0.339355 19.2129C0.440568 19.4572 0.588862 19.6792 0.775879 19.8662C0.962896 20.0532 1.18485 20.2015 1.4292 20.3027C1.67355 20.4039 1.93571 20.4561 2.2002 20.4561H18.3101C18.8442 20.4561 19.3562 20.2439 19.7339 19.8662C20.1116 19.4885 20.3242 18.9765 20.3242 18.4424V2.33203C20.3242 2.0673 20.2718 1.80509 20.1704 1.56055C20.069 1.316 19.9202 1.09429 19.7329 0.907229C19.5456 0.720172 19.3233 0.571742 19.0786 0.470705C18.8339 0.369669 18.5719 0.317967 18.3071 0.318362ZM4.71387 15.9238C4.4153 15.9236 4.12365 15.8349 3.87549 15.6689C3.62732 15.503 3.43399 15.2671 3.31982 14.9912C3.20566 14.7153 3.17559 14.412 3.23389 14.1191C3.29218 13.8263 3.43634 13.5578 3.64746 13.3467C3.85858 13.1356 4.12759 12.9909 4.42041 12.9326C4.71323 12.8743 5.0166 12.9044 5.29248 13.0186C5.56836 13.1327 5.80422 13.3261 5.97021 13.5742C6.13621 13.8224 6.2249 14.1145 6.2251 14.4131C6.22536 14.6116 6.18618 14.8077 6.11035 14.9912C6.03452 15.1747 5.92355 15.342 5.7832 15.4824C5.64285 15.6229 5.47593 15.7346 5.29248 15.8105C5.10903 15.8865 4.91242 15.924 4.71387 15.9238ZM4.71387 11.8975C4.4153 11.8973 4.12365 11.8086 3.87549 11.6426C3.62732 11.4766 3.43399 11.2407 3.31982 10.9648C3.20566 10.689 3.17559 10.3846 3.23389 10.0918C3.29218 9.79898 3.43634 9.53045 3.64746 9.31934C3.85858 9.10822 4.12759 8.96455 4.42041 8.90625C4.71323 8.84796 5.0166 8.87803 5.29248 8.99219C5.56836 9.10635 5.80422 9.29969 5.97021 9.54785C6.13621 9.79602 6.2249 10.0872 6.2251 10.3857C6.22562 10.5845 6.18704 10.7811 6.11133 10.9648C6.03562 11.1486 5.92407 11.3164 5.78369 11.457C5.64332 11.5977 5.47655 11.7091 5.29297 11.7852C5.10939 11.8612 4.91258 11.9005 4.71387 11.9004V11.8975ZM4.71387 7.87012C4.41498 7.87012 4.12302 7.78131 3.87451 7.61524C3.62601 7.44916 3.43221 7.21268 3.31787 6.93653C3.20354 6.66037 3.17355 6.35661 3.23193 6.06348C3.29032 5.77035 3.43458 5.50132 3.646 5.29004C3.85741 5.07876 4.12675 4.93514 4.41992 4.87696C4.71309 4.81877 5.01689 4.84838 5.29297 4.96289C5.56905 5.07741 5.80479 5.2719 5.9707 5.52051C6.13661 5.76912 6.2253 6.06146 6.2251 6.36035C6.2251 6.55873 6.18581 6.75521 6.10986 6.93848C6.03392 7.12175 5.92255 7.28751 5.78223 7.42774C5.6419 7.56797 5.47531 7.67906 5.29199 7.75489C5.10868 7.83071 4.91225 7.87025 4.71387 7.87012ZM16.293 15.4209H9.24512C8.97818 15.4209 8.72196 15.3147 8.5332 15.126C8.34445 14.9372 8.23828 14.681 8.23828 14.4141C8.23828 14.1471 8.34445 13.8919 8.5332 13.7031C8.72196 13.5144 8.97818 13.4082 9.24512 13.4082H16.293C16.5599 13.4082 16.8161 13.5144 17.0049 13.7031C17.1936 13.8919 17.2993 14.1471 17.2993 14.4141C17.2993 14.681 17.1936 14.9372 17.0049 15.126C16.8161 15.3147 16.5599 15.4209 16.293 15.4209ZM16.293 11.3936H9.24512C8.97804 11.3936 8.72156 11.2875 8.53271 11.0986C8.34387 10.9098 8.23779 10.6538 8.23779 10.3867C8.23779 10.1196 8.34387 9.86366 8.53271 9.67481C8.72156 9.48596 8.97804 9.37988 9.24512 9.37988H16.293C16.56 9.37988 16.816 9.48596 17.0049 9.67481C17.1937 9.86366 17.2998 10.1196 17.2998 10.3867C17.2998 10.6538 17.1937 10.9098 17.0049 11.0986C16.816 11.2875 16.56 11.3936 16.293 11.3936ZM16.293 7.36719H9.24512C8.97804 7.36719 8.72156 7.26112 8.53271 7.07227C8.34387 6.88342 8.23779 6.62743 8.23779 6.36035C8.23779 6.09328 8.34387 5.83631 8.53271 5.64746C8.72156 5.45861 8.97804 5.35254 9.24512 5.35254H16.293C16.56 5.35254 16.816 5.45861 17.0049 5.64746C17.1937 5.83631 17.2998 6.09328 17.2998 6.36035C17.2998 6.62743 17.1937 6.88342 17.0049 7.07227C16.816 7.26112 16.56 7.36719 16.293 7.36719Z" fill="#00FCE0"/>
</svg>
