<svg width="100%" height="100%" viewBox="0 0 18 18" fill="none" xmlns="http://www.w3.org/2000/svg">
<path d="M9.49163 9.83333L7.57496 11.7417C7.49685 11.8191 7.43486 11.9113 7.39255 12.0128C7.35024 12.1144 7.32846 12.2233 7.32846 12.3333C7.32846 12.4433 7.35024 12.5523 7.39255 12.6538C7.43486 12.7554 7.49685 12.8475 7.57496 12.925C7.65243 13.0031 7.7446 13.0651 7.84615 13.1074C7.9477 13.1497 8.05662 13.1715 8.16663 13.1715C8.27664 13.1715 8.38556 13.1497 8.48711 13.1074C8.58866 13.0651 8.68082 13.0031 8.75829 12.925L12.0916 9.59166C12.1675 9.51241 12.227 9.41896 12.2666 9.31666C12.35 9.11378 12.35 8.88621 12.2666 8.68333C12.227 8.58104 12.1675 8.48758 12.0916 8.40833L8.75829 5.075C8.68059 4.9973 8.58835 4.93566 8.48683 4.89361C8.38532 4.85156 8.27651 4.82992 8.16663 4.82992C8.05674 4.82992 7.94794 4.85156 7.84642 4.89361C7.7449 4.93566 7.65266 4.9973 7.57496 5.075C7.49726 5.1527 7.43563 5.24494 7.39358 5.34646C7.35153 5.44797 7.32988 5.55678 7.32988 5.66666C7.32988 5.77655 7.35153 5.88535 7.39358 5.98687C7.43563 6.08839 7.49726 6.18063 7.57496 6.25833L9.49163 8.16666H1.49996C1.27895 8.16666 1.06698 8.25446 0.910704 8.41074C0.754423 8.56702 0.666626 8.77898 0.666626 9C0.666626 9.22101 0.754423 9.43297 0.910704 9.58925C1.06698 9.74553 1.27895 9.83333 1.49996 9.83333H9.49163ZM8.99996 0.666663C7.44254 0.65971 5.91433 1.08934 4.58868 1.90682C3.26304 2.72431 2.193 3.89692 1.49996 5.29166C1.4005 5.49058 1.38414 5.72085 1.45446 5.93183C1.52479 6.14281 1.67605 6.31721 1.87496 6.41666C2.07387 6.51612 2.30415 6.53248 2.51512 6.46216C2.7261 6.39183 2.9005 6.24058 2.99996 6.04166C3.52679 4.97776 4.32815 4.07385 5.32125 3.42332C6.31435 2.77279 7.46314 2.39926 8.64892 2.34132C9.8347 2.28339 11.0144 2.54314 12.0662 3.09376C13.118 3.64437 14.0037 4.46585 14.6317 5.47333C15.2598 6.4808 15.6074 7.6377 15.6386 8.82448C15.6699 10.0113 15.3837 11.1849 14.8096 12.224C14.2354 13.2631 13.3942 14.1301 12.3729 14.7354C11.3516 15.3406 10.1871 15.6621 8.99996 15.6667C7.75736 15.672 6.53842 15.327 5.48304 14.671C4.42765 14.0151 3.57859 13.0749 3.03329 11.9583C2.93384 11.7594 2.75944 11.6082 2.54846 11.5378C2.33748 11.4675 2.10721 11.4839 1.90829 11.5833C1.70938 11.6828 1.55812 11.8572 1.4878 12.0682C1.41747 12.2791 1.43384 12.5094 1.53329 12.7083C2.19398 14.0379 3.19789 15.1669 4.44119 15.9784C5.68448 16.7899 7.122 17.2545 8.60506 17.3242C10.0881 17.3938 11.5629 17.066 12.8767 16.3746C14.1906 15.6832 15.2959 14.6533 16.0784 13.3915C16.8608 12.1297 17.2919 10.6818 17.327 9.1975C17.3622 7.71322 17.0002 6.24649 16.2785 4.94902C15.5568 3.65156 14.5015 2.57047 13.2219 1.81758C11.9422 1.0647 10.4847 0.66736 8.99996 0.666663Z" fill="currentColor"/>
</svg>
