<svg width="100%" height="100%" viewBox="0 0 24 25" fill="none" xmlns="http://www.w3.org/2000/svg">
<path d="M23.7125 13.2125L18.4625 18.4625C18.2705 18.646 18.0155 18.7489 17.75 18.75C17.5517 18.7497 17.358 18.6904 17.1935 18.5797C17.0289 18.469 16.901 18.3119 16.826 18.1284C16.751 17.9448 16.7322 17.7431 16.7721 17.5489C16.812 17.3546 16.9087 17.1766 17.05 17.0375L20.5875 13.5H9C8.73478 13.5 8.48043 13.3946 8.29289 13.2071C8.10536 13.0196 8 12.7652 8 12.5C8 12.2348 8.10536 11.9804 8.29289 11.7929C8.48043 11.6054 8.73478 11.5 9 11.5H20.5875L17.05 7.9625C16.861 7.77519 16.7542 7.52049 16.753 7.25442C16.7519 6.98835 16.8564 6.73272 17.0438 6.54375C17.2311 6.35478 17.4858 6.24796 17.7518 6.24679C18.0179 6.24562 18.2735 6.35019 18.4625 6.5375L23.7125 11.7875C23.9003 11.9771 24.0056 12.2332 24.0056 12.5C24.0056 12.7668 23.9003 13.0229 23.7125 13.2125ZM9 22.5H2V2.5H9C9.26522 2.5 9.51957 2.39464 9.70711 2.20711C9.89464 2.01957 10 1.76522 10 1.5C10 1.23478 9.89464 0.98043 9.70711 0.792893C9.51957 0.605357 9.26522 0.5 9 0.5H2C1.46957 0.5 0.960859 0.710714 0.585786 1.08579C0.210714 1.46086 0 1.96957 0 2.5V22.5C0 23.0304 0.210714 23.5391 0.585786 23.9142C0.960859 24.2893 1.46957 24.5 2 24.5H9C9.26522 24.5 9.51957 24.3946 9.70711 24.2071C9.89464 24.0196 10 23.7652 10 23.5C10 23.2348 9.89464 22.9804 9.70711 22.7929C9.51957 22.6054 9.26522 22.5 9 22.5Z" fill="currentColor"/>
</svg>
