<svg width="100%" height="100%" viewBox="0 0 18 19" fill="none" xmlns="http://www.w3.org/2000/svg">
<path d="M14.0809 6.11626C15.3263 6.11626 16.3359 5.10666 16.3359 3.86126C16.3359 2.61586 15.3263 1.60626 14.0809 1.60626C12.8355 1.60626 11.8259 2.61586 11.8259 3.86126C11.8259 5.10666 12.8355 6.11626 14.0809 6.11626Z" stroke="currentColor" stroke-width="1.5" stroke-miterlimit="10" stroke-linecap="round" stroke-linejoin="round"/>
<path d="M3.92542 6.11626C5.17082 6.11626 6.18041 5.10666 6.18041 3.86126C6.18041 2.61586 5.17082 1.60626 3.92542 1.60626C2.68001 1.60626 1.67041 2.61586 1.67041 3.86126C1.67041 5.10666 2.68001 6.11626 3.92542 6.11626Z" stroke="currentColor" stroke-width="1.5" stroke-miterlimit="10" stroke-linecap="round" stroke-linejoin="round"/>
<path d="M14.0809 17.3928C15.3263 17.3928 16.3359 16.3832 16.3359 15.1378C16.3359 13.8923 15.3263 12.8828 14.0809 12.8828C12.8355 12.8828 11.8259 13.8923 11.8259 15.1378C11.8259 16.3832 12.8355 17.3928 14.0809 17.3928Z" stroke="currentColor" stroke-width="1.5" stroke-miterlimit="10" stroke-linecap="round" stroke-linejoin="round"/>
<path d="M3.92542 17.3928C5.17082 17.3928 6.18041 16.3832 6.18041 15.1378C6.18041 13.8923 5.17082 12.8828 3.92542 12.8828C2.68001 12.8828 1.67041 13.8923 1.67041 15.1378C1.67041 16.3832 2.68001 17.3928 3.92542 17.3928Z" stroke="currentColor" stroke-width="1.5" stroke-miterlimit="10" stroke-linecap="round" stroke-linejoin="round"/>
</svg>
