<svg width="100%" height="100%" viewBox="0 0 4 16" fill="none" xmlns="http://www.w3.org/2000/svg">
<path d="M2 4.00049C3.1 4.00049 4 3.10049 4 2.00049C4 0.900488 3.1 0.000488281 2 0.000488281C0.9 0.000488281 0 0.900488 0 2.00049C0 3.10049 0.9 4.00049 2 4.00049ZM2 6.00049C0.9 6.00049 0 6.90049 0 8.00049C0 9.10049 0.9 10.0005 2 10.0005C3.1 10.0005 4 9.10049 4 8.00049C4 6.90049 3.1 6.00049 2 6.00049ZM2 12.0005C0.9 12.0005 0 12.9005 0 14.0005C0 15.1005 0.9 16.0005 2 16.0005C3.1 16.0005 4 15.1005 4 14.0005C4 12.9005 3.1 12.0005 2 12.0005Z" fill="currentColor"/>
</svg>
