<svg width="100%" height="100%" viewBox="0 0 54 53" fill="none" xmlns="http://www.w3.org/2000/svg">
<path fill-rule="evenodd" clip-rule="evenodd" d="M28.5459 0.329699C28.1281 0.478225 26.9221 1.6355 20.3563 8.18892C11.9205 16.6087 12.1918 16.2961 12.198 17.5859C12.2038 18.8019 12.2454 18.854 16.9795 23.5753C19.802 26.3902 21.4749 27.9782 21.7947 28.1461C22.469 28.5001 23.7179 28.5112 24.3536 28.1688C24.6078 28.0319 27.9909 24.7219 32.4755 20.2223C40.8107 11.8596 40.4149 12.3146 40.4149 11.095C40.4149 9.90894 40.5229 10.0442 35.687 5.17943C33.0353 2.51185 31.0376 0.588203 30.7813 0.455467C30.2099 0.159504 29.1864 0.101902 28.5459 0.329699ZM18.2558 3.64702C17.795 3.90988 15.6933 6.09345 15.5848 6.4223C15.4249 6.90707 15.564 7.17157 16.4245 8.01807L17.1708 8.75232L18.9645 6.95629L20.7581 5.16016L19.9929 4.39499C19.1855 3.58757 18.7151 3.38504 18.2558 3.64702ZM33.6087 21.7123L31.8685 23.4549L40.4156 32.0045C46.3338 37.9244 49.1038 40.6228 49.4215 40.7774C50.0121 41.0649 50.9136 41.0717 51.5427 40.7933C52.8078 40.2337 53.3894 38.6101 52.7687 37.3705C52.5774 36.9883 35.6489 19.9695 35.46 19.9695C35.399 19.9695 34.5658 20.7537 33.6087 21.7123ZM9.43573 31.9283C9.13629 32.0336 7.33536 33.0167 5.4336 34.1126C1.71883 36.2536 1.44769 36.4645 1.15696 37.4389C0.920448 38.2317 0.923062 45.7064 1.16022 46.5049C1.45074 47.4833 1.83 47.7749 5.66096 49.965C7.59746 51.0721 9.36147 52.0278 9.58099 52.0888C10.1088 52.2354 10.6545 52.2227 11.1295 52.0529C11.589 51.8885 17.8502 48.3238 18.4756 47.8704C18.7141 47.6976 19.0561 47.2905 19.2358 46.9657L19.5625 46.3752V42.0196V37.6641L19.2545 37.0371C19.0852 36.6922 18.7912 36.2916 18.6012 36.147C17.9614 35.6598 11.5093 32.0219 11.0245 31.875C10.3991 31.6855 10.0968 31.6956 9.43573 31.9283ZM11.1393 34.1676C11.6701 34.3572 16.4071 37.0354 16.8072 37.3722C16.981 37.5184 17.2555 37.8888 17.4172 38.1954L17.7114 38.753V41.9652C17.7114 45.1044 17.7056 45.1891 17.4589 45.6899C17.3201 45.9717 17.0475 46.342 16.853 46.5128C16.5363 46.7909 12.7785 48.9762 11.5724 49.5838C10.9653 49.8895 10.0859 49.9837 9.53308 49.8021C8.76965 49.5512 4.12311 46.8513 3.64944 46.3833C2.92369 45.6663 2.84791 45.2488 2.84791 41.9652C2.84791 38.6944 2.91716 38.3117 3.64269 37.5707C4.09785 37.1059 8.59064 34.4831 9.46894 34.1695C9.98029 33.9869 10.6314 33.9862 11.1393 34.1676ZM7.53027 37.3102C5.77018 38.3048 4.93445 38.8376 4.83972 39.0252C4.73997 39.2227 4.70175 40.0507 4.70066 42.0408C4.69903 44.7339 4.70349 44.7892 4.94403 45.0553C5.23107 45.3729 9.73823 47.9429 10.1557 48.027C10.4923 48.0947 10.5291 48.077 13.386 46.4594C15.0292 45.5292 15.6352 45.13 15.7544 44.8993C15.8821 44.6524 15.9147 44.0717 15.9147 42.0413C15.9147 40.4802 15.8686 39.3611 15.7958 39.1521C15.6624 38.7696 15.5391 38.6885 12.4808 36.9705C11.4008 36.3638 10.4194 35.8674 10.3002 35.8674C10.1809 35.8674 8.9344 36.5166 7.53027 37.3102Z" fill="url(#paint0_linear_1_7150)"/>
<defs>
<linearGradient id="paint0_linear_1_7150" x1="0.980957" y1="0.190186" x2="63.3538" y2="31.7917" gradientUnits="userSpaceOnUse">
<stop stop-color="#FC466B"/>
<stop offset="1" stop-color="#3F5EFB"/>
</linearGradient>
</defs>
</svg>
