<svg width="100%" height="100%" viewBox="0 0 24 25" fill="none" xmlns="http://www.w3.org/2000/svg">
<g clip-path="url(#clip0_0_6697)">
<path d="M4.34018 3.43506L2.93018 4.84506L7.29018 9.20506L7.00018 9.50506H3.00018V15.5051H7.00018L12.0002 20.5051V13.9151L16.1802 18.0951C15.5302 18.5851 14.8002 18.9751 14.0002 19.2051V21.2651C15.3402 20.9651 16.5702 20.3451 17.6102 19.5151L19.6602 21.5651L21.0702 20.1551L4.34018 3.43506ZM10.0002 15.6751L7.83018 13.5051H5.00018V11.5051H7.83018L8.71018 10.6251L10.0002 11.9151V15.6751ZM19.0002 12.5051C19.0002 13.3251 18.8502 14.1151 18.5902 14.8451L20.1202 16.3751C20.6802 15.2051 21.0002 13.8951 21.0002 12.5051C21.0002 8.22506 18.0102 4.64506 14.0002 3.73506V5.79506C16.8902 6.65506 19.0002 9.33506 19.0002 12.5051ZM12.0002 4.50506L10.1202 6.38506L12.0002 8.26506V4.50506ZM16.5002 12.5051C16.5002 10.7351 15.4802 9.21506 14.0002 8.47506V10.2651L16.4802 12.7451C16.4902 12.6651 16.5002 12.5851 16.5002 12.5051Z" fill="currentColor"/>
</g>
<defs>
<clipPath id="clip0_0_6697">
<rect width="24" height="24" fill="white" transform="translate(0 0.5)"/>
</clipPath>
</defs>
</svg>
