<svg width="100%" height="100%" viewBox="0 0 14 18" fill="none" xmlns="http://www.w3.org/2000/svg">
<path d="M12 9.98332V7.33332C11.9988 6.15259 11.5798 5.01038 10.8172 4.10897C10.0546 3.20756 8.99759 2.60511 7.83337 2.40832V1.49999C7.83337 1.27898 7.74558 1.06701 7.5893 0.910734C7.43302 0.754454 7.22105 0.666656 7.00004 0.666656C6.77903 0.666656 6.56707 0.754454 6.41079 0.910734C6.2545 1.06701 6.16671 1.27898 6.16671 1.49999V2.40832C5.00249 2.60511 3.94548 3.20756 3.18286 4.10897C2.42025 5.01038 2.00124 6.15259 2.00004 7.33332V9.98332C1.51375 10.1553 1.09254 10.4734 0.794156 10.8941C0.495773 11.3148 0.334824 11.8175 0.333374 12.3333V14C0.333374 14.221 0.421172 14.433 0.577452 14.5892C0.733732 14.7455 0.945694 14.8333 1.16671 14.8333H3.78337C3.97528 15.5395 4.39421 16.1628 4.97554 16.6073C5.55687 17.0517 6.26829 17.2925 7.00004 17.2925C7.73179 17.2925 8.44321 17.0517 9.02454 16.6073C9.60587 16.1628 10.0248 15.5395 10.2167 14.8333H12.8334C13.0544 14.8333 13.2663 14.7455 13.4226 14.5892C13.5789 14.433 13.6667 14.221 13.6667 14V12.3333C13.6653 11.8175 13.5043 11.3148 13.2059 10.8941C12.9075 10.4734 12.4863 10.1553 12 9.98332ZM3.66671 7.33332C3.66671 6.44927 4.0179 5.60142 4.64302 4.9763C5.26814 4.35118 6.11599 3.99999 7.00004 3.99999C7.8841 3.99999 8.73194 4.35118 9.35706 4.9763C9.98218 5.60142 10.3334 6.44927 10.3334 7.33332V9.83332H3.66671V7.33332ZM7.00004 15.6667C6.70918 15.6649 6.42385 15.5871 6.1724 15.4409C5.92095 15.2947 5.71213 15.0852 5.56671 14.8333H8.43337C8.28795 15.0852 8.07913 15.2947 7.82768 15.4409C7.57623 15.5871 7.2909 15.6649 7.00004 15.6667ZM12 13.1667H2.00004V12.3333C2.00004 12.1123 2.08784 11.9003 2.24412 11.7441C2.4004 11.5878 2.61236 11.5 2.83337 11.5H11.1667C11.3877 11.5 11.5997 11.5878 11.756 11.7441C11.9122 11.9003 12 12.1123 12 12.3333V13.1667Z" fill="currentColor"/>
</svg>
