<svg width="100%" height="100%" viewBox="0 0 41 41" fill="none" xmlns="http://www.w3.org/2000/svg">
<path opacity="0.75" d="M20.4682 40.8476C31.6857 40.8476 40.7792 31.754 40.7792 20.5366C40.7792 9.31913 31.6857 0.225586 20.4682 0.225586C9.25077 0.225586 0.157227 9.31913 0.157227 20.5366C0.157227 31.754 9.25077 40.8476 20.4682 40.8476Z" fill="black"/>
<path opacity="0.17" d="M20.4689 4.61837C17.3202 4.61837 14.2422 5.55168 11.6241 7.30099C9.00612 9.0503 6.96484 11.5365 5.75989 14.4455C4.55494 17.3545 4.24034 20.5556 4.85462 23.6438C5.46889 26.7319 6.98461 29.5687 9.21106 31.7951C11.4375 34.0216 14.2743 35.5383 17.3624 36.1526C20.4506 36.7668 23.6517 36.4513 26.5607 35.2463C29.4697 34.0414 31.9559 32.0011 33.7052 29.383C35.4545 26.765 36.3888 23.687 36.3888 20.5383C36.3877 16.3164 34.7101 12.2678 31.7247 9.28244C28.7394 6.29709 24.6908 4.61943 20.4689 4.61837ZM20.4689 33.3684C17.9313 33.3686 15.45 32.6159 13.34 31.2063C11.23 29.7966 9.58561 27.7928 8.61438 25.4485C7.64316 23.1041 7.38898 20.5242 7.88391 18.0354C8.37885 15.5465 9.60039 13.2604 11.3947 11.466C13.1889 9.67162 15.4752 8.45042 17.964 7.95529C20.4528 7.46016 23.0326 7.71374 25.3771 8.68478C27.7215 9.65582 29.7251 11.3005 31.1349 13.4104C32.5447 15.5203 33.297 18.0007 33.297 20.5383C33.2967 23.9408 31.946 27.2036 29.5402 29.6096C27.1343 32.0156 23.8713 33.3678 20.4689 33.3684ZM30.3624 28.6858C29.0043 30.3347 27.2558 31.6187 25.2755 32.4201C23.2953 33.2216 21.1463 33.5157 19.0236 33.2756C16.9008 33.0355 14.8714 32.2687 13.1202 31.0451C11.3691 29.8216 9.95174 28.1804 8.99622 26.2697C8.04069 24.3591 7.57702 22.2398 7.64856 20.1047C7.7201 17.9696 8.32412 15.8856 9.4054 14.0432C10.4867 12.2007 12.0108 10.6575 13.84 9.55392C15.6691 8.45033 17.745 7.82132 19.879 7.72384C20.0357 7.71945 20.1844 7.65509 20.2941 7.54318C20.4037 7.43127 20.4667 7.28092 20.4679 7.12423V5.18673C20.4681 5.10465 20.4509 5.02413 20.4191 4.94845C20.3873 4.87278 20.3411 4.80364 20.2824 4.7463C20.2236 4.68897 20.1537 4.64443 20.0773 4.61447C20.0009 4.58451 19.9191 4.57034 19.837 4.57248C17.1696 4.67758 14.5716 5.44941 12.2794 6.81759C9.98721 8.18577 8.0745 10.1066 6.71595 12.4045C5.35739 14.7024 4.59599 17.3041 4.50208 19.9719C4.40817 22.6397 4.98425 25.2882 6.17786 27.676C7.37147 30.0638 9.14475 32.1149 11.3351 33.6408C13.5254 35.1668 16.0635 36.1189 18.7169 36.4113C21.3703 36.7037 24.0545 36.3271 26.5245 35.3147C28.9946 34.3023 31.1717 32.687 32.8566 30.6164C32.9074 30.5521 32.9442 30.4777 32.9659 30.3986C32.9877 30.3196 32.9941 30.2377 32.9835 30.1565C32.9729 30.0752 32.9458 29.9967 32.9044 29.926C32.8631 29.8552 32.8079 29.7935 32.7423 29.7444L31.1935 28.5774C31.068 28.4836 30.9113 28.4425 30.756 28.4631C30.6007 28.4837 30.4592 28.5626 30.3624 28.6858Z" fill="white"/>
<path d="M30.3624 28.6867C29.0043 30.3357 27.2558 31.6196 25.2755 32.4211C23.2953 33.2226 21.1463 33.5167 19.0236 33.2766C16.9008 33.0365 14.8714 32.2697 13.1202 31.0461C11.3691 29.8226 9.95174 28.1814 8.99622 26.2707C8.04069 24.36 7.57702 22.2408 7.64856 20.1057C7.7201 17.9706 8.32412 15.8866 9.4054 14.0442C10.4867 12.2017 12.0108 10.6585 13.84 9.5549C15.6691 8.45131 17.745 7.8223 19.879 7.72482C20.0357 7.72042 20.1844 7.65607 20.2941 7.54416C20.4037 7.43224 20.4667 7.2819 20.4679 7.12521V5.18869C20.4681 5.10661 20.4509 5.0251 20.4191 4.94943C20.3873 4.87376 20.3411 4.80462 20.2824 4.74728C20.2236 4.68994 20.1537 4.6454 20.0773 4.61544C20.0009 4.58548 19.9191 4.57131 19.837 4.57345C17.1696 4.67855 14.5716 5.45039 12.2794 6.81857C9.98721 8.18675 8.0745 10.1076 6.71595 12.4055C5.35739 14.7034 4.59599 17.305 4.50208 19.9729C4.40817 22.6407 4.98425 25.2892 6.17786 27.677C7.37147 30.0647 9.14475 32.1158 11.3351 33.6418C13.5254 35.1678 16.0635 36.1199 18.7169 36.4123C21.3703 36.7047 24.0545 36.328 26.5245 35.3156C28.9946 34.3032 31.1717 32.688 32.8566 30.6174C32.9074 30.5531 32.9442 30.4786 32.9659 30.3996C32.9877 30.3206 32.9941 30.2387 32.9835 30.1574C32.9729 30.0762 32.9458 29.9977 32.9044 29.927C32.8631 29.8562 32.8079 29.7944 32.7423 29.7453L31.1935 28.5783C31.0681 28.4845 30.9113 28.4427 30.756 28.4631C30.6007 28.4835 30.4593 28.5637 30.3624 28.6867Z" fill="#00FCE0"/>
<path d="M17.9562 15.8135H17.2802C16.8455 15.8135 16.4932 16.1658 16.4932 16.6005V24.4755C16.4932 24.9101 16.8455 25.2625 17.2802 25.2625H17.9562C18.3908 25.2625 18.7432 24.9101 18.7432 24.4755V16.6005C18.7432 16.1658 18.3908 15.8135 17.9562 15.8135Z" fill="#00FCE0"/>
<path d="M23.6554 15.8135H22.9794C22.5447 15.8135 22.1924 16.1658 22.1924 16.6005V24.4755C22.1924 24.9101 22.5447 25.2625 22.9794 25.2625H23.6554C24.09 25.2625 24.4424 24.9101 24.4424 24.4755V16.6005C24.4424 16.1658 24.09 15.8135 23.6554 15.8135Z" fill="#00FCE0"/>
</svg>
