<svg width="100%" height="100%" viewBox="0 0 16 18" fill="none" xmlns="http://www.w3.org/2000/svg">
<path d="M1.90822 17.999H14.3877C14.5491 17.9988 14.7085 17.9668 14.8574 17.9048C15.0064 17.8428 15.142 17.752 15.2559 17.6377C15.3697 17.5234 15.4591 17.3875 15.5205 17.2383C15.5819 17.0891 15.6137 16.9294 15.6133 16.7681V15.4253C15.6154 14.5598 15.4457 13.7023 15.1143 12.9028C14.7829 12.1034 14.2965 11.3777 13.6826 10.7676C13.0688 10.1575 12.3396 9.67518 11.5381 9.34863C10.7366 9.02208 9.87911 8.85783 9.01369 8.86523C10.0815 8.65134 11.0318 8.04775 11.6797 7.17236C12.3276 6.29698 12.626 5.21215 12.5186 4.12842C12.4111 3.04468 11.9049 2.03969 11.0977 1.30859C10.2905 0.577501 9.24044 0.172363 8.15139 0.172363C7.06234 0.172363 6.01228 0.577501 5.2051 1.30859C4.39792 2.03969 3.89167 3.04468 3.7842 4.12842C3.67673 5.21215 3.9752 6.29698 4.62307 7.17236C5.27094 8.04775 6.22124 8.65134 7.28908 8.86523C6.42366 8.85783 5.56517 9.02208 4.76369 9.34863C3.96221 9.67518 3.23396 10.1575 2.62014 10.7676C2.00631 11.3777 1.51991 12.1034 1.1885 12.9028C0.85708 13.7023 0.687326 14.5598 0.689473 15.4253V16.7681C0.689079 16.9294 0.719859 17.0891 0.78127 17.2383C0.842681 17.3875 0.933037 17.5234 1.0469 17.6377C1.16075 17.752 1.29638 17.8428 1.44533 17.9048C1.59429 17.9668 1.75371 17.9988 1.91506 17.999H1.90822Z" fill="currentColor"/>
</svg>
