<svg width="100%" height="100%" viewBox="0 0 41 41" fill="none" xmlns="http://www.w3.org/2000/svg">
<path d="M36.9766 33.6433H16.9766C12.2626 33.6433 9.90555 33.6433 8.44108 32.1788C6.97662 30.7144 6.97662 28.3574 6.97662 23.6433V3.64331" stroke="currentColor" stroke-width="2.5" stroke-linecap="round"/>
<path d="M10.31 33.6433C16.4496 27.7041 23.3492 19.8277 33.6433 25.7351" stroke="currentColor" stroke-width="2.5"/>
<path d="M3.64337 6.97669H23.6434C28.3574 6.97669 30.7144 6.97669 32.1789 8.44115C33.6434 9.90562 33.6434 12.2626 33.6434 16.9767V36.9767" stroke="currentColor" stroke-width="2.5" stroke-linecap="round"/>
<path d="M14.4766 16.9767C15.8573 16.9767 16.9766 15.8574 16.9766 14.4767C16.9766 13.096 15.8573 11.9767 14.4766 11.9767C13.0959 11.9767 11.9766 13.096 11.9766 14.4767C11.9766 15.8574 13.0959 16.9767 14.4766 16.9767Z" stroke="currentColor" stroke-width="2.5" stroke-linecap="round" stroke-linejoin="round"/>
</svg>
