<svg width="100%" height="100%" viewBox="0 0 9 10" fill="none" xmlns="http://www.w3.org/2000/svg">
<path d="M8.88889 9.62963C8.88889 9.72786 8.84987 9.82206 8.78041 9.89152C8.71095 9.96098 8.61675 10 8.51852 10H0.37037C0.272142 10 0.177937 9.96098 0.108479 9.89152C0.0390211 9.82206 0 9.72786 0 9.62963C0 9.5314 0.0390211 9.4372 0.108479 9.36774C0.177937 9.29828 0.272142 9.25926 0.37037 9.25926H8.51852C8.61675 9.25926 8.71095 9.29828 8.78041 9.36774C8.84987 9.4372 8.88889 9.5314 8.88889 9.62963ZM8.88889 5.92593V7.77778C8.88889 7.97423 8.81085 8.16264 8.67193 8.30156C8.53302 8.44048 8.34461 8.51852 8.14815 8.51852H0.740741C0.544284 8.51852 0.355874 8.44048 0.216958 8.30156C0.0780421 8.16264 0 7.97423 0 7.77778V5.92593C0 5.72947 0.0780421 5.54106 0.216958 5.40214C0.355874 5.26323 0.544284 5.18518 0.740741 5.18518H3.35324L2.62593 1.79213C2.57961 1.57615 2.58217 1.35255 2.63343 1.1377C2.68469 0.922838 2.78334 0.722162 2.92217 0.550355C3.061 0.378549 3.23649 0.239961 3.4358 0.144736C3.63511 0.0495113 3.85319 5.92981e-05 4.07407 1.43722e-09H4.81482C5.03574 -9.72922e-06 5.25387 0.0493916 5.45324 0.144587C5.6526 0.239782 5.82815 0.37836 5.96703 0.550175C6.10591 0.72199 6.20461 0.922691 6.25589 1.13758C6.30718 1.35247 6.30975 1.57611 6.26343 1.79213L5.53565 5.18518H8.14815C8.34461 5.18518 8.53302 5.26323 8.67193 5.40214C8.81085 5.54106 8.88889 5.72947 8.88889 5.92593ZM4.11065 5.18518H4.77824L5.53889 1.63657C5.56201 1.5286 5.5607 1.41683 5.53505 1.30943C5.5094 1.20203 5.46007 1.10172 5.39066 1.01585C5.32125 0.92997 5.23352 0.860698 5.13388 0.813099C5.03425 0.7655 4.92523 0.740778 4.81482 0.740741H4.07407C3.96362 0.740709 3.85455 0.765381 3.75486 0.81295C3.65517 0.860519 3.56738 0.929781 3.49791 1.01567C3.42845 1.10155 3.37908 1.20188 3.3534 1.30932C3.32773 1.41675 3.32641 1.52856 3.34954 1.63657L4.11065 5.18518ZM8.14815 7.77778V5.92593H0.740741V7.77778H8.14815Z" fill="currentColor"/>
</svg>
