<svg width="100%" height="100%" viewBox="0 0 46 53" fill="none" xmlns="http://www.w3.org/2000/svg">
<path fill-rule="evenodd" clip-rule="evenodd" d="M2.71431 1.06379C1.85102 1.27396 1.06898 1.89199 0.621071 2.71806L0.273926 3.35826V17.7464C0.273926 31.1235 0.286738 32.2059 0.455836 33.1513C1.46778 38.8062 4.55853 43.3807 9.98462 47.2547C12.9501 49.3719 16.4617 51.0688 20.9155 52.5368C23.0438 53.2383 23.5931 53.1651 27.6155 51.6438C36.9293 48.1213 43.1717 42.2131 45.113 35.0832C45.7553 32.7244 45.7261 33.5492 45.7261 17.7464V3.35826L45.3786 2.71755C44.8372 1.71883 43.9532 1.12113 42.8469 1.00552C41.9747 0.914312 41.328 1.14462 40.0143 2.01432C38.7 2.88441 37.2761 3.48607 35.7103 3.83301C34.7923 4.03648 34.3718 4.06892 32.7107 4.06444C30.9938 4.05987 30.6525 4.02956 29.6451 3.79295C28.1312 3.43726 26.736 2.83886 25.5293 2.02774C23.4193 0.609569 22.5807 0.609569 20.4708 2.02774C19.264 2.83886 17.8688 3.43726 16.3549 3.79295C15.3475 4.02956 15.0062 4.05987 13.2893 4.06444C11.6282 4.06892 11.2077 4.03648 10.2897 3.83301C8.72498 3.48638 7.29989 2.88431 5.98829 2.01604C4.52335 1.04619 3.73195 0.816087 2.71431 1.06379ZM24.3662 14.137C26.2201 14.5297 27.9432 15.8633 28.7755 17.5495C29.3863 18.787 29.5038 19.4671 29.506 21.7766L29.5077 23.7225L29.9406 23.7874C31.0173 23.9489 31.9753 24.6689 32.4443 25.6689L32.7107 26.2369V30.2533V34.2698L32.4443 34.8378C32.1057 35.5598 31.5604 36.1052 30.8383 36.4438L30.2703 36.7102H23H15.7297L15.1617 36.4438C14.4396 36.1052 13.8943 35.5598 13.5557 34.8378L13.2893 34.2698V30.2533V26.2369L13.5557 25.6689C14.0247 24.6689 14.9827 23.9489 16.0594 23.7874L16.4923 23.7225L16.494 21.7766C16.4962 19.4671 16.6137 18.787 17.2245 17.5495C18.5052 14.9549 21.4912 13.528 24.3662 14.137ZM22.0137 17.4211C21.2787 17.6837 20.7169 18.0981 20.3548 18.6447C19.8379 19.4252 19.7462 19.9207 19.7462 21.9338V23.7456H23.0076H26.2691L26.2361 21.7374C26.2044 19.8181 26.1912 19.7039 25.9366 19.1612C25.238 17.6715 23.4867 16.8948 22.0137 17.4211ZM22.3268 28.7668C22.1523 28.8459 21.8777 29.0833 21.7167 29.2945C21.4738 29.6127 21.4239 29.7763 21.4239 30.2533C21.4239 30.7211 21.4751 30.8954 21.6979 31.1875C22.2702 31.9379 23.2444 32.0816 23.9762 31.5235C25.1523 30.6264 24.6084 28.7764 23.1346 28.6614C22.848 28.639 22.5122 28.6828 22.3268 28.7668Z" fill="url(#paint0_linear_1_7132)"/>
<defs>
<linearGradient id="paint0_linear_1_7132" x1="0.273926" y1="0.964111" x2="57.526" y2="26.3003" gradientUnits="userSpaceOnUse">
<stop stop-color="#FC466B"/>
<stop offset="1" stop-color="#3F5EFB"/>
</linearGradient>
</defs>
</svg>
