<svg width="100%" height="100%" viewBox="0 0 15 18" fill="none" xmlns="http://www.w3.org/2000/svg">
<path d="M14.0749 5.26667C14.0702 5.2447 14.0702 5.22198 14.0749 5.20001C14.0709 5.18077 14.0709 5.16091 14.0749 5.14167V5.06667L14.0249 4.94167C14.0046 4.90756 13.9793 4.87667 13.9499 4.85001L13.8749 4.78334H13.8333L10.5499 2.70834L7.44993 0.791673C7.37821 0.734781 7.29614 0.692332 7.20827 0.666673H7.1416C7.06712 0.654241 6.99109 0.654241 6.9166 0.666673H6.83327C6.73647 0.688083 6.64366 0.724645 6.55827 0.775006L0.333268 4.65001L0.258268 4.70834L0.183268 4.77501L0.0999347 4.83334L0.0582681 4.88334L0.00826796 5.00834V5.08334V5.13334C0.000173701 5.1886 0.000173701 5.24475 0.00826796 5.30001V12.575C0.00798456 12.7166 0.0437981 12.856 0.112327 12.9799C0.180857 13.1039 0.279841 13.2083 0.399935 13.2833L6.64993 17.15L6.77493 17.2H6.8416C6.98259 17.2447 7.13395 17.2447 7.27493 17.2H7.3416L7.4666 17.15L13.6666 13.3417C13.7867 13.2666 13.8857 13.1622 13.9542 13.0383C14.0227 12.9143 14.0586 12.775 14.0583 12.6333V5.35834C14.0583 5.35834 14.0749 5.30001 14.0749 5.26667ZM6.99993 2.47501L8.48327 3.39167L3.82493 6.27501L2.33327 5.35834L6.99993 2.47501ZM6.1666 14.975L1.58327 12.175V6.85001L6.1666 9.68334V14.975ZM6.99993 8.21667L5.40827 7.25834L10.0666 4.36667L11.6666 5.35834L6.99993 8.21667ZM12.4166 12.15L7.83327 15V9.68334L12.4166 6.85001V12.15Z" fill="currentColor"/>
</svg>
