<svg width="100%" height="100%" viewBox="0 0 14 17" fill="none" xmlns="http://www.w3.org/2000/svg">
<path d="M8.93848 6.67287C8.93848 7.10085 8.76924 7.51129 8.4668 7.8141C8.16436 8.11692 7.75415 8.28733 7.32617 8.28786V9.90382C7.96505 9.90402 8.58979 9.7148 9.12109 9.36C9.6524 9.0052 10.0659 8.50073 10.3105 7.91054C10.5552 7.32035 10.6196 6.67095 10.4951 6.04433C10.3706 5.4177 10.063 4.84198 9.61133 4.39015C9.15964 3.93833 8.58362 3.63071 7.95703 3.506C7.33045 3.38129 6.68108 3.44515 6.09082 3.68959C5.50056 3.93403 4.99656 4.34797 4.6416 4.87917C4.28664 5.41036 4.09668 6.03497 4.09668 6.67384V14.7488L5.54785 16.2008L5.70996 16.3638V6.67287C5.70996 6.24468 5.87984 5.83392 6.18262 5.53114C6.48539 5.22837 6.89603 5.05837 7.32422 5.05837C7.75241 5.05837 8.16304 5.22837 8.46582 5.53114C8.7686 5.83392 8.93848 6.24468 8.93848 6.67287Z" fill="white"/>
<path d="M7.32715 0.212902C6.19328 0.210801 5.07863 0.509259 4.09766 1.07789C3.11554 1.64609 2.30017 2.46263 1.7334 3.44557C1.16663 4.42851 0.868889 5.54323 0.869141 6.67787V11.523L2.48438 13.1389V6.67787C2.48517 5.72042 2.76928 4.78474 3.30176 3.98902C3.83424 3.19331 4.59082 2.5733 5.47559 2.20741C6.36036 1.84151 7.3335 1.74616 8.27246 1.93336C9.21143 2.12056 10.0742 2.58194 10.751 3.25917C11.4278 3.93639 11.8886 4.79909 12.0752 5.73817C12.2618 6.67725 12.1653 7.65062 11.7988 8.53517C11.4324 9.41971 10.8126 10.1757 10.0166 10.7077C9.22056 11.2396 8.28459 11.5237 7.32715 11.5239V13.1399C9.04071 13.1399 10.6838 12.4592 11.8955 11.2476C13.1072 10.0359 13.7881 8.39253 13.7881 6.67897C13.7881 4.9654 13.1072 3.32204 11.8955 2.11036C10.6838 0.89869 9.04071 0.217907 7.32715 0.217907V0.212902Z" fill="white"/>
</svg>
