<svg width="100%" height="100%" viewBox="0 0 28 26" fill="none" xmlns="http://www.w3.org/2000/svg">
<path d="M27.937 13.3251C27.9161 12.7396 27.7261 12.1723 27.3902 11.6923C27.0542 11.2124 26.5864 10.8401 26.0435 10.62C25.5005 10.4 24.905 10.3415 24.3296 10.4521C23.7543 10.5626 23.224 10.8375 22.8013 11.2431C20.4361 9.63325 17.6539 8.74374 14.7935 8.68353L16.1441 2.19915L20.5943 3.13372C20.6381 3.54257 20.8023 3.92949 21.0659 4.24505C21.3296 4.56061 21.6802 4.79126 22.0747 4.90716C22.4692 5.02306 22.8893 5.01924 23.2818 4.89642C23.6742 4.77359 24.0218 4.53688 24.2798 4.21673C24.5378 3.89658 24.6953 3.50715 24.732 3.09759C24.7686 2.68803 24.6829 2.27686 24.4859 1.91595C24.2888 1.55503 23.9889 1.26086 23.6245 1.07024C23.2602 0.879627 22.8478 0.800726 22.439 0.844659C22.1151 0.877925 21.8039 0.987807 21.5308 1.16497C21.2576 1.34213 21.0301 1.58204 20.8677 1.86419L15.7681 0.844659C15.6852 0.82609 15.5988 0.824153 15.5152 0.838799C15.4315 0.853446 15.3524 0.884976 15.2808 0.930596C15.2091 0.976216 15.1468 1.03481 15.0982 1.10442C15.0495 1.17404 15.0148 1.25292 14.9966 1.33587V1.34564L13.4624 8.5595C10.5685 8.60723 7.75166 9.49734 5.355 11.12C4.76847 10.5691 3.98649 10.2736 3.18215 10.2988C2.3778 10.3239 1.61692 10.6673 1.06593 11.2538C0.514947 11.8404 0.219516 12.6214 0.244646 13.4257C0.269775 14.2301 0.613197 14.9919 1.19972 15.5429C1.43908 15.77 1.71533 15.9551 2.01613 16.0908C1.99562 16.3954 1.99562 16.7011 2.01613 17.0058C2.01613 21.6618 7.44327 25.4501 14.1353 25.4501C20.8273 25.4501 26.2534 21.6668 26.2534 17.0058C26.2739 16.7011 26.2739 16.3954 26.2534 16.0908C26.7665 15.8357 27.1978 15.4406 27.4956 14.9511C27.7935 14.4616 27.9463 13.898 27.937 13.3251ZM7.14699 15.4081C7.14699 14.9962 7.26869 14.5935 7.49758 14.2509C7.72646 13.9084 8.0525 13.641 8.43312 13.4833C8.81374 13.3257 9.23218 13.2848 9.63625 13.3652C10.0403 13.4455 10.4113 13.6442 10.7027 13.9355C10.994 14.2268 11.1926 14.5978 11.273 15.0019C11.3533 15.4059 11.3115 15.8244 11.1538 16.205C10.9962 16.5856 10.7298 16.9107 10.3872 17.1396C10.0447 17.3685 9.64198 17.4911 9.23 17.4911C8.67779 17.4903 8.14781 17.2703 7.75734 16.8798C7.36687 16.4893 7.14778 15.9603 7.14699 15.4081ZM19.2241 21.124C17.7143 22.1669 15.9225 22.7255 14.0874 22.7255C12.2524 22.7255 10.4606 22.1669 8.9507 21.124C8.8631 21.0161 8.81857 20.8799 8.8257 20.7411C8.83283 20.6024 8.89157 20.4703 8.98976 20.372C9.08796 20.2737 9.21916 20.2152 9.35793 20.2079C9.49669 20.2006 9.63276 20.2455 9.74074 20.3329C11.0271 21.1784 12.5315 21.6323 14.0708 21.6396C15.6102 21.6469 17.1183 21.2072 18.4126 20.374C18.5229 20.2663 18.6715 20.207 18.8257 20.2089C18.9799 20.2108 19.1272 20.2734 19.2349 20.3837C19.3426 20.4941 19.4018 20.6427 19.3999 20.7968C19.398 20.951 19.3354 21.0983 19.2251 21.206L19.2241 21.124ZM18.8521 17.5634C18.5702 17.2999 18.403 16.9362 18.3862 16.5507C18.3695 16.1652 18.5043 15.7879 18.7622 15.5009C19.0202 15.2139 19.38 15.0399 19.7652 15.0156C20.1503 14.9912 20.5297 15.1188 20.8218 15.371C21.1138 15.6233 21.2957 15.9796 21.3277 16.3642C21.3596 16.7488 21.2391 17.1307 20.9927 17.4277C20.7463 17.7246 20.3932 17.9125 20.0093 17.9521C19.6254 17.9916 19.2417 17.8791 18.94 17.6386H18.8394L18.8521 17.5634Z" fill="currentColor"/>
</svg>
