<svg width="100%" height="100%" viewBox="0 0 30 28" fill="none" xmlns="http://www.w3.org/2000/svg">
<path d="M18.3586 4.03242C18.3584 3.36855 18.1611 2.71958 17.7922 2.16768C17.4232 1.61577 16.8987 1.18531 16.2854 0.931347C15.672 0.677388 14.997 0.611355 14.3459 0.740918C13.6948 0.87048 13.0975 1.18995 12.6281 1.65937C12.1587 2.1288 11.8387 2.72702 11.7092 3.37812C11.5796 4.02923 11.6456 4.70421 11.8996 5.31758C12.1536 5.93095 12.584 6.45498 13.1359 6.82393C13.6878 7.19287 14.3363 7.39013 15.0002 7.39033C15.8905 7.38927 16.7447 7.03499 17.3742 6.40547C18.0037 5.77595 18.3575 4.92269 18.3586 4.03242Z" fill="currentColor"/>
<path d="M9.12402 17.4629C9.12296 16.5729 8.76898 15.7197 8.13965 15.0903C7.51032 14.461 6.65759 14.107 5.76758 14.106C5.32179 14.0983 4.87893 14.1795 4.46484 14.3447C4.05075 14.51 3.67344 14.7563 3.35547 15.0689C3.03749 15.3814 2.7847 15.7539 2.6123 16.1651C2.43991 16.5762 2.35156 17.0175 2.35156 17.4634C2.35156 17.9092 2.43991 18.3506 2.6123 18.7617C2.7847 19.1729 3.03749 19.5459 3.35547 19.8584C3.67344 20.1709 4.05075 20.4168 4.46484 20.582C4.87893 20.7473 5.32179 20.8285 5.76758 20.8208C6.65776 20.8198 7.51127 20.466 8.14062 19.8364C8.76998 19.2069 9.12323 18.3531 9.12402 17.4629Z" fill="currentColor"/>
<path d="M24.2354 20.8208C23.5115 20.8239 22.7967 20.9841 22.1406 21.29C21.4846 21.596 20.9032 22.0402 20.4355 22.5928L15.8447 19.5332V14.106H19.2012C19.3114 14.106 19.4206 14.0842 19.5225 14.042C19.6243 13.9998 19.717 13.9379 19.7949 13.8599C19.8728 13.7818 19.9345 13.6893 19.9766 13.5874C20.0187 13.4855 20.0402 13.3764 20.04 13.2661V12.4268C20.0494 11.7594 19.9266 11.0968 19.6777 10.4775C19.4288 9.85824 19.0594 9.2946 18.5908 8.81934C18.1222 8.34407 17.564 7.96706 16.9482 7.70947C16.3325 7.45188 15.6713 7.31885 15.0039 7.31885C14.3365 7.31885 13.6753 7.45188 13.0596 7.70947C12.4438 7.96706 11.8856 8.34407 11.417 8.81934C10.9484 9.2946 10.579 9.85824 10.3301 10.4775C10.0812 11.0968 9.95837 11.7594 9.96777 12.4268V13.2661C9.96764 13.3765 9.98908 13.4854 10.0312 13.5874C10.0734 13.6894 10.1349 13.7823 10.2129 13.8604C10.2909 13.9384 10.3834 14.0003 10.4854 14.0425C10.5873 14.0846 10.6973 14.1061 10.8076 14.106H14.1641V19.5332L9.57324 22.5928C9.10549 22.0404 8.52319 21.5959 7.86719 21.29C7.21118 20.9841 6.49725 20.8241 5.77344 20.8208C4.43208 20.8202 3.14423 21.3489 2.19043 22.292C1.23663 23.2351 0.694176 24.5166 0.679688 25.8579V26.6982C0.679819 26.8086 0.701805 26.9177 0.744141 27.0195C0.786476 27.1214 0.847687 27.2136 0.925781 27.2915C1.00388 27.3694 1.09725 27.4315 1.19922 27.4736C1.30118 27.5157 1.4102 27.5372 1.52051 27.5371H9.9707C10.081 27.5374 10.19 27.5157 10.292 27.4736C10.394 27.4316 10.4864 27.3699 10.5645 27.292C10.6425 27.214 10.7049 27.1214 10.7471 27.0195C10.7892 26.9176 10.8107 26.8085 10.8105 26.6982V25.8579C10.8076 25.2306 10.6861 24.6093 10.4531 24.0269L15.0078 20.9912L19.5635 24.0269C19.33 24.6092 19.2085 25.2305 19.2061 25.8579V26.6982C19.2059 26.8085 19.2274 26.9172 19.2695 27.019C19.3116 27.1209 19.3742 27.2136 19.4521 27.2915C19.5301 27.3694 19.6218 27.4315 19.7236 27.4736C19.8255 27.5157 19.9347 27.5372 20.0449 27.5371H28.4961C28.6064 27.5372 28.7155 27.5157 28.8174 27.4736C28.9193 27.4315 29.0118 27.3694 29.0898 27.2915C29.1679 27.2136 29.2302 27.1214 29.2725 27.0195C29.3147 26.9177 29.3359 26.8085 29.3359 26.6982V25.8579C29.3217 24.5153 28.7776 23.2329 27.8223 22.2896C26.8669 21.3462 25.578 20.8181 24.2354 20.8208Z" fill="currentColor"/>
<path d="M27.6504 17.4629C27.6365 16.567 27.2707 15.7127 26.6318 15.0845C25.993 14.4563 25.1323 14.1048 24.2363 14.106C23.3459 14.106 22.492 14.4597 21.8623 15.0894C21.2327 15.719 20.8789 16.5729 20.8789 17.4634C20.8789 18.3538 21.2327 19.2078 21.8623 19.8374C22.492 20.4671 23.3459 20.8208 24.2363 20.8208C25.1325 20.822 25.9929 20.4707 26.6318 19.8423C27.2707 19.2139 27.6367 18.3589 27.6504 17.4629Z" fill="currentColor"/>
</svg>
