<svg width="100%" height="100%" viewBox="0 0 31 30" fill="none" xmlns="http://www.w3.org/2000/svg">
<path d="M4.39575 14.6666C4.39575 16.8422 5.04089 18.9689 6.24959 20.7779C7.45828 22.5868 9.17625 23.9967 11.1862 24.8293C13.1962 25.6619 15.408 25.8797 17.5417 25.4552C19.6755 25.0308 21.6355 23.9832 23.1739 22.4448C24.7123 20.9064 25.76 18.9464 26.1844 16.8126C26.6088 14.6788 26.391 12.4671 25.5584 10.4571C24.7259 8.44711 23.316 6.72914 21.507 5.52045C19.6981 4.31175 17.5713 3.66661 15.3958 3.66661C12.3206 3.67818 9.36894 4.87811 7.15797 7.0155L4.39575 9.77772" stroke="currentColor" stroke-width="2.44444" stroke-linecap="round" stroke-linejoin="round"/>
<path d="M4.39575 3.66661V9.77772H10.5069" stroke="currentColor" stroke-width="2.44444" stroke-linecap="round" stroke-linejoin="round"/>
</svg>
