<svg width="100%" height="100%" viewBox="0 0 20 12" fill="none" xmlns="http://www.w3.org/2000/svg">
<path d="M5.00004 5.16669C4.83522 5.16669 4.67411 5.21556 4.53707 5.30713C4.40002 5.3987 4.29321 5.52885 4.23014 5.68112C4.16707 5.83339 4.15056 6.00094 4.18272 6.1626C4.21487 6.32425 4.29424 6.47273 4.41078 6.58928C4.52733 6.70582 4.67581 6.78519 4.83747 6.81734C4.99912 6.8495 5.16667 6.83299 5.31894 6.76992C5.47121 6.70685 5.60136 6.60004 5.69293 6.463C5.7845 6.32595 5.83337 6.16484 5.83337 6.00002C5.83337 5.77901 5.74558 5.56705 5.5893 5.41076C5.43302 5.25448 5.22105 5.16669 5.00004 5.16669ZM15 5.16669C14.8352 5.16669 14.6741 5.21556 14.5371 5.30713C14.4 5.3987 14.2932 5.52885 14.2301 5.68112C14.1671 5.83339 14.1506 6.00094 14.1827 6.1626C14.2149 6.32425 14.2942 6.47273 14.4108 6.58928C14.5273 6.70582 14.6758 6.78519 14.8375 6.81734C14.9991 6.8495 15.1667 6.83299 15.3189 6.76992C15.4712 6.70685 15.6014 6.60004 15.6929 6.463C15.7845 6.32595 15.8334 6.16484 15.8334 6.00002C15.8334 5.77901 15.7456 5.56705 15.5893 5.41076C15.433 5.25448 15.2211 5.16669 15 5.16669ZM16.6667 0.166687H3.33337C2.67033 0.166687 2.03445 0.430079 1.56561 0.89892C1.09677 1.36776 0.833374 2.00365 0.833374 2.66669V9.33335C0.833374 9.9964 1.09677 10.6323 1.56561 11.1011C2.03445 11.57 2.67033 11.8334 3.33337 11.8334H16.6667C17.3297 11.8334 17.9656 11.57 18.4345 11.1011C18.9033 10.6323 19.1667 9.9964 19.1667 9.33335V2.66669C19.1667 2.00365 18.9033 1.36776 18.4345 0.89892C17.9656 0.430079 17.3297 0.166687 16.6667 0.166687ZM17.5 9.33335C17.5 9.55437 17.4122 9.76633 17.256 9.92261C17.0997 10.0789 16.8877 10.1667 16.6667 10.1667H3.33337C3.11236 10.1667 2.9004 10.0789 2.74412 9.92261C2.58784 9.76633 2.50004 9.55437 2.50004 9.33335V2.66669C2.50004 2.44567 2.58784 2.23371 2.74412 2.07743C2.9004 1.92115 3.11236 1.83335 3.33337 1.83335H16.6667C16.8877 1.83335 17.0997 1.92115 17.256 2.07743C17.4122 2.23371 17.5 2.44567 17.5 2.66669V9.33335ZM10 3.50002C9.50559 3.50002 9.02224 3.64664 8.61111 3.92135C8.19999 4.19605 7.87956 4.5865 7.69034 5.04331C7.50112 5.50013 7.45161 6.00279 7.54808 6.48775C7.64454 6.9727 7.88264 7.41816 8.23227 7.76779C8.5819 8.11742 9.02736 8.35552 9.51231 8.45198C9.99727 8.54845 10.4999 8.49894 10.9567 8.30972C11.4136 8.1205 11.804 7.80007 12.0787 7.38895C12.3534 6.97782 12.5 6.49447 12.5 6.00002C12.5 5.33698 12.2366 4.70109 11.7678 4.23225C11.299 3.76341 10.6631 3.50002 10 3.50002ZM10 6.83335C9.83522 6.83335 9.67411 6.78448 9.53706 6.69291C9.40002 6.60134 9.29321 6.4712 9.23014 6.31892C9.16707 6.16665 9.15056 5.9991 9.18272 5.83744C9.21487 5.67579 9.29424 5.52731 9.41078 5.41076C9.52733 5.29422 9.67581 5.21485 9.83746 5.1827C9.99911 5.15054 10.1667 5.16705 10.3189 5.23012C10.4712 5.29319 10.6014 5.4 10.6929 5.53704C10.7845 5.67409 10.8334 5.8352 10.8334 6.00002C10.8334 6.22103 10.7456 6.433 10.5893 6.58928C10.433 6.74556 10.2211 6.83335 10 6.83335Z" fill="currentColor"/>
</svg>
