<svg width="100%" height="100%" viewBox="0 0 20 20" fill="none" xmlns="http://www.w3.org/2000/svg">
<path d="M19.0081 19.814C18.8809 19.8141 18.7549 19.789 18.6375 19.7401C18.52 19.6911 18.4135 19.6194 18.324 19.529L14.802 15.981C13.0748 17.3659 10.883 18.0369 8.67652 17.8563C6.47006 17.6756 4.4164 16.657 2.9375 15.0096C1.45861 13.3621 0.666799 11.211 0.724368 8.9979C0.781938 6.7848 1.68453 4.67777 3.24707 3.10947C4.80962 1.54117 6.91335 0.630672 9.12622 0.564976C11.3391 0.499279 13.4932 1.28336 15.146 2.7562C16.7988 4.22904 17.8249 6.27884 18.0137 8.48462C18.2024 10.6904 17.5395 12.8847 16.1609 14.617L19.6909 18.172C19.8251 18.3069 19.9164 18.4785 19.9531 18.6652C19.9898 18.8518 19.9703 19.0452 19.8972 19.2208C19.8242 19.3965 19.7007 19.5466 19.5425 19.6521C19.3842 19.7577 19.1983 19.814 19.0081 19.814ZM9.37696 2.47898C8.04375 2.47918 6.7405 2.87471 5.63208 3.61554C4.52366 4.35637 3.65996 5.40922 3.14991 6.641C2.63985 7.87277 2.50639 9.22815 2.7666 10.5357C3.02682 11.8433 3.66903 13.0443 4.61182 13.9869C5.55461 14.9296 6.75564 15.5715 8.06324 15.8315C9.37083 16.0916 10.7263 15.958 11.958 15.4478C13.1897 14.9375 14.2422 14.0735 14.9829 12.965C15.7236 11.8564 16.1189 10.5532 16.1189 9.21997C16.1168 7.43263 15.4058 5.71911 14.1418 4.45536C12.8779 3.1916 11.1643 2.48083 9.37696 2.47898Z" fill="currentColor"/>
</svg>
