<svg width="100%" height="100%" viewBox="0 0 11 18" fill="none" xmlns="http://www.w3.org/2000/svg">
<path d="M0.408997 8.39999L8.564 0.893005C8.71921 0.750427 8.9126 0.656135 9.12051 0.621658C9.32843 0.58718 9.54188 0.614004 9.7348 0.698852C9.92773 0.7837 10.0918 0.922895 10.2069 1.09944C10.322 1.27599 10.3832 1.48223 10.383 1.69299V16.7C10.3832 16.9108 10.322 17.117 10.2069 17.2935C10.0918 17.4701 9.92773 17.6093 9.7348 17.6942C9.54188 17.779 9.32843 17.8058 9.12051 17.7713C8.9126 17.7369 8.71921 17.6426 8.564 17.5L0.408997 9.993C0.299176 9.89141 0.21154 9.76822 0.151611 9.63115C0.0916823 9.49408 0.0607605 9.3461 0.0607605 9.1965C0.0607605 9.0469 0.0916823 8.89892 0.151611 8.76186C0.21154 8.62479 0.299176 8.50158 0.408997 8.39999Z" fill="currentColor"/>
</svg>
