<svg width="58" height="10" viewBox="0 0 58 10" fill="none" xmlns="http://www.w3.org/2000/svg">
<g id="Group 702">
<path id="Ellipse 68" d="M5.25088 9.01299C7.65332 9.01299 9.60088 7.06543 9.60088 4.66299C9.60088 2.26055 7.65332 0.312988 5.25088 0.312988C2.84844 0.312988 0.900879 2.26055 0.900879 4.66299C0.900879 7.06543 2.84844 9.01299 5.25088 9.01299Z" fill="#00FCE0"/>
<path id="Ellipse 69" opacity="0.64" d="M28.9721 9.01299C31.3745 9.01299 33.3221 7.06543 33.3221 4.66299C33.3221 2.26055 31.3745 0.312988 28.9721 0.312988C26.5696 0.312988 24.6221 2.26055 24.6221 4.66299C24.6221 7.06543 26.5696 9.01299 28.9721 9.01299Z" fill="white"/>
<path id="Ellipse 70" opacity="0.64" d="M52.6928 9.01299C55.0952 9.01299 57.0428 7.06543 57.0428 4.66299C57.0428 2.26055 55.0952 0.312988 52.6928 0.312988C50.2903 0.312988 48.3428 2.26055 48.3428 4.66299C48.3428 7.06543 50.2903 9.01299 52.6928 9.01299Z" fill="white"/>
</g>
</svg>
