<svg width="100%" height="100%" viewBox="0 0 28 28" fill="none" xmlns="http://www.w3.org/2000/svg">
<path d="M13.9867 0.666687C6.62675 0.666687 0.666748 6.64002 0.666748 14C0.666748 21.36 6.62675 27.3334 13.9867 27.3334C21.3601 27.3334 27.3334 21.36 27.3334 14C27.3334 6.64002 21.3601 0.666687 13.9867 0.666687ZM14.0001 24.6667C8.10675 24.6667 3.33341 19.8934 3.33341 14C3.33341 8.10669 8.10675 3.33335 14.0001 3.33335C19.8934 3.33335 24.6667 8.10669 24.6667 14C24.6667 19.8934 19.8934 24.6667 14.0001 24.6667ZM18.6667 12.6667C19.7734 12.6667 20.6667 11.7734 20.6667 10.6667C20.6667 9.56002 19.7734 8.66669 18.6667 8.66669C17.5601 8.66669 16.6667 9.56002 16.6667 10.6667C16.6667 11.7734 17.5601 12.6667 18.6667 12.6667ZM9.33342 12.6667C10.4401 12.6667 11.3334 11.7734 11.3334 10.6667C11.3334 9.56002 10.4401 8.66669 9.33342 8.66669C8.22675 8.66669 7.33342 9.56002 7.33342 10.6667C7.33342 11.7734 8.22675 12.6667 9.33342 12.6667ZM14.0001 21.3334C17.1067 21.3334 19.7467 19.3867 20.8134 16.6667H7.18675C8.25341 19.3867 10.8934 21.3334 14.0001 21.3334Z" fill="currentColor"/>
</svg>
