<svg width="100%" height="100%" viewBox="0 0 75 77" fill="none" xmlns="http://www.w3.org/2000/svg">
<g id="Group 694">
<g id="Group 693">
<path id="Path 179" d="M28.5768 54.7471L0.00177012 62.376V56.854C0.00143592 54.4043 0.810216 52.0233 2.30246 50.0806C3.7947 48.1379 5.88686 46.7422 8.25378 46.1108L14.9538 44.3218L15.7298 44.915L28.5768 54.7471Z" fill="url(#paint0_linear_317_1846)"/>
<path id="Path 180" d="M36.9608 63.3521C36.7866 63.991 36.4516 64.5747 35.9877 65.0474C35.5237 65.52 34.9464 65.8657 34.3108 66.0518L30.6108 67.2749L1.61078 76.1011C1.42109 76.1517 1.22227 76.1581 1.02976 76.1196C0.837236 76.0811 0.656158 75.9986 0.500519 75.8789C0.344881 75.7592 0.218861 75.6054 0.132203 75.4292C0.0455448 75.253 0.000568679 75.0591 0.00076357 74.8628V62.373L28.5758 54.7441L35.7758 60.2441C36.246 60.5979 36.6068 61.0771 36.8165 61.627C37.0261 62.1768 37.0762 62.775 36.9608 63.3521Z" fill="url(#paint1_linear_317_1846)"/>
<path id="Path 181" d="M74.0998 1.968V14.362L45.4298 22.0212L38.8298 16.9714C38.8128 16.9574 38.7958 16.9454 38.7778 16.9324C38.2128 16.5803 37.7626 16.0709 37.4823 15.467C37.2021 14.8632 37.1039 14.1912 37.1998 13.5325C37.3396 12.8901 37.649 12.2966 38.0956 11.8142C38.5423 11.3318 39.11 10.978 39.7398 10.7893L43.7558 9.56615L72.4888 0.725327C72.6789 0.674628 72.8782 0.66849 73.0711 0.70726C73.2641 0.746031 73.4455 0.828741 73.6013 0.94896C73.7571 1.06918 73.8831 1.22334 73.9696 1.40013C74.056 1.57693 74.1006 1.77121 74.0998 1.968Z" fill="url(#paint2_linear_317_1846)"/>
<path id="Path 182" d="M74.0998 14.3618V19.9858C74.1001 22.4356 73.2914 24.8169 71.7992 26.7598C70.3069 28.7026 68.2148 30.0985 65.8478 30.73L59.1478 32.519L45.4288 22.019L74.0998 14.3618Z" fill="url(#paint3_linear_317_1846)"/>
<path id="Path 183" d="M65.4818 59.0449L43.8338 64.8242L34.6398 67.2788C37.6828 66.4628 40.0768 62.322 36.5478 59.249C36.5418 59.243 36.5418 59.2432 36.5358 59.2432L16.4968 43.9092L3.47876 33.9458C2.16309 32.939 1.15576 31.5842 0.570928 30.0342C-0.0139062 28.4841 -0.152837 26.8012 0.169866 25.1763C0.492569 23.5513 1.26399 22.0488 2.39673 20.8398C3.52948 19.6309 4.97822 18.7636 6.57877 18.3359L10.8038 17.207L65.4818 59.0449Z" fill="url(#paint4_linear_317_1846)"/>
<path id="Path 184" d="M67.5168 58.5L65.4818 59.0459L10.8068 17.208L30.2638 12.0078L39.3988 9.5708C36.2898 10.4418 34.0218 14.8588 38.0178 17.9438C38.0248 17.9498 38.0368 17.9559 38.0418 17.9619L57.6018 32.9302L70.6138 42.8862C71.931 43.8923 72.9398 45.2474 73.5258 46.7979C74.1118 48.3483 74.2515 50.0319 73.929 51.6577C73.6065 53.2835 72.8348 54.7867 71.7014 55.9961C70.568 57.2055 69.1183 58.0728 67.5168 58.5Z" fill="url(#paint5_linear_317_1846)"/>
<path id="Path 185" d="M65.4818 59.0449L43.8338 64.8242L34.6398 67.2788C37.6828 66.4628 40.0768 62.322 36.5478 59.249C36.5418 59.243 36.5418 59.2432 36.5358 59.2432L16.4968 43.9092L3.47876 33.9458C2.16309 32.939 1.15576 31.5842 0.570928 30.0342C-0.0139062 28.4841 -0.152837 26.8012 0.169866 25.1763C0.492569 23.5513 1.26399 22.0488 2.39673 20.8398C3.52948 19.6309 4.97822 18.7636 6.57877 18.3359L10.8038 17.207L65.4818 59.0449Z" fill="url(#paint6_linear_317_1846)"/>
<path id="Path 186" d="M67.5168 58.5L65.4818 59.0459L10.8068 17.208L30.2638 12.0078L39.3988 9.5708C36.2898 10.4418 34.0218 14.8588 38.0178 17.9438C38.0248 17.9498 38.0368 17.9559 38.0418 17.9619L57.6018 32.9302L70.6138 42.8862C71.931 43.8923 72.9398 45.2474 73.5258 46.7979C74.1118 48.3483 74.2515 50.0319 73.929 51.6577C73.6065 53.2835 72.8348 54.7867 71.7014 55.9961C70.568 57.2055 69.1183 58.0728 67.5168 58.5Z" fill="white"/>
</g>
</g>
<defs>
<linearGradient id="paint0_linear_317_1846" x1="3.7451" y1="59.704" x2="16.2734" y2="39.1632" gradientUnits="userSpaceOnUse">
<stop stop-color="white"/>
<stop offset="0.032" stop-color="white" stop-opacity="0.957"/>
<stop offset="0.135" stop-color="white" stop-opacity="0.835"/>
<stop offset="0.247" stop-color="white" stop-opacity="0.733"/>
<stop offset="0.372" stop-color="white" stop-opacity="0.655"/>
<stop offset="0.514" stop-color="white" stop-opacity="0.6"/>
<stop offset="0.69" stop-color="white" stop-opacity="0.569"/>
<stop offset="1" stop-color="white" stop-opacity="0.561"/>
</linearGradient>
<linearGradient id="paint1_linear_317_1846" x1="3.70283" y1="70.2165" x2="29.7953" y2="35.4895" gradientUnits="userSpaceOnUse">
<stop stop-color="white"/>
<stop offset="0.032" stop-color="white" stop-opacity="0.957"/>
<stop offset="0.135" stop-color="white" stop-opacity="0.835"/>
<stop offset="0.247" stop-color="white" stop-opacity="0.733"/>
<stop offset="0.372" stop-color="white" stop-opacity="0.655"/>
<stop offset="0.514" stop-color="white" stop-opacity="0.6"/>
<stop offset="0.69" stop-color="white" stop-opacity="0.569"/>
<stop offset="1" stop-color="white" stop-opacity="0.561"/>
</linearGradient>
<linearGradient id="paint2_linear_317_1846" x1="70.7017" y1="12.0772" x2="35.4872" y2="5.39491" gradientUnits="userSpaceOnUse">
<stop stop-color="white"/>
<stop offset="0.144" stop-color="white" stop-opacity="0.902"/>
<stop offset="0.398" stop-color="white" stop-opacity="0.757"/>
<stop offset="0.634" stop-color="white" stop-opacity="0.647"/>
<stop offset="0.842" stop-color="white" stop-opacity="0.584"/>
<stop offset="1" stop-color="white" stop-opacity="0.561"/>
</linearGradient>
<linearGradient id="paint3_linear_317_1846" x1="74.9026" y1="26.0551" x2="41.3128" y2="-0.394932" gradientUnits="userSpaceOnUse">
<stop stop-color="white"/>
<stop offset="0.032" stop-color="white" stop-opacity="0.957"/>
<stop offset="0.135" stop-color="white" stop-opacity="0.835"/>
<stop offset="0.247" stop-color="white" stop-opacity="0.733"/>
<stop offset="0.372" stop-color="white" stop-opacity="0.655"/>
<stop offset="0.514" stop-color="white" stop-opacity="0.6"/>
<stop offset="0.69" stop-color="white" stop-opacity="0.569"/>
<stop offset="1" stop-color="white" stop-opacity="0.561"/>
</linearGradient>
<linearGradient id="paint4_linear_317_1846" x1="0" y1="42.2429" x2="65.4818" y2="42.2429" gradientUnits="userSpaceOnUse">
<stop stop-color="white"/>
<stop offset="0.032" stop-color="white" stop-opacity="0.957"/>
<stop offset="0.135" stop-color="white" stop-opacity="0.835"/>
<stop offset="0.247" stop-color="white" stop-opacity="0.733"/>
<stop offset="0.372" stop-color="white" stop-opacity="0.655"/>
<stop offset="0.514" stop-color="white" stop-opacity="0.6"/>
<stop offset="0.69" stop-color="white" stop-opacity="0.569"/>
<stop offset="1" stop-color="white" stop-opacity="0.561"/>
</linearGradient>
<linearGradient id="paint5_linear_317_1846" x1="10.8068" y1="34.3083" x2="74.0984" y2="34.3083" gradientUnits="userSpaceOnUse">
<stop stop-color="white"/>
<stop offset="0.032" stop-color="white" stop-opacity="0.957"/>
<stop offset="0.135" stop-color="white" stop-opacity="0.835"/>
<stop offset="0.247" stop-color="white" stop-opacity="0.733"/>
<stop offset="0.372" stop-color="white" stop-opacity="0.655"/>
<stop offset="0.514" stop-color="white" stop-opacity="0.6"/>
<stop offset="0.69" stop-color="white" stop-opacity="0.569"/>
<stop offset="1" stop-color="white" stop-opacity="0.561"/>
</linearGradient>
<linearGradient id="paint6_linear_317_1846" x1="30.3181" y1="48.9025" x2="39.8687" y2="4.00086" gradientUnits="userSpaceOnUse">
<stop stop-color="white"/>
<stop offset="0.002" stop-color="white" stop-opacity="0.996"/>
<stop offset="0.091" stop-color="white" stop-opacity="0.788"/>
<stop offset="0.182" stop-color="white" stop-opacity="0.604"/>
<stop offset="0.277" stop-color="white" stop-opacity="0.451"/>
<stop offset="0.373" stop-color="white" stop-opacity="0.322"/>
<stop offset="0.472" stop-color="white" stop-opacity="0.224"/>
<stop offset="0.575" stop-color="white" stop-opacity="0.153"/>
<stop offset="0.684" stop-color="white" stop-opacity="0.114"/>
<stop offset="0.811" stop-color="white" stop-opacity="0.102"/>
</linearGradient>
</defs>
</svg>
