<svg width="100%" height="100%" viewBox="0 0 26 26" fill="none" xmlns="http://www.w3.org/2000/svg">
<path d="M22.2949 20.9801C23.8624 19.0578 24.8211 16.7116 25.0479 14.2416C25.2747 11.7716 24.7595 9.29014 23.5684 7.1145C22.3772 4.93887 20.5639 3.16794 18.3609 2.02832C16.1578 0.888703 13.6652 0.432147 11.2012 0.717041C8.03736 1.0816 5.13266 2.64243 3.08254 5.07959C1.03242 7.51675 -0.008242 10.6457 0.174337 13.8252C0.356916 17.0047 1.74885 19.9941 4.06447 22.1805C6.3801 24.367 9.44416 25.5851 12.6289 25.5851C14.8775 25.5884 17.0846 24.9774 19.0113 23.8181L16.0449 20.8511C15.8465 20.6561 15.6007 20.5166 15.3316 20.4464C15.0624 20.3762 14.7796 20.3778 14.5113 20.451C12.8326 20.8815 11.0569 20.7237 9.48049 20.0039C7.90409 19.2841 6.62187 18.0459 5.84768 16.4955C5.07348 14.9451 4.85433 13.1762 5.22609 11.4836C5.59786 9.79105 6.53847 8.27696 7.89113 7.19373C9.24379 6.11049 10.9268 5.52353 12.6597 5.53064C14.3926 5.53775 16.0708 6.13849 17.4146 7.23279C18.7583 8.32709 19.6861 9.84884 20.044 11.5444C20.4018 13.24 20.1678 15.007 19.3809 16.551C19.2328 16.8433 19.1811 17.175 19.2334 17.4984C19.2857 17.8218 19.4393 18.1204 19.6719 18.3511L22.2949 20.9801Z" fill="white"/>
<path d="M12.6282 8.64404H12.6272C10.1601 8.64404 8.16016 10.644 8.16016 13.111V13.112C8.16016 15.5791 10.1601 17.579 12.6272 17.579H12.6282C15.0952 17.579 17.0952 15.5791 17.0952 13.112V13.111C17.0952 10.644 15.0952 8.64404 12.6282 8.64404Z" fill="white"/>
</svg>
