<svg width="100%" height="100%" viewBox="0 0 22 22" fill="none" xmlns="http://www.w3.org/2000/svg">
<path d="M11.333 3.00015L9.63345 8.16726C9.54647 8.43172 9.3986 8.67205 9.20175 8.8689C9.0049 9.06575 8.76457 9.21362 8.50012 9.3006L3.33301 11.0002L8.50012 12.6997C8.76457 12.7867 9.0049 12.9346 9.20175 13.1314C9.3986 13.3283 9.54647 13.5686 9.63345 13.833L11.333 19.0002L13.0326 13.833C13.1195 13.5686 13.2674 13.3283 13.4643 13.1314C13.6611 12.9346 13.9014 12.7867 14.1659 12.6997L19.333 11.0002L14.1659 9.3006C13.9014 9.21362 13.6611 9.06575 13.4643 8.8689C13.2674 8.67205 13.1195 8.43172 13.0326 8.16726L11.333 3.00015Z" stroke="currentColor" stroke-width="1.77778" stroke-linecap="round" stroke-linejoin="round"/>
<path d="M5.11035 3.00015V6.55571" stroke="currentColor" stroke-width="1.77778" stroke-linecap="round" stroke-linejoin="round"/>
<path d="M17.5557 15.4445V19" stroke="currentColor" stroke-width="1.77778" stroke-linecap="round" stroke-linejoin="round"/>
<path d="M3.33301 4.77783H6.88856" stroke="currentColor" stroke-width="1.77778" stroke-linecap="round" stroke-linejoin="round"/>
<path d="M15.7769 17.2225H19.3324" stroke="currentColor" stroke-width="1.77778" stroke-linecap="round" stroke-linejoin="round"/>
</svg>
