<svg width="100%" height="100%" viewBox="0 0 16 16" fill="none" xmlns="http://www.w3.org/2000/svg">
<g clip-path="url(#clip0_1_5262)">
<path opacity="0.4" d="M9.73223 1.18311L11.4021 4.53882C11.5251 4.78194 11.7599 4.95078 12.0307 4.9883L15.7815 5.53457C16.0006 5.56534 16.1994 5.6809 16.3336 5.85724C16.4664 6.03133 16.5234 6.25194 16.4912 6.4688C16.4649 6.64889 16.3802 6.81547 16.2504 6.94304L13.5325 9.57763C13.3337 9.76147 13.2437 10.0339 13.2917 10.3002L13.9609 14.0041C14.0321 14.4514 13.7358 14.8731 13.2917 14.9579C13.1087 14.9871 12.9212 14.9564 12.7561 14.8723L9.41041 13.1292C9.1621 13.0039 8.86879 13.0039 8.62049 13.1292L5.27477 14.8723C4.86368 15.0907 4.35432 14.9421 4.12552 14.5369C4.04075 14.3756 4.01075 14.1917 4.0385 14.0124L4.70765 10.3077C4.75566 10.0421 4.66489 9.76823 4.46685 9.58438L1.74901 6.95129C1.42569 6.63913 1.41594 6.12512 1.72726 5.80171C1.73401 5.79496 1.74151 5.78745 1.74901 5.77995C1.87804 5.64863 2.04758 5.56534 2.23062 5.54358L5.98142 4.99655C6.25148 4.95828 6.48628 4.79095 6.61006 4.54632L8.2199 1.18311C8.36318 0.894964 8.66025 0.715623 8.98281 0.723127H9.08334C9.36315 0.756894 9.60695 0.930232 9.73223 1.18311Z" fill="#FF0000"/>
<path d="M8.99401 13.0357C8.84873 13.0402 8.7072 13.0793 8.5799 13.1491L5.25054 14.8883C4.84317 15.0827 4.35567 14.9318 4.12727 14.5422C4.04266 14.3831 4.01195 14.2007 4.04041 14.022L4.70538 10.3253C4.75031 10.0565 4.66045 9.78332 4.465 9.59416L1.74595 6.96176C1.4232 6.64575 1.41721 6.12707 1.73322 5.80356C1.73772 5.79905 1.74146 5.7953 1.74595 5.79155C1.87475 5.66394 2.041 5.57987 2.21997 5.5536L5.97392 5.00115C6.24575 4.96662 6.48164 4.79698 6.60145 4.55078L8.23318 1.14524C8.38819 0.870514 8.68549 0.70688 9 0.724144C8.99401 0.947077 8.99401 12.8841 8.99401 13.0357Z" fill="#FF0000"/>
</g>
<defs>
<clipPath id="clip0_1_5262">
<rect width="16" height="16" fill="white"/>
</clipPath>
</defs>
</svg>
