<svg width="100%" height="100%" viewBox="0 0 24 20" fill="none" xmlns="http://www.w3.org/2000/svg">
<path d="M13.0972 15.5883L10.3296 18.1795C10.2077 18.3179 10.0689 18.4409 9.91675 18.5456C9.84893 18.5881 9.77335 18.6167 9.69421 18.6297C9.61506 18.6426 9.53403 18.6397 9.45605 18.621C9.39517 18.573 9.34683 18.5115 9.31452 18.4413C9.28221 18.3711 9.26682 18.2943 9.27011 18.2172C9.37006 17.0536 9.50006 15.8918 9.621 14.7301C9.66927 14.4588 9.69639 14.1842 9.70201 13.9087C9.69897 13.6561 9.75811 13.4066 9.87429 13.1818C9.99047 12.9571 10.1602 12.7639 10.3687 12.619C13.4384 9.86109 16.4976 7.09124 19.546 4.30949C19.6322 4.24858 19.7058 4.17221 19.7637 4.0843C19.8026 4.00196 19.8219 3.85315 19.7739 3.80156C19.7342 3.7644 19.6866 3.73628 19.6348 3.71915C19.583 3.70202 19.528 3.69628 19.4738 3.70235C19.3492 3.74384 19.2331 3.80663 19.1302 3.88788C15.119 6.40706 11.1102 8.92855 7.10425 11.4524C6.98041 11.5443 6.83498 11.6031 6.68162 11.6229C6.52825 11.6427 6.37215 11.6229 6.22873 11.5655C4.62056 11.0069 3.00466 10.4742 1.3875 9.94047C1.0017 9.81448 0.704937 9.62497 0.696941 9.18946C0.688945 8.75394 0.974465 8.55751 1.35627 8.41465C8.33996 5.80685 15.3214 3.19442 22.3004 0.577355C22.3754 0.549577 22.4495 0.522807 22.5235 0.494037C22.7024 0.405377 22.904 0.371592 23.1023 0.397035C23.3006 0.422478 23.4863 0.505979 23.6366 0.636877C23.785 0.770129 23.8914 0.943036 23.9431 1.13485C23.9949 1.32666 23.9898 1.52922 23.9285 1.71822C23.7699 2.47616 23.6103 3.23344 23.4497 3.99006C22.4276 8.82934 21.4053 13.6683 20.3825 18.5069C20.3655 18.7497 20.2788 18.9826 20.1326 19.1781C19.9865 19.3735 19.7869 19.5233 19.5577 19.6097C19.3285 19.6961 19.0793 19.7156 18.8393 19.6657C18.5993 19.6158 18.3785 19.4988 18.2034 19.3283C16.5113 18.0942 14.8203 16.8522 13.0972 15.5883Z" fill="currentColor"/>
</svg>
