<svg width="100%" height="100%" viewBox="0 0 21 23" fill="none" xmlns="http://www.w3.org/2000/svg">
<path d="M18.687 0.799822H2C1.53376 0.797782 1.08495 0.97658 0.74707 1.29787C0.409195 1.61916 0.208423 2.05868 0.187012 2.52443V21.2598C0.187012 22.0548 0.447812 22.9844 1.13281 22.9844C1.70981 22.9844 2.64121 22.1087 2.74121 22.0117L3.50977 21.2861C3.63959 21.1641 3.81106 21.0957 3.98926 21.0957C4.16745 21.0957 4.33942 21.1641 4.46924 21.2861L5.21777 22.0088C5.44513 22.3111 5.73971 22.5567 6.07812 22.7256C6.41654 22.8945 6.78973 22.9824 7.16797 22.9824C7.5462 22.9824 7.91939 22.8945 8.25781 22.7256C8.59623 22.5567 8.89081 22.3111 9.11816 22.0088L9.86621 21.2861C9.99587 21.165 10.1668 21.0977 10.3442 21.0977C10.5217 21.0977 10.6921 21.165 10.8218 21.2861L11.5698 22.0088C11.7971 22.3113 12.0917 22.5566 12.4302 22.7256C12.7686 22.8946 13.1417 22.9834 13.52 22.9834C13.8983 22.9834 14.2714 22.8946 14.6099 22.7256C14.9483 22.5566 15.243 22.3113 15.4702 22.0088L16.2178 21.2861C16.3474 21.165 16.5183 21.0977 16.6958 21.0977C16.8733 21.0977 17.0442 21.165 17.1738 21.2861L17.9219 22.0088C18.2989 22.3728 18.9838 22.9844 19.4658 22.9844C20.0288 22.9844 20.3218 22.3718 20.3218 21.2598V2.52443C20.3317 2.30286 20.2972 2.08087 20.2197 1.87306C20.1422 1.66526 20.0237 1.4754 19.8711 1.31447C19.7185 1.15354 19.535 1.02495 19.3315 0.936541C19.1281 0.848135 18.9088 0.801615 18.687 0.799822ZM5.40283 5.50588C5.66981 5.22583 5.99318 5.0062 6.35156 4.86037C6.70994 4.71453 7.09527 4.64611 7.48193 4.66017C7.84557 4.64175 8.20894 4.6982 8.5498 4.82619C8.89067 4.95418 9.20173 5.15111 9.46338 5.40431C9.72502 5.65752 9.93171 5.96138 10.0708 6.29787C10.2099 6.63436 10.2785 6.99633 10.272 7.36037C10.2806 8.04389 10.0303 8.70498 9.57178 9.21193C9.30331 9.49252 8.97857 9.71356 8.61865 9.85939C8.25874 10.0052 7.87195 10.0722 7.48389 10.0576C7.12111 10.0753 6.75868 10.0181 6.41895 9.88967C6.07921 9.76122 5.76964 9.56478 5.50928 9.31154C5.24891 9.0583 5.0431 8.75403 4.90527 8.41799C4.76745 8.08194 4.70045 7.72155 4.70801 7.35842C4.69924 6.67662 4.94602 6.01569 5.3999 5.50685L5.40283 5.50588ZM6.91504 15.3369H5.13379L13.8408 5.68166L15.6089 5.63674L6.91504 15.3369ZM15.29 15.5528C15.0265 15.8277 14.7079 16.0445 14.355 16.1875C14.002 16.3306 13.6228 16.3967 13.2422 16.3828C12.8865 16.3999 12.5309 16.3438 12.1978 16.2178C11.8647 16.0918 11.5611 15.8986 11.3057 15.6504C11.0503 15.4022 10.8484 15.1048 10.7129 14.7754C10.5774 14.4461 10.5112 14.0924 10.5181 13.7363C10.5093 13.3798 10.5742 13.0246 10.709 12.6944C10.8438 12.3641 11.0455 12.066 11.3013 11.8174C11.5571 11.5688 11.8618 11.3753 12.1958 11.25C12.5298 11.1247 12.886 11.0699 13.2422 11.0889C13.5988 11.0709 13.9553 11.1264 14.2896 11.252C14.6238 11.3775 14.9285 11.5701 15.1851 11.8184C15.4416 12.0667 15.6444 12.3654 15.7808 12.6953C15.9172 13.0253 15.9844 13.3803 15.978 13.7373C15.9858 14.408 15.7401 15.0554 15.29 15.5528Z" fill="#00FCE0"/>
</svg>
