<svg width="100%" height="100%" id="Layer_1" data-name="Layer 1" xmlns="http://www.w3.org/2000/svg" viewBox="0 0 1000 1000"><defs><style>.cls-1{fill:#0d88ca;}.cls-2{fill:#fff;fill-rule:evenodd;}</style></defs><circle class="cls-1" cx="500" cy="500" r="372.99"/><path class="cls-2" d="M396.09,373.45H605.24a47,47,0,0,1,22.64,5.33,34.13,34.13,0,0,1,17.32,16,1.3,1.3,0,0,0,1.33,1.33,46,46,0,0,1,6.66,24c0,8-1.33,16-6.66,24h0L514.65,670.51c-2.66,5.33-8,8-14.65,8-5.33,0-10.66-2.66-14.65-8L356.13,444.05h0c-2.66-5.33-8-12-8-22.64-1.33-9.33,1.33-17.32,5.33-25.32s10.65-14.65,20-17.31C381.44,373.45,390.77,373.45,396.09,373.45Zm87.92,32H396.09c-5.32,0-8,0-9.32,1.33a10.42,10.42,0,0,0-5.33,5.33c-1.33,1.33-1.33,4-1.33,6.66,0,1.33,1.33,2.67,4,8h0L484,599.91Zm32,0V601.24L617.23,426.73c1.33-2.66,1.33-5.32,1.33-8s0-5.33-1.33-6.66-1.34-2.66-2.67-2.66l-1.33-1.34c-2.66-1.33-5.33-1.33-9.32-1.33H516Z"/></svg>