<svg width="100%" height="100%" viewBox="0 0 16 13" fill="none" xmlns="http://www.w3.org/2000/svg">
<path d="M15.385 2.20525C14.8268 2.44647 14.2271 2.60946 13.5966 2.68313C14.2471 2.30356 14.7338 1.70615 14.9659 1.00238C14.3547 1.35639 13.6858 1.60557 12.9882 1.7391C12.5192 1.25069 11.8979 0.926968 11.2208 0.818187C10.5437 0.709407 9.84872 0.821654 9.24376 1.1375C8.6388 1.45335 8.1577 1.95513 7.87515 2.56493C7.5926 3.17474 7.52441 3.85845 7.68116 4.50992C6.44277 4.44928 5.23129 4.1354 4.12534 3.58864C3.0194 3.04188 2.04371 2.27446 1.26159 1.33619C0.994166 1.78604 0.840396 2.3076 0.840396 2.86307C0.840098 3.36312 0.966376 3.85551 1.20803 4.29655C1.44968 4.7376 1.79923 5.11366 2.22566 5.39137C1.73111 5.37602 1.24747 5.24571 0.814991 5.01127V5.05039C0.814941 5.75173 1.06372 6.43149 1.51911 6.97432C1.97451 7.51715 2.60847 7.88962 3.31342 8.02854C2.85464 8.14962 2.37364 8.16745 1.90676 8.08069C2.10566 8.68415 2.49309 9.21186 3.01482 9.58993C3.53655 9.968 4.16646 10.1775 4.81636 10.1891C3.71311 11.0337 2.35061 11.4918 0.948035 11.4898C0.699583 11.4898 0.451342 11.4757 0.20459 11.4474C1.62829 12.34 3.28557 12.8138 4.97815 12.812C10.7078 12.812 13.84 8.18435 13.84 4.1709C13.84 4.04051 13.8366 3.90881 13.8306 3.77842C14.4399 3.34876 14.9658 2.81671 15.3837 2.2072L15.385 2.20525Z" fill="currentColor"/>
</svg>
