<svg width="100%" height="100%" viewBox="0 0 512 512" fill="none" xmlns="http://www.w3.org/2000/svg">
<path d="M256 488C384.13 488 488 384.13 488 256C488 127.87 384.13 24 256 24C127.87 24 24 127.87 24 256C24 384.13 127.87 488 256 488Z" fill="#42A5F5"/>
<path d="M256 496C123.68 496 16 388.32 16 256C16 123.68 123.68 16 256 16C388.32 16 496 123.68 496 256C496 388.32 388.32 496 256 496ZM256 32C132.48 32 32 132.48 32 256C32 379.52 132.48 480 256 480C379.52 480 480 379.52 480 256C480 132.48 379.52 32 256 32Z" fill="#455A64"/>
<path d="M275.52 344H236.48C212 344 192 324 192 299.52V296C192 291.52 195.52 288 200 288C204.48 288 208 291.52 208 296V299.52C208 315.2 220.8 328 236.48 328H275.52C291.2 328 304 315.2 304 299.52C304 286.88 295.52 275.68 283.36 272.16L224.32 255.36C205.28 249.76 192 232.16 192 212.48C192 188 212 168 236.48 168H275.52C300 168 320 188 320 212.48V216C320 220.48 316.48 224 312 224C307.52 224 304 220.48 304 216V212.48C304 196.8 291.2 184 275.52 184H236.48C220.8 184 208 196.8 208 212.48C208 225.12 216.48 236.32 228.64 239.84L287.68 256.64C306.72 262.08 320 279.68 320 299.36C320 324 300 344 275.52 344Z" fill="white"/>
<path d="M256 376C251.52 376 248 372.48 248 368V336C248 331.52 251.52 328 256 328C260.48 328 264 331.52 264 336V368C264 372.48 260.48 376 256 376Z" fill="white"/>
<path d="M256 184C251.52 184 248 180.48 248 176V144C248 139.52 251.52 136 256 136C260.48 136 264 139.52 264 144V176C264 180.48 260.48 184 256 184Z" fill="white"/>
<path d="M200 422.239C199.04 422.239 198.24 422.079 197.28 421.759C127.2 396.959 80 330.239 80 255.999C80 181.759 127.2 115.039 197.28 90.2392C201.44 88.7992 205.92 90.8792 207.52 95.0392C208.96 99.1992 206.88 103.839 202.72 105.279C138.88 127.839 96 188.479 96 255.999C96 323.519 138.88 384.159 202.72 406.719C206.88 408.159 209.12 412.799 207.52 416.959C206.4 420.159 203.36 422.239 200 422.239Z" fill="white"/>
<path d="M312 422.24C308.64 422.24 305.6 420.16 304.48 416.96C303.04 412.8 305.12 408.16 309.28 406.72C373.12 384.16 416 323.52 416 256C416 188.48 373.12 127.84 309.28 105.28C305.12 103.84 302.88 99.1996 304.48 95.0396C305.92 90.8796 310.56 88.6396 314.72 90.2396C384.8 115.04 432 181.76 432 256C432 330.24 384.8 396.96 314.72 421.76C313.76 422.08 312.96 422.24 312 422.24Z" fill="white"/>
</svg>
