<svg width="100%" height="100%" viewBox="0 0 172 75" fill="none" xmlns="http://www.w3.org/2000/svg">
<g clip-path="url(#clip0_11520_8327)">
<rect y="0.153076" width="73.7959" height="73.7959" rx="36.898" fill="#FAC248"/>
<path d="M56.7913 30.562H52.6253C50.3323 24.1972 44.1655 19.8318 36.0329 19.8318H22.6587V30.562H18.0139V34.4121H22.6587V38.4489H18.0139V42.2976H22.6587V52.8986H36.0329C44.0714 52.8986 50.1905 48.5697 52.5424 42.2976H56.7899V38.4475H53.479C53.5635 37.7566 53.6066 37.0613 53.6081 36.3652V36.2711C53.6081 35.6393 53.573 35.0187 53.5141 34.4107H56.8025V30.5606L56.7913 30.562ZM26.4035 23.2606H36.0329C42.0003 23.2606 46.4345 26.198 48.4831 30.5508H26.4035V23.2606ZM36.0329 49.4361H26.4035V42.2863H48.4593C46.4008 46.5689 41.9779 49.4361 36.0329 49.4361ZM49.7342 36.448C49.7353 37.1138 49.6884 37.7787 49.5938 38.4377H26.4035V34.4008H49.6064C49.6914 35.0489 49.7345 35.7018 49.7356 36.3554L49.7342 36.448Z" fill="white"/>
<g filter="url(#filter0_f_11520_8327)">
<rect x="38" y="0.14917" width="73.7959" height="73.7959" rx="36.898" fill="black"/>
</g>
</g>
<rect x="3" y="3.15308" width="67.7959" height="67.7959" rx="33.898" stroke="#7A5F23" stroke-width="6"/>
<g clip-path="url(#clip1_11520_8327)">
<rect x="48.7959" y="0.153076" width="73.7959" height="73.7959" rx="36.898" fill="#2775C9"/>
<path d="M86.1962 57.739C82.2442 57.739 78.381 56.5671 75.095 54.3715C71.8091 52.1759 69.248 49.0552 67.7356 45.4041C66.2233 41.7529 65.8276 37.7353 66.5985 33.8593C67.3695 29.9832 69.2726 26.4228 72.0671 23.6284C74.8616 20.8339 78.4219 18.9308 82.298 18.1598C86.174 17.3888 90.1917 17.7845 93.8428 19.2969C97.494 20.8093 100.615 23.3703 102.81 26.6563C105.006 29.9422 106.178 33.8055 106.178 37.7575C106.178 43.0569 104.073 48.1393 100.325 51.8866C96.578 55.6339 91.4956 57.739 86.1962 57.739ZM85.0058 30.343C83.9125 30.3972 82.879 30.8582 82.1081 31.6353C81.3373 32.4125 80.8848 33.4497 80.8394 34.5434C80.8394 36.6011 82.0978 37.9445 84.7677 38.5057L86.6383 38.9479C88.4579 39.373 89.2062 39.9852 89.2062 41.0225C89.2062 42.0599 87.8967 43.0802 86.1962 43.0802C85.5921 43.1356 84.9847 43.0198 84.4434 42.7462C83.9021 42.4725 83.4487 42.052 83.1352 41.5327C83.0423 41.3357 82.8956 41.1689 82.7121 41.0516C82.5286 40.9342 82.3157 40.8711 82.0978 40.8695H81.0945C81.0174 40.8838 80.9438 40.9132 80.878 40.956C80.8123 40.9989 80.7557 41.0543 80.7114 41.1191C80.6671 41.1839 80.6361 41.2568 80.6202 41.3336C80.6042 41.4104 80.6036 41.4897 80.6184 41.5667C80.8628 42.5642 81.431 43.4525 82.2341 44.0925C83.0373 44.7326 84.03 45.0882 85.0568 45.1039V46.5324C85.0568 46.8503 85.1831 47.1553 85.408 47.3801C85.6328 47.6049 85.9377 47.7313 86.2557 47.7313C86.5737 47.7313 86.8786 47.6049 87.1035 47.3801C87.3283 47.1553 87.4546 46.8503 87.4546 46.5324V45.0869C88.6157 45.0737 89.7258 44.6078 90.5485 43.7883C91.3712 42.9688 91.8414 41.8605 91.8591 40.6994C91.8591 38.5397 90.6176 37.2983 87.6757 36.6691L85.9751 36.295C84.2746 35.8698 83.4753 35.3087 83.4753 34.3563C83.4753 33.404 84.4956 32.3497 86.1962 32.3497C86.7318 32.2937 87.2721 32.394 87.7519 32.6385C88.2317 32.8829 88.6305 33.261 88.9001 33.7271C89.0094 33.9599 89.1824 34.157 89.3991 34.2954C89.6158 34.4339 89.8673 34.5081 90.1245 34.5094H90.9237C91.1055 34.4649 91.2625 34.351 91.3611 34.192C91.4596 34.033 91.4919 33.8417 91.4509 33.6591C91.2205 32.7382 90.7052 31.9135 89.9784 31.3027C89.2516 30.692 88.3505 30.3263 87.4036 30.258V29.0846C87.4036 28.7666 87.2773 28.4617 87.0524 28.2369C86.8276 28.012 86.5227 27.8857 86.2047 27.8857C85.8867 27.8857 85.5818 28.012 85.3569 28.2369C85.1321 28.4617 85.0058 28.7666 85.0058 29.0846V30.343ZM71.2143 37.7575C71.2162 40.89 72.2022 43.9428 74.0331 46.4846C75.8639 49.0264 78.4471 50.9288 81.4176 51.9231H81.6557C81.8587 51.9231 82.0533 51.8425 82.1968 51.699C82.3403 51.5555 82.4209 51.3608 82.4209 51.1579V50.8008C82.4215 50.4842 82.3281 50.1746 82.1525 49.9112C81.9769 49.6478 81.727 49.4425 81.4346 49.3213C79.1212 48.3875 77.1396 46.7837 75.7442 44.7156C74.3488 42.6476 73.6032 40.2097 73.6032 37.715C73.6032 35.2202 74.3488 32.7823 75.7442 30.7143C77.1396 28.6463 79.1212 27.0424 81.4346 26.1086C81.7257 25.9904 81.975 25.7881 82.1506 25.5277C82.3263 25.2672 82.4204 24.9603 82.4209 24.6461V24.255C82.422 24.1402 82.3954 24.0268 82.3434 23.9244C82.2913 23.822 82.2153 23.7337 82.1219 23.667C82.0284 23.6002 81.9203 23.557 81.8065 23.5409C81.6928 23.5249 81.5769 23.5365 81.4686 23.5748C78.4858 24.5613 75.8896 26.4625 74.0488 29.0085C72.208 31.5545 71.2162 34.6157 71.2143 37.7575ZM101.178 37.7575C101.173 34.6278 100.185 31.5788 98.3543 29.0404C96.5237 26.502 93.9426 24.6022 90.9748 23.6088H90.7197C90.5077 23.6088 90.3044 23.693 90.1545 23.8429C90.0046 23.9928 89.9204 24.1961 89.9204 24.4081V24.6632C89.9273 24.9911 90.0289 25.3101 90.2129 25.5817C90.397 25.8533 90.6556 26.0658 90.9578 26.1937C93.2659 27.1302 95.2421 28.7341 96.6335 30.8002C98.0249 32.8663 98.7681 35.3006 98.7681 37.7915C98.7681 40.2824 98.0249 42.7167 96.6335 44.7827C95.2421 46.8488 93.2659 48.4528 90.9578 49.3893C90.6614 49.5185 90.408 49.7295 90.2273 49.9975C90.0466 50.2656 89.946 50.5796 89.9374 50.9028V51.1919C89.9389 51.318 89.9701 51.4419 90.0286 51.5536C90.0871 51.6653 90.1712 51.7615 90.2741 51.8345C90.3769 51.9075 90.4955 51.9551 90.6202 51.9734C90.745 51.9918 90.8723 51.9804 90.9918 51.9401C93.9619 50.942 96.5433 49.0358 98.3712 46.4908C100.199 43.9459 101.181 40.8908 101.178 37.7575Z" fill="white"/>
<g filter="url(#filter1_f_11520_8327)">
<rect x="92" y="0.153076" width="73.7959" height="73.7959" rx="36.898" fill="black"/>
</g>
</g>
<rect x="51.7959" y="3.15308" width="67.7959" height="67.7959" rx="33.898" stroke="#1F5FA4" stroke-width="6"/>
<rect x="100.592" y="3.15308" width="67.7959" height="67.7959" rx="33.898" fill="#26A17B"/>
<rect x="100.592" y="3.15308" width="67.7959" height="67.7959" rx="33.898" stroke="#1C8B69" stroke-width="6"/>
<path fill-rule="evenodd" clip-rule="evenodd" d="M137.615 38.9107V38.9075C137.438 38.9203 136.528 38.9749 134.497 38.9749C132.875 38.9749 131.733 38.9268 131.331 38.9075V38.9123C125.088 38.6377 120.427 37.5505 120.427 36.2498C120.427 34.9506 125.088 33.8634 131.331 33.584V37.83C131.739 37.8589 132.908 37.9279 134.524 37.9279C136.462 37.9279 137.434 37.8476 137.615 37.8316V33.5872C143.846 33.8651 148.495 34.9522 148.495 36.2498C148.495 37.5505 143.846 38.6345 137.615 38.9107ZM137.615 33.1456V29.3461H146.309V23.5521H122.637V29.3461H131.331V33.144C124.265 33.4684 118.952 34.8687 118.952 36.5453C118.952 38.2218 124.265 39.6205 131.331 39.9465V52.1222H137.615V39.9433C144.67 39.6189 149.971 38.2202 149.971 36.5453C149.971 34.8703 144.67 33.4716 137.615 33.1456Z" fill="white"/>
<defs>
<filter id="filter0_f_11520_8327" x="18" y="-19.8508" width="113.796" height="113.796" filterUnits="userSpaceOnUse" color-interpolation-filters="sRGB">
<feFlood flood-opacity="0" result="BackgroundImageFix"/>
<feBlend mode="normal" in="SourceGraphic" in2="BackgroundImageFix" result="shape"/>
<feGaussianBlur stdDeviation="10" result="effect1_foregroundBlur_11520_8327"/>
</filter>
<filter id="filter1_f_11520_8327" x="72" y="-19.8469" width="113.796" height="113.796" filterUnits="userSpaceOnUse" color-interpolation-filters="sRGB">
<feFlood flood-opacity="0" result="BackgroundImageFix"/>
<feBlend mode="normal" in="SourceGraphic" in2="BackgroundImageFix" result="shape"/>
<feGaussianBlur stdDeviation="10" result="effect1_foregroundBlur_11520_8327"/>
</filter>
<clipPath id="clip0_11520_8327">
<rect y="0.153076" width="73.7959" height="73.7959" rx="36.898" fill="white"/>
</clipPath>
<clipPath id="clip1_11520_8327">
<rect x="48.7959" y="0.153076" width="73.7959" height="73.7959" rx="36.898" fill="white"/>
</clipPath>
</defs>
</svg>
