<svg width="100%" height="100%" viewBox="0 0 14 14" fill="none" xmlns="http://www.w3.org/2000/svg">
<mask id="path-1-outside-1_1_5293" maskUnits="userSpaceOnUse" x="0" y="0" width="14" height="14" fill="black">
<rect fill="white" width="14" height="14"/>
<path fill-rule="evenodd" clip-rule="evenodd" d="M6.82686 1.01712C6.60848 1.06938 6.39049 1.23529 6.11031 1.56237C6.01581 1.67271 5.996 1.68389 5.89511 1.68389C5.816 1.68389 5.75015 1.66229 5.66663 1.60895C5.43866 1.46344 5.28958 1.41885 5.0248 1.41698C4.80914 1.41547 4.76723 1.42294 4.65283 1.48334C4.41659 1.60803 4.23557 1.85591 4.14125 2.18385C4.04613 2.51456 3.97214 2.56813 3.6643 2.52925C3.43984 2.50088 3.14952 2.53209 2.99265 2.60149C2.62927 2.76223 2.45303 3.15037 2.51589 3.65154C2.53661 3.81683 2.535 3.87987 2.50837 3.94352C2.4605 4.05808 2.42246 4.08241 2.20398 4.13828C1.85495 4.22754 1.61164 4.38889 1.47536 4.62142C1.42168 4.713 1.40585 4.77837 1.39735 4.94335C1.38515 5.18043 1.43586 5.36892 1.58575 5.64371C1.70051 5.85413 1.70642 6.00379 1.60309 6.08307C1.56438 6.11277 1.4731 6.18235 1.40022 6.23769C1.147 6.43 0.999974 6.7185 1 7.02303C1 7.17781 1.01284 7.23333 1.0803 7.37035C1.1569 7.52594 1.25317 7.63111 1.56745 7.90252C1.71108 8.02655 1.7123 8.1309 1.57324 8.39103C1.39323 8.72778 1.34542 9.03375 1.43276 9.29009C1.52158 9.55078 1.81535 9.77322 2.19669 9.86852C2.41105 9.92209 2.4515 9.94626 2.50729 10.0541C2.53817 10.1139 2.53996 10.1643 2.51758 10.3444C2.44502 10.9285 2.65414 11.3098 3.12154 11.4456C3.2406 11.4802 3.33495 11.4863 3.5853 11.4755C3.87782 11.4629 3.90532 11.4658 3.9825 11.5176C4.03991 11.5561 4.07575 11.6084 4.09896 11.6876C4.25194 12.2098 4.45515 12.4738 4.7778 12.5697C5.02928 12.6443 5.2904 12.5991 5.61321 12.4249C5.90864 12.2655 5.99467 12.2813 6.19049 12.5305C6.42866 12.8337 6.71627 13.0016 6.99468 13C7.31475 12.9981 7.53538 12.8578 7.90566 12.4203C8.016 12.29 8.12724 12.2916 8.39453 12.4277C8.87572 12.6726 9.22295 12.6652 9.50887 12.4039C9.67037 12.2563 9.78434 12.0558 9.85812 11.7896C9.89031 11.6734 9.93577 11.5738 9.97404 11.5355C10.0356 11.4739 10.0461 11.4725 10.4537 11.471C10.8561 11.4694 10.8755 11.4669 11.0153 11.3982C11.3724 11.2229 11.5458 10.8223 11.4766 10.3329C11.4519 10.1581 11.453 10.1104 11.4831 10.0521C11.5365 9.94895 11.5666 9.93086 11.8264 9.84595C12.1036 9.75536 12.2496 9.67485 12.3885 9.53604C12.529 9.39546 12.5807 9.27527 12.5925 9.06102C12.6048 8.84001 12.5571 8.65793 12.4159 8.38568C12.3494 8.25746 12.3159 8.1593 12.3159 8.09258C12.3159 8.00345 12.3309 7.97925 12.4497 7.87602C12.9398 7.45045 13.0824 7.15397 12.9695 6.79496C12.9134 6.61688 12.7156 6.35261 12.5325 6.21137C12.4538 6.15071 12.3729 6.07741 12.3527 6.04853C12.2884 5.95669 12.3085 5.82056 12.4161 5.61922C12.4712 5.51613 12.5346 5.36925 12.5568 5.29281C12.6025 5.13607 12.6097 4.88627 12.5723 4.75588C12.5085 4.53331 12.2693 4.32102 11.9491 4.20293C11.8483 4.16573 11.7146 4.11602 11.652 4.09246C11.5766 4.06407 11.5219 4.02193 11.4902 3.96764C11.4467 3.89317 11.4451 3.86746 11.4725 3.6871C11.5904 2.90879 11.1163 2.42139 10.3426 2.52554C10.1808 2.54731 10.1212 2.54595 10.0566 2.51896C9.94649 2.47294 9.92738 2.4438 9.86119 2.22113C9.75336 1.85841 9.56515 1.59023 9.33626 1.47321C9.2084 1.40782 8.96812 1.38748 8.78137 1.42627C8.70229 1.44266 8.53559 1.50734 8.41093 1.56994C8.13261 1.7097 8.02092 1.71886 7.92009 1.61016C7.88249 1.56961 7.80835 1.47835 7.75537 1.40733C7.53533 1.11252 7.1336 0.943696 6.82686 1.01712ZM7.1324 1.58483C7.16724 1.60072 7.25627 1.68831 7.33028 1.77951C7.56853 2.07318 7.81589 2.22478 8.05681 2.22478C8.23441 2.22478 8.36498 2.18746 8.66028 2.05223C8.94576 1.9215 9.05411 1.91073 9.16288 2.00226C9.2173 2.04806 9.24585 2.10455 9.26954 2.21332C9.35603 2.61075 9.60565 2.93243 9.90203 3.02845C10.0255 3.06843 10.1166 3.0759 10.4205 3.07089C10.8345 3.06408 10.8917 3.08138 10.9288 3.22454C10.9405 3.26972 10.9399 3.37614 10.9276 3.46103C10.899 3.65725 10.9183 3.9669 10.9678 4.10927C11.0653 4.38905 11.2588 4.54661 11.6836 4.69187C11.8747 4.75723 11.9748 4.80584 12.0097 4.8502C12.089 4.95103 12.0744 5.08134 11.9597 5.2955C11.6541 5.8663 11.7329 6.27407 12.2262 6.67431C12.3432 6.76923 12.4034 6.83966 12.4323 6.91525C12.4909 7.06865 12.4486 7.15184 12.2264 7.32054C11.7292 7.69796 11.6468 8.12911 11.9599 8.71475C12.1146 9.00415 12.0862 9.15473 11.8583 9.25274C11.7882 9.2829 11.7157 9.30789 11.6972 9.30828C11.6226 9.30981 11.3078 9.46349 11.2026 9.54965C11.035 9.68701 10.9363 9.90556 10.9188 10.1784C10.9112 10.2975 10.9151 10.4643 10.9275 10.5492C10.9545 10.7343 10.928 10.8553 10.8507 10.8995C10.8116 10.9219 10.6692 10.9325 10.3972 10.9334C10.0476 10.9346 9.98335 10.9415 9.85431 10.9925C9.58116 11.1004 9.37645 11.3724 9.28067 11.7546C9.2271 11.9684 9.13943 12.0705 9.00957 12.0705C8.96088 12.0705 8.79994 12.0157 8.64307 11.9456C8.28831 11.7871 8.11813 11.7498 7.92895 11.789C7.75043 11.8261 7.5407 11.9778 7.34095 12.2144C7.17543 12.4104 7.11797 12.4521 7.01134 12.4534C6.89345 12.4548 6.78567 12.3849 6.64931 12.2185C6.49111 12.0254 6.27053 11.8591 6.11471 11.8154C6.04285 11.7953 5.92187 11.7872 5.80526 11.7947C5.6404 11.8053 5.57611 11.8253 5.34275 11.9388C5.19367 12.0112 5.03903 12.0705 4.99907 12.0705C4.882 12.0705 4.78102 11.963 4.70417 11.7566C4.52783 11.2829 4.41956 11.1187 4.21408 11.0132C4.07215 10.9403 3.84709 10.9124 3.54967 10.9307C3.31556 10.9451 3.24971 10.9411 3.18652 10.9084C3.14405 10.8865 3.09997 10.854 3.08851 10.8363C3.07707 10.8187 3.0672 10.6257 3.06653 10.4076C3.06556 10.0683 3.05776 9.99218 3.01258 9.87982C2.90019 9.60033 2.6964 9.43136 2.33456 9.31767C2.04933 9.22807 2.00791 9.20638 1.96547 9.12428C1.90842 9.01397 1.92234 8.91264 2.01856 8.73757C2.20544 8.39758 2.25801 8.09225 2.17175 7.84775C2.11669 7.69174 1.95332 7.48552 1.76163 7.33011C1.56103 7.16747 1.48914 7.02372 1.54793 6.90287C1.56771 6.86219 1.66431 6.76168 1.76257 6.67948C2.26408 6.26008 2.3386 5.87375 2.02948 5.2955C1.9172 5.08549 1.90558 4.98487 1.97954 4.86356C2.01917 4.7986 2.06059 4.77281 2.17773 4.74032C2.54206 4.6392 2.76606 4.51102 2.90242 4.32563C3.04256 4.13506 3.06403 4.039 3.06595 3.59403L3.06771 3.18895L3.13835 3.12814C3.20675 3.06925 3.22141 3.06748 3.59884 3.07273C3.93305 3.07739 4.00819 3.07094 4.12526 3.02752C4.39024 2.92926 4.5275 2.7501 4.68222 2.30043C4.81538 1.91352 4.94452 1.85772 5.28506 2.04008C5.5449 2.17922 5.73647 2.23018 5.94387 2.21529C6.20312 2.19667 6.3756 2.09145 6.64709 1.78622C6.72847 1.69476 6.8198 1.60593 6.85009 1.58885C6.92001 1.5494 7.05053 1.54755 7.1324 1.58483ZM6.40628 3.23088C5.57069 3.37184 4.86071 3.73927 4.27545 4.33358C3.56307 5.05699 3.18283 5.9867 3.18283 7.00513C3.18283 8.81102 4.4268 10.3476 6.20944 10.7435C6.57804 10.8254 7.22687 10.8376 7.62146 10.7701C8.423 10.633 9.12919 10.2664 9.69698 9.69261C10.229 9.15491 10.5673 8.53181 10.7366 7.77729C10.7839 7.5669 10.7923 7.45052 10.7923 7.00513C10.7923 6.55973 10.7839 6.44335 10.7366 6.23296C10.6567 5.87667 10.5674 5.62426 10.4081 5.30386C9.86941 4.2203 8.83031 3.44721 7.63812 3.24301C7.30002 3.18509 6.71202 3.17931 6.40628 3.23088ZM7.68542 3.80455C8.32272 3.94984 8.83443 4.23335 9.30044 4.69937C9.77534 5.17426 10.0662 5.70833 10.2079 6.36555C10.2734 6.66961 10.2734 7.34064 10.2079 7.6447C10.0662 8.30192 9.77534 8.83599 9.30044 9.31089C8.82568 9.78565 8.29263 10.076 7.63426 10.2185C7.31166 10.2883 6.63215 10.283 6.3139 10.2081C5.65084 10.0521 5.15817 9.7801 4.68892 9.31089C4.21403 8.83599 3.92318 8.30192 3.7815 7.6447C3.71596 7.34064 3.71596 6.66961 3.7815 6.36555C3.92453 5.70204 4.20835 5.18168 4.68979 4.70024C5.06579 4.32424 5.42492 4.09257 5.89178 3.92487C6.08618 3.85503 6.44281 3.76858 6.62373 3.74745C6.84502 3.72159 7.46858 3.75513 7.68542 3.80455ZM7.48841 6.678L6.45849 7.70676L5.97828 7.23123C5.62198 6.87839 5.47695 6.75111 5.41614 6.73794C5.23369 6.69839 5.05077 6.88123 5.09004 7.06389C5.10332 7.12554 5.24778 7.28723 5.67384 7.71717C5.98521 8.03141 6.27107 8.30481 6.30906 8.32477C6.34708 8.3447 6.4216 8.36102 6.47469 8.36102C6.56778 8.36102 6.61163 8.32073 7.70658 7.22898C8.37941 6.55814 8.85702 6.06217 8.87894 6.01159C8.95444 5.8374 8.82146 5.64923 8.62288 5.64923C8.51935 5.64923 8.50832 5.65924 7.48841 6.678Z"/>
</mask>
<path fill-rule="evenodd" clip-rule="evenodd" d="M6.82686 1.01712C6.60848 1.06938 6.39049 1.23529 6.11031 1.56237C6.01581 1.67271 5.996 1.68389 5.89511 1.68389C5.816 1.68389 5.75015 1.66229 5.66663 1.60895C5.43866 1.46344 5.28958 1.41885 5.0248 1.41698C4.80914 1.41547 4.76723 1.42294 4.65283 1.48334C4.41659 1.60803 4.23557 1.85591 4.14125 2.18385C4.04613 2.51456 3.97214 2.56813 3.6643 2.52925C3.43984 2.50088 3.14952 2.53209 2.99265 2.60149C2.62927 2.76223 2.45303 3.15037 2.51589 3.65154C2.53661 3.81683 2.535 3.87987 2.50837 3.94352C2.4605 4.05808 2.42246 4.08241 2.20398 4.13828C1.85495 4.22754 1.61164 4.38889 1.47536 4.62142C1.42168 4.713 1.40585 4.77837 1.39735 4.94335C1.38515 5.18043 1.43586 5.36892 1.58575 5.64371C1.70051 5.85413 1.70642 6.00379 1.60309 6.08307C1.56438 6.11277 1.4731 6.18235 1.40022 6.23769C1.147 6.43 0.999974 6.7185 1 7.02303C1 7.17781 1.01284 7.23333 1.0803 7.37035C1.1569 7.52594 1.25317 7.63111 1.56745 7.90252C1.71108 8.02655 1.7123 8.1309 1.57324 8.39103C1.39323 8.72778 1.34542 9.03375 1.43276 9.29009C1.52158 9.55078 1.81535 9.77322 2.19669 9.86852C2.41105 9.92209 2.4515 9.94626 2.50729 10.0541C2.53817 10.1139 2.53996 10.1643 2.51758 10.3444C2.44502 10.9285 2.65414 11.3098 3.12154 11.4456C3.2406 11.4802 3.33495 11.4863 3.5853 11.4755C3.87782 11.4629 3.90532 11.4658 3.9825 11.5176C4.03991 11.5561 4.07575 11.6084 4.09896 11.6876C4.25194 12.2098 4.45515 12.4738 4.7778 12.5697C5.02928 12.6443 5.2904 12.5991 5.61321 12.4249C5.90864 12.2655 5.99467 12.2813 6.19049 12.5305C6.42866 12.8337 6.71627 13.0016 6.99468 13C7.31475 12.9981 7.53538 12.8578 7.90566 12.4203C8.016 12.29 8.12724 12.2916 8.39453 12.4277C8.87572 12.6726 9.22295 12.6652 9.50887 12.4039C9.67037 12.2563 9.78434 12.0558 9.85812 11.7896C9.89031 11.6734 9.93577 11.5738 9.97404 11.5355C10.0356 11.4739 10.0461 11.4725 10.4537 11.471C10.8561 11.4694 10.8755 11.4669 11.0153 11.3982C11.3724 11.2229 11.5458 10.8223 11.4766 10.3329C11.4519 10.1581 11.453 10.1104 11.4831 10.0521C11.5365 9.94895 11.5666 9.93086 11.8264 9.84595C12.1036 9.75536 12.2496 9.67485 12.3885 9.53604C12.529 9.39546 12.5807 9.27527 12.5925 9.06102C12.6048 8.84001 12.5571 8.65793 12.4159 8.38568C12.3494 8.25746 12.3159 8.1593 12.3159 8.09258C12.3159 8.00345 12.3309 7.97925 12.4497 7.87602C12.9398 7.45045 13.0824 7.15397 12.9695 6.79496C12.9134 6.61688 12.7156 6.35261 12.5325 6.21137C12.4538 6.15071 12.3729 6.07741 12.3527 6.04853C12.2884 5.95669 12.3085 5.82056 12.4161 5.61922C12.4712 5.51613 12.5346 5.36925 12.5568 5.29281C12.6025 5.13607 12.6097 4.88627 12.5723 4.75588C12.5085 4.53331 12.2693 4.32102 11.9491 4.20293C11.8483 4.16573 11.7146 4.11602 11.652 4.09246C11.5766 4.06407 11.5219 4.02193 11.4902 3.96764C11.4467 3.89317 11.4451 3.86746 11.4725 3.6871C11.5904 2.90879 11.1163 2.42139 10.3426 2.52554C10.1808 2.54731 10.1212 2.54595 10.0566 2.51896C9.94649 2.47294 9.92738 2.4438 9.86119 2.22113C9.75336 1.85841 9.56515 1.59023 9.33626 1.47321C9.2084 1.40782 8.96812 1.38748 8.78137 1.42627C8.70229 1.44266 8.53559 1.50734 8.41093 1.56994C8.13261 1.7097 8.02092 1.71886 7.92009 1.61016C7.88249 1.56961 7.80835 1.47835 7.75537 1.40733C7.53533 1.11252 7.1336 0.943696 6.82686 1.01712ZM7.1324 1.58483C7.16724 1.60072 7.25627 1.68831 7.33028 1.77951C7.56853 2.07318 7.81589 2.22478 8.05681 2.22478C8.23441 2.22478 8.36498 2.18746 8.66028 2.05223C8.94576 1.9215 9.05411 1.91073 9.16288 2.00226C9.2173 2.04806 9.24585 2.10455 9.26954 2.21332C9.35603 2.61075 9.60565 2.93243 9.90203 3.02845C10.0255 3.06843 10.1166 3.0759 10.4205 3.07089C10.8345 3.06408 10.8917 3.08138 10.9288 3.22454C10.9405 3.26972 10.9399 3.37614 10.9276 3.46103C10.899 3.65725 10.9183 3.9669 10.9678 4.10927C11.0653 4.38905 11.2588 4.54661 11.6836 4.69187C11.8747 4.75723 11.9748 4.80584 12.0097 4.8502C12.089 4.95103 12.0744 5.08134 11.9597 5.2955C11.6541 5.8663 11.7329 6.27407 12.2262 6.67431C12.3432 6.76923 12.4034 6.83966 12.4323 6.91525C12.4909 7.06865 12.4486 7.15184 12.2264 7.32054C11.7292 7.69796 11.6468 8.12911 11.9599 8.71475C12.1146 9.00415 12.0862 9.15473 11.8583 9.25274C11.7882 9.2829 11.7157 9.30789 11.6972 9.30828C11.6226 9.30981 11.3078 9.46349 11.2026 9.54965C11.035 9.68701 10.9363 9.90556 10.9188 10.1784C10.9112 10.2975 10.9151 10.4643 10.9275 10.5492C10.9545 10.7343 10.928 10.8553 10.8507 10.8995C10.8116 10.9219 10.6692 10.9325 10.3972 10.9334C10.0476 10.9346 9.98335 10.9415 9.85431 10.9925C9.58116 11.1004 9.37645 11.3724 9.28067 11.7546C9.2271 11.9684 9.13943 12.0705 9.00957 12.0705C8.96088 12.0705 8.79994 12.0157 8.64307 11.9456C8.28831 11.7871 8.11813 11.7498 7.92895 11.789C7.75043 11.8261 7.5407 11.9778 7.34095 12.2144C7.17543 12.4104 7.11797 12.4521 7.01134 12.4534C6.89345 12.4548 6.78567 12.3849 6.64931 12.2185C6.49111 12.0254 6.27053 11.8591 6.11471 11.8154C6.04285 11.7953 5.92187 11.7872 5.80526 11.7947C5.6404 11.8053 5.57611 11.8253 5.34275 11.9388C5.19367 12.0112 5.03903 12.0705 4.99907 12.0705C4.882 12.0705 4.78102 11.963 4.70417 11.7566C4.52783 11.2829 4.41956 11.1187 4.21408 11.0132C4.07215 10.9403 3.84709 10.9124 3.54967 10.9307C3.31556 10.9451 3.24971 10.9411 3.18652 10.9084C3.14405 10.8865 3.09997 10.854 3.08851 10.8363C3.07707 10.8187 3.0672 10.6257 3.06653 10.4076C3.06556 10.0683 3.05776 9.99218 3.01258 9.87982C2.90019 9.60033 2.6964 9.43136 2.33456 9.31767C2.04933 9.22807 2.00791 9.20638 1.96547 9.12428C1.90842 9.01397 1.92234 8.91264 2.01856 8.73757C2.20544 8.39758 2.25801 8.09225 2.17175 7.84775C2.11669 7.69174 1.95332 7.48552 1.76163 7.33011C1.56103 7.16747 1.48914 7.02372 1.54793 6.90287C1.56771 6.86219 1.66431 6.76168 1.76257 6.67948C2.26408 6.26008 2.3386 5.87375 2.02948 5.2955C1.9172 5.08549 1.90558 4.98487 1.97954 4.86356C2.01917 4.7986 2.06059 4.77281 2.17773 4.74032C2.54206 4.6392 2.76606 4.51102 2.90242 4.32563C3.04256 4.13506 3.06403 4.039 3.06595 3.59403L3.06771 3.18895L3.13835 3.12814C3.20675 3.06925 3.22141 3.06748 3.59884 3.07273C3.93305 3.07739 4.00819 3.07094 4.12526 3.02752C4.39024 2.92926 4.5275 2.7501 4.68222 2.30043C4.81538 1.91352 4.94452 1.85772 5.28506 2.04008C5.5449 2.17922 5.73647 2.23018 5.94387 2.21529C6.20312 2.19667 6.3756 2.09145 6.64709 1.78622C6.72847 1.69476 6.8198 1.60593 6.85009 1.58885C6.92001 1.5494 7.05053 1.54755 7.1324 1.58483ZM6.40628 3.23088C5.57069 3.37184 4.86071 3.73927 4.27545 4.33358C3.56307 5.05699 3.18283 5.9867 3.18283 7.00513C3.18283 8.81102 4.4268 10.3476 6.20944 10.7435C6.57804 10.8254 7.22687 10.8376 7.62146 10.7701C8.423 10.633 9.12919 10.2664 9.69698 9.69261C10.229 9.15491 10.5673 8.53181 10.7366 7.77729C10.7839 7.5669 10.7923 7.45052 10.7923 7.00513C10.7923 6.55973 10.7839 6.44335 10.7366 6.23296C10.6567 5.87667 10.5674 5.62426 10.4081 5.30386C9.86941 4.2203 8.83031 3.44721 7.63812 3.24301C7.30002 3.18509 6.71202 3.17931 6.40628 3.23088ZM7.68542 3.80455C8.32272 3.94984 8.83443 4.23335 9.30044 4.69937C9.77534 5.17426 10.0662 5.70833 10.2079 6.36555C10.2734 6.66961 10.2734 7.34064 10.2079 7.6447C10.0662 8.30192 9.77534 8.83599 9.30044 9.31089C8.82568 9.78565 8.29263 10.076 7.63426 10.2185C7.31166 10.2883 6.63215 10.283 6.3139 10.2081C5.65084 10.0521 5.15817 9.7801 4.68892 9.31089C4.21403 8.83599 3.92318 8.30192 3.7815 7.6447C3.71596 7.34064 3.71596 6.66961 3.7815 6.36555C3.92453 5.70204 4.20835 5.18168 4.68979 4.70024C5.06579 4.32424 5.42492 4.09257 5.89178 3.92487C6.08618 3.85503 6.44281 3.76858 6.62373 3.74745C6.84502 3.72159 7.46858 3.75513 7.68542 3.80455ZM7.48841 6.678L6.45849 7.70676L5.97828 7.23123C5.62198 6.87839 5.47695 6.75111 5.41614 6.73794C5.23369 6.69839 5.05077 6.88123 5.09004 7.06389C5.10332 7.12554 5.24778 7.28723 5.67384 7.71717C5.98521 8.03141 6.27107 8.30481 6.30906 8.32477C6.34708 8.3447 6.4216 8.36102 6.47469 8.36102C6.56778 8.36102 6.61163 8.32073 7.70658 7.22898C8.37941 6.55814 8.85702 6.06217 8.87894 6.01159C8.95444 5.8374 8.82146 5.64923 8.62288 5.64923C8.51935 5.64923 8.50832 5.65924 7.48841 6.678Z" fill="url(#paint0_linear_1_5293)"/>
<path fill-rule="evenodd" clip-rule="evenodd" d="M6.82686 1.01712C6.60848 1.06938 6.39049 1.23529 6.11031 1.56237C6.01581 1.67271 5.996 1.68389 5.89511 1.68389C5.816 1.68389 5.75015 1.66229 5.66663 1.60895C5.43866 1.46344 5.28958 1.41885 5.0248 1.41698C4.80914 1.41547 4.76723 1.42294 4.65283 1.48334C4.41659 1.60803 4.23557 1.85591 4.14125 2.18385C4.04613 2.51456 3.97214 2.56813 3.6643 2.52925C3.43984 2.50088 3.14952 2.53209 2.99265 2.60149C2.62927 2.76223 2.45303 3.15037 2.51589 3.65154C2.53661 3.81683 2.535 3.87987 2.50837 3.94352C2.4605 4.05808 2.42246 4.08241 2.20398 4.13828C1.85495 4.22754 1.61164 4.38889 1.47536 4.62142C1.42168 4.713 1.40585 4.77837 1.39735 4.94335C1.38515 5.18043 1.43586 5.36892 1.58575 5.64371C1.70051 5.85413 1.70642 6.00379 1.60309 6.08307C1.56438 6.11277 1.4731 6.18235 1.40022 6.23769C1.147 6.43 0.999974 6.7185 1 7.02303C1 7.17781 1.01284 7.23333 1.0803 7.37035C1.1569 7.52594 1.25317 7.63111 1.56745 7.90252C1.71108 8.02655 1.7123 8.1309 1.57324 8.39103C1.39323 8.72778 1.34542 9.03375 1.43276 9.29009C1.52158 9.55078 1.81535 9.77322 2.19669 9.86852C2.41105 9.92209 2.4515 9.94626 2.50729 10.0541C2.53817 10.1139 2.53996 10.1643 2.51758 10.3444C2.44502 10.9285 2.65414 11.3098 3.12154 11.4456C3.2406 11.4802 3.33495 11.4863 3.5853 11.4755C3.87782 11.4629 3.90532 11.4658 3.9825 11.5176C4.03991 11.5561 4.07575 11.6084 4.09896 11.6876C4.25194 12.2098 4.45515 12.4738 4.7778 12.5697C5.02928 12.6443 5.2904 12.5991 5.61321 12.4249C5.90864 12.2655 5.99467 12.2813 6.19049 12.5305C6.42866 12.8337 6.71627 13.0016 6.99468 13C7.31475 12.9981 7.53538 12.8578 7.90566 12.4203C8.016 12.29 8.12724 12.2916 8.39453 12.4277C8.87572 12.6726 9.22295 12.6652 9.50887 12.4039C9.67037 12.2563 9.78434 12.0558 9.85812 11.7896C9.89031 11.6734 9.93577 11.5738 9.97404 11.5355C10.0356 11.4739 10.0461 11.4725 10.4537 11.471C10.8561 11.4694 10.8755 11.4669 11.0153 11.3982C11.3724 11.2229 11.5458 10.8223 11.4766 10.3329C11.4519 10.1581 11.453 10.1104 11.4831 10.0521C11.5365 9.94895 11.5666 9.93086 11.8264 9.84595C12.1036 9.75536 12.2496 9.67485 12.3885 9.53604C12.529 9.39546 12.5807 9.27527 12.5925 9.06102C12.6048 8.84001 12.5571 8.65793 12.4159 8.38568C12.3494 8.25746 12.3159 8.1593 12.3159 8.09258C12.3159 8.00345 12.3309 7.97925 12.4497 7.87602C12.9398 7.45045 13.0824 7.15397 12.9695 6.79496C12.9134 6.61688 12.7156 6.35261 12.5325 6.21137C12.4538 6.15071 12.3729 6.07741 12.3527 6.04853C12.2884 5.95669 12.3085 5.82056 12.4161 5.61922C12.4712 5.51613 12.5346 5.36925 12.5568 5.29281C12.6025 5.13607 12.6097 4.88627 12.5723 4.75588C12.5085 4.53331 12.2693 4.32102 11.9491 4.20293C11.8483 4.16573 11.7146 4.11602 11.652 4.09246C11.5766 4.06407 11.5219 4.02193 11.4902 3.96764C11.4467 3.89317 11.4451 3.86746 11.4725 3.6871C11.5904 2.90879 11.1163 2.42139 10.3426 2.52554C10.1808 2.54731 10.1212 2.54595 10.0566 2.51896C9.94649 2.47294 9.92738 2.4438 9.86119 2.22113C9.75336 1.85841 9.56515 1.59023 9.33626 1.47321C9.2084 1.40782 8.96812 1.38748 8.78137 1.42627C8.70229 1.44266 8.53559 1.50734 8.41093 1.56994C8.13261 1.7097 8.02092 1.71886 7.92009 1.61016C7.88249 1.56961 7.80835 1.47835 7.75537 1.40733C7.53533 1.11252 7.1336 0.943696 6.82686 1.01712ZM7.1324 1.58483C7.16724 1.60072 7.25627 1.68831 7.33028 1.77951C7.56853 2.07318 7.81589 2.22478 8.05681 2.22478C8.23441 2.22478 8.36498 2.18746 8.66028 2.05223C8.94576 1.9215 9.05411 1.91073 9.16288 2.00226C9.2173 2.04806 9.24585 2.10455 9.26954 2.21332C9.35603 2.61075 9.60565 2.93243 9.90203 3.02845C10.0255 3.06843 10.1166 3.0759 10.4205 3.07089C10.8345 3.06408 10.8917 3.08138 10.9288 3.22454C10.9405 3.26972 10.9399 3.37614 10.9276 3.46103C10.899 3.65725 10.9183 3.9669 10.9678 4.10927C11.0653 4.38905 11.2588 4.54661 11.6836 4.69187C11.8747 4.75723 11.9748 4.80584 12.0097 4.8502C12.089 4.95103 12.0744 5.08134 11.9597 5.2955C11.6541 5.8663 11.7329 6.27407 12.2262 6.67431C12.3432 6.76923 12.4034 6.83966 12.4323 6.91525C12.4909 7.06865 12.4486 7.15184 12.2264 7.32054C11.7292 7.69796 11.6468 8.12911 11.9599 8.71475C12.1146 9.00415 12.0862 9.15473 11.8583 9.25274C11.7882 9.2829 11.7157 9.30789 11.6972 9.30828C11.6226 9.30981 11.3078 9.46349 11.2026 9.54965C11.035 9.68701 10.9363 9.90556 10.9188 10.1784C10.9112 10.2975 10.9151 10.4643 10.9275 10.5492C10.9545 10.7343 10.928 10.8553 10.8507 10.8995C10.8116 10.9219 10.6692 10.9325 10.3972 10.9334C10.0476 10.9346 9.98335 10.9415 9.85431 10.9925C9.58116 11.1004 9.37645 11.3724 9.28067 11.7546C9.2271 11.9684 9.13943 12.0705 9.00957 12.0705C8.96088 12.0705 8.79994 12.0157 8.64307 11.9456C8.28831 11.7871 8.11813 11.7498 7.92895 11.789C7.75043 11.8261 7.5407 11.9778 7.34095 12.2144C7.17543 12.4104 7.11797 12.4521 7.01134 12.4534C6.89345 12.4548 6.78567 12.3849 6.64931 12.2185C6.49111 12.0254 6.27053 11.8591 6.11471 11.8154C6.04285 11.7953 5.92187 11.7872 5.80526 11.7947C5.6404 11.8053 5.57611 11.8253 5.34275 11.9388C5.19367 12.0112 5.03903 12.0705 4.99907 12.0705C4.882 12.0705 4.78102 11.963 4.70417 11.7566C4.52783 11.2829 4.41956 11.1187 4.21408 11.0132C4.07215 10.9403 3.84709 10.9124 3.54967 10.9307C3.31556 10.9451 3.24971 10.9411 3.18652 10.9084C3.14405 10.8865 3.09997 10.854 3.08851 10.8363C3.07707 10.8187 3.0672 10.6257 3.06653 10.4076C3.06556 10.0683 3.05776 9.99218 3.01258 9.87982C2.90019 9.60033 2.6964 9.43136 2.33456 9.31767C2.04933 9.22807 2.00791 9.20638 1.96547 9.12428C1.90842 9.01397 1.92234 8.91264 2.01856 8.73757C2.20544 8.39758 2.25801 8.09225 2.17175 7.84775C2.11669 7.69174 1.95332 7.48552 1.76163 7.33011C1.56103 7.16747 1.48914 7.02372 1.54793 6.90287C1.56771 6.86219 1.66431 6.76168 1.76257 6.67948C2.26408 6.26008 2.3386 5.87375 2.02948 5.2955C1.9172 5.08549 1.90558 4.98487 1.97954 4.86356C2.01917 4.7986 2.06059 4.77281 2.17773 4.74032C2.54206 4.6392 2.76606 4.51102 2.90242 4.32563C3.04256 4.13506 3.06403 4.039 3.06595 3.59403L3.06771 3.18895L3.13835 3.12814C3.20675 3.06925 3.22141 3.06748 3.59884 3.07273C3.93305 3.07739 4.00819 3.07094 4.12526 3.02752C4.39024 2.92926 4.5275 2.7501 4.68222 2.30043C4.81538 1.91352 4.94452 1.85772 5.28506 2.04008C5.5449 2.17922 5.73647 2.23018 5.94387 2.21529C6.20312 2.19667 6.3756 2.09145 6.64709 1.78622C6.72847 1.69476 6.8198 1.60593 6.85009 1.58885C6.92001 1.5494 7.05053 1.54755 7.1324 1.58483ZM6.40628 3.23088C5.57069 3.37184 4.86071 3.73927 4.27545 4.33358C3.56307 5.05699 3.18283 5.9867 3.18283 7.00513C3.18283 8.81102 4.4268 10.3476 6.20944 10.7435C6.57804 10.8254 7.22687 10.8376 7.62146 10.7701C8.423 10.633 9.12919 10.2664 9.69698 9.69261C10.229 9.15491 10.5673 8.53181 10.7366 7.77729C10.7839 7.5669 10.7923 7.45052 10.7923 7.00513C10.7923 6.55973 10.7839 6.44335 10.7366 6.23296C10.6567 5.87667 10.5674 5.62426 10.4081 5.30386C9.86941 4.2203 8.83031 3.44721 7.63812 3.24301C7.30002 3.18509 6.71202 3.17931 6.40628 3.23088ZM7.68542 3.80455C8.32272 3.94984 8.83443 4.23335 9.30044 4.69937C9.77534 5.17426 10.0662 5.70833 10.2079 6.36555C10.2734 6.66961 10.2734 7.34064 10.2079 7.6447C10.0662 8.30192 9.77534 8.83599 9.30044 9.31089C8.82568 9.78565 8.29263 10.076 7.63426 10.2185C7.31166 10.2883 6.63215 10.283 6.3139 10.2081C5.65084 10.0521 5.15817 9.7801 4.68892 9.31089C4.21403 8.83599 3.92318 8.30192 3.7815 7.6447C3.71596 7.34064 3.71596 6.66961 3.7815 6.36555C3.92453 5.70204 4.20835 5.18168 4.68979 4.70024C5.06579 4.32424 5.42492 4.09257 5.89178 3.92487C6.08618 3.85503 6.44281 3.76858 6.62373 3.74745C6.84502 3.72159 7.46858 3.75513 7.68542 3.80455ZM7.48841 6.678L6.45849 7.70676L5.97828 7.23123C5.62198 6.87839 5.47695 6.75111 5.41614 6.73794C5.23369 6.69839 5.05077 6.88123 5.09004 7.06389C5.10332 7.12554 5.24778 7.28723 5.67384 7.71717C5.98521 8.03141 6.27107 8.30481 6.30906 8.32477C6.34708 8.3447 6.4216 8.36102 6.47469 8.36102C6.56778 8.36102 6.61163 8.32073 7.70658 7.22898C8.37941 6.55814 8.85702 6.06217 8.87894 6.01159C8.95444 5.8374 8.82146 5.64923 8.62288 5.64923C8.51935 5.64923 8.50832 5.65924 7.48841 6.678Z" stroke="url(#paint1_linear_1_5293)" stroke-width="0.6" mask="url(#path-1-outside-1_1_5293)"/>
<defs>
<linearGradient id="paint0_linear_1_5293" x1="1" y1="1" x2="15.3918" y2="8.28998" gradientUnits="userSpaceOnUse">
<stop stop-color="#FC466B"/>
<stop offset="1" stop-color="#3F5EFB"/>
</linearGradient>
<linearGradient id="paint1_linear_1_5293" x1="1" y1="1" x2="15.3918" y2="8.28998" gradientUnits="userSpaceOnUse">
<stop stop-color="#FC466B"/>
<stop offset="1" stop-color="#3F5EFB"/>
</linearGradient>
</defs>
</svg>
