<svg width="100%" height="100%" viewBox="0 0 62 62" fill="none" xmlns="http://www.w3.org/2000/svg">
<path d="M31.0271 61.5406C47.8436 61.5406 61.4761 47.9081 61.4761 31.0916C61.4761 14.2751 47.8436 0.642578 31.0271 0.642578C14.2106 0.642578 0.578125 14.2751 0.578125 31.0916C0.578125 47.9081 14.2106 61.5406 31.0271 61.5406Z" fill="#136AAD"/>
<path fill-rule="evenodd" clip-rule="evenodd" d="M13.9004 21.7471L18.9751 23.8984V35.9883L31.0273 28.7812L43.1963 35.9883V23.9004L48.1553 21.749V44.5361L31.0273 34.4219L13.9004 44.5361V21.7471ZM14.4775 20.8164L31.0273 11.1094L47.6943 20.8164L43.1943 22.6768L31.0254 15.6426L18.9731 22.6768L14.4775 20.8164ZM18.0522 43.3164L21.8013 41.165L31.0854 46.541L40.2534 41.165L44.1172 43.3164L31.0854 51.0762L18.0522 43.3164Z" fill="white"/>
</svg>
