<svg width="100%" height="100%" viewBox="0 0 28 28" fill="none" xmlns="http://www.w3.org/2000/svg">
<path d="M14.0907 0.916993C11.4626 0.916399 8.89293 1.69551 6.70744 3.15527C4.52194 4.61504 2.81845 6.69016 1.81242 9.11816C0.806385 11.5462 0.543485 14.2182 1.05607 16.7959C1.56866 19.3736 2.8339 21.7412 4.6923 23.5996C6.5507 25.458 8.91831 26.7237 11.496 27.2363C14.0737 27.7489 16.7457 27.4855 19.1737 26.4795C21.6017 25.4735 23.6769 23.7695 25.1366 21.584C26.5964 19.3985 27.375 16.8293 27.3744 14.2012C27.3739 10.6782 25.9744 7.29971 23.4833 4.80859C20.9922 2.31748 17.6137 0.917523 14.0907 0.916993ZM17.1767 22.0039L13.0126 15.9404L7.79777 22H6.4506L12.4135 15.0664L6.4506 6.38184H11.0009L14.9457 12.1211L19.8827 6.38184H21.2299L15.5404 12.9961L21.7275 21.9961L17.1767 22.0039Z" fill="currentColor"/>
</svg>
