<svg width="100%" height="100%" viewBox="0 0 19 18" fill="none" xmlns="http://www.w3.org/2000/svg">
<path d="M0.0986043 0.807482H2.53239C3.50922 0.807482 4.48617 0.807482 5.463 0.807482C5.50958 0.803536 5.5565 0.812605 5.59818 0.83364C5.63986 0.854676 5.67448 0.886865 5.69871 0.926555C6.42134 1.88985 7.15504 2.8452 7.88166 3.80353C8.64526 4.81213 9.40638 5.82204 10.1646 6.83328C10.1876 6.86404 10.2086 6.89778 10.2476 6.95532C10.3675 6.83131 10.4784 6.72021 10.5844 6.60513C10.7842 6.39282 10.9721 6.17554 11.17 5.96523C11.6078 5.49697 12.0484 5.03171 12.4872 4.56444C12.734 4.30155 12.9792 4.03668 13.2251 3.77081L14.4002 2.51187C14.6474 2.24731 14.8931 1.98278 15.1376 1.71823C15.3935 1.44342 15.6478 1.16564 15.9107 0.896795C15.9673 0.84317 16.0414 0.811461 16.1196 0.807482C16.5713 0.799546 17.019 0.807482 17.4768 0.807482H17.6276C17.6179 0.831952 17.6054 0.855258 17.5905 0.876934C17.2556 1.23209 16.918 1.58527 16.5832 1.94142C16.1894 2.35941 15.797 2.77906 15.4065 3.20036C15.1637 3.46028 14.9227 3.72118 14.6799 3.9811C14.2741 4.41562 13.8666 4.84917 13.4608 5.2837C13.2219 5.53965 12.9852 5.79856 12.7453 6.05451L11.1739 7.74103C11.1129 7.8075 11.0591 7.88189 10.9992 7.95728L18.4953 17.9077C18.4313 17.9127 18.3894 17.9186 18.3474 17.9186C16.5943 17.9186 14.841 17.9186 13.0889 17.9186C13.0495 17.9196 13.0105 17.91 12.9762 17.8908C12.9419 17.8716 12.9137 17.8435 12.8942 17.8095L11.6946 16.2093C11.2149 15.5724 10.7346 14.9355 10.2535 14.2986C9.75573 13.6372 9.25847 12.9758 8.76206 12.3145C8.50619 11.9732 8.24964 11.6325 7.99244 11.2926C7.97229 11.2711 7.95029 11.2516 7.92656 11.2341C7.71167 11.4583 7.49901 11.6756 7.29212 11.8978C7.1432 12.0565 7.00621 12.2251 6.85729 12.3839C6.50847 12.7549 6.15743 13.121 5.80462 13.491C5.41482 13.9057 5.027 14.3234 4.63921 14.7391C4.394 15.0036 4.14834 15.2681 3.9018 15.5327L2.72614 16.7916C2.46463 17.0387 2.22114 17.3039 1.99752 17.5853C1.90868 17.7129 1.7844 17.8122 1.63979 17.871C1.49518 17.9298 1.33652 17.9457 1.183 17.9166C0.815192 17.8978 0.445736 17.9166 0.0439453 17.9166C0.128901 17.8105 0.189619 17.7182 0.262581 17.6448C0.604403 17.2807 0.951472 16.9226 1.29329 16.5535C1.82635 15.9841 2.35901 15.4127 2.89207 14.8392C3.11795 14.5982 3.34018 14.3531 3.56506 14.1121C3.97818 13.6703 4.39166 13.2288 4.80611 12.7877C5.03099 12.5466 5.25324 12.3025 5.47813 12.0615L6.70844 10.748C6.83438 10.614 6.95933 10.4811 7.08227 10.3512C7.14124 10.2857 7.19481 10.2242 7.11985 10.1269C6.82533 9.74731 6.53289 9.36438 6.24238 8.97814C5.73131 8.30155 5.22148 7.6243 4.71241 6.94639C4.18069 6.24203 3.64487 5.53865 3.11315 4.83329C2.55544 4.09222 2.0018 3.3452 1.44409 2.60611C1.03031 2.05651 0.612458 1.50989 0.197674 0.961281C0.172687 0.917631 0.143581 0.871967 0.0986043 0.807482ZM16.0463 16.6914L15.8916 16.4851C15.3359 15.7423 14.7791 15 14.2221 14.2579C13.6314 13.4722 13.0349 12.6904 12.4432 11.9047C11.8516 11.119 11.2441 10.3095 10.6444 9.51286C10.0227 8.68747 9.39594 7.86504 8.77426 7.03964C8.15258 6.21424 7.53799 5.38488 6.91732 4.55948C6.3083 3.74996 5.69792 2.94142 5.08624 2.13388C5.0595 2.09005 5.02102 2.05422 4.97546 2.03012C4.9299 2.00603 4.87866 1.99456 4.8271 1.99697C4.11847 2.0059 3.40891 1.99697 2.70028 1.99697H2.54557C2.55364 2.02754 2.56472 2.05716 2.57925 2.08528C2.8671 2.46425 3.15813 2.84322 3.44598 3.22318C3.89375 3.81445 4.34065 4.4067 4.78708 4.99996L6.28044 6.98408C6.72821 7.57932 7.17621 8.1716 7.62398 8.76088C8.0904 9.38125 8.55673 10.0026 9.02315 10.625C9.46992 11.2202 9.92241 11.8085 10.3672 12.4007C10.8649 13.0621 11.3619 13.7235 11.8576 14.3849C12.3574 15.0545 12.8569 15.7262 13.3656 16.3938C13.4816 16.5466 13.5658 16.7371 13.8346 16.6914C14.0496 16.6717 14.2659 16.6694 14.4812 16.6845L16.0463 16.6914Z" fill="currentColor"/>
</svg>
