<svg width="100%" height="100%" viewBox="0 0 16 12" fill="none" xmlns="http://www.w3.org/2000/svg">
<path d="M15.4034 2.17479C15.3179 1.85627 15.1502 1.5658 14.9171 1.33245C14.6841 1.0991 14.3938 0.931059 14.0754 0.845134C12.9034 0.529907 8.20514 0.529907 8.20514 0.529907C8.20514 0.529907 3.50693 0.529907 2.33489 0.843457C2.01634 0.929103 1.72594 1.09706 1.49284 1.33045C1.25974 1.56384 1.09215 1.85446 1.00691 2.17311C0.693359 3.34683 0.693359 5.79486 0.693359 5.79486C0.693359 5.79486 0.693359 8.2429 1.00691 9.41494C1.17961 10.0622 1.68934 10.5719 2.33489 10.7446C3.50693 11.0598 8.20514 11.0598 8.20514 11.0598C8.20514 11.0598 12.9034 11.0598 14.0754 10.7446C14.7226 10.5719 15.2307 10.0622 15.4034 9.41494C15.7169 8.2429 15.7169 5.79486 15.7169 5.79486C15.7169 5.79486 15.7169 3.34683 15.4034 2.17479ZM6.71285 8.04169V3.54804L10.6029 5.7781L6.71285 8.04169Z" fill="currentColor"/>
</svg>
